<?xml version="1.0" encoding="UTF-8"?>
<svg xmlns="http://www.w3.org/2000/svg" xmlns:xlink="http://www.w3.org/1999/xlink" width="24px" height="24px" viewBox="0 0 24 24" version="1.1">
<g id="surface1">
<path style=" stroke:none;fill-rule:nonzero;fill:rgb(16.078432%,64.705884%,81.960785%);fill-opacity:1;" d="M 0.75 0 C 8.175781 0 15.601562 0 23.25 0 C 23.25 0.269531 23.246094 0.507812 23.214844 0.769531 C 23.210938 0.804688 23.207031 0.835938 23.203125 0.871094 C 23.191406 0.976562 23.179688 1.085938 23.167969 1.195312 C 23.160156 1.273438 23.148438 1.351562 23.140625 1.429688 C 23.117188 1.644531 23.089844 1.863281 23.066406 2.078125 C 23.039062 2.3125 23.011719 2.542969 22.984375 2.777344 C 22.925781 3.285156 22.867188 3.792969 22.808594 4.304688 C 22.773438 4.621094 22.738281 4.9375 22.699219 5.253906 C 22.597656 6.136719 22.496094 7.015625 22.394531 7.894531 C 22.390625 7.949219 22.382812 8.003906 22.375 8.0625 C 22.363281 8.175781 22.347656 8.292969 22.335938 8.40625 C 22.328125 8.460938 22.324219 8.519531 22.316406 8.578125 C 22.308594 8.632812 22.304688 8.691406 22.296875 8.75 C 22.191406 9.667969 22.085938 10.585938 21.980469 11.507812 C 21.871094 12.449219 21.761719 13.394531 21.652344 14.335938 C 21.589844 14.867188 21.53125 15.398438 21.46875 15.925781 C 21.417969 16.378906 21.367188 16.828125 21.3125 17.277344 C 21.285156 17.507812 21.261719 17.738281 21.234375 17.96875 C 21.210938 18.179688 21.1875 18.390625 21.160156 18.601562 C 21.152344 18.675781 21.144531 18.753906 21.136719 18.828125 C 21.125 18.933594 21.109375 19.035156 21.097656 19.140625 C 21.09375 19.199219 21.085938 19.253906 21.078125 19.3125 C 21.046875 19.460938 21.023438 19.507812 20.90625 19.59375 C 20.789062 19.660156 20.675781 19.71875 20.558594 19.777344 C 20.519531 19.796875 20.484375 19.816406 20.449219 19.832031 C 20.328125 19.894531 20.207031 19.953125 20.085938 20.015625 C 20 20.058594 19.914062 20.101562 19.828125 20.144531 C 19.59375 20.265625 19.355469 20.382812 19.121094 20.5 C 18.976562 20.574219 18.828125 20.644531 18.679688 20.71875 C 18.167969 20.976562 17.65625 21.234375 17.144531 21.488281 C 16.667969 21.726562 16.191406 21.96875 15.714844 22.207031 C 15.304688 22.414062 14.894531 22.621094 14.484375 22.824219 C 14.242188 22.945312 13.996094 23.070312 13.75 23.191406 C 13.519531 23.308594 13.292969 23.425781 13.0625 23.539062 C 12.976562 23.582031 12.890625 23.625 12.808594 23.667969 C 12.691406 23.726562 12.578125 23.78125 12.460938 23.839844 C 12.429688 23.855469 12.394531 23.875 12.359375 23.890625 C 12.15625 23.992188 12.03125 24.023438 11.8125 23.953125 C 11.6875 23.898438 11.566406 23.84375 11.445312 23.785156 C 11.410156 23.765625 11.371094 23.746094 11.335938 23.730469 C 11.214844 23.671875 11.09375 23.609375 10.972656 23.550781 C 10.886719 23.507812 10.800781 23.464844 10.714844 23.421875 C 10.429688 23.28125 10.144531 23.140625 9.859375 23 C 9.761719 22.953125 9.664062 22.902344 9.566406 22.855469 C 9.160156 22.652344 8.753906 22.453125 8.347656 22.25 C 7.765625 21.960938 7.183594 21.671875 6.597656 21.382812 C 6.1875 21.183594 5.777344 20.980469 5.367188 20.773438 C 5.125 20.652344 4.878906 20.53125 4.632812 20.410156 C 4.402344 20.296875 4.171875 20.183594 3.941406 20.066406 C 3.859375 20.027344 3.773438 19.984375 3.6875 19.941406 C 3.574219 19.886719 3.457031 19.828125 3.34375 19.769531 C 3.292969 19.746094 3.292969 19.746094 3.242188 19.722656 C 3.105469 19.652344 3.019531 19.597656 2.960938 19.453125 C 2.933594 19.328125 2.917969 19.207031 2.90625 19.078125 C 2.898438 19.027344 2.894531 18.980469 2.886719 18.929688 C 2.863281 18.753906 2.84375 18.578125 2.824219 18.402344 C 2.816406 18.335938 2.808594 18.269531 2.800781 18.199219 C 2.777344 18.015625 2.757812 17.832031 2.734375 17.644531 C 2.714844 17.445312 2.691406 17.246094 2.667969 17.046875 C 2.628906 16.699219 2.585938 16.355469 2.546875 16.007812 C 2.488281 15.503906 2.433594 15.003906 2.375 14.5 C 2.28125 13.679688 2.183594 12.863281 2.089844 12.042969 C 2 11.253906 1.910156 10.464844 1.816406 9.671875 C 1.8125 9.625 1.808594 9.578125 1.800781 9.527344 C 1.765625 9.234375 1.734375 8.941406 1.699219 8.652344 C 1.652344 8.222656 1.601562 7.792969 1.550781 7.367188 C 1.546875 7.320312 1.542969 7.273438 1.535156 7.226562 C 1.460938 6.589844 1.390625 5.957031 1.316406 5.320312 C 1.300781 5.191406 1.285156 5.0625 1.273438 4.933594 C 1.230469 4.566406 1.1875 4.195312 1.144531 3.828125 C 1.066406 3.140625 0.988281 2.453125 0.90625 1.769531 C 0.894531 1.671875 0.882812 1.574219 0.871094 1.480469 C 0.851562 1.3125 0.832031 1.148438 0.8125 0.980469 C 0.800781 0.910156 0.792969 0.839844 0.785156 0.769531 C 0.777344 0.710938 0.773438 0.652344 0.765625 0.59375 C 0.746094 0.398438 0.75 0.199219 0.75 0 Z M 0.75 0 "/>
<path style=" stroke:none;fill-rule:nonzero;fill:rgb(84.313726%,84.705883%,85.09804%);fill-opacity:1;" d="M 4.125 3 C 9.324219 3 14.519531 3 19.875 3 C 19.875 5.15625 19.875 5.15625 19.542969 5.621094 C 19.304688 5.8125 19.035156 5.890625 18.742188 5.960938 C 18.535156 6.019531 18.363281 6.121094 18.175781 6.226562 C 18.101562 6.265625 18.03125 6.304688 17.957031 6.34375 C 17.921875 6.363281 17.882812 6.382812 17.84375 6.402344 C 17.601562 6.53125 17.355469 6.652344 17.109375 6.773438 C 16.757812 6.949219 16.40625 7.125 16.0625 7.308594 C 15.667969 7.519531 15.265625 7.71875 14.867188 7.917969 C 14.476562 8.113281 14.089844 8.308594 13.707031 8.515625 C 13.421875 8.664062 13.132812 8.808594 12.84375 8.953125 C 14.933594 8.96875 17.019531 8.984375 19.171875 9 C 19.171875 9.476562 19.171875 9.476562 19.148438 9.675781 C 19.144531 9.722656 19.136719 9.769531 19.132812 9.816406 C 19.128906 9.867188 19.121094 9.914062 19.117188 9.964844 C 19.105469 10.046875 19.105469 10.046875 19.097656 10.125 C 19.078125 10.300781 19.058594 10.476562 19.039062 10.652344 C 19.023438 10.777344 19.011719 10.898438 18.996094 11.023438 C 18.964844 11.285156 18.9375 11.546875 18.90625 11.808594 C 18.875 12.070312 18.847656 12.335938 18.816406 12.597656 C 18.8125 12.628906 18.808594 12.660156 18.804688 12.695312 C 18.789062 12.855469 18.769531 13.015625 18.753906 13.175781 C 18.714844 13.496094 18.679688 13.8125 18.636719 14.132812 C 18.558594 14.722656 18.507812 15.289062 18.539062 15.886719 C 18.5625 16.46875 18.582031 17.078125 18.234375 17.578125 C 17.5 18.316406 16.414062 18.722656 15.472656 19.128906 C 15.101562 19.292969 14.734375 19.46875 14.367188 19.644531 C 13.824219 19.902344 13.28125 20.15625 12.730469 20.394531 C 12.671875 20.421875 12.613281 20.449219 12.554688 20.476562 C 12.476562 20.511719 12.394531 20.546875 12.3125 20.582031 C 12.269531 20.601562 12.222656 20.621094 12.175781 20.640625 C 11.933594 20.699219 11.726562 20.5625 11.507812 20.457031 C 11.457031 20.429688 11.410156 20.40625 11.355469 20.378906 C 11.304688 20.351562 11.25 20.324219 11.191406 20.296875 C 11.136719 20.269531 11.078125 20.238281 11.019531 20.210938 C 10.863281 20.132812 10.703125 20.054688 10.546875 19.976562 C 10.382812 19.894531 10.21875 19.8125 10.054688 19.730469 C 9.777344 19.589844 9.503906 19.453125 9.226562 19.316406 C 8.90625 19.15625 8.585938 18.996094 8.269531 18.835938 C 7.992188 18.699219 7.71875 18.5625 7.445312 18.425781 C 7.28125 18.34375 7.117188 18.261719 6.953125 18.179688 C 6.800781 18.101562 6.648438 18.023438 6.492188 17.949219 C 6.410156 17.90625 6.328125 17.863281 6.242188 17.824219 C 6.191406 17.796875 6.144531 17.773438 6.09375 17.746094 C 6.050781 17.726562 6.007812 17.703125 5.960938 17.683594 C 5.859375 17.625 5.859375 17.625 5.765625 17.53125 C 5.746094 17.433594 5.746094 17.433594 5.730469 17.3125 C 5.726562 17.265625 5.722656 17.21875 5.714844 17.171875 C 5.710938 17.125 5.707031 17.074219 5.699219 17.023438 C 5.695312 16.96875 5.6875 16.917969 5.683594 16.863281 C 5.664062 16.695312 5.644531 16.527344 5.628906 16.359375 C 5.617188 16.25 5.605469 16.140625 5.59375 16.03125 C 5.574219 15.867188 5.554688 15.707031 5.539062 15.542969 C 5.507812 15.261719 5.476562 14.984375 5.445312 14.703125 C 5.4375 14.648438 5.429688 14.59375 5.425781 14.539062 C 5.410156 14.433594 5.398438 14.328125 5.386719 14.222656 C 5.378906 14.175781 5.375 14.128906 5.371094 14.082031 C 5.363281 14.039062 5.359375 14 5.355469 13.957031 C 5.34375 13.804688 5.34375 13.652344 5.34375 13.5 C 6.332031 13.5 7.324219 13.5 8.34375 13.5 C 8.410156 13.871094 8.46875 14.234375 8.515625 14.609375 C 8.519531 14.65625 8.527344 14.707031 8.53125 14.757812 C 8.566406 15.042969 8.585938 15.320312 8.578125 15.609375 C 8.636719 15.625 8.636719 15.625 8.695312 15.644531 C 8.886719 15.714844 9.0625 15.800781 9.242188 15.894531 C 9.28125 15.914062 9.316406 15.933594 9.355469 15.953125 C 9.433594 15.996094 9.511719 16.035156 9.59375 16.078125 C 9.714844 16.140625 9.839844 16.203125 9.960938 16.265625 C 10.300781 16.441406 10.640625 16.617188 10.980469 16.792969 C 11.066406 16.839844 11.152344 16.882812 11.238281 16.925781 C 11.339844 16.980469 11.441406 17.03125 11.539062 17.085938 C 11.585938 17.109375 11.628906 17.128906 11.675781 17.152344 C 11.714844 17.175781 11.753906 17.195312 11.792969 17.214844 C 12.074219 17.304688 12.324219 17.148438 12.574219 17.019531 C 12.628906 16.992188 12.628906 16.992188 12.683594 16.964844 C 12.804688 16.90625 12.921875 16.84375 13.039062 16.785156 C 13.121094 16.742188 13.203125 16.703125 13.285156 16.660156 C 13.785156 16.40625 14.285156 16.152344 14.777344 15.886719 C 14.898438 15.820312 15.023438 15.757812 15.144531 15.695312 C 15.195312 15.671875 15.195312 15.671875 15.246094 15.644531 C 15.328125 15.609375 15.328125 15.609375 15.421875 15.609375 C 15.4375 15.347656 15.453125 15.082031 15.46875 14.8125 C 15.578125 13.882812 15.683594 12.957031 15.796875 12 C 12.285156 12 8.773438 12 5.15625 12 C 5.105469 11.894531 5.09375 11.820312 5.082031 11.703125 C 5.074219 11.640625 5.074219 11.640625 5.066406 11.578125 C 5.0625 11.535156 5.058594 11.488281 5.050781 11.441406 C 5.046875 11.394531 5.042969 11.351562 5.035156 11.300781 C 5.023438 11.203125 5.015625 11.105469 5.003906 11.007812 C 4.988281 10.859375 4.96875 10.707031 4.953125 10.558594 C 4.941406 10.464844 4.929688 10.367188 4.921875 10.273438 C 4.914062 10.226562 4.910156 10.183594 4.902344 10.136719 C 4.898438 10.09375 4.894531 10.054688 4.890625 10.011719 C 4.886719 9.972656 4.882812 9.9375 4.878906 9.898438 C 4.875 9.789062 4.882812 9.710938 4.921875 9.609375 C 5.035156 9.535156 5.148438 9.476562 5.269531 9.414062 C 5.304688 9.398438 5.339844 9.378906 5.378906 9.359375 C 5.496094 9.300781 5.617188 9.242188 5.734375 9.179688 C 5.820312 9.140625 5.902344 9.097656 5.988281 9.054688 C 6.160156 8.96875 6.328125 8.882812 6.5 8.796875 C 6.824219 8.632812 7.148438 8.46875 7.472656 8.300781 C 7.640625 8.214844 7.808594 8.128906 7.972656 8.042969 C 8.007812 8.023438 8.042969 8.007812 8.078125 7.988281 C 8.554688 7.746094 9.03125 7.5 9.507812 7.253906 C 10.292969 6.851562 11.074219 6.449219 11.859375 6.046875 C 8.191406 6.023438 8.191406 6.023438 4.453125 6 C 4.394531 5.648438 4.339844 5.300781 4.300781 4.945312 C 4.292969 4.878906 4.292969 4.878906 4.285156 4.8125 C 4.273438 4.71875 4.261719 4.625 4.253906 4.535156 C 4.234375 4.394531 4.21875 4.253906 4.203125 4.113281 C 4.195312 4.023438 4.183594 3.933594 4.171875 3.84375 C 4.167969 3.800781 4.164062 3.761719 4.160156 3.71875 C 4.152344 3.679688 4.148438 3.636719 4.144531 3.597656 C 4.140625 3.5625 4.136719 3.53125 4.132812 3.496094 C 4.121094 3.332031 4.125 3.164062 4.125 3 Z M 4.125 3 "/>
<path style=" stroke:none;fill-rule:nonzero;fill:rgb(12.54902%,55.29412%,72.156864%);fill-opacity:1;" d="M 12 0 C 15.710938 0 19.425781 0 23.25 0 C 23.25 0.269531 23.246094 0.507812 23.214844 0.769531 C 23.210938 0.804688 23.207031 0.835938 23.203125 0.871094 C 23.191406 0.976562 23.179688 1.085938 23.167969 1.195312 C 23.160156 1.273438 23.148438 1.351562 23.140625 1.429688 C 23.117188 1.644531 23.089844 1.863281 23.066406 2.078125 C 23.039062 2.3125 23.011719 2.542969 22.984375 2.777344 C 22.925781 3.285156 22.867188 3.792969 22.808594 4.304688 C 22.773438 4.621094 22.738281 4.9375 22.699219 5.253906 C 22.597656 6.136719 22.496094 7.015625 22.394531 7.894531 C 22.390625 7.949219 22.382812 8.003906 22.375 8.0625 C 22.363281 8.175781 22.347656 8.292969 22.335938 8.40625 C 22.328125 8.460938 22.324219 8.519531 22.316406 8.578125 C 22.308594 8.632812 22.304688 8.691406 22.296875 8.75 C 22.191406 9.667969 22.085938 10.585938 21.980469 11.507812 C 21.871094 12.449219 21.761719 13.394531 21.652344 14.335938 C 21.589844 14.867188 21.53125 15.398438 21.46875 15.925781 C 21.417969 16.378906 21.367188 16.828125 21.3125 17.277344 C 21.285156 17.507812 21.261719 17.738281 21.234375 17.96875 C 21.210938 18.179688 21.1875 18.390625 21.160156 18.601562 C 21.152344 18.675781 21.144531 18.753906 21.136719 18.828125 C 21.125 18.933594 21.109375 19.035156 21.097656 19.140625 C 21.09375 19.199219 21.085938 19.253906 21.078125 19.3125 C 21.046875 19.460938 21.023438 19.507812 20.90625 19.59375 C 20.789062 19.660156 20.675781 19.71875 20.554688 19.777344 C 20.519531 19.796875 20.484375 19.8125 20.445312 19.832031 C 20.324219 19.894531 20.203125 19.953125 20.082031 20.015625 C 19.996094 20.058594 19.910156 20.101562 19.824219 20.144531 C 19.585938 20.261719 19.351562 20.378906 19.117188 20.496094 C 18.871094 20.621094 18.621094 20.742188 18.375 20.867188 C 17.964844 21.074219 17.550781 21.28125 17.136719 21.488281 C 16.65625 21.726562 16.179688 21.964844 15.699219 22.203125 C 15.238281 22.433594 14.78125 22.664062 14.320312 22.894531 C 14.125 22.992188 13.925781 23.089844 13.730469 23.1875 C 13.5 23.304688 13.269531 23.417969 13.039062 23.535156 C 12.953125 23.574219 12.871094 23.617188 12.785156 23.660156 C 12.667969 23.71875 12.554688 23.777344 12.4375 23.832031 C 12.40625 23.851562 12.371094 23.867188 12.335938 23.886719 C 12.105469 24 12.105469 24 12 24 C 12 22.902344 12 21.804688 12 20.671875 C 13.023438 20.132812 13.023438 20.132812 13.472656 19.910156 C 13.523438 19.882812 13.574219 19.859375 13.628906 19.832031 C 13.765625 19.761719 13.902344 19.695312 14.039062 19.625 C 14.125 19.582031 14.210938 19.539062 14.296875 19.496094 C 14.59375 19.347656 14.894531 19.195312 15.195312 19.046875 C 15.476562 18.90625 15.753906 18.765625 16.03125 18.628906 C 16.273438 18.507812 16.515625 18.386719 16.753906 18.265625 C 16.898438 18.195312 17.042969 18.121094 17.1875 18.050781 C 17.34375 17.96875 17.503906 17.890625 17.664062 17.8125 C 17.710938 17.789062 17.757812 17.765625 17.804688 17.738281 C 17.847656 17.71875 17.890625 17.695312 17.9375 17.675781 C 17.992188 17.648438 17.992188 17.648438 18.050781 17.617188 C 18.140625 17.578125 18.140625 17.578125 18.234375 17.578125 C 18.234375 17.523438 18.234375 17.472656 18.230469 17.414062 C 18.230469 17.210938 18.25 17.011719 18.273438 16.804688 C 18.28125 16.769531 18.285156 16.730469 18.289062 16.691406 C 18.300781 16.566406 18.316406 16.4375 18.332031 16.3125 C 18.34375 16.222656 18.351562 16.132812 18.363281 16.042969 C 18.386719 15.847656 18.410156 15.65625 18.429688 15.460938 C 18.464844 15.160156 18.5 14.855469 18.535156 14.554688 C 18.570312 14.246094 18.609375 13.933594 18.644531 13.625 C 18.761719 12.605469 18.878906 11.589844 18.992188 10.570312 C 19.082031 9.792969 19.082031 9.792969 19.171875 9 C 17.050781 9 14.933594 9 12.75 9 C 12.90625 8.882812 13.039062 8.804688 13.210938 8.71875 C 13.292969 8.679688 13.292969 8.679688 13.375 8.636719 C 13.417969 8.617188 13.417969 8.617188 13.460938 8.59375 C 13.613281 8.523438 13.761719 8.445312 13.910156 8.371094 C 13.941406 8.359375 13.96875 8.34375 14 8.328125 C 14.234375 8.210938 14.464844 8.089844 14.695312 7.96875 C 15.085938 7.757812 15.484375 7.5625 15.882812 7.363281 C 16.261719 7.175781 16.636719 6.984375 17.007812 6.785156 C 17.371094 6.59375 17.742188 6.410156 18.109375 6.226562 C 18.46875 6.046875 18.828125 5.863281 19.183594 5.671875 C 19.230469 5.644531 19.230469 5.644531 19.28125 5.617188 C 19.324219 5.59375 19.324219 5.59375 19.371094 5.570312 C 19.453125 5.53125 19.453125 5.53125 19.640625 5.484375 C 19.65625 5.238281 19.671875 4.988281 19.6875 4.734375 C 19.75 4.160156 19.8125 3.589844 19.875 3 C 17.277344 3 14.675781 3 12 3 C 12 2.011719 12 1.019531 12 0 Z M 12 0 "/>
<path style=" stroke:none;fill-rule:nonzero;fill:rgb(99.607843%,99.607843%,99.607843%);fill-opacity:1;" d="M 4.125 3 C 6.722656 3 9.324219 3 12 3 C 12 5.96875 12 8.941406 12 12 C 9.742188 12 7.484375 12 5.15625 12 C 5.105469 11.894531 5.09375 11.820312 5.082031 11.703125 C 5.074219 11.640625 5.074219 11.640625 5.066406 11.578125 C 5.0625 11.535156 5.058594 11.488281 5.050781 11.441406 C 5.046875 11.394531 5.042969 11.351562 5.035156 11.300781 C 5.023438 11.203125 5.015625 11.105469 5.003906 11.007812 C 4.988281 10.859375 4.96875 10.707031 4.953125 10.558594 C 4.941406 10.464844 4.929688 10.367188 4.921875 10.273438 C 4.914062 10.226562 4.910156 10.183594 4.902344 10.136719 C 4.898438 10.09375 4.894531 10.054688 4.890625 10.011719 C 4.886719 9.972656 4.882812 9.9375 4.878906 9.898438 C 4.875 9.789062 4.882812 9.710938 4.921875 9.609375 C 5.035156 9.535156 5.148438 9.476562 5.269531 9.414062 C 5.304688 9.398438 5.339844 9.378906 5.378906 9.359375 C 5.496094 9.300781 5.617188 9.242188 5.734375 9.179688 C 5.820312 9.140625 5.902344 9.097656 5.988281 9.054688 C 6.160156 8.96875 6.328125 8.882812 6.5 8.796875 C 6.824219 8.632812 7.148438 8.46875 7.472656 8.300781 C 7.640625 8.214844 7.808594 8.128906 7.972656 8.042969 C 8.007812 8.023438 8.042969 8.007812 8.078125 7.988281 C 8.554688 7.746094 9.03125 7.5 9.507812 7.253906 C 10.292969 6.851562 11.074219 6.449219 11.859375 6.046875 C 8.191406 6.023438 8.191406 6.023438 4.453125 6 C 4.394531 5.648438 4.339844 5.300781 4.300781 4.945312 C 4.292969 4.878906 4.292969 4.878906 4.285156 4.8125 C 4.273438 4.71875 4.261719 4.625 4.253906 4.535156 C 4.234375 4.394531 4.21875 4.253906 4.203125 4.113281 C 4.195312 4.023438 4.183594 3.933594 4.171875 3.84375 C 4.167969 3.800781 4.164062 3.761719 4.160156 3.71875 C 4.152344 3.679688 4.148438 3.636719 4.144531 3.597656 C 4.140625 3.5625 4.136719 3.53125 4.132812 3.496094 C 4.121094 3.332031 4.125 3.164062 4.125 3 Z M 4.125 3 "/>
<path style=" stroke:none;fill-rule:nonzero;fill:rgb(99.215686%,99.607843%,99.607843%);fill-opacity:1;" d="M 5.34375 13.5 C 6.332031 13.5 7.324219 13.5 8.34375 13.5 C 8.410156 13.871094 8.46875 14.234375 8.515625 14.609375 C 8.523438 14.683594 8.523438 14.683594 8.53125 14.757812 C 8.566406 15.042969 8.585938 15.320312 8.578125 15.609375 C 8.617188 15.621094 8.65625 15.632812 8.695312 15.644531 C 8.886719 15.714844 9.0625 15.800781 9.242188 15.894531 C 9.28125 15.914062 9.316406 15.933594 9.355469 15.953125 C 9.476562 16.015625 9.59375 16.078125 9.714844 16.140625 C 9.878906 16.226562 10.042969 16.308594 10.210938 16.394531 C 10.25 16.417969 10.292969 16.4375 10.332031 16.457031 C 10.582031 16.585938 10.828125 16.710938 11.074219 16.835938 C 11.105469 16.847656 11.132812 16.863281 11.164062 16.878906 C 11.292969 16.941406 11.425781 17.007812 11.558594 17.074219 C 11.625 17.105469 11.625 17.105469 11.695312 17.140625 C 11.753906 17.167969 11.753906 17.167969 11.8125 17.199219 C 11.90625 17.25 11.90625 17.25 12 17.34375 C 12.011719 17.480469 12.011719 17.480469 12.011719 17.65625 C 12.011719 17.6875 12.011719 17.71875 12.011719 17.753906 C 12.011719 17.859375 12.011719 17.964844 12.007812 18.070312 C 12.007812 18.144531 12.007812 18.21875 12.007812 18.289062 C 12.007812 18.484375 12.007812 18.679688 12.007812 18.871094 C 12.003906 19.070312 12.003906 19.265625 12.003906 19.464844 C 12.003906 19.851562 12.003906 20.238281 12 20.625 C 11.820312 20.597656 11.675781 20.542969 11.515625 20.460938 C 11.464844 20.4375 11.414062 20.410156 11.363281 20.386719 C 11.28125 20.34375 11.28125 20.34375 11.199219 20.304688 C 11.140625 20.273438 11.082031 20.246094 11.023438 20.214844 C 10.867188 20.136719 10.710938 20.058594 10.550781 19.980469 C 10.386719 19.898438 10.222656 19.816406 10.058594 19.734375 C 9.78125 19.59375 9.503906 19.457031 9.230469 19.316406 C 8.910156 19.15625 8.589844 18.996094 8.269531 18.839844 C 7.964844 18.683594 7.65625 18.53125 7.347656 18.375 C 7.21875 18.3125 7.085938 18.246094 6.957031 18.179688 C 6.800781 18.101562 6.648438 18.027344 6.492188 17.949219 C 6.410156 17.90625 6.328125 17.867188 6.242188 17.824219 C 6.195312 17.796875 6.144531 17.773438 6.09375 17.75 C 6.050781 17.726562 6.007812 17.703125 5.960938 17.683594 C 5.859375 17.625 5.859375 17.625 5.765625 17.53125 C 5.746094 17.433594 5.746094 17.433594 5.730469 17.3125 C 5.726562 17.265625 5.722656 17.21875 5.714844 17.171875 C 5.710938 17.125 5.707031 17.074219 5.699219 17.023438 C 5.691406 16.941406 5.691406 16.941406 5.683594 16.863281 C 5.664062 16.695312 5.644531 16.527344 5.628906 16.359375 C 5.617188 16.25 5.605469 16.140625 5.59375 16.03125 C 5.574219 15.867188 5.554688 15.707031 5.539062 15.542969 C 5.507812 15.261719 5.476562 14.984375 5.445312 14.703125 C 5.4375 14.648438 5.429688 14.59375 5.425781 14.539062 C 5.410156 14.433594 5.398438 14.328125 5.386719 14.222656 C 5.378906 14.152344 5.378906 14.152344 5.371094 14.082031 C 5.363281 14.039062 5.359375 14 5.355469 13.957031 C 5.34375 13.804688 5.34375 13.652344 5.34375 13.5 Z M 5.34375 13.5 "/>
<path style=" stroke:none;fill-rule:nonzero;fill:rgb(12.54902%,55.29412%,72.156864%);fill-opacity:1;" d="M 12 12.046875 C 13.253906 12.046875 14.507812 12.046875 15.796875 12.046875 C 15.78125 12.277344 15.765625 12.511719 15.75 12.75 C 15.742188 12.914062 15.738281 13.082031 15.730469 13.246094 C 15.636719 15.386719 15.636719 15.386719 15.28125 15.804688 C 14.980469 16.078125 14.578125 16.183594 14.1875 16.269531 C 13.949219 16.328125 13.757812 16.433594 13.546875 16.558594 C 13.480469 16.59375 13.410156 16.632812 13.34375 16.667969 C 13.308594 16.683594 13.273438 16.703125 13.238281 16.722656 C 13.011719 16.839844 12.785156 16.953125 12.558594 17.070312 C 12.515625 17.089844 12.46875 17.113281 12.421875 17.136719 C 12.382812 17.160156 12.339844 17.179688 12.296875 17.199219 C 12.261719 17.21875 12.222656 17.238281 12.183594 17.257812 C 12.09375 17.296875 12.09375 17.296875 12 17.296875 C 12 15.5625 12 13.832031 12 12.046875 Z M 12 12.046875 "/>
</g>
</svg>
