<?xml version="1.0" encoding="UTF-8"?>
<svg xmlns="http://www.w3.org/2000/svg" xmlns:xlink="http://www.w3.org/1999/xlink" width="24px" height="px" viewBox="0 0 24 24" version="1.1">
<g id="surface1">
<path style=" stroke:none;fill-rule:nonzero;fill:rgb(0%,0%,0%);fill-opacity:1;" d="M 13.171875 2.453125 C 13.273438 2.511719 13.371094 2.570312 13.472656 2.628906 C 13.523438 2.660156 13.574219 2.691406 13.625 2.722656 C 13.878906 2.871094 14.132812 3.015625 14.382812 3.160156 C 14.488281 3.21875 14.589844 3.277344 14.691406 3.339844 C 14.742188 3.367188 14.792969 3.398438 14.847656 3.425781 C 15.101562 3.574219 15.355469 3.71875 15.609375 3.867188 C 15.710938 3.925781 15.8125 3.984375 15.914062 4.042969 C 16.523438 4.394531 17.132812 4.746094 17.742188 5.097656 C 17.792969 5.125 17.84375 5.15625 17.894531 5.1875 C 17.996094 5.242188 18.097656 5.300781 18.199219 5.359375 C 18.460938 5.511719 18.71875 5.660156 18.980469 5.8125 C 19.238281 5.960938 19.492188 6.105469 19.746094 6.253906 C 19.855469 6.316406 19.96875 6.378906 20.078125 6.441406 C 20.382812 6.621094 20.671875 6.804688 20.792969 7.152344 C 20.820312 7.316406 20.820312 7.480469 20.820312 7.644531 C 20.820312 7.703125 20.820312 7.703125 20.820312 7.761719 C 20.820312 7.890625 20.820312 8.019531 20.820312 8.152344 C 20.820312 8.242188 20.820312 8.335938 20.820312 8.429688 C 20.820312 8.679688 20.820312 8.933594 20.820312 9.1875 C 20.820312 9.34375 20.820312 9.5 20.824219 9.660156 C 20.824219 10.152344 20.824219 10.644531 20.824219 11.136719 C 20.824219 11.707031 20.824219 12.273438 20.824219 12.84375 C 20.828125 13.285156 20.828125 13.722656 20.828125 14.164062 C 20.828125 14.425781 20.828125 14.6875 20.828125 14.953125 C 20.828125 15.199219 20.828125 15.445312 20.828125 15.691406 C 20.828125 15.785156 20.828125 15.875 20.828125 15.964844 C 20.832031 16.089844 20.832031 16.210938 20.828125 16.335938 C 20.832031 16.390625 20.832031 16.390625 20.832031 16.445312 C 20.828125 16.761719 20.738281 17.03125 20.519531 17.269531 C 20.320312 17.445312 20.074219 17.5625 19.84375 17.691406 C 19.785156 17.726562 19.726562 17.757812 19.664062 17.792969 C 19.546875 17.859375 19.421875 17.925781 19.300781 17.996094 C 19.035156 18.144531 18.773438 18.296875 18.507812 18.449219 C 18.410156 18.507812 18.308594 18.566406 18.207031 18.621094 C 18.160156 18.652344 18.109375 18.679688 18.058594 18.710938 C 17.90625 18.796875 17.75 18.886719 17.597656 18.972656 C 17.109375 19.257812 16.617188 19.539062 16.132812 19.824219 C 15.695312 20.078125 15.261719 20.328125 14.824219 20.578125 C 14.429688 20.800781 14.042969 21.027344 13.652344 21.253906 C 13.332031 21.441406 13.011719 21.628906 12.691406 21.8125 C 12.648438 21.835938 12.648438 21.835938 12.601562 21.863281 C 12.339844 22.011719 12.113281 22.066406 11.8125 22.03125 C 11.449219 21.921875 11.125 21.726562 10.800781 21.53125 C 10.703125 21.472656 10.605469 21.414062 10.503906 21.355469 C 10.457031 21.328125 10.40625 21.300781 10.359375 21.269531 C 10.230469 21.195312 10.105469 21.125 9.976562 21.050781 C 9.941406 21.03125 9.90625 21.011719 9.871094 20.988281 C 9.804688 20.953125 9.738281 20.917969 9.671875 20.882812 C 9.410156 20.730469 9.21875 20.539062 9.078125 20.269531 C 9 19.984375 8.996094 19.660156 9.121094 19.390625 C 9.261719 19.152344 9.453125 18.988281 9.699219 18.875 C 10.351562 18.738281 10.855469 19.117188 11.390625 19.449219 C 11.46875 19.496094 11.550781 19.542969 11.628906 19.589844 C 11.675781 19.621094 11.722656 19.648438 11.769531 19.679688 C 11.9375 19.746094 12.015625 19.738281 12.1875 19.6875 C 12.304688 19.632812 12.304688 19.632812 12.417969 19.5625 C 12.460938 19.539062 12.503906 19.511719 12.550781 19.484375 C 12.597656 19.457031 12.644531 19.429688 12.691406 19.398438 C 12.792969 19.339844 12.894531 19.28125 12.996094 19.21875 C 13.046875 19.1875 13.101562 19.15625 13.152344 19.125 C 13.40625 18.976562 13.660156 18.828125 13.914062 18.683594 C 14.019531 18.625 14.121094 18.566406 14.222656 18.503906 C 14.273438 18.476562 14.324219 18.445312 14.378906 18.417969 C 14.632812 18.269531 14.886719 18.125 15.140625 17.976562 C 15.242188 17.917969 15.34375 17.859375 15.445312 17.800781 C 15.496094 17.773438 15.546875 17.742188 15.597656 17.710938 C 16.054688 17.449219 16.054688 17.449219 16.207031 17.359375 C 16.308594 17.304688 16.410156 17.246094 16.511719 17.1875 C 16.746094 17.050781 16.980469 16.914062 17.214844 16.777344 C 17.300781 16.730469 17.382812 16.683594 17.464844 16.636719 C 17.566406 16.578125 17.671875 16.515625 17.773438 16.457031 C 18.039062 16.304688 18.304688 16.148438 18.5625 15.988281 C 18.65625 15.9375 18.65625 15.9375 18.75 15.9375 C 18.75 13.339844 18.75 10.738281 18.75 8.0625 C 18.671875 8.03125 18.59375 8 18.515625 7.96875 C 18.441406 7.929688 18.367188 7.890625 18.296875 7.847656 C 18.253906 7.824219 18.210938 7.800781 18.167969 7.777344 C 18.125 7.75 18.078125 7.726562 18.03125 7.699219 C 17.984375 7.671875 17.9375 7.644531 17.886719 7.617188 C 17.457031 7.371094 17.027344 7.121094 16.601562 6.871094 C 16.152344 6.609375 15.699219 6.347656 15.246094 6.089844 C 14.992188 5.941406 14.738281 5.796875 14.484375 5.648438 C 14.199219 5.484375 13.914062 5.320312 13.628906 5.15625 C 13.546875 5.109375 13.464844 5.0625 13.382812 5.011719 C 13.28125 4.953125 13.179688 4.894531 13.078125 4.835938 C 13.03125 4.808594 12.984375 4.78125 12.933594 4.753906 C 12.890625 4.730469 12.84375 4.703125 12.796875 4.675781 C 12.699219 4.617188 12.601562 4.558594 12.503906 4.5 C 12.457031 4.46875 12.40625 4.4375 12.355469 4.40625 C 12.3125 4.378906 12.269531 4.351562 12.222656 4.320312 C 12.0625 4.25 11.980469 4.265625 11.8125 4.3125 C 11.695312 4.367188 11.695312 4.367188 11.582031 4.4375 C 11.539062 4.460938 11.496094 4.488281 11.449219 4.515625 C 11.402344 4.542969 11.355469 4.570312 11.308594 4.601562 C 11.207031 4.660156 11.105469 4.71875 11.003906 4.78125 C 10.953125 4.8125 10.898438 4.84375 10.847656 4.875 C 10.59375 5.023438 10.339844 5.171875 10.085938 5.316406 C 9.980469 5.375 9.878906 5.433594 9.777344 5.496094 C 9.726562 5.523438 9.675781 5.554688 9.621094 5.582031 C 9.367188 5.730469 9.113281 5.875 8.859375 6.023438 C 8.757812 6.082031 8.65625 6.140625 8.554688 6.199219 C 8.503906 6.226562 8.453125 6.257812 8.402344 6.289062 C 7.945312 6.550781 7.945312 6.550781 7.792969 6.640625 C 7.691406 6.695312 7.589844 6.753906 7.488281 6.8125 C 7.253906 6.949219 7.019531 7.085938 6.785156 7.222656 C 6.699219 7.269531 6.617188 7.316406 6.535156 7.363281 C 6.433594 7.421875 6.328125 7.484375 6.226562 7.542969 C 5.960938 7.695312 5.695312 7.851562 5.4375 8.011719 C 5.34375 8.0625 5.34375 8.0625 5.25 8.0625 C 5.25 10.675781 5.25 13.289062 5.25 15.984375 C 5.328125 16.015625 5.40625 16.046875 5.484375 16.078125 C 5.578125 16.140625 5.671875 16.207031 5.761719 16.273438 C 5.816406 16.3125 5.871094 16.351562 5.925781 16.390625 C 6.007812 16.449219 6.09375 16.511719 6.175781 16.574219 C 6.574219 16.871094 6.574219 16.871094 7.0625 16.914062 C 7.265625 16.871094 7.457031 16.789062 7.652344 16.707031 C 7.703125 16.6875 7.753906 16.664062 7.804688 16.644531 C 7.84375 16.625 7.882812 16.609375 7.921875 16.59375 C 7.921875 16.554688 7.921875 16.515625 7.921875 16.472656 C 7.925781 15.503906 7.929688 14.539062 7.933594 13.570312 C 7.933594 13.101562 7.9375 12.632812 7.9375 12.164062 C 7.9375 11.757812 7.941406 11.347656 7.941406 10.941406 C 7.945312 10.726562 7.945312 10.507812 7.945312 10.292969 C 7.945312 10.089844 7.945312 9.886719 7.949219 9.683594 C 7.949219 9.609375 7.949219 9.535156 7.949219 9.460938 C 7.949219 9.03125 7.953125 8.679688 8.191406 8.308594 C 8.421875 8.078125 8.667969 7.976562 8.988281 7.957031 C 9.300781 7.960938 9.574219 8.074219 9.796875 8.296875 C 9.992188 8.578125 10.035156 8.796875 10.039062 9.132812 C 10.039062 9.167969 10.039062 9.199219 10.039062 9.230469 C 10.039062 9.339844 10.039062 9.449219 10.039062 9.554688 C 10.039062 9.632812 10.039062 9.710938 10.039062 9.789062 C 10.039062 10 10.039062 10.210938 10.039062 10.421875 C 10.039062 10.554688 10.039062 10.6875 10.042969 10.816406 C 10.042969 11.230469 10.042969 11.644531 10.042969 12.058594 C 10.042969 12.535156 10.042969 13.011719 10.042969 13.488281 C 10.046875 13.855469 10.046875 14.222656 10.046875 14.59375 C 10.046875 14.8125 10.046875 15.03125 10.046875 15.25 C 10.046875 15.457031 10.046875 15.667969 10.046875 15.875 C 10.046875 15.949219 10.046875 16.023438 10.046875 16.101562 C 10.054688 16.878906 9.921875 17.511719 9.378906 18.097656 C 8.691406 18.738281 7.714844 18.980469 6.796875 19.03125 C 6.757812 19.035156 6.71875 19.039062 6.679688 19.039062 C 6.15625 19.066406 5.78125 18.804688 5.367188 18.519531 C 5.117188 18.347656 4.863281 18.183594 4.609375 18.015625 C 4.515625 17.957031 4.421875 17.894531 4.328125 17.835938 C 4.183594 17.742188 4.039062 17.648438 3.894531 17.558594 C 3.605469 17.375 3.324219 17.183594 3.207031 16.847656 C 3.179688 16.683594 3.179688 16.519531 3.179688 16.355469 C 3.179688 16.316406 3.179688 16.277344 3.179688 16.238281 C 3.179688 16.109375 3.179688 15.980469 3.179688 15.851562 C 3.179688 15.757812 3.179688 15.664062 3.179688 15.574219 C 3.175781 15.269531 3.175781 14.964844 3.175781 14.660156 C 3.175781 14.554688 3.175781 14.449219 3.175781 14.34375 C 3.175781 13.851562 3.175781 13.359375 3.171875 12.867188 C 3.171875 12.300781 3.171875 11.730469 3.171875 11.164062 C 3.167969 10.722656 3.167969 10.285156 3.167969 9.84375 C 3.167969 9.582031 3.167969 9.320312 3.167969 9.058594 C 3.164062 8.8125 3.164062 8.5625 3.164062 8.316406 C 3.164062 8.226562 3.164062 8.136719 3.164062 8.046875 C 3.15625 7.070312 3.15625 7.070312 3.492188 6.71875 C 3.71875 6.554688 3.964844 6.421875 4.207031 6.289062 C 4.289062 6.242188 4.371094 6.195312 4.453125 6.148438 C 4.539062 6.097656 4.621094 6.050781 4.707031 6 C 4.96875 5.855469 5.226562 5.703125 5.484375 5.554688 C 5.585938 5.496094 5.6875 5.4375 5.789062 5.378906 C 5.839844 5.351562 5.890625 5.320312 5.941406 5.289062 C 6.398438 5.027344 6.398438 5.027344 6.550781 4.9375 C 6.652344 4.882812 6.753906 4.824219 6.855469 4.765625 C 7.109375 4.617188 7.367188 4.46875 7.621094 4.324219 C 8.109375 4.039062 8.601562 3.757812 9.085938 3.472656 C 9.660156 3.136719 10.234375 2.808594 10.808594 2.480469 C 10.921875 2.417969 11.035156 2.351562 11.148438 2.285156 C 11.175781 2.269531 11.207031 2.253906 11.238281 2.234375 C 11.320312 2.1875 11.402344 2.136719 11.484375 2.089844 C 12.089844 1.769531 12.648438 2.136719 13.171875 2.453125 Z M 13.171875 2.453125 "/>
<path style=" stroke:none;fill-rule:nonzero;fill:rgb(0%,0%,0%);fill-opacity:1;" d="M 14.152344 7.964844 C 15.257812 7.925781 16.398438 8.085938 17.265625 8.824219 C 17.695312 9.234375 17.992188 9.761719 18.023438 10.363281 C 18.03125 10.648438 18.019531 10.898438 17.835938 11.128906 C 17.8125 11.15625 17.789062 11.179688 17.765625 11.203125 C 17.742188 11.226562 17.71875 11.25 17.699219 11.273438 C 17.472656 11.480469 17.234375 11.554688 16.933594 11.546875 C 16.644531 11.503906 16.390625 11.402344 16.195312 11.183594 C 16.078125 11.03125 15.996094 10.886719 15.976562 10.691406 C 15.953125 10.527344 15.929688 10.4375 15.796875 10.332031 C 15.375 10.113281 14.957031 10.0625 14.488281 10.0625 C 14.445312 10.0625 14.398438 10.0625 14.351562 10.0625 C 13.914062 10.070312 13.410156 10.121094 13.078125 10.453125 C 13.054688 10.609375 13.054688 10.609375 13.078125 10.78125 C 13.378906 11.121094 13.90625 11.25 14.328125 11.363281 C 14.433594 11.390625 14.535156 11.417969 14.640625 11.445312 C 14.691406 11.460938 14.746094 11.472656 14.796875 11.488281 C 15.945312 11.800781 16.996094 12.113281 17.671875 13.171875 C 18 13.769531 18.089844 14.398438 17.972656 15.066406 C 17.78125 15.714844 17.292969 16.238281 16.707031 16.558594 C 15.578125 17.140625 14.117188 17.191406 12.914062 16.824219 C 12.191406 16.566406 11.550781 16.160156 11.199219 15.460938 C 11.011719 15.050781 10.878906 14.632812 11 14.183594 C 11.117188 13.882812 11.300781 13.710938 11.570312 13.539062 C 11.832031 13.4375 12.183594 13.449219 12.445312 13.542969 C 12.6875 13.6875 12.894531 13.867188 12.976562 14.140625 C 12.984375 14.1875 12.996094 14.234375 13.007812 14.28125 C 13.046875 14.445312 13.066406 14.519531 13.179688 14.648438 C 13.472656 14.804688 13.757812 14.886719 14.082031 14.921875 C 14.121094 14.925781 14.15625 14.929688 14.191406 14.933594 C 14.707031 14.976562 15.304688 14.960938 15.75 14.671875 C 15.867188 14.574219 15.867188 14.574219 15.9375 14.484375 C 15.921875 14.433594 15.902344 14.386719 15.882812 14.335938 C 15.871094 14.292969 15.871094 14.292969 15.855469 14.25 C 15.699219 13.996094 15.460938 13.882812 15.1875 13.789062 C 15.15625 13.777344 15.121094 13.765625 15.085938 13.753906 C 14.765625 13.648438 14.441406 13.566406 14.113281 13.484375 C 13.046875 13.207031 11.917969 12.855469 11.273438 11.890625 C 10.953125 11.328125 10.867188 10.625 11.023438 9.996094 C 11.257812 9.265625 11.722656 8.753906 12.390625 8.386719 C 12.933594 8.125 13.550781 7.988281 14.152344 7.964844 Z M 14.152344 7.964844 "/>
</g>
</svg>
