<?xml version="1.0" encoding="UTF-8"?>
<svg xmlns="http://www.w3.org/2000/svg" xmlns:xlink="http://www.w3.org/1999/xlink" width="24px" height="px" viewBox="0 0 24 24" version="1.1">
<g id="surface1">
<path style=" stroke:none;fill-rule:nonzero;fill:rgb(21.960784%,47.058824%,77.64706%);fill-opacity:1;" d="M 6 -0.03125 C 6.03125 -0.03125 6.058594 -0.03125 6.089844 -0.03125 C 6.246094 0.0195312 6.339844 0.09375 6.421875 0.234375 C 6.457031 0.425781 6.449219 0.617188 6.445312 0.8125 C 6.445312 0.894531 6.445312 0.894531 6.445312 0.980469 C 6.441406 1.160156 6.441406 1.335938 6.4375 1.515625 C 6.433594 1.636719 6.433594 1.757812 6.433594 1.878906 C 6.429688 2.171875 6.425781 2.46875 6.421875 2.765625 C 6.933594 2.765625 7.441406 2.765625 7.96875 2.765625 C 7.96875 2.589844 7.964844 2.414062 7.964844 2.230469 C 7.960938 2.058594 7.960938 1.886719 7.960938 1.71875 C 7.960938 1.597656 7.960938 1.480469 7.957031 1.359375 C 7.957031 1.1875 7.957031 1.019531 7.953125 0.847656 C 7.953125 0.792969 7.953125 0.742188 7.953125 0.6875 C 7.953125 0.613281 7.953125 0.613281 7.953125 0.535156 C 7.953125 0.46875 7.953125 0.46875 7.953125 0.402344 C 7.972656 0.253906 8.023438 0.167969 8.109375 0.046875 C 8.214844 -0.0078125 8.289062 -0.0117188 8.40625 -0.015625 C 8.445312 -0.0195312 8.480469 -0.0234375 8.519531 -0.0234375 C 8.625 0 8.625 0 8.722656 0.0820312 C 8.859375 0.316406 8.835938 0.542969 8.832031 0.8125 C 8.832031 0.867188 8.832031 0.921875 8.828125 0.980469 C 8.828125 1.160156 8.828125 1.335938 8.824219 1.515625 C 8.824219 1.636719 8.824219 1.757812 8.820312 1.878906 C 8.820312 2.171875 8.816406 2.46875 8.8125 2.765625 C 9.324219 2.765625 9.832031 2.765625 10.359375 2.765625 C 10.359375 2.59375 10.355469 2.417969 10.355469 2.242188 C 10.351562 2.074219 10.351562 1.90625 10.351562 1.738281 C 10.351562 1.621094 10.351562 1.503906 10.347656 1.386719 C 10.347656 1.21875 10.347656 1.050781 10.34375 0.882812 C 10.34375 0.832031 10.34375 0.78125 10.34375 0.726562 C 10.34375 0.652344 10.34375 0.652344 10.34375 0.578125 C 10.34375 0.515625 10.34375 0.515625 10.34375 0.449219 C 10.371094 0.257812 10.460938 0.132812 10.59375 0 C 10.6875 -0.015625 10.6875 -0.015625 10.796875 -0.015625 C 10.835938 -0.0195312 10.871094 -0.0195312 10.910156 -0.0234375 C 11.058594 0.0078125 11.109375 0.0703125 11.203125 0.1875 C 11.226562 0.308594 11.226562 0.308594 11.222656 0.445312 C 11.222656 0.496094 11.222656 0.546875 11.222656 0.601562 C 11.222656 0.65625 11.222656 0.710938 11.222656 0.769531 C 11.222656 0.828125 11.222656 0.882812 11.21875 0.941406 C 11.21875 1.125 11.21875 1.304688 11.214844 1.488281 C 11.214844 1.613281 11.214844 1.734375 11.210938 1.859375 C 11.210938 2.160156 11.207031 2.464844 11.203125 2.765625 C 11.730469 2.765625 12.253906 2.765625 12.796875 2.765625 C 12.792969 2.582031 12.792969 2.398438 12.789062 2.207031 C 12.789062 2.03125 12.789062 1.851562 12.785156 1.675781 C 12.785156 1.550781 12.785156 1.425781 12.78125 1.304688 C 12.78125 1.125 12.78125 0.949219 12.777344 0.769531 C 12.777344 0.714844 12.777344 0.660156 12.777344 0.601562 C 12.777344 0.550781 12.777344 0.5 12.777344 0.445312 C 12.773438 0.398438 12.773438 0.355469 12.773438 0.308594 C 12.804688 0.152344 12.863281 0.0976562 12.984375 0 C 13.128906 -0.0351562 13.261719 -0.0273438 13.40625 0 C 13.546875 0.101562 13.585938 0.160156 13.640625 0.328125 C 13.644531 0.40625 13.644531 0.488281 13.644531 0.566406 C 13.644531 0.617188 13.644531 0.664062 13.644531 0.714844 C 13.644531 0.769531 13.644531 0.820312 13.644531 0.875 C 13.644531 0.957031 13.644531 0.957031 13.644531 1.039062 C 13.644531 1.210938 13.644531 1.382812 13.644531 1.554688 C 13.644531 1.671875 13.644531 1.789062 13.644531 1.90625 C 13.640625 2.191406 13.640625 2.480469 13.640625 2.765625 C 14.152344 2.765625 14.660156 2.765625 15.1875 2.765625 C 15.183594 2.585938 15.183594 2.40625 15.179688 2.21875 C 15.179688 2.046875 15.179688 1.871094 15.175781 1.695312 C 15.175781 1.574219 15.175781 1.453125 15.171875 1.332031 C 15.171875 1.160156 15.171875 0.984375 15.167969 0.8125 C 15.167969 0.730469 15.167969 0.730469 15.167969 0.648438 C 15.167969 0.269531 15.167969 0.269531 15.277344 0.0820312 C 15.421875 -0.0390625 15.515625 -0.03125 15.695312 -0.0195312 C 15.839844 0.0078125 15.902344 0.0703125 15.984375 0.1875 C 16.042969 0.304688 16.035156 0.386719 16.035156 0.519531 C 16.035156 0.570312 16.035156 0.621094 16.035156 0.671875 C 16.035156 0.722656 16.035156 0.777344 16.035156 0.832031 C 16.035156 0.917969 16.035156 0.917969 16.035156 1 C 16.035156 1.175781 16.035156 1.351562 16.035156 1.53125 C 16.035156 1.648438 16.035156 1.769531 16.035156 1.886719 C 16.03125 2.179688 16.03125 2.472656 16.03125 2.765625 C 16.542969 2.765625 17.050781 2.765625 17.578125 2.765625 C 17.574219 2.585938 17.574219 2.40625 17.570312 2.21875 C 17.566406 2.046875 17.566406 1.871094 17.566406 1.695312 C 17.5625 1.574219 17.5625 1.453125 17.558594 1.332031 C 17.558594 1.160156 17.554688 0.984375 17.554688 0.8125 C 17.554688 0.730469 17.554688 0.730469 17.550781 0.648438 C 17.550781 0.226562 17.550781 0.226562 17.691406 0.0820312 C 17.808594 0.00390625 17.859375 -0.03125 18 -0.03125 C 18.03125 -0.03125 18.058594 -0.03125 18.089844 -0.03125 C 18.246094 0.0195312 18.339844 0.0976562 18.421875 0.234375 C 18.457031 0.425781 18.457031 0.617188 18.453125 0.8125 C 18.457031 0.867188 18.457031 0.921875 18.457031 0.980469 C 18.460938 1.160156 18.460938 1.335938 18.460938 1.515625 C 18.460938 1.636719 18.460938 1.757812 18.464844 1.878906 C 18.464844 2.171875 18.46875 2.46875 18.46875 2.765625 C 18.496094 2.773438 18.519531 2.78125 18.546875 2.785156 C 19.019531 2.925781 19.324219 3.230469 19.664062 3.570312 C 19.699219 3.605469 19.734375 3.640625 19.773438 3.679688 C 19.851562 3.753906 19.925781 3.832031 20.003906 3.90625 C 20.117188 4.023438 20.234375 4.136719 20.351562 4.25 C 20.425781 4.324219 20.5 4.398438 20.574219 4.472656 C 20.609375 4.507812 20.644531 4.542969 20.679688 4.578125 C 20.957031 4.855469 21.167969 5.136719 21.234375 5.53125 C 21.265625 5.53125 21.296875 5.53125 21.328125 5.53125 C 21.652344 5.53125 21.976562 5.535156 22.304688 5.539062 C 22.425781 5.539062 22.546875 5.539062 22.667969 5.539062 C 22.839844 5.539062 23.015625 5.542969 23.1875 5.546875 C 23.242188 5.542969 23.296875 5.542969 23.351562 5.542969 C 23.773438 5.550781 23.773438 5.550781 23.917969 5.691406 C 23.996094 5.808594 24.03125 5.859375 24.03125 6 C 24.03125 6.03125 24.03125 6.058594 24.03125 6.089844 C 23.980469 6.246094 23.90625 6.339844 23.765625 6.421875 C 23.574219 6.457031 23.382812 6.449219 23.1875 6.445312 C 23.132812 6.445312 23.078125 6.445312 23.019531 6.445312 C 22.839844 6.441406 22.664062 6.441406 22.484375 6.4375 C 22.363281 6.433594 22.242188 6.433594 22.121094 6.433594 C 21.828125 6.429688 21.53125 6.425781 21.234375 6.421875 C 21.234375 6.933594 21.234375 7.441406 21.234375 7.96875 C 21.410156 7.96875 21.585938 7.964844 21.769531 7.964844 C 21.941406 7.960938 22.113281 7.960938 22.28125 7.960938 C 22.402344 7.960938 22.519531 7.960938 22.640625 7.957031 C 22.8125 7.957031 22.980469 7.957031 23.152344 7.953125 C 23.230469 7.953125 23.230469 7.953125 23.3125 7.953125 C 23.363281 7.953125 23.414062 7.953125 23.464844 7.953125 C 23.53125 7.953125 23.53125 7.953125 23.597656 7.953125 C 23.746094 7.972656 23.832031 8.023438 23.953125 8.109375 C 24.007812 8.214844 24.011719 8.289062 24.015625 8.40625 C 24.019531 8.445312 24.023438 8.480469 24.023438 8.519531 C 24 8.625 24 8.625 23.917969 8.722656 C 23.683594 8.859375 23.457031 8.835938 23.1875 8.832031 C 23.132812 8.832031 23.078125 8.832031 23.019531 8.828125 C 22.839844 8.828125 22.664062 8.828125 22.484375 8.824219 C 22.363281 8.824219 22.242188 8.824219 22.121094 8.820312 C 21.828125 8.820312 21.53125 8.816406 21.234375 8.8125 C 21.234375 9.324219 21.234375 9.832031 21.234375 10.359375 C 21.40625 10.359375 21.582031 10.355469 21.757812 10.355469 C 21.925781 10.351562 22.09375 10.351562 22.261719 10.351562 C 22.378906 10.351562 22.496094 10.351562 22.613281 10.347656 C 22.78125 10.347656 22.949219 10.347656 23.117188 10.34375 C 23.167969 10.34375 23.21875 10.34375 23.273438 10.34375 C 23.324219 10.34375 23.371094 10.34375 23.421875 10.34375 C 23.464844 10.34375 23.507812 10.34375 23.550781 10.34375 C 23.742188 10.371094 23.867188 10.460938 24 10.59375 C 24.015625 10.6875 24.015625 10.6875 24.015625 10.796875 C 24.019531 10.835938 24.019531 10.871094 24.023438 10.910156 C 23.992188 11.058594 23.929688 11.109375 23.8125 11.203125 C 23.691406 11.226562 23.691406 11.226562 23.554688 11.222656 C 23.503906 11.222656 23.453125 11.222656 23.398438 11.222656 C 23.34375 11.222656 23.289062 11.222656 23.230469 11.222656 C 23.171875 11.222656 23.117188 11.222656 23.058594 11.21875 C 22.875 11.21875 22.695312 11.21875 22.511719 11.214844 C 22.386719 11.214844 22.265625 11.214844 22.140625 11.210938 C 21.839844 11.210938 21.535156 11.207031 21.234375 11.203125 C 21.234375 11.730469 21.234375 12.253906 21.234375 12.796875 C 21.417969 12.792969 21.601562 12.792969 21.792969 12.789062 C 21.96875 12.789062 22.148438 12.789062 22.324219 12.785156 C 22.449219 12.785156 22.574219 12.785156 22.695312 12.78125 C 22.875 12.78125 23.050781 12.78125 23.230469 12.777344 C 23.3125 12.777344 23.3125 12.777344 23.398438 12.777344 C 23.449219 12.777344 23.5 12.777344 23.554688 12.777344 C 23.601562 12.773438 23.644531 12.773438 23.691406 12.773438 C 23.847656 12.804688 23.902344 12.863281 24 12.984375 C 24.035156 13.128906 24.027344 13.261719 24 13.40625 C 23.898438 13.546875 23.839844 13.585938 23.671875 13.640625 C 23.59375 13.644531 23.511719 13.644531 23.433594 13.644531 C 23.382812 13.644531 23.335938 13.644531 23.285156 13.644531 C 23.230469 13.644531 23.179688 13.644531 23.125 13.644531 C 23.070312 13.644531 23.015625 13.644531 22.960938 13.644531 C 22.789062 13.644531 22.617188 13.644531 22.445312 13.644531 C 22.328125 13.644531 22.210938 13.644531 22.09375 13.644531 C 21.808594 13.640625 21.519531 13.640625 21.234375 13.640625 C 21.234375 14.152344 21.234375 14.660156 21.234375 15.1875 C 21.503906 15.183594 21.503906 15.183594 21.78125 15.179688 C 21.953125 15.179688 22.128906 15.179688 22.304688 15.175781 C 22.425781 15.175781 22.546875 15.175781 22.667969 15.171875 C 22.839844 15.171875 23.015625 15.171875 23.1875 15.167969 C 23.242188 15.167969 23.296875 15.167969 23.351562 15.167969 C 23.730469 15.167969 23.730469 15.167969 23.917969 15.277344 C 24.039062 15.421875 24.03125 15.515625 24.019531 15.695312 C 23.992188 15.839844 23.929688 15.902344 23.8125 15.984375 C 23.695312 16.042969 23.613281 16.035156 23.480469 16.035156 C 23.40625 16.035156 23.40625 16.035156 23.328125 16.035156 C 23.277344 16.035156 23.222656 16.035156 23.167969 16.035156 C 23.109375 16.035156 23.054688 16.035156 23 16.035156 C 22.824219 16.035156 22.648438 16.035156 22.46875 16.035156 C 22.351562 16.035156 22.230469 16.035156 22.113281 16.035156 C 21.820312 16.03125 21.527344 16.03125 21.234375 16.03125 C 21.234375 16.542969 21.234375 17.050781 21.234375 17.578125 C 21.414062 17.574219 21.59375 17.574219 21.78125 17.570312 C 21.953125 17.566406 22.128906 17.566406 22.304688 17.566406 C 22.425781 17.5625 22.546875 17.5625 22.667969 17.558594 C 22.839844 17.558594 23.015625 17.554688 23.1875 17.554688 C 23.269531 17.554688 23.269531 17.554688 23.351562 17.550781 C 23.773438 17.550781 23.773438 17.550781 23.917969 17.691406 C 23.996094 17.808594 24.03125 17.859375 24.03125 18 C 24.03125 18.03125 24.03125 18.058594 24.03125 18.089844 C 23.980469 18.246094 23.902344 18.339844 23.765625 18.421875 C 23.574219 18.457031 23.382812 18.457031 23.1875 18.453125 C 23.132812 18.457031 23.078125 18.457031 23.019531 18.457031 C 22.839844 18.460938 22.664062 18.460938 22.484375 18.460938 C 22.363281 18.460938 22.242188 18.460938 22.121094 18.464844 C 21.828125 18.464844 21.53125 18.46875 21.234375 18.46875 C 21.226562 18.496094 21.21875 18.519531 21.214844 18.546875 C 21.074219 19.019531 20.769531 19.324219 20.429688 19.664062 C 20.394531 19.699219 20.359375 19.734375 20.320312 19.773438 C 20.246094 19.851562 20.167969 19.925781 20.09375 20.003906 C 19.976562 20.117188 19.863281 20.234375 19.75 20.351562 C 19.675781 20.425781 19.601562 20.5 19.527344 20.574219 C 19.492188 20.609375 19.457031 20.644531 19.421875 20.679688 C 19.144531 20.957031 18.863281 21.167969 18.46875 21.234375 C 18.46875 21.28125 18.46875 21.28125 18.46875 21.328125 C 18.46875 21.652344 18.464844 21.976562 18.460938 22.304688 C 18.460938 22.425781 18.460938 22.546875 18.460938 22.667969 C 18.460938 22.839844 18.457031 23.015625 18.453125 23.1875 C 18.457031 23.242188 18.457031 23.296875 18.457031 23.351562 C 18.449219 23.773438 18.449219 23.773438 18.308594 23.917969 C 18.191406 23.996094 18.140625 24.03125 18 24.03125 C 17.96875 24.03125 17.941406 24.03125 17.910156 24.03125 C 17.753906 23.980469 17.660156 23.90625 17.578125 23.765625 C 17.542969 23.574219 17.550781 23.382812 17.554688 23.1875 C 17.554688 23.132812 17.554688 23.078125 17.554688 23.019531 C 17.558594 22.839844 17.558594 22.664062 17.5625 22.484375 C 17.566406 22.363281 17.566406 22.242188 17.566406 22.121094 C 17.570312 21.828125 17.574219 21.53125 17.578125 21.234375 C 17.066406 21.234375 16.558594 21.234375 16.03125 21.234375 C 16.03125 21.410156 16.035156 21.585938 16.035156 21.769531 C 16.039062 21.941406 16.039062 22.113281 16.039062 22.28125 C 16.039062 22.402344 16.039062 22.519531 16.042969 22.640625 C 16.042969 22.8125 16.042969 22.980469 16.046875 23.152344 C 16.046875 23.207031 16.046875 23.257812 16.046875 23.3125 C 16.046875 23.363281 16.046875 23.414062 16.046875 23.464844 C 16.046875 23.53125 16.046875 23.53125 16.046875 23.597656 C 16.027344 23.746094 15.976562 23.832031 15.890625 23.953125 C 15.785156 24.007812 15.710938 24.011719 15.59375 24.015625 C 15.554688 24.019531 15.519531 24.023438 15.480469 24.023438 C 15.375 24 15.375 24 15.277344 23.917969 C 15.140625 23.683594 15.164062 23.457031 15.167969 23.1875 C 15.167969 23.132812 15.167969 23.078125 15.171875 23.019531 C 15.171875 22.839844 15.171875 22.664062 15.175781 22.484375 C 15.175781 22.363281 15.175781 22.242188 15.179688 22.121094 C 15.179688 21.828125 15.183594 21.53125 15.1875 21.234375 C 14.675781 21.234375 14.167969 21.234375 13.640625 21.234375 C 13.640625 21.40625 13.644531 21.582031 13.644531 21.757812 C 13.648438 21.925781 13.648438 22.09375 13.648438 22.261719 C 13.648438 22.378906 13.648438 22.496094 13.652344 22.613281 C 13.652344 22.78125 13.652344 22.949219 13.65625 23.117188 C 13.65625 23.167969 13.65625 23.21875 13.65625 23.273438 C 13.65625 23.324219 13.65625 23.371094 13.65625 23.421875 C 13.65625 23.484375 13.65625 23.484375 13.65625 23.550781 C 13.628906 23.742188 13.539062 23.867188 13.40625 24 C 13.3125 24.015625 13.3125 24.015625 13.203125 24.015625 C 13.164062 24.019531 13.128906 24.019531 13.089844 24.023438 C 12.941406 23.992188 12.890625 23.929688 12.796875 23.8125 C 12.773438 23.691406 12.773438 23.691406 12.777344 23.554688 C 12.777344 23.476562 12.777344 23.476562 12.777344 23.398438 C 12.777344 23.34375 12.777344 23.289062 12.777344 23.230469 C 12.777344 23.171875 12.777344 23.117188 12.78125 23.058594 C 12.78125 22.875 12.78125 22.695312 12.785156 22.511719 C 12.785156 22.386719 12.785156 22.265625 12.789062 22.140625 C 12.789062 21.839844 12.792969 21.535156 12.796875 21.234375 C 12.269531 21.234375 11.746094 21.234375 11.203125 21.234375 C 11.207031 21.417969 11.207031 21.601562 11.210938 21.792969 C 11.210938 21.96875 11.210938 22.148438 11.214844 22.324219 C 11.214844 22.449219 11.214844 22.574219 11.21875 22.695312 C 11.21875 22.875 11.21875 23.050781 11.222656 23.230469 C 11.222656 23.285156 11.222656 23.339844 11.222656 23.398438 C 11.222656 23.449219 11.222656 23.5 11.222656 23.554688 C 11.226562 23.601562 11.226562 23.644531 11.226562 23.691406 C 11.195312 23.847656 11.136719 23.902344 11.015625 24 C 10.871094 24.035156 10.738281 24.027344 10.59375 24 C 10.453125 23.898438 10.414062 23.839844 10.359375 23.671875 C 10.355469 23.59375 10.355469 23.511719 10.355469 23.433594 C 10.355469 23.382812 10.355469 23.335938 10.355469 23.285156 C 10.355469 23.230469 10.355469 23.179688 10.355469 23.125 C 10.355469 23.042969 10.355469 23.042969 10.355469 22.960938 C 10.355469 22.789062 10.355469 22.617188 10.355469 22.445312 C 10.355469 22.328125 10.355469 22.210938 10.355469 22.09375 C 10.359375 21.808594 10.359375 21.519531 10.359375 21.234375 C 9.847656 21.234375 9.339844 21.234375 8.8125 21.234375 C 8.816406 21.414062 8.816406 21.59375 8.820312 21.78125 C 8.820312 21.953125 8.820312 22.128906 8.824219 22.304688 C 8.824219 22.425781 8.824219 22.546875 8.828125 22.667969 C 8.828125 22.839844 8.828125 23.015625 8.832031 23.1875 C 8.832031 23.242188 8.832031 23.296875 8.832031 23.351562 C 8.832031 23.730469 8.832031 23.730469 8.722656 23.917969 C 8.578125 24.039062 8.484375 24.03125 8.304688 24.019531 C 8.160156 23.992188 8.097656 23.929688 8.015625 23.8125 C 7.957031 23.695312 7.964844 23.613281 7.964844 23.480469 C 7.964844 23.429688 7.964844 23.378906 7.964844 23.328125 C 7.964844 23.277344 7.964844 23.222656 7.964844 23.167969 C 7.964844 23.082031 7.964844 23.082031 7.964844 23 C 7.964844 22.824219 7.964844 22.648438 7.964844 22.46875 C 7.964844 22.351562 7.964844 22.230469 7.964844 22.113281 C 7.96875 21.820312 7.96875 21.527344 7.96875 21.234375 C 7.457031 21.234375 6.949219 21.234375 6.421875 21.234375 C 6.425781 21.503906 6.425781 21.503906 6.429688 21.78125 C 6.433594 21.953125 6.433594 22.128906 6.433594 22.304688 C 6.4375 22.425781 6.4375 22.546875 6.441406 22.667969 C 6.441406 22.839844 6.445312 23.015625 6.445312 23.1875 C 6.445312 23.242188 6.445312 23.296875 6.449219 23.351562 C 6.449219 23.773438 6.449219 23.773438 6.308594 23.917969 C 6.191406 23.996094 6.140625 24.03125 6 24.03125 C 5.96875 24.03125 5.941406 24.03125 5.910156 24.03125 C 5.753906 23.980469 5.660156 23.902344 5.578125 23.765625 C 5.542969 23.574219 5.542969 23.382812 5.546875 23.1875 C 5.542969 23.132812 5.542969 23.078125 5.542969 23.019531 C 5.539062 22.839844 5.539062 22.664062 5.539062 22.484375 C 5.539062 22.363281 5.539062 22.242188 5.535156 22.121094 C 5.535156 21.828125 5.53125 21.53125 5.53125 21.234375 C 5.503906 21.226562 5.480469 21.21875 5.453125 21.214844 C 4.980469 21.074219 4.675781 20.769531 4.335938 20.429688 C 4.300781 20.394531 4.265625 20.359375 4.226562 20.320312 C 4.148438 20.246094 4.074219 20.167969 3.996094 20.09375 C 3.882812 19.976562 3.765625 19.863281 3.648438 19.75 C 3.574219 19.675781 3.5 19.601562 3.425781 19.527344 C 3.390625 19.492188 3.355469 19.457031 3.320312 19.421875 C 3.042969 19.144531 2.832031 18.863281 2.765625 18.46875 C 2.734375 18.46875 2.703125 18.46875 2.671875 18.46875 C 2.347656 18.46875 2.023438 18.464844 1.695312 18.460938 C 1.574219 18.460938 1.453125 18.460938 1.332031 18.460938 C 1.160156 18.460938 0.984375 18.457031 0.8125 18.453125 C 0.757812 18.457031 0.703125 18.457031 0.648438 18.457031 C 0.226562 18.449219 0.226562 18.449219 0.0820312 18.308594 C 0.00390625 18.191406 -0.03125 18.140625 -0.03125 18 C -0.03125 17.96875 -0.03125 17.941406 -0.03125 17.910156 C 0.0195312 17.753906 0.09375 17.660156 0.234375 17.578125 C 0.425781 17.542969 0.617188 17.550781 0.8125 17.554688 C 0.867188 17.554688 0.921875 17.554688 0.980469 17.554688 C 1.160156 17.558594 1.335938 17.558594 1.515625 17.5625 C 1.636719 17.566406 1.757812 17.566406 1.878906 17.566406 C 2.171875 17.570312 2.46875 17.574219 2.765625 17.578125 C 2.765625 17.066406 2.765625 16.558594 2.765625 16.03125 C 2.589844 16.03125 2.414062 16.035156 2.230469 16.035156 C 2.058594 16.039062 1.886719 16.039062 1.71875 16.039062 C 1.597656 16.039062 1.480469 16.039062 1.359375 16.042969 C 1.1875 16.042969 1.019531 16.042969 0.847656 16.046875 C 0.769531 16.046875 0.769531 16.046875 0.6875 16.046875 C 0.636719 16.046875 0.585938 16.046875 0.535156 16.046875 C 0.46875 16.046875 0.46875 16.046875 0.402344 16.046875 C 0.253906 16.027344 0.167969 15.976562 0.046875 15.890625 C -0.0078125 15.785156 -0.0117188 15.710938 -0.015625 15.59375 C -0.0195312 15.554688 -0.0234375 15.519531 -0.0234375 15.480469 C 0 15.375 0 15.375 0.0820312 15.277344 C 0.316406 15.140625 0.542969 15.164062 0.8125 15.167969 C 0.867188 15.167969 0.921875 15.167969 0.980469 15.171875 C 1.160156 15.171875 1.335938 15.171875 1.515625 15.175781 C 1.636719 15.175781 1.757812 15.175781 1.878906 15.179688 C 2.171875 15.179688 2.46875 15.183594 2.765625 15.1875 C 2.765625 14.675781 2.765625 14.167969 2.765625 13.640625 C 2.59375 13.640625 2.417969 13.644531 2.242188 13.644531 C 2.074219 13.648438 1.90625 13.648438 1.738281 13.648438 C 1.621094 13.648438 1.503906 13.648438 1.386719 13.652344 C 1.21875 13.652344 1.050781 13.652344 0.882812 13.65625 C 0.804688 13.65625 0.804688 13.65625 0.726562 13.65625 C 0.652344 13.65625 0.652344 13.65625 0.578125 13.65625 C 0.535156 13.65625 0.492188 13.65625 0.449219 13.65625 C 0.257812 13.628906 0.132812 13.539062 0 13.40625 C -0.015625 13.3125 -0.015625 13.3125 -0.015625 13.203125 C -0.0195312 13.164062 -0.0195312 13.128906 -0.0234375 13.089844 C 0.0078125 12.941406 0.0703125 12.890625 0.1875 12.796875 C 0.308594 12.773438 0.308594 12.773438 0.445312 12.777344 C 0.523438 12.777344 0.523438 12.777344 0.601562 12.777344 C 0.65625 12.777344 0.710938 12.777344 0.769531 12.777344 C 0.855469 12.777344 0.855469 12.777344 0.941406 12.78125 C 1.125 12.78125 1.304688 12.78125 1.488281 12.785156 C 1.613281 12.785156 1.734375 12.785156 1.859375 12.789062 C 2.160156 12.789062 2.464844 12.792969 2.765625 12.796875 C 2.765625 12.269531 2.765625 11.746094 2.765625 11.203125 C 2.582031 11.207031 2.398438 11.207031 2.207031 11.210938 C 2.03125 11.210938 1.851562 11.210938 1.675781 11.214844 C 1.550781 11.214844 1.425781 11.214844 1.304688 11.21875 C 1.125 11.21875 0.949219 11.21875 0.769531 11.222656 C 0.6875 11.222656 0.6875 11.222656 0.601562 11.222656 C 0.550781 11.222656 0.5 11.222656 0.445312 11.222656 C 0.398438 11.226562 0.355469 11.226562 0.308594 11.226562 C 0.152344 11.195312 0.0976562 11.136719 0 11.015625 C -0.0351562 10.871094 -0.0273438 10.738281 0 10.59375 C 0.101562 10.453125 0.160156 10.414062 0.328125 10.359375 C 0.40625 10.355469 0.488281 10.355469 0.566406 10.355469 C 0.617188 10.355469 0.664062 10.355469 0.714844 10.355469 C 0.769531 10.355469 0.820312 10.355469 0.875 10.355469 C 0.929688 10.355469 0.984375 10.355469 1.039062 10.355469 C 1.210938 10.355469 1.382812 10.355469 1.554688 10.355469 C 1.671875 10.355469 1.789062 10.355469 1.90625 10.355469 C 2.191406 10.359375 2.480469 10.359375 2.765625 10.359375 C 2.765625 9.847656 2.765625 9.339844 2.765625 8.8125 C 2.585938 8.816406 2.40625 8.816406 2.21875 8.820312 C 2.046875 8.820312 1.871094 8.820312 1.695312 8.824219 C 1.574219 8.824219 1.453125 8.824219 1.332031 8.828125 C 1.160156 8.828125 0.984375 8.828125 0.8125 8.832031 C 0.757812 8.832031 0.703125 8.832031 0.648438 8.832031 C 0.269531 8.832031 0.269531 8.832031 0.0820312 8.722656 C -0.0390625 8.578125 -0.03125 8.484375 -0.0195312 8.304688 C 0.0078125 8.160156 0.0703125 8.097656 0.1875 8.015625 C 0.304688 7.957031 0.386719 7.964844 0.519531 7.964844 C 0.59375 7.964844 0.59375 7.964844 0.671875 7.964844 C 0.75 7.964844 0.75 7.964844 0.832031 7.964844 C 0.917969 7.964844 0.917969 7.964844 1 7.964844 C 1.175781 7.964844 1.351562 7.964844 1.53125 7.964844 C 1.648438 7.964844 1.769531 7.964844 1.886719 7.964844 C 2.179688 7.96875 2.472656 7.96875 2.765625 7.96875 C 2.765625 7.457031 2.765625 6.949219 2.765625 6.421875 C 2.496094 6.425781 2.496094 6.425781 2.21875 6.429688 C 2.046875 6.433594 1.871094 6.433594 1.695312 6.433594 C 1.574219 6.4375 1.453125 6.4375 1.332031 6.441406 C 1.160156 6.441406 0.984375 6.445312 0.8125 6.445312 C 0.757812 6.445312 0.703125 6.445312 0.648438 6.449219 C 0.226562 6.449219 0.226562 6.449219 0.0820312 6.308594 C 0.00390625 6.191406 -0.03125 6.140625 -0.03125 6 C -0.03125 5.96875 -0.03125 5.941406 -0.03125 5.910156 C 0.0195312 5.753906 0.0976562 5.660156 0.234375 5.578125 C 0.425781 5.542969 0.617188 5.542969 0.8125 5.546875 C 0.867188 5.542969 0.921875 5.542969 0.980469 5.542969 C 1.160156 5.539062 1.335938 5.539062 1.515625 5.539062 C 1.636719 5.539062 1.757812 5.539062 1.878906 5.535156 C 2.171875 5.535156 2.46875 5.53125 2.765625 5.53125 C 2.773438 5.503906 2.78125 5.480469 2.785156 5.453125 C 2.925781 4.980469 3.230469 4.675781 3.570312 4.335938 C 3.625 4.28125 3.625 4.28125 3.679688 4.226562 C 3.753906 4.148438 3.832031 4.074219 3.90625 3.996094 C 4.023438 3.882812 4.136719 3.765625 4.25 3.648438 C 4.324219 3.574219 4.398438 3.5 4.472656 3.425781 C 4.507812 3.390625 4.542969 3.355469 4.578125 3.320312 C 4.855469 3.042969 5.136719 2.832031 5.53125 2.765625 C 5.53125 2.734375 5.53125 2.703125 5.53125 2.671875 C 5.53125 2.347656 5.535156 2.023438 5.539062 1.695312 C 5.539062 1.574219 5.539062 1.453125 5.539062 1.332031 C 5.539062 1.160156 5.542969 0.984375 5.546875 0.8125 C 5.542969 0.757812 5.542969 0.703125 5.542969 0.648438 C 5.550781 0.226562 5.550781 0.226562 5.691406 0.0820312 C 5.808594 0.00390625 5.859375 -0.03125 6 -0.03125 Z M 6 -0.03125 "/>
<path style=" stroke:none;fill-rule:nonzero;fill:rgb(74.509805%,85.490197%,93.725491%);fill-opacity:1;" d="M 6 -0.03125 C 6.03125 -0.03125 6.058594 -0.03125 6.089844 -0.03125 C 6.246094 0.0195312 6.339844 0.09375 6.421875 0.234375 C 6.457031 0.425781 6.449219 0.617188 6.445312 0.8125 C 6.445312 0.894531 6.445312 0.894531 6.445312 0.980469 C 6.441406 1.160156 6.441406 1.335938 6.4375 1.515625 C 6.433594 1.636719 6.433594 1.757812 6.433594 1.878906 C 6.429688 2.171875 6.425781 2.46875 6.421875 2.765625 C 6.933594 2.765625 7.441406 2.765625 7.96875 2.765625 C 7.96875 2.589844 7.964844 2.414062 7.964844 2.230469 C 7.960938 2.058594 7.960938 1.886719 7.960938 1.71875 C 7.960938 1.597656 7.960938 1.480469 7.957031 1.359375 C 7.957031 1.1875 7.957031 1.019531 7.953125 0.847656 C 7.953125 0.792969 7.953125 0.742188 7.953125 0.6875 C 7.953125 0.613281 7.953125 0.613281 7.953125 0.535156 C 7.953125 0.46875 7.953125 0.46875 7.953125 0.402344 C 7.972656 0.253906 8.023438 0.167969 8.109375 0.046875 C 8.214844 -0.0078125 8.289062 -0.0117188 8.40625 -0.015625 C 8.445312 -0.0195312 8.480469 -0.0234375 8.519531 -0.0234375 C 8.625 0 8.625 0 8.722656 0.0820312 C 8.859375 0.316406 8.835938 0.542969 8.832031 0.8125 C 8.832031 0.867188 8.832031 0.921875 8.828125 0.980469 C 8.828125 1.160156 8.828125 1.335938 8.824219 1.515625 C 8.824219 1.636719 8.824219 1.757812 8.820312 1.878906 C 8.820312 2.171875 8.816406 2.46875 8.8125 2.765625 C 9.324219 2.765625 9.832031 2.765625 10.359375 2.765625 C 10.359375 2.59375 10.355469 2.417969 10.355469 2.242188 C 10.351562 2.074219 10.351562 1.90625 10.351562 1.738281 C 10.351562 1.621094 10.351562 1.503906 10.347656 1.386719 C 10.347656 1.21875 10.347656 1.050781 10.34375 0.882812 C 10.34375 0.832031 10.34375 0.78125 10.34375 0.726562 C 10.34375 0.652344 10.34375 0.652344 10.34375 0.578125 C 10.34375 0.515625 10.34375 0.515625 10.34375 0.449219 C 10.371094 0.257812 10.460938 0.132812 10.59375 0 C 10.6875 -0.015625 10.6875 -0.015625 10.796875 -0.015625 C 10.835938 -0.0195312 10.871094 -0.0195312 10.910156 -0.0234375 C 11.058594 0.0078125 11.109375 0.0703125 11.203125 0.1875 C 11.226562 0.308594 11.226562 0.308594 11.222656 0.445312 C 11.222656 0.496094 11.222656 0.546875 11.222656 0.601562 C 11.222656 0.65625 11.222656 0.710938 11.222656 0.769531 C 11.222656 0.828125 11.222656 0.882812 11.21875 0.941406 C 11.21875 1.125 11.21875 1.304688 11.214844 1.488281 C 11.214844 1.613281 11.214844 1.734375 11.210938 1.859375 C 11.210938 2.160156 11.207031 2.464844 11.203125 2.765625 C 11.730469 2.765625 12.253906 2.765625 12.796875 2.765625 C 12.792969 2.582031 12.792969 2.398438 12.789062 2.207031 C 12.789062 2.03125 12.789062 1.851562 12.785156 1.675781 C 12.785156 1.550781 12.785156 1.425781 12.78125 1.304688 C 12.78125 1.125 12.78125 0.949219 12.777344 0.769531 C 12.777344 0.714844 12.777344 0.660156 12.777344 0.601562 C 12.777344 0.550781 12.777344 0.5 12.777344 0.445312 C 12.773438 0.398438 12.773438 0.355469 12.773438 0.308594 C 12.804688 0.152344 12.863281 0.0976562 12.984375 0 C 13.128906 -0.0351562 13.261719 -0.0273438 13.40625 0 C 13.546875 0.101562 13.585938 0.160156 13.640625 0.328125 C 13.644531 0.40625 13.644531 0.488281 13.644531 0.566406 C 13.644531 0.617188 13.644531 0.664062 13.644531 0.714844 C 13.644531 0.769531 13.644531 0.820312 13.644531 0.875 C 13.644531 0.957031 13.644531 0.957031 13.644531 1.039062 C 13.644531 1.210938 13.644531 1.382812 13.644531 1.554688 C 13.644531 1.671875 13.644531 1.789062 13.644531 1.90625 C 13.640625 2.191406 13.640625 2.480469 13.640625 2.765625 C 14.152344 2.765625 14.660156 2.765625 15.1875 2.765625 C 15.183594 2.585938 15.183594 2.40625 15.179688 2.21875 C 15.179688 2.046875 15.179688 1.871094 15.175781 1.695312 C 15.175781 1.574219 15.175781 1.453125 15.171875 1.332031 C 15.171875 1.160156 15.171875 0.984375 15.167969 0.8125 C 15.167969 0.730469 15.167969 0.730469 15.167969 0.648438 C 15.167969 0.269531 15.167969 0.269531 15.277344 0.0820312 C 15.421875 -0.0390625 15.515625 -0.03125 15.695312 -0.0195312 C 15.839844 0.0078125 15.902344 0.0703125 15.984375 0.1875 C 16.042969 0.304688 16.035156 0.386719 16.035156 0.519531 C 16.035156 0.570312 16.035156 0.621094 16.035156 0.671875 C 16.035156 0.722656 16.035156 0.777344 16.035156 0.832031 C 16.035156 0.917969 16.035156 0.917969 16.035156 1 C 16.035156 1.175781 16.035156 1.351562 16.035156 1.53125 C 16.035156 1.648438 16.035156 1.769531 16.035156 1.886719 C 16.03125 2.179688 16.03125 2.472656 16.03125 2.765625 C 16.542969 2.765625 17.050781 2.765625 17.578125 2.765625 C 17.574219 2.585938 17.574219 2.40625 17.570312 2.21875 C 17.566406 2.046875 17.566406 1.871094 17.566406 1.695312 C 17.5625 1.574219 17.5625 1.453125 17.558594 1.332031 C 17.558594 1.160156 17.554688 0.984375 17.554688 0.8125 C 17.554688 0.730469 17.554688 0.730469 17.550781 0.648438 C 17.550781 0.226562 17.550781 0.226562 17.691406 0.0820312 C 17.808594 0.00390625 17.859375 -0.03125 18 -0.03125 C 18.03125 -0.03125 18.058594 -0.03125 18.089844 -0.03125 C 18.246094 0.0195312 18.339844 0.0976562 18.421875 0.234375 C 18.457031 0.425781 18.457031 0.617188 18.453125 0.8125 C 18.457031 0.867188 18.457031 0.921875 18.457031 0.980469 C 18.460938 1.160156 18.460938 1.335938 18.460938 1.515625 C 18.460938 1.636719 18.460938 1.757812 18.464844 1.878906 C 18.464844 2.171875 18.46875 2.46875 18.46875 2.765625 C 18.496094 2.773438 18.519531 2.78125 18.546875 2.785156 C 19.019531 2.925781 19.324219 3.230469 19.664062 3.570312 C 19.699219 3.605469 19.734375 3.640625 19.773438 3.679688 C 19.851562 3.753906 19.925781 3.832031 20.003906 3.90625 C 20.117188 4.023438 20.234375 4.136719 20.351562 4.25 C 20.425781 4.324219 20.5 4.398438 20.574219 4.472656 C 20.609375 4.507812 20.644531 4.542969 20.679688 4.578125 C 20.957031 4.855469 21.167969 5.136719 21.234375 5.53125 C 21.265625 5.53125 21.296875 5.53125 21.328125 5.53125 C 21.652344 5.53125 21.976562 5.535156 22.304688 5.539062 C 22.425781 5.539062 22.546875 5.539062 22.667969 5.539062 C 22.839844 5.539062 23.015625 5.542969 23.1875 5.546875 C 23.242188 5.542969 23.296875 5.542969 23.351562 5.542969 C 23.773438 5.550781 23.773438 5.550781 23.917969 5.691406 C 23.996094 5.808594 24.03125 5.859375 24.03125 6 C 24.03125 6.03125 24.03125 6.058594 24.03125 6.089844 C 23.980469 6.246094 23.90625 6.339844 23.765625 6.421875 C 23.574219 6.457031 23.382812 6.449219 23.1875 6.445312 C 23.132812 6.445312 23.078125 6.445312 23.019531 6.445312 C 22.839844 6.441406 22.664062 6.441406 22.484375 6.4375 C 22.363281 6.433594 22.242188 6.433594 22.121094 6.433594 C 21.828125 6.429688 21.53125 6.425781 21.234375 6.421875 C 21.234375 6.933594 21.234375 7.441406 21.234375 7.96875 C 21.410156 7.96875 21.585938 7.964844 21.769531 7.964844 C 21.941406 7.960938 22.113281 7.960938 22.28125 7.960938 C 22.402344 7.960938 22.519531 7.960938 22.640625 7.957031 C 22.8125 7.957031 22.980469 7.957031 23.152344 7.953125 C 23.230469 7.953125 23.230469 7.953125 23.3125 7.953125 C 23.363281 7.953125 23.414062 7.953125 23.464844 7.953125 C 23.53125 7.953125 23.53125 7.953125 23.597656 7.953125 C 23.746094 7.972656 23.832031 8.023438 23.953125 8.109375 C 24.007812 8.214844 24.011719 8.289062 24.015625 8.40625 C 24.019531 8.445312 24.023438 8.480469 24.023438 8.519531 C 24 8.625 24 8.625 23.917969 8.722656 C 23.683594 8.859375 23.457031 8.835938 23.1875 8.832031 C 23.132812 8.832031 23.078125 8.832031 23.019531 8.828125 C 22.839844 8.828125 22.664062 8.828125 22.484375 8.824219 C 22.363281 8.824219 22.242188 8.824219 22.121094 8.820312 C 21.828125 8.820312 21.53125 8.816406 21.234375 8.8125 C 21.234375 9.324219 21.234375 9.832031 21.234375 10.359375 C 21.40625 10.359375 21.582031 10.355469 21.757812 10.355469 C 21.925781 10.351562 22.09375 10.351562 22.261719 10.351562 C 22.378906 10.351562 22.496094 10.351562 22.613281 10.347656 C 22.78125 10.347656 22.949219 10.347656 23.117188 10.34375 C 23.167969 10.34375 23.21875 10.34375 23.273438 10.34375 C 23.324219 10.34375 23.371094 10.34375 23.421875 10.34375 C 23.464844 10.34375 23.507812 10.34375 23.550781 10.34375 C 23.742188 10.371094 23.867188 10.460938 24 10.59375 C 24.015625 10.6875 24.015625 10.6875 24.015625 10.796875 C 24.019531 10.835938 24.019531 10.871094 24.023438 10.910156 C 23.992188 11.058594 23.929688 11.109375 23.8125 11.203125 C 23.691406 11.226562 23.691406 11.226562 23.554688 11.222656 C 23.503906 11.222656 23.453125 11.222656 23.398438 11.222656 C 23.34375 11.222656 23.289062 11.222656 23.230469 11.222656 C 23.171875 11.222656 23.117188 11.222656 23.058594 11.21875 C 22.875 11.21875 22.695312 11.21875 22.511719 11.214844 C 22.386719 11.214844 22.265625 11.214844 22.140625 11.210938 C 21.839844 11.210938 21.535156 11.207031 21.234375 11.203125 C 21.234375 11.730469 21.234375 12.253906 21.234375 12.796875 C 21.417969 12.792969 21.601562 12.792969 21.792969 12.789062 C 21.96875 12.789062 22.148438 12.789062 22.324219 12.785156 C 22.449219 12.785156 22.574219 12.785156 22.695312 12.78125 C 22.875 12.78125 23.050781 12.78125 23.230469 12.777344 C 23.3125 12.777344 23.3125 12.777344 23.398438 12.777344 C 23.449219 12.777344 23.5 12.777344 23.554688 12.777344 C 23.601562 12.773438 23.644531 12.773438 23.691406 12.773438 C 23.847656 12.804688 23.902344 12.863281 24 12.984375 C 24.035156 13.128906 24.027344 13.261719 24 13.40625 C 23.898438 13.546875 23.839844 13.585938 23.671875 13.640625 C 23.59375 13.644531 23.511719 13.644531 23.433594 13.644531 C 23.382812 13.644531 23.335938 13.644531 23.285156 13.644531 C 23.230469 13.644531 23.179688 13.644531 23.125 13.644531 C 23.070312 13.644531 23.015625 13.644531 22.960938 13.644531 C 22.789062 13.644531 22.617188 13.644531 22.445312 13.644531 C 22.328125 13.644531 22.210938 13.644531 22.09375 13.644531 C 21.808594 13.640625 21.519531 13.640625 21.234375 13.640625 C 21.234375 14.152344 21.234375 14.660156 21.234375 15.1875 C 21.503906 15.183594 21.503906 15.183594 21.78125 15.179688 C 21.953125 15.179688 22.128906 15.179688 22.304688 15.175781 C 22.425781 15.175781 22.546875 15.175781 22.667969 15.171875 C 22.839844 15.171875 23.015625 15.171875 23.1875 15.167969 C 23.242188 15.167969 23.296875 15.167969 23.351562 15.167969 C 23.730469 15.167969 23.730469 15.167969 23.917969 15.277344 C 24.039062 15.421875 24.03125 15.515625 24.019531 15.695312 C 23.992188 15.839844 23.929688 15.902344 23.8125 15.984375 C 23.695312 16.042969 23.613281 16.035156 23.480469 16.035156 C 23.40625 16.035156 23.40625 16.035156 23.328125 16.035156 C 23.277344 16.035156 23.222656 16.035156 23.167969 16.035156 C 23.109375 16.035156 23.054688 16.035156 23 16.035156 C 22.824219 16.035156 22.648438 16.035156 22.46875 16.035156 C 22.351562 16.035156 22.230469 16.035156 22.113281 16.035156 C 21.820312 16.03125 21.527344 16.03125 21.234375 16.03125 C 21.234375 16.542969 21.234375 17.050781 21.234375 17.578125 C 21.414062 17.574219 21.59375 17.574219 21.78125 17.570312 C 21.953125 17.566406 22.128906 17.566406 22.304688 17.566406 C 22.425781 17.5625 22.546875 17.5625 22.667969 17.558594 C 22.839844 17.558594 23.015625 17.554688 23.1875 17.554688 C 23.269531 17.554688 23.269531 17.554688 23.351562 17.550781 C 23.773438 17.550781 23.773438 17.550781 23.917969 17.691406 C 23.996094 17.808594 24.03125 17.859375 24.03125 18 C 24.03125 18.03125 24.03125 18.058594 24.03125 18.089844 C 23.980469 18.246094 23.902344 18.339844 23.765625 18.421875 C 23.574219 18.457031 23.382812 18.457031 23.1875 18.453125 C 23.132812 18.457031 23.078125 18.457031 23.019531 18.457031 C 22.839844 18.460938 22.664062 18.460938 22.484375 18.460938 C 22.363281 18.460938 22.242188 18.460938 22.121094 18.464844 C 21.828125 18.464844 21.53125 18.46875 21.234375 18.46875 C 21.226562 18.496094 21.21875 18.519531 21.214844 18.546875 C 21.074219 19.019531 20.769531 19.324219 20.429688 19.664062 C 20.394531 19.699219 20.359375 19.734375 20.320312 19.773438 C 20.246094 19.851562 20.167969 19.925781 20.09375 20.003906 C 19.976562 20.117188 19.863281 20.234375 19.75 20.351562 C 19.675781 20.425781 19.601562 20.5 19.527344 20.574219 C 19.492188 20.609375 19.457031 20.644531 19.421875 20.679688 C 19.144531 20.957031 18.863281 21.167969 18.46875 21.234375 C 18.46875 21.28125 18.46875 21.28125 18.46875 21.328125 C 18.46875 21.652344 18.464844 21.976562 18.460938 22.304688 C 18.460938 22.425781 18.460938 22.546875 18.460938 22.667969 C 18.460938 22.839844 18.457031 23.015625 18.453125 23.1875 C 18.457031 23.242188 18.457031 23.296875 18.457031 23.351562 C 18.449219 23.773438 18.449219 23.773438 18.308594 23.917969 C 18.191406 23.996094 18.140625 24.03125 18 24.03125 C 17.96875 24.03125 17.941406 24.03125 17.910156 24.03125 C 17.753906 23.980469 17.660156 23.90625 17.578125 23.765625 C 17.542969 23.574219 17.550781 23.382812 17.554688 23.1875 C 17.554688 23.132812 17.554688 23.078125 17.554688 23.019531 C 17.558594 22.839844 17.558594 22.664062 17.5625 22.484375 C 17.566406 22.363281 17.566406 22.242188 17.566406 22.121094 C 17.570312 21.828125 17.574219 21.53125 17.578125 21.234375 C 17.066406 21.234375 16.558594 21.234375 16.03125 21.234375 C 16.03125 21.410156 16.035156 21.585938 16.035156 21.769531 C 16.039062 21.941406 16.039062 22.113281 16.039062 22.28125 C 16.039062 22.402344 16.039062 22.519531 16.042969 22.640625 C 16.042969 22.8125 16.042969 22.980469 16.046875 23.152344 C 16.046875 23.207031 16.046875 23.257812 16.046875 23.3125 C 16.046875 23.363281 16.046875 23.414062 16.046875 23.464844 C 16.046875 23.53125 16.046875 23.53125 16.046875 23.597656 C 16.027344 23.746094 15.976562 23.832031 15.890625 23.953125 C 15.785156 24.007812 15.710938 24.011719 15.59375 24.015625 C 15.554688 24.019531 15.519531 24.023438 15.480469 24.023438 C 15.375 24 15.375 24 15.277344 23.917969 C 15.140625 23.683594 15.164062 23.457031 15.167969 23.1875 C 15.167969 23.132812 15.167969 23.078125 15.171875 23.019531 C 15.171875 22.839844 15.171875 22.664062 15.175781 22.484375 C 15.175781 22.363281 15.175781 22.242188 15.179688 22.121094 C 15.179688 21.828125 15.183594 21.53125 15.1875 21.234375 C 14.675781 21.234375 14.167969 21.234375 13.640625 21.234375 C 13.640625 21.40625 13.644531 21.582031 13.644531 21.757812 C 13.648438 21.925781 13.648438 22.09375 13.648438 22.261719 C 13.648438 22.378906 13.648438 22.496094 13.652344 22.613281 C 13.652344 22.78125 13.652344 22.949219 13.65625 23.117188 C 13.65625 23.167969 13.65625 23.21875 13.65625 23.273438 C 13.65625 23.324219 13.65625 23.371094 13.65625 23.421875 C 13.65625 23.484375 13.65625 23.484375 13.65625 23.550781 C 13.628906 23.742188 13.539062 23.867188 13.40625 24 C 13.3125 24.015625 13.3125 24.015625 13.203125 24.015625 C 13.164062 24.019531 13.128906 24.019531 13.089844 24.023438 C 12.941406 23.992188 12.890625 23.929688 12.796875 23.8125 C 12.773438 23.691406 12.773438 23.691406 12.777344 23.554688 C 12.777344 23.476562 12.777344 23.476562 12.777344 23.398438 C 12.777344 23.34375 12.777344 23.289062 12.777344 23.230469 C 12.777344 23.171875 12.777344 23.117188 12.78125 23.058594 C 12.78125 22.875 12.78125 22.695312 12.785156 22.511719 C 12.785156 22.386719 12.785156 22.265625 12.789062 22.140625 C 12.789062 21.839844 12.792969 21.535156 12.796875 21.234375 C 12.269531 21.234375 11.746094 21.234375 11.203125 21.234375 C 11.207031 21.417969 11.207031 21.601562 11.210938 21.792969 C 11.210938 21.96875 11.210938 22.148438 11.214844 22.324219 C 11.214844 22.449219 11.214844 22.574219 11.21875 22.695312 C 11.21875 22.875 11.21875 23.050781 11.222656 23.230469 C 11.222656 23.285156 11.222656 23.339844 11.222656 23.398438 C 11.222656 23.449219 11.222656 23.5 11.222656 23.554688 C 11.226562 23.601562 11.226562 23.644531 11.226562 23.691406 C 11.195312 23.847656 11.136719 23.902344 11.015625 24 C 10.871094 24.035156 10.738281 24.027344 10.59375 24 C 10.453125 23.898438 10.414062 23.839844 10.359375 23.671875 C 10.355469 23.59375 10.355469 23.511719 10.355469 23.433594 C 10.355469 23.382812 10.355469 23.335938 10.355469 23.285156 C 10.355469 23.230469 10.355469 23.179688 10.355469 23.125 C 10.355469 23.042969 10.355469 23.042969 10.355469 22.960938 C 10.355469 22.789062 10.355469 22.617188 10.355469 22.445312 C 10.355469 22.328125 10.355469 22.210938 10.355469 22.09375 C 10.359375 21.808594 10.359375 21.519531 10.359375 21.234375 C 9.847656 21.234375 9.339844 21.234375 8.8125 21.234375 C 8.816406 21.414062 8.816406 21.59375 8.820312 21.78125 C 8.820312 21.953125 8.820312 22.128906 8.824219 22.304688 C 8.824219 22.425781 8.824219 22.546875 8.828125 22.667969 C 8.828125 22.839844 8.828125 23.015625 8.832031 23.1875 C 8.832031 23.242188 8.832031 23.296875 8.832031 23.351562 C 8.832031 23.730469 8.832031 23.730469 8.722656 23.917969 C 8.578125 24.039062 8.484375 24.03125 8.304688 24.019531 C 8.160156 23.992188 8.097656 23.929688 8.015625 23.8125 C 7.957031 23.695312 7.964844 23.613281 7.964844 23.480469 C 7.964844 23.429688 7.964844 23.378906 7.964844 23.328125 C 7.964844 23.277344 7.964844 23.222656 7.964844 23.167969 C 7.964844 23.082031 7.964844 23.082031 7.964844 23 C 7.964844 22.824219 7.964844 22.648438 7.964844 22.46875 C 7.964844 22.351562 7.964844 22.230469 7.964844 22.113281 C 7.96875 21.820312 7.96875 21.527344 7.96875 21.234375 C 7.457031 21.234375 6.949219 21.234375 6.421875 21.234375 C 6.425781 21.503906 6.425781 21.503906 6.429688 21.78125 C 6.433594 21.953125 6.433594 22.128906 6.433594 22.304688 C 6.4375 22.425781 6.4375 22.546875 6.441406 22.667969 C 6.441406 22.839844 6.445312 23.015625 6.445312 23.1875 C 6.445312 23.242188 6.445312 23.296875 6.449219 23.351562 C 6.449219 23.773438 6.449219 23.773438 6.308594 23.917969 C 6.191406 23.996094 6.140625 24.03125 6 24.03125 C 5.96875 24.03125 5.941406 24.03125 5.910156 24.03125 C 5.753906 23.980469 5.660156 23.902344 5.578125 23.765625 C 5.542969 23.574219 5.542969 23.382812 5.546875 23.1875 C 5.542969 23.132812 5.542969 23.078125 5.542969 23.019531 C 5.539062 22.839844 5.539062 22.664062 5.539062 22.484375 C 5.539062 22.363281 5.539062 22.242188 5.535156 22.121094 C 5.535156 21.828125 5.53125 21.53125 5.53125 21.234375 C 5.503906 21.226562 5.480469 21.21875 5.453125 21.214844 C 4.980469 21.074219 4.675781 20.769531 4.335938 20.429688 C 4.300781 20.394531 4.265625 20.359375 4.226562 20.320312 C 4.148438 20.246094 4.074219 20.167969 3.996094 20.09375 C 3.882812 19.976562 3.765625 19.863281 3.648438 19.75 C 3.574219 19.675781 3.5 19.601562 3.425781 19.527344 C 3.390625 19.492188 3.355469 19.457031 3.320312 19.421875 C 3.042969 19.144531 2.832031 18.863281 2.765625 18.46875 C 2.734375 18.46875 2.703125 18.46875 2.671875 18.46875 C 2.347656 18.46875 2.023438 18.464844 1.695312 18.460938 C 1.574219 18.460938 1.453125 18.460938 1.332031 18.460938 C 1.160156 18.460938 0.984375 18.457031 0.8125 18.453125 C 0.757812 18.457031 0.703125 18.457031 0.648438 18.457031 C 0.226562 18.449219 0.226562 18.449219 0.0820312 18.308594 C 0.00390625 18.191406 -0.03125 18.140625 -0.03125 18 C -0.03125 17.96875 -0.03125 17.941406 -0.03125 17.910156 C 0.0195312 17.753906 0.09375 17.660156 0.234375 17.578125 C 0.425781 17.542969 0.617188 17.550781 0.8125 17.554688 C 0.867188 17.554688 0.921875 17.554688 0.980469 17.554688 C 1.160156 17.558594 1.335938 17.558594 1.515625 17.5625 C 1.636719 17.566406 1.757812 17.566406 1.878906 17.566406 C 2.171875 17.570312 2.46875 17.574219 2.765625 17.578125 C 2.765625 17.066406 2.765625 16.558594 2.765625 16.03125 C 2.589844 16.03125 2.414062 16.035156 2.230469 16.035156 C 2.058594 16.039062 1.886719 16.039062 1.71875 16.039062 C 1.597656 16.039062 1.480469 16.039062 1.359375 16.042969 C 1.1875 16.042969 1.019531 16.042969 0.847656 16.046875 C 0.769531 16.046875 0.769531 16.046875 0.6875 16.046875 C 0.636719 16.046875 0.585938 16.046875 0.535156 16.046875 C 0.46875 16.046875 0.46875 16.046875 0.402344 16.046875 C 0.253906 16.027344 0.167969 15.976562 0.046875 15.890625 C -0.0078125 15.785156 -0.0117188 15.710938 -0.015625 15.59375 C -0.0195312 15.554688 -0.0234375 15.519531 -0.0234375 15.480469 C 0 15.375 0 15.375 0.0820312 15.277344 C 0.316406 15.140625 0.542969 15.164062 0.8125 15.167969 C 0.867188 15.167969 0.921875 15.167969 0.980469 15.171875 C 1.160156 15.171875 1.335938 15.171875 1.515625 15.175781 C 1.636719 15.175781 1.757812 15.175781 1.878906 15.179688 C 2.171875 15.179688 2.46875 15.183594 2.765625 15.1875 C 2.765625 14.675781 2.765625 14.167969 2.765625 13.640625 C 2.59375 13.640625 2.417969 13.644531 2.242188 13.644531 C 2.074219 13.648438 1.90625 13.648438 1.738281 13.648438 C 1.621094 13.648438 1.503906 13.648438 1.386719 13.652344 C 1.21875 13.652344 1.050781 13.652344 0.882812 13.65625 C 0.804688 13.65625 0.804688 13.65625 0.726562 13.65625 C 0.652344 13.65625 0.652344 13.65625 0.578125 13.65625 C 0.535156 13.65625 0.492188 13.65625 0.449219 13.65625 C 0.257812 13.628906 0.132812 13.539062 0 13.40625 C -0.015625 13.3125 -0.015625 13.3125 -0.015625 13.203125 C -0.0195312 13.164062 -0.0195312 13.128906 -0.0234375 13.089844 C 0.0078125 12.941406 0.0703125 12.890625 0.1875 12.796875 C 0.308594 12.773438 0.308594 12.773438 0.445312 12.777344 C 0.523438 12.777344 0.523438 12.777344 0.601562 12.777344 C 0.65625 12.777344 0.710938 12.777344 0.769531 12.777344 C 0.855469 12.777344 0.855469 12.777344 0.941406 12.78125 C 1.125 12.78125 1.304688 12.78125 1.488281 12.785156 C 1.613281 12.785156 1.734375 12.785156 1.859375 12.789062 C 2.160156 12.789062 2.464844 12.792969 2.765625 12.796875 C 2.765625 12.269531 2.765625 11.746094 2.765625 11.203125 C 2.582031 11.207031 2.398438 11.207031 2.207031 11.210938 C 2.03125 11.210938 1.851562 11.210938 1.675781 11.214844 C 1.550781 11.214844 1.425781 11.214844 1.304688 11.21875 C 1.125 11.21875 0.949219 11.21875 0.769531 11.222656 C 0.6875 11.222656 0.6875 11.222656 0.601562 11.222656 C 0.550781 11.222656 0.5 11.222656 0.445312 11.222656 C 0.398438 11.226562 0.355469 11.226562 0.308594 11.226562 C 0.152344 11.195312 0.0976562 11.136719 0 11.015625 C -0.0351562 10.871094 -0.0273438 10.738281 0 10.59375 C 0.101562 10.453125 0.160156 10.414062 0.328125 10.359375 C 0.40625 10.355469 0.488281 10.355469 0.566406 10.355469 C 0.617188 10.355469 0.664062 10.355469 0.714844 10.355469 C 0.769531 10.355469 0.820312 10.355469 0.875 10.355469 C 0.929688 10.355469 0.984375 10.355469 1.039062 10.355469 C 1.210938 10.355469 1.382812 10.355469 1.554688 10.355469 C 1.671875 10.355469 1.789062 10.355469 1.90625 10.355469 C 2.191406 10.359375 2.480469 10.359375 2.765625 10.359375 C 2.765625 9.847656 2.765625 9.339844 2.765625 8.8125 C 2.585938 8.816406 2.40625 8.816406 2.21875 8.820312 C 2.046875 8.820312 1.871094 8.820312 1.695312 8.824219 C 1.574219 8.824219 1.453125 8.824219 1.332031 8.828125 C 1.160156 8.828125 0.984375 8.828125 0.8125 8.832031 C 0.757812 8.832031 0.703125 8.832031 0.648438 8.832031 C 0.269531 8.832031 0.269531 8.832031 0.0820312 8.722656 C -0.0390625 8.578125 -0.03125 8.484375 -0.0195312 8.304688 C 0.0078125 8.160156 0.0703125 8.097656 0.1875 8.015625 C 0.304688 7.957031 0.386719 7.964844 0.519531 7.964844 C 0.59375 7.964844 0.59375 7.964844 0.671875 7.964844 C 0.75 7.964844 0.75 7.964844 0.832031 7.964844 C 0.917969 7.964844 0.917969 7.964844 1 7.964844 C 1.175781 7.964844 1.351562 7.964844 1.53125 7.964844 C 1.648438 7.964844 1.769531 7.964844 1.886719 7.964844 C 2.179688 7.96875 2.472656 7.96875 2.765625 7.96875 C 2.765625 7.457031 2.765625 6.949219 2.765625 6.421875 C 2.496094 6.425781 2.496094 6.425781 2.21875 6.429688 C 2.046875 6.433594 1.871094 6.433594 1.695312 6.433594 C 1.574219 6.4375 1.453125 6.4375 1.332031 6.441406 C 1.160156 6.441406 0.984375 6.445312 0.8125 6.445312 C 0.757812 6.445312 0.703125 6.445312 0.648438 6.449219 C 0.226562 6.449219 0.226562 6.449219 0.0820312 6.308594 C 0.00390625 6.191406 -0.03125 6.140625 -0.03125 6 C -0.03125 5.96875 -0.03125 5.941406 -0.03125 5.910156 C 0.0195312 5.753906 0.0976562 5.660156 0.234375 5.578125 C 0.425781 5.542969 0.617188 5.542969 0.8125 5.546875 C 0.867188 5.542969 0.921875 5.542969 0.980469 5.542969 C 1.160156 5.539062 1.335938 5.539062 1.515625 5.539062 C 1.636719 5.539062 1.757812 5.539062 1.878906 5.535156 C 2.171875 5.535156 2.46875 5.53125 2.765625 5.53125 C 2.773438 5.503906 2.78125 5.480469 2.785156 5.453125 C 2.925781 4.980469 3.230469 4.675781 3.570312 4.335938 C 3.625 4.28125 3.625 4.28125 3.679688 4.226562 C 3.753906 4.148438 3.832031 4.074219 3.90625 3.996094 C 4.023438 3.882812 4.136719 3.765625 4.25 3.648438 C 4.324219 3.574219 4.398438 3.5 4.472656 3.425781 C 4.507812 3.390625 4.542969 3.355469 4.578125 3.320312 C 4.855469 3.042969 5.136719 2.832031 5.53125 2.765625 C 5.53125 2.734375 5.53125 2.703125 5.53125 2.671875 C 5.53125 2.347656 5.535156 2.023438 5.539062 1.695312 C 5.539062 1.574219 5.539062 1.453125 5.539062 1.332031 C 5.539062 1.160156 5.542969 0.984375 5.546875 0.8125 C 5.542969 0.757812 5.542969 0.703125 5.542969 0.648438 C 5.550781 0.226562 5.550781 0.226562 5.691406 0.0820312 C 5.808594 0.00390625 5.859375 -0.03125 6 -0.03125 Z M 5.695312 5.253906 C 5.675781 5.277344 5.652344 5.296875 5.628906 5.320312 C 5.582031 5.367188 5.539062 5.414062 5.492188 5.457031 C 5.421875 5.527344 5.351562 5.597656 5.28125 5.667969 C 5.238281 5.710938 5.191406 5.757812 5.148438 5.800781 C 5.109375 5.84375 5.066406 5.882812 5.027344 5.925781 C 4.789062 6.203125 4.761719 6.4375 4.761719 6.789062 C 4.761719 6.835938 4.761719 6.882812 4.761719 6.929688 C 4.761719 7.085938 4.761719 7.242188 4.761719 7.394531 C 4.761719 7.507812 4.761719 7.617188 4.761719 7.730469 C 4.757812 8 4.757812 8.269531 4.757812 8.539062 C 4.757812 8.761719 4.757812 8.980469 4.757812 9.199219 C 4.757812 9.265625 4.757812 9.328125 4.757812 9.390625 C 4.757812 9.421875 4.757812 9.453125 4.757812 9.488281 C 4.757812 10.082031 4.757812 10.679688 4.757812 11.277344 C 4.757812 11.824219 4.757812 12.367188 4.753906 12.914062 C 4.753906 13.476562 4.753906 14.035156 4.753906 14.597656 C 4.753906 14.910156 4.753906 15.226562 4.753906 15.539062 C 4.75 15.835938 4.75 16.132812 4.753906 16.425781 C 4.753906 16.535156 4.753906 16.644531 4.75 16.753906 C 4.75 16.902344 4.75 17.050781 4.753906 17.199219 C 4.75 17.242188 4.75 17.285156 4.75 17.328125 C 4.757812 17.753906 4.960938 18.007812 5.253906 18.304688 C 5.277344 18.324219 5.296875 18.347656 5.320312 18.371094 C 5.367188 18.417969 5.414062 18.460938 5.457031 18.507812 C 5.527344 18.578125 5.597656 18.648438 5.667969 18.71875 C 5.710938 18.761719 5.757812 18.808594 5.800781 18.851562 C 5.84375 18.890625 5.882812 18.933594 5.925781 18.972656 C 6.203125 19.210938 6.433594 19.238281 6.785156 19.238281 C 6.832031 19.238281 6.878906 19.238281 6.925781 19.238281 C 7.078125 19.238281 7.234375 19.238281 7.386719 19.238281 C 7.496094 19.238281 7.605469 19.238281 7.71875 19.238281 C 8.015625 19.238281 8.316406 19.238281 8.617188 19.238281 C 8.898438 19.238281 9.179688 19.238281 9.460938 19.238281 C 10.050781 19.238281 10.644531 19.238281 11.238281 19.238281 C 11.742188 19.234375 12.25 19.238281 12.757812 19.238281 C 13.347656 19.238281 13.9375 19.238281 14.527344 19.238281 C 14.839844 19.238281 15.152344 19.238281 15.464844 19.238281 C 15.757812 19.238281 16.050781 19.238281 16.34375 19.238281 C 16.453125 19.238281 16.558594 19.238281 16.667969 19.238281 C 16.8125 19.238281 16.960938 19.238281 17.109375 19.238281 C 17.148438 19.238281 17.191406 19.238281 17.238281 19.238281 C 17.601562 19.234375 17.894531 19.164062 18.164062 18.898438 C 18.1875 18.878906 18.207031 18.855469 18.230469 18.832031 C 18.253906 18.808594 18.277344 18.785156 18.304688 18.757812 C 18.355469 18.707031 18.40625 18.660156 18.453125 18.609375 C 18.53125 18.53125 18.605469 18.453125 18.683594 18.378906 C 18.734375 18.328125 18.78125 18.28125 18.832031 18.230469 C 18.855469 18.207031 18.875 18.1875 18.898438 18.164062 C 19.199219 17.851562 19.238281 17.519531 19.238281 17.109375 C 19.238281 17.039062 19.238281 17.039062 19.238281 16.96875 C 19.238281 16.816406 19.238281 16.664062 19.238281 16.507812 C 19.238281 16.398438 19.238281 16.289062 19.238281 16.179688 C 19.242188 15.878906 19.242188 15.578125 19.242188 15.28125 C 19.242188 15.0625 19.242188 14.84375 19.242188 14.625 C 19.242188 14.578125 19.242188 14.578125 19.242188 14.53125 C 19.242188 14.5 19.242188 14.46875 19.242188 14.4375 C 19.242188 13.84375 19.242188 13.253906 19.242188 12.664062 C 19.242188 12.121094 19.242188 11.582031 19.246094 11.042969 C 19.246094 10.484375 19.246094 9.929688 19.246094 9.375 C 19.246094 9.0625 19.246094 8.75 19.246094 8.441406 C 19.25 8.148438 19.25 7.855469 19.246094 7.5625 C 19.246094 7.453125 19.246094 7.347656 19.25 7.238281 C 19.25 7.089844 19.25 6.945312 19.246094 6.796875 C 19.25 6.753906 19.25 6.714844 19.25 6.667969 C 19.242188 6.246094 19.039062 5.988281 18.746094 5.695312 C 18.722656 5.675781 18.703125 5.652344 18.679688 5.628906 C 18.632812 5.582031 18.585938 5.539062 18.542969 5.492188 C 18.472656 5.421875 18.402344 5.351562 18.332031 5.28125 C 18.289062 5.238281 18.242188 5.191406 18.199219 5.148438 C 18.15625 5.109375 18.117188 5.066406 18.074219 5.027344 C 17.796875 4.789062 17.5625 4.761719 17.210938 4.761719 C 17.140625 4.761719 17.140625 4.761719 17.070312 4.761719 C 16.914062 4.761719 16.757812 4.761719 16.605469 4.761719 C 16.492188 4.761719 16.382812 4.761719 16.269531 4.761719 C 16 4.757812 15.730469 4.757812 15.460938 4.757812 C 15.238281 4.757812 15.019531 4.757812 14.800781 4.757812 C 14.734375 4.757812 14.671875 4.757812 14.609375 4.757812 C 14.578125 4.757812 14.546875 4.757812 14.511719 4.757812 C 13.917969 4.757812 13.320312 4.757812 12.722656 4.757812 C 12.175781 4.757812 11.632812 4.757812 11.085938 4.753906 C 10.523438 4.753906 9.964844 4.753906 9.402344 4.753906 C 9.089844 4.753906 8.773438 4.753906 8.460938 4.753906 C 8.164062 4.75 7.867188 4.75 7.574219 4.753906 C 7.464844 4.753906 7.355469 4.753906 7.246094 4.75 C 7.097656 4.75 6.949219 4.75 6.800781 4.753906 C 6.757812 4.75 6.714844 4.75 6.671875 4.75 C 6.246094 4.757812 5.992188 4.960938 5.695312 5.253906 Z M 5.695312 5.253906 "/>
<path style=" stroke:none;fill-rule:nonzero;fill:rgb(98.823529%,99.215686%,99.607843%);fill-opacity:1;" d="M 10.878906 8.828125 C 11.21875 9.09375 11.46875 9.523438 11.578125 9.9375 C 11.597656 10.117188 11.597656 10.296875 11.597656 10.476562 C 11.597656 10.527344 11.597656 10.582031 11.597656 10.636719 C 11.597656 10.808594 11.597656 10.984375 11.597656 11.15625 C 11.597656 11.277344 11.597656 11.398438 11.597656 11.519531 C 11.601562 11.773438 11.597656 12.027344 11.597656 12.277344 C 11.597656 12.570312 11.597656 12.863281 11.601562 13.15625 C 11.601562 13.4375 11.601562 13.71875 11.601562 14 C 11.601562 14.121094 11.601562 14.238281 11.601562 14.359375 C 11.601562 14.527344 11.601562 14.695312 11.601562 14.859375 C 11.601562 14.910156 11.601562 14.960938 11.601562 15.011719 C 11.601562 15.34375 11.601562 15.34375 11.492188 15.496094 C 11.34375 15.59375 11.238281 15.613281 11.0625 15.609375 C 10.9375 15.507812 10.851562 15.425781 10.78125 15.28125 C 10.777344 15.203125 10.777344 15.121094 10.777344 15.042969 C 10.777344 14.96875 10.777344 14.96875 10.777344 14.890625 C 10.777344 14.839844 10.777344 14.785156 10.777344 14.730469 C 10.777344 14.671875 10.777344 14.617188 10.777344 14.5625 C 10.777344 14.386719 10.777344 14.210938 10.777344 14.03125 C 10.777344 13.914062 10.777344 13.792969 10.777344 13.675781 C 10.78125 13.382812 10.78125 13.089844 10.78125 12.796875 C 9.992188 12.796875 9.203125 12.796875 8.390625 12.796875 C 8.394531 12.976562 8.394531 13.15625 8.398438 13.34375 C 8.398438 13.515625 8.398438 13.691406 8.402344 13.867188 C 8.402344 13.988281 8.402344 14.109375 8.40625 14.230469 C 8.40625 14.402344 8.40625 14.578125 8.410156 14.75 C 8.410156 14.804688 8.410156 14.859375 8.410156 14.914062 C 8.410156 15.289062 8.410156 15.289062 8.304688 15.476562 C 8.160156 15.597656 8.0625 15.613281 7.875 15.609375 C 7.742188 15.527344 7.664062 15.46875 7.59375 15.328125 C 7.589844 15.261719 7.585938 15.191406 7.585938 15.125 C 7.585938 15.058594 7.585938 15.058594 7.585938 14.992188 C 7.585938 14.945312 7.585938 14.898438 7.585938 14.847656 C 7.585938 14.800781 7.585938 14.75 7.585938 14.699219 C 7.582031 14.53125 7.582031 14.367188 7.582031 14.203125 C 7.582031 14.144531 7.582031 14.089844 7.582031 14.03125 C 7.582031 13.730469 7.582031 13.429688 7.578125 13.132812 C 7.578125 12.824219 7.578125 12.515625 7.574219 12.207031 C 7.574219 11.96875 7.574219 11.730469 7.574219 11.492188 C 7.574219 11.378906 7.574219 11.265625 7.574219 11.148438 C 7.566406 10.300781 7.582031 9.605469 8.199219 8.953125 C 9 8.199219 10 8.261719 10.878906 8.828125 Z M 10.878906 8.828125 "/>
<path style=" stroke:none;fill-rule:nonzero;fill:rgb(98.431373%,98.823529%,99.607843%);fill-opacity:1;" d="M 13.328125 8.382812 C 13.378906 8.382812 13.429688 8.382812 13.484375 8.382812 C 13.539062 8.382812 13.597656 8.382812 13.65625 8.382812 C 13.710938 8.382812 13.769531 8.382812 13.828125 8.382812 C 13.953125 8.382812 14.074219 8.382812 14.195312 8.382812 C 14.320312 8.382812 14.445312 8.382812 14.574219 8.382812 C 14.753906 8.378906 14.933594 8.378906 15.113281 8.378906 C 15.171875 8.378906 15.226562 8.378906 15.285156 8.378906 C 15.335938 8.378906 15.386719 8.378906 15.441406 8.378906 C 15.488281 8.378906 15.535156 8.378906 15.582031 8.378906 C 15.710938 8.390625 15.785156 8.414062 15.890625 8.484375 C 16.007812 8.660156 16.007812 8.746094 15.984375 8.953125 C 15.90625 9.03125 15.828125 9.109375 15.75 9.1875 C 15.441406 9.1875 15.132812 9.1875 14.8125 9.1875 C 14.8125 11.042969 14.8125 12.898438 14.8125 14.8125 C 15.121094 14.8125 15.429688 14.8125 15.75 14.8125 C 15.984375 15 15.984375 15 16.015625 15.09375 C 16.007812 15.265625 16.003906 15.347656 15.894531 15.488281 C 15.738281 15.605469 15.648438 15.617188 15.457031 15.617188 C 15.402344 15.617188 15.351562 15.617188 15.296875 15.621094 C 15.242188 15.621094 15.1875 15.621094 15.128906 15.621094 C 15.042969 15.621094 15.042969 15.621094 14.953125 15.621094 C 14.832031 15.621094 14.710938 15.621094 14.585938 15.625 C 14.402344 15.625 14.214844 15.625 14.027344 15.628906 C 13.910156 15.628906 13.789062 15.628906 13.671875 15.628906 C 13.589844 15.628906 13.589844 15.628906 13.503906 15.632812 C 13.113281 15.628906 13.113281 15.628906 12.925781 15.519531 C 12.828125 15.402344 12.800781 15.347656 12.777344 15.195312 C 12.796875 15.046875 12.796875 15.046875 13.03125 14.8125 C 13.355469 14.8125 13.679688 14.8125 14.015625 14.8125 C 14.015625 12.957031 14.015625 11.101562 14.015625 9.1875 C 13.691406 9.1875 13.367188 9.1875 13.03125 9.1875 C 12.84375 9 12.84375 9 12.796875 8.839844 C 12.796875 8.671875 12.796875 8.671875 12.882812 8.535156 C 13.035156 8.386719 13.117188 8.382812 13.328125 8.382812 Z M 13.328125 8.382812 "/>
<path style=" stroke:none;fill-rule:nonzero;fill:rgb(21.960784%,47.450981%,77.64706%);fill-opacity:1;" d="M 10.277344 9.382812 C 10.554688 9.570312 10.695312 9.804688 10.78125 10.125 C 10.792969 10.269531 10.792969 10.417969 10.789062 10.5625 C 10.789062 10.597656 10.789062 10.636719 10.789062 10.671875 C 10.789062 10.808594 10.789062 10.945312 10.789062 11.078125 C 10.785156 11.382812 10.785156 11.6875 10.78125 12 C 9.992188 12 9.203125 12 8.390625 12 C 8.386719 11.699219 8.382812 11.402344 8.375 11.09375 C 8.375 11 8.371094 10.90625 8.371094 10.808594 C 8.363281 10.324219 8.371094 9.933594 8.714844 9.558594 C 9.179688 9.101562 9.71875 9.078125 10.277344 9.382812 Z M 10.277344 9.382812 "/>
<path style=" stroke:none;fill-rule:nonzero;fill:rgb(88.627452%,78.431374%,29.803923%);fill-opacity:1;" d="M 17.578125 21.1875 C 17.855469 21.1875 18.136719 21.1875 18.421875 21.1875 C 18.425781 21.550781 18.433594 21.914062 18.433594 22.277344 C 18.4375 22.398438 18.4375 22.523438 18.441406 22.644531 C 18.441406 22.824219 18.445312 23 18.445312 23.179688 C 18.445312 23.234375 18.445312 23.289062 18.449219 23.347656 C 18.449219 23.773438 18.449219 23.773438 18.308594 23.917969 C 18.191406 23.996094 18.136719 24.03125 18 24.03125 C 17.96875 24.03125 17.941406 24.03125 17.910156 24.03125 C 17.753906 23.980469 17.660156 23.90625 17.578125 23.765625 C 17.542969 23.570312 17.550781 23.375 17.554688 23.179688 C 17.554688 23.121094 17.554688 23.066406 17.554688 23.007812 C 17.558594 22.824219 17.558594 22.644531 17.5625 22.460938 C 17.566406 22.339844 17.566406 22.214844 17.566406 22.09375 C 17.570312 21.789062 17.574219 21.488281 17.578125 21.1875 Z M 17.578125 21.1875 "/>
<path style=" stroke:none;fill-rule:nonzero;fill:rgb(88.627452%,78.431374%,29.803923%);fill-opacity:1;" d="M 5.578125 21.1875 C 5.855469 21.1875 6.136719 21.1875 6.421875 21.1875 C 6.425781 21.550781 6.433594 21.914062 6.433594 22.277344 C 6.4375 22.398438 6.4375 22.523438 6.441406 22.644531 C 6.441406 22.824219 6.445312 23 6.445312 23.179688 C 6.445312 23.234375 6.445312 23.289062 6.449219 23.347656 C 6.449219 23.773438 6.449219 23.773438 6.308594 23.917969 C 6.191406 23.996094 6.136719 24.03125 6 24.03125 C 5.96875 24.03125 5.941406 24.03125 5.910156 24.03125 C 5.753906 23.980469 5.660156 23.90625 5.578125 23.765625 C 5.542969 23.570312 5.550781 23.375 5.554688 23.179688 C 5.554688 23.121094 5.554688 23.066406 5.554688 23.007812 C 5.558594 22.824219 5.558594 22.644531 5.5625 22.460938 C 5.566406 22.339844 5.566406 22.214844 5.566406 22.09375 C 5.570312 21.789062 5.574219 21.488281 5.578125 21.1875 Z M 5.578125 21.1875 "/>
<path style=" stroke:none;fill-rule:nonzero;fill:rgb(88.627452%,78.431374%,29.803923%);fill-opacity:1;" d="M 21.1875 17.578125 C 21.550781 17.574219 21.914062 17.566406 22.277344 17.566406 C 22.398438 17.5625 22.523438 17.5625 22.644531 17.558594 C 22.824219 17.558594 23 17.554688 23.179688 17.554688 C 23.261719 17.554688 23.261719 17.554688 23.347656 17.550781 C 23.773438 17.550781 23.773438 17.550781 23.917969 17.691406 C 23.996094 17.808594 24.03125 17.863281 24.03125 18 C 24.03125 18.03125 24.03125 18.058594 24.03125 18.089844 C 23.980469 18.246094 23.90625 18.339844 23.765625 18.421875 C 23.570312 18.457031 23.375 18.449219 23.179688 18.445312 C 23.121094 18.445312 23.066406 18.445312 23.007812 18.445312 C 22.824219 18.441406 22.644531 18.441406 22.460938 18.4375 C 22.339844 18.433594 22.214844 18.433594 22.09375 18.433594 C 21.789062 18.429688 21.488281 18.425781 21.1875 18.421875 C 21.1875 18.144531 21.1875 17.863281 21.1875 17.578125 Z M 21.1875 17.578125 "/>
<path style=" stroke:none;fill-rule:nonzero;fill:rgb(88.627452%,78.431374%,29.803923%);fill-opacity:1;" d="M 0.820312 17.554688 C 0.878906 17.554688 0.933594 17.554688 0.992188 17.554688 C 1.175781 17.558594 1.355469 17.558594 1.539062 17.5625 C 1.660156 17.566406 1.785156 17.566406 1.90625 17.566406 C 2.210938 17.570312 2.511719 17.574219 2.8125 17.578125 C 2.8125 17.855469 2.8125 18.136719 2.8125 18.421875 C 2.449219 18.425781 2.085938 18.433594 1.722656 18.433594 C 1.601562 18.4375 1.476562 18.4375 1.355469 18.441406 C 1.175781 18.441406 1 18.445312 0.820312 18.445312 C 0.738281 18.445312 0.738281 18.445312 0.652344 18.449219 C 0.226562 18.449219 0.226562 18.449219 0.0820312 18.308594 C 0.00390625 18.191406 -0.03125 18.136719 -0.03125 18 C -0.03125 17.96875 -0.03125 17.941406 -0.03125 17.910156 C 0.101562 17.496094 0.457031 17.546875 0.820312 17.554688 Z M 0.820312 17.554688 "/>
<path style=" stroke:none;fill-rule:nonzero;fill:rgb(88.627452%,78.431374%,29.803923%);fill-opacity:1;" d="M 21.1875 5.578125 C 21.550781 5.574219 21.914062 5.566406 22.277344 5.566406 C 22.398438 5.5625 22.523438 5.5625 22.644531 5.558594 C 22.824219 5.558594 23 5.554688 23.179688 5.554688 C 23.261719 5.554688 23.261719 5.554688 23.347656 5.550781 C 23.773438 5.550781 23.773438 5.550781 23.917969 5.691406 C 23.996094 5.808594 24.03125 5.863281 24.03125 6 C 24.03125 6.03125 24.03125 6.058594 24.03125 6.089844 C 23.980469 6.246094 23.90625 6.339844 23.765625 6.421875 C 23.570312 6.457031 23.375 6.449219 23.179688 6.445312 C 23.121094 6.445312 23.066406 6.445312 23.007812 6.445312 C 22.824219 6.441406 22.644531 6.441406 22.460938 6.4375 C 22.339844 6.433594 22.214844 6.433594 22.09375 6.433594 C 21.789062 6.429688 21.488281 6.425781 21.1875 6.421875 C 21.1875 6.144531 21.1875 5.863281 21.1875 5.578125 Z M 21.1875 5.578125 "/>
<path style=" stroke:none;fill-rule:nonzero;fill:rgb(88.627452%,78.431374%,29.803923%);fill-opacity:1;" d="M 0.820312 5.554688 C 0.878906 5.554688 0.933594 5.554688 0.992188 5.554688 C 1.175781 5.558594 1.355469 5.558594 1.539062 5.5625 C 1.660156 5.566406 1.785156 5.566406 1.90625 5.566406 C 2.210938 5.570312 2.511719 5.574219 2.8125 5.578125 C 2.8125 5.855469 2.8125 6.136719 2.8125 6.421875 C 2.449219 6.425781 2.085938 6.433594 1.722656 6.433594 C 1.601562 6.4375 1.476562 6.4375 1.355469 6.441406 C 1.175781 6.441406 1 6.445312 0.820312 6.445312 C 0.738281 6.445312 0.738281 6.445312 0.652344 6.449219 C 0.226562 6.449219 0.226562 6.449219 0.0820312 6.308594 C 0.00390625 6.191406 -0.03125 6.136719 -0.03125 6 C -0.03125 5.96875 -0.03125 5.941406 -0.03125 5.910156 C 0.101562 5.496094 0.457031 5.546875 0.820312 5.554688 Z M 0.820312 5.554688 "/>
<path style=" stroke:none;fill-rule:nonzero;fill:rgb(88.627452%,78.431374%,29.803923%);fill-opacity:1;" d="M 18 -0.03125 C 18.03125 -0.03125 18.058594 -0.03125 18.089844 -0.03125 C 18.246094 0.0195312 18.339844 0.09375 18.421875 0.234375 C 18.457031 0.429688 18.449219 0.625 18.445312 0.820312 C 18.445312 0.878906 18.445312 0.933594 18.445312 0.992188 C 18.441406 1.175781 18.441406 1.355469 18.4375 1.539062 C 18.433594 1.660156 18.433594 1.785156 18.433594 1.90625 C 18.429688 2.210938 18.425781 2.511719 18.421875 2.8125 C 18.144531 2.8125 17.863281 2.8125 17.578125 2.8125 C 17.574219 2.449219 17.566406 2.085938 17.566406 1.722656 C 17.5625 1.601562 17.5625 1.476562 17.558594 1.355469 C 17.558594 1.175781 17.554688 1 17.554688 0.820312 C 17.554688 0.765625 17.554688 0.710938 17.550781 0.652344 C 17.550781 0.226562 17.550781 0.226562 17.691406 0.0820312 C 17.808594 0.00390625 17.863281 -0.03125 18 -0.03125 Z M 18 -0.03125 "/>
<path style=" stroke:none;fill-rule:nonzero;fill:rgb(88.627452%,78.431374%,29.803923%);fill-opacity:1;" d="M 6 -0.03125 C 6.03125 -0.03125 6.058594 -0.03125 6.089844 -0.03125 C 6.246094 0.0195312 6.339844 0.09375 6.421875 0.234375 C 6.457031 0.429688 6.449219 0.625 6.445312 0.820312 C 6.445312 0.878906 6.445312 0.933594 6.445312 0.992188 C 6.441406 1.175781 6.441406 1.355469 6.4375 1.539062 C 6.433594 1.660156 6.433594 1.785156 6.433594 1.90625 C 6.429688 2.210938 6.425781 2.511719 6.421875 2.8125 C 6.144531 2.8125 5.863281 2.8125 5.578125 2.8125 C 5.574219 2.449219 5.566406 2.085938 5.566406 1.722656 C 5.5625 1.601562 5.5625 1.476562 5.558594 1.355469 C 5.558594 1.175781 5.554688 1 5.554688 0.820312 C 5.554688 0.765625 5.554688 0.710938 5.550781 0.652344 C 5.550781 0.226562 5.550781 0.226562 5.691406 0.0820312 C 5.808594 0.00390625 5.863281 -0.03125 6 -0.03125 Z M 6 -0.03125 "/>
<path style=" stroke:none;fill-rule:nonzero;fill:rgb(88.627452%,78.431374%,29.803923%);fill-opacity:1;" d="M 15.1875 21.1875 C 15.464844 21.1875 15.746094 21.1875 16.03125 21.1875 C 16.035156 21.542969 16.039062 21.898438 16.039062 22.257812 C 16.039062 22.378906 16.039062 22.5 16.042969 22.621094 C 16.042969 22.792969 16.042969 22.96875 16.046875 23.140625 C 16.046875 23.195312 16.046875 23.25 16.046875 23.304688 C 16.046875 23.355469 16.046875 23.40625 16.046875 23.460938 C 16.046875 23.503906 16.046875 23.546875 16.046875 23.59375 C 16.027344 23.742188 15.976562 23.832031 15.890625 23.953125 C 15.785156 24.007812 15.710938 24.011719 15.59375 24.015625 C 15.554688 24.019531 15.519531 24.023438 15.480469 24.023438 C 15.375 24 15.375 24 15.277344 23.917969 C 15.136719 23.679688 15.164062 23.449219 15.167969 23.179688 C 15.167969 23.121094 15.167969 23.066406 15.171875 23.007812 C 15.171875 22.824219 15.171875 22.644531 15.175781 22.460938 C 15.175781 22.339844 15.175781 22.214844 15.179688 22.09375 C 15.179688 21.789062 15.183594 21.488281 15.1875 21.1875 Z M 15.1875 21.1875 "/>
<path style=" stroke:none;fill-rule:nonzero;fill:rgb(88.627452%,78.431374%,29.803923%);fill-opacity:1;" d="M 7.96875 21.1875 C 8.246094 21.1875 8.527344 21.1875 8.8125 21.1875 C 8.816406 21.550781 8.820312 21.914062 8.824219 22.277344 C 8.824219 22.398438 8.824219 22.523438 8.828125 22.644531 C 8.828125 22.824219 8.828125 23 8.832031 23.179688 C 8.832031 23.234375 8.832031 23.289062 8.832031 23.347656 C 8.832031 23.730469 8.832031 23.730469 8.722656 23.917969 C 8.578125 24.039062 8.484375 24.03125 8.304688 24.019531 C 8.160156 23.992188 8.097656 23.929688 8.015625 23.8125 C 7.957031 23.691406 7.964844 23.609375 7.964844 23.476562 C 7.964844 23.425781 7.964844 23.375 7.964844 23.320312 C 7.964844 23.265625 7.964844 23.210938 7.964844 23.15625 C 7.964844 23.101562 7.964844 23.042969 7.964844 22.984375 C 7.964844 22.804688 7.964844 22.625 7.964844 22.445312 C 7.964844 22.324219 7.964844 22.203125 7.964844 22.082031 C 7.96875 21.785156 7.96875 21.484375 7.96875 21.1875 Z M 7.96875 21.1875 "/>
<path style=" stroke:none;fill-rule:nonzero;fill:rgb(88.627452%,78.431374%,29.803923%);fill-opacity:1;" d="M 21.1875 15.1875 C 21.550781 15.183594 21.914062 15.179688 22.277344 15.175781 C 22.398438 15.175781 22.523438 15.175781 22.644531 15.171875 C 22.824219 15.171875 23 15.171875 23.179688 15.167969 C 23.234375 15.167969 23.289062 15.167969 23.347656 15.167969 C 23.730469 15.167969 23.730469 15.167969 23.917969 15.277344 C 24.039062 15.421875 24.03125 15.515625 24.019531 15.695312 C 23.992188 15.839844 23.929688 15.902344 23.8125 15.984375 C 23.691406 16.042969 23.609375 16.035156 23.476562 16.035156 C 23.425781 16.035156 23.375 16.035156 23.320312 16.035156 C 23.238281 16.035156 23.238281 16.035156 23.15625 16.035156 C 23.101562 16.035156 23.042969 16.035156 22.984375 16.035156 C 22.804688 16.035156 22.625 16.035156 22.445312 16.035156 C 22.324219 16.035156 22.203125 16.035156 22.082031 16.035156 C 21.785156 16.03125 21.484375 16.03125 21.1875 16.03125 C 21.1875 15.753906 21.1875 15.472656 21.1875 15.1875 Z M 21.1875 15.1875 "/>
<path style=" stroke:none;fill-rule:nonzero;fill:rgb(88.627452%,78.431374%,29.803923%);fill-opacity:1;" d="M 0.820312 15.167969 C 0.878906 15.167969 0.933594 15.167969 0.992188 15.171875 C 1.175781 15.171875 1.355469 15.171875 1.539062 15.175781 C 1.660156 15.175781 1.785156 15.175781 1.90625 15.179688 C 2.210938 15.179688 2.511719 15.183594 2.8125 15.1875 C 2.8125 15.464844 2.8125 15.746094 2.8125 16.03125 C 2.457031 16.035156 2.101562 16.039062 1.742188 16.039062 C 1.621094 16.039062 1.5 16.039062 1.378906 16.042969 C 1.207031 16.042969 1.03125 16.042969 0.859375 16.046875 C 0.804688 16.046875 0.75 16.046875 0.695312 16.046875 C 0.617188 16.046875 0.617188 16.046875 0.539062 16.046875 C 0.472656 16.046875 0.472656 16.046875 0.40625 16.046875 C 0.257812 16.027344 0.167969 15.976562 0.046875 15.890625 C -0.0078125 15.785156 -0.0117188 15.710938 -0.015625 15.59375 C -0.0195312 15.554688 -0.0234375 15.519531 -0.0234375 15.480469 C 0 15.375 0 15.375 0.0820312 15.277344 C 0.320312 15.136719 0.550781 15.164062 0.820312 15.167969 Z M 0.820312 15.167969 "/>
<path style=" stroke:none;fill-rule:nonzero;fill:rgb(88.627452%,78.431374%,29.803923%);fill-opacity:1;" d="M 21.1875 7.96875 C 21.542969 7.964844 21.898438 7.960938 22.257812 7.960938 C 22.378906 7.960938 22.5 7.960938 22.621094 7.957031 C 22.792969 7.957031 22.96875 7.957031 23.140625 7.953125 C 23.195312 7.953125 23.25 7.953125 23.304688 7.953125 C 23.355469 7.953125 23.40625 7.953125 23.460938 7.953125 C 23.503906 7.953125 23.546875 7.953125 23.59375 7.953125 C 23.742188 7.972656 23.832031 8.023438 23.953125 8.109375 C 24.007812 8.214844 24.011719 8.289062 24.015625 8.40625 C 24.019531 8.445312 24.023438 8.480469 24.023438 8.519531 C 24 8.625 24 8.625 23.917969 8.722656 C 23.679688 8.863281 23.449219 8.835938 23.179688 8.832031 C 23.121094 8.832031 23.066406 8.832031 23.007812 8.828125 C 22.824219 8.828125 22.644531 8.828125 22.460938 8.824219 C 22.339844 8.824219 22.214844 8.824219 22.09375 8.820312 C 21.789062 8.820312 21.488281 8.816406 21.1875 8.8125 C 21.1875 8.535156 21.1875 8.253906 21.1875 7.96875 Z M 21.1875 7.96875 "/>
<path style=" stroke:none;fill-rule:nonzero;fill:rgb(88.627452%,78.431374%,29.803923%);fill-opacity:1;" d="M 0.523438 7.964844 C 0.574219 7.964844 0.625 7.964844 0.679688 7.964844 C 0.761719 7.964844 0.761719 7.964844 0.84375 7.964844 C 0.898438 7.964844 0.957031 7.964844 1.015625 7.964844 C 1.195312 7.964844 1.375 7.964844 1.554688 7.964844 C 1.675781 7.964844 1.796875 7.964844 1.917969 7.964844 C 2.214844 7.96875 2.515625 7.96875 2.8125 7.96875 C 2.8125 8.246094 2.8125 8.527344 2.8125 8.8125 C 2.449219 8.816406 2.085938 8.820312 1.722656 8.824219 C 1.601562 8.824219 1.476562 8.824219 1.355469 8.828125 C 1.175781 8.828125 1 8.828125 0.820312 8.832031 C 0.765625 8.832031 0.710938 8.832031 0.652344 8.832031 C 0.269531 8.832031 0.269531 8.832031 0.0820312 8.722656 C -0.0390625 8.578125 -0.03125 8.484375 -0.0195312 8.300781 C 0.0078125 8.160156 0.0703125 8.097656 0.1875 8.015625 C 0.308594 7.957031 0.390625 7.964844 0.523438 7.964844 Z M 0.523438 7.964844 "/>
<path style=" stroke:none;fill-rule:nonzero;fill:rgb(88.627452%,78.431374%,29.803923%);fill-opacity:1;" d="M 15.695312 -0.0195312 C 15.839844 0.0078125 15.902344 0.0703125 15.984375 0.1875 C 16.042969 0.308594 16.035156 0.390625 16.035156 0.523438 C 16.035156 0.574219 16.035156 0.625 16.035156 0.679688 C 16.035156 0.734375 16.035156 0.789062 16.035156 0.84375 C 16.035156 0.898438 16.035156 0.957031 16.035156 1.015625 C 16.035156 1.195312 16.035156 1.375 16.035156 1.554688 C 16.035156 1.675781 16.035156 1.796875 16.035156 1.917969 C 16.03125 2.214844 16.03125 2.515625 16.03125 2.8125 C 15.753906 2.8125 15.472656 2.8125 15.1875 2.8125 C 15.183594 2.449219 15.179688 2.085938 15.175781 1.722656 C 15.175781 1.601562 15.175781 1.476562 15.171875 1.355469 C 15.171875 1.175781 15.171875 1 15.167969 0.820312 C 15.167969 0.765625 15.167969 0.710938 15.167969 0.652344 C 15.167969 0.269531 15.167969 0.269531 15.277344 0.0820312 C 15.421875 -0.0390625 15.515625 -0.03125 15.695312 -0.0195312 Z M 15.695312 -0.0195312 "/>
<path style=" stroke:none;fill-rule:nonzero;fill:rgb(88.627452%,78.431374%,29.803923%);fill-opacity:1;" d="M 8.40625 -0.015625 C 8.445312 -0.0195312 8.480469 -0.0234375 8.519531 -0.0234375 C 8.625 0 8.625 0 8.722656 0.0820312 C 8.863281 0.320312 8.835938 0.550781 8.832031 0.820312 C 8.832031 0.878906 8.832031 0.933594 8.828125 0.992188 C 8.828125 1.175781 8.828125 1.355469 8.824219 1.539062 C 8.824219 1.660156 8.824219 1.785156 8.820312 1.90625 C 8.820312 2.210938 8.816406 2.511719 8.8125 2.8125 C 8.535156 2.8125 8.253906 2.8125 7.96875 2.8125 C 7.964844 2.457031 7.960938 2.101562 7.960938 1.742188 C 7.960938 1.621094 7.960938 1.5 7.957031 1.378906 C 7.957031 1.207031 7.957031 1.03125 7.953125 0.859375 C 7.953125 0.804688 7.953125 0.75 7.953125 0.695312 C 7.953125 0.644531 7.953125 0.59375 7.953125 0.539062 C 7.953125 0.496094 7.953125 0.453125 7.953125 0.40625 C 7.972656 0.257812 8.023438 0.167969 8.109375 0.046875 C 8.214844 -0.0078125 8.289062 -0.0117188 8.40625 -0.015625 Z M 8.40625 -0.015625 "/>
<path style=" stroke:none;fill-rule:nonzero;fill:rgb(88.627452%,78.431374%,29.803923%);fill-opacity:1;" d="M 12.796875 21.1875 C 12.929688 21.1875 13.058594 21.183594 13.191406 21.183594 C 13.230469 21.183594 13.269531 21.183594 13.304688 21.183594 C 13.402344 21.183594 13.496094 21.183594 13.59375 21.1875 C 13.671875 21.265625 13.648438 21.355469 13.648438 21.460938 C 13.648438 21.507812 13.648438 21.554688 13.648438 21.605469 C 13.648438 21.65625 13.648438 21.710938 13.648438 21.765625 C 13.652344 21.816406 13.652344 21.871094 13.652344 21.925781 C 13.652344 22.039062 13.652344 22.152344 13.652344 22.265625 C 13.652344 22.441406 13.652344 22.613281 13.65625 22.789062 C 13.65625 22.898438 13.65625 23.007812 13.65625 23.117188 C 13.65625 23.167969 13.65625 23.222656 13.65625 23.273438 C 13.65625 23.324219 13.65625 23.371094 13.65625 23.421875 C 13.65625 23.464844 13.65625 23.507812 13.65625 23.550781 C 13.628906 23.742188 13.539062 23.867188 13.40625 24 C 13.3125 24.015625 13.3125 24.015625 13.203125 24.015625 C 13.148438 24.019531 13.148438 24.019531 13.089844 24.023438 C 12.941406 23.992188 12.890625 23.929688 12.796875 23.8125 C 12.773438 23.691406 12.773438 23.691406 12.777344 23.550781 C 12.777344 23.496094 12.777344 23.445312 12.777344 23.390625 C 12.777344 23.335938 12.777344 23.277344 12.777344 23.21875 C 12.777344 23.160156 12.777344 23.105469 12.78125 23.042969 C 12.78125 22.890625 12.78125 22.738281 12.785156 22.582031 C 12.785156 22.425781 12.785156 22.269531 12.789062 22.113281 C 12.789062 21.804688 12.792969 21.496094 12.796875 21.1875 Z M 12.796875 21.1875 "/>
<path style=" stroke:none;fill-rule:nonzero;fill:rgb(88.627452%,78.431374%,29.803923%);fill-opacity:1;" d="M 10.585938 21.183594 C 10.660156 21.183594 10.734375 21.183594 10.808594 21.183594 C 10.84375 21.183594 10.882812 21.183594 10.921875 21.183594 C 11.015625 21.1875 11.109375 21.1875 11.203125 21.1875 C 11.207031 21.558594 11.210938 21.929688 11.214844 22.296875 C 11.214844 22.425781 11.214844 22.550781 11.21875 22.675781 C 11.21875 22.859375 11.21875 23.039062 11.222656 23.21875 C 11.222656 23.277344 11.222656 23.332031 11.222656 23.390625 C 11.222656 23.445312 11.222656 23.496094 11.222656 23.550781 C 11.226562 23.597656 11.226562 23.644531 11.226562 23.691406 C 11.195312 23.847656 11.136719 23.902344 11.015625 24 C 10.871094 24.035156 10.738281 24.027344 10.59375 24 C 10.453125 23.898438 10.414062 23.839844 10.359375 23.671875 C 10.355469 23.59375 10.351562 23.511719 10.351562 23.433594 C 10.351562 23.382812 10.351562 23.335938 10.351562 23.285156 C 10.351562 23.234375 10.351562 23.179688 10.351562 23.125 C 10.351562 23.074219 10.351562 23.019531 10.351562 22.964844 C 10.351562 22.851562 10.351562 22.734375 10.351562 22.621094 C 10.351562 22.449219 10.351562 22.273438 10.351562 22.097656 C 10.351562 21.988281 10.351562 21.878906 10.351562 21.765625 C 10.351562 21.714844 10.351562 21.660156 10.351562 21.609375 C 10.351562 21.558594 10.351562 21.511719 10.351562 21.460938 C 10.351562 21.417969 10.351562 21.375 10.351562 21.332031 C 10.363281 21.15625 10.402344 21.1875 10.585938 21.183594 Z M 10.585938 21.183594 "/>
<path style=" stroke:none;fill-rule:nonzero;fill:rgb(88.627452%,78.431374%,29.803923%);fill-opacity:1;" d="M 21.1875 12.796875 C 21.558594 12.792969 21.929688 12.789062 22.296875 12.785156 C 22.425781 12.785156 22.550781 12.785156 22.675781 12.78125 C 22.859375 12.78125 23.039062 12.78125 23.21875 12.777344 C 23.277344 12.777344 23.332031 12.777344 23.390625 12.777344 C 23.445312 12.777344 23.496094 12.777344 23.550781 12.777344 C 23.597656 12.773438 23.644531 12.773438 23.691406 12.773438 C 23.847656 12.804688 23.902344 12.863281 24 12.984375 C 24.035156 13.128906 24.027344 13.261719 24 13.40625 C 23.898438 13.546875 23.839844 13.585938 23.671875 13.640625 C 23.59375 13.644531 23.511719 13.648438 23.433594 13.648438 C 23.382812 13.648438 23.335938 13.648438 23.285156 13.648438 C 23.207031 13.648438 23.207031 13.648438 23.125 13.648438 C 23.046875 13.648438 23.046875 13.648438 22.964844 13.648438 C 22.851562 13.648438 22.734375 13.648438 22.621094 13.648438 C 22.449219 13.648438 22.273438 13.648438 22.097656 13.648438 C 21.988281 13.648438 21.878906 13.648438 21.765625 13.648438 C 21.714844 13.648438 21.660156 13.648438 21.609375 13.648438 C 21.558594 13.648438 21.511719 13.648438 21.460938 13.648438 C 21.417969 13.648438 21.375 13.648438 21.332031 13.648438 C 21.234375 13.640625 21.234375 13.640625 21.1875 13.59375 C 21.183594 13.460938 21.183594 13.328125 21.183594 13.191406 C 21.183594 13.15625 21.183594 13.117188 21.183594 13.078125 C 21.1875 12.984375 21.1875 12.890625 21.1875 12.796875 Z M 21.1875 12.796875 "/>
<path style=" stroke:none;fill-rule:nonzero;fill:rgb(88.627452%,78.431374%,29.803923%);fill-opacity:1;" d="M 0.449219 12.777344 C 0.527344 12.777344 0.527344 12.777344 0.609375 12.777344 C 0.664062 12.777344 0.722656 12.777344 0.78125 12.777344 C 0.839844 12.777344 0.894531 12.777344 0.957031 12.78125 C 1.109375 12.78125 1.261719 12.78125 1.417969 12.785156 C 1.574219 12.785156 1.730469 12.785156 1.886719 12.789062 C 2.195312 12.789062 2.503906 12.792969 2.8125 12.796875 C 2.8125 12.929688 2.816406 13.058594 2.816406 13.191406 C 2.816406 13.230469 2.816406 13.269531 2.816406 13.304688 C 2.816406 13.402344 2.816406 13.496094 2.8125 13.59375 C 2.734375 13.671875 2.644531 13.648438 2.539062 13.648438 C 2.46875 13.648438 2.46875 13.648438 2.394531 13.648438 C 2.316406 13.648438 2.316406 13.648438 2.234375 13.648438 C 2.183594 13.652344 2.128906 13.652344 2.074219 13.652344 C 1.960938 13.652344 1.847656 13.652344 1.734375 13.652344 C 1.558594 13.652344 1.386719 13.652344 1.214844 13.65625 C 1.101562 13.65625 0.992188 13.65625 0.882812 13.65625 C 0.832031 13.65625 0.777344 13.65625 0.726562 13.65625 C 0.675781 13.65625 0.628906 13.65625 0.578125 13.65625 C 0.515625 13.65625 0.515625 13.65625 0.449219 13.65625 C 0.257812 13.628906 0.132812 13.539062 0 13.40625 C -0.015625 13.3125 -0.015625 13.3125 -0.015625 13.199219 C -0.0195312 13.164062 -0.0195312 13.128906 -0.0234375 13.089844 C 0.03125 12.835938 0.210938 12.773438 0.449219 12.777344 Z M 0.449219 12.777344 "/>
<path style=" stroke:none;fill-rule:nonzero;fill:rgb(88.627452%,78.431374%,29.803923%);fill-opacity:1;" d="M 21.460938 10.351562 C 21.53125 10.351562 21.53125 10.351562 21.605469 10.351562 C 21.65625 10.351562 21.710938 10.351562 21.765625 10.351562 C 21.816406 10.347656 21.871094 10.347656 21.925781 10.347656 C 22.039062 10.347656 22.152344 10.347656 22.265625 10.347656 C 22.441406 10.347656 22.613281 10.347656 22.785156 10.34375 C 22.898438 10.34375 23.007812 10.34375 23.117188 10.34375 C 23.167969 10.34375 23.222656 10.34375 23.273438 10.34375 C 23.324219 10.34375 23.371094 10.34375 23.421875 10.34375 C 23.484375 10.34375 23.484375 10.34375 23.550781 10.34375 C 23.742188 10.371094 23.867188 10.460938 24 10.59375 C 24.015625 10.6875 24.015625 10.6875 24.015625 10.796875 C 24.019531 10.835938 24.019531 10.871094 24.023438 10.910156 C 23.992188 11.058594 23.929688 11.109375 23.8125 11.203125 C 23.691406 11.226562 23.691406 11.226562 23.550781 11.222656 C 23.496094 11.222656 23.445312 11.222656 23.390625 11.222656 C 23.335938 11.222656 23.277344 11.222656 23.21875 11.222656 C 23.160156 11.222656 23.105469 11.222656 23.042969 11.21875 C 22.890625 11.21875 22.738281 11.21875 22.582031 11.214844 C 22.425781 11.214844 22.269531 11.214844 22.113281 11.210938 C 21.804688 11.210938 21.496094 11.207031 21.1875 11.203125 C 21.1875 11.070312 21.183594 10.941406 21.183594 10.808594 C 21.183594 10.769531 21.183594 10.730469 21.183594 10.695312 C 21.183594 10.597656 21.183594 10.503906 21.1875 10.40625 C 21.265625 10.328125 21.355469 10.351562 21.460938 10.351562 Z M 21.460938 10.351562 "/>
<path style=" stroke:none;fill-rule:nonzero;fill:rgb(88.627452%,78.431374%,29.803923%);fill-opacity:1;" d="M 0.566406 10.351562 C 0.640625 10.351562 0.640625 10.351562 0.714844 10.351562 C 0.792969 10.351562 0.792969 10.351562 0.875 10.351562 C 0.953125 10.351562 0.953125 10.351562 1.035156 10.351562 C 1.148438 10.351562 1.265625 10.351562 1.378906 10.351562 C 1.550781 10.351562 1.726562 10.351562 1.902344 10.351562 C 2.011719 10.351562 2.121094 10.351562 2.234375 10.351562 C 2.285156 10.351562 2.339844 10.351562 2.390625 10.351562 C 2.464844 10.351562 2.464844 10.351562 2.539062 10.351562 C 2.582031 10.351562 2.625 10.351562 2.667969 10.351562 C 2.765625 10.359375 2.765625 10.359375 2.8125 10.40625 C 2.816406 10.539062 2.816406 10.671875 2.816406 10.808594 C 2.816406 10.84375 2.816406 10.882812 2.816406 10.921875 C 2.8125 11.015625 2.8125 11.109375 2.8125 11.203125 C 2.441406 11.207031 2.070312 11.210938 1.703125 11.214844 C 1.574219 11.214844 1.449219 11.214844 1.324219 11.21875 C 1.140625 11.21875 0.960938 11.21875 0.78125 11.222656 C 0.722656 11.222656 0.667969 11.222656 0.609375 11.222656 C 0.53125 11.222656 0.53125 11.222656 0.449219 11.222656 C 0.402344 11.226562 0.355469 11.226562 0.308594 11.226562 C 0.152344 11.195312 0.0976562 11.136719 0 11.015625 C -0.0351562 10.871094 -0.0273438 10.738281 0 10.59375 C 0.15625 10.378906 0.316406 10.355469 0.566406 10.351562 Z M 0.566406 10.351562 "/>
<path style=" stroke:none;fill-rule:nonzero;fill:rgb(88.627452%,78.431374%,29.803923%);fill-opacity:1;" d="M 13.304688 -0.0195312 C 13.40625 0 13.40625 0 13.523438 0.0859375 C 13.632812 0.246094 13.648438 0.375 13.648438 0.566406 C 13.648438 0.617188 13.648438 0.664062 13.648438 0.714844 C 13.648438 0.765625 13.648438 0.820312 13.648438 0.875 C 13.648438 0.953125 13.648438 0.953125 13.648438 1.035156 C 13.648438 1.148438 13.648438 1.265625 13.648438 1.378906 C 13.648438 1.550781 13.648438 1.726562 13.648438 1.902344 C 13.648438 2.011719 13.648438 2.121094 13.648438 2.234375 C 13.648438 2.285156 13.648438 2.339844 13.648438 2.390625 C 13.648438 2.441406 13.648438 2.488281 13.648438 2.539062 C 13.648438 2.582031 13.648438 2.625 13.648438 2.667969 C 13.640625 2.765625 13.640625 2.765625 13.59375 2.8125 C 13.460938 2.816406 13.328125 2.816406 13.191406 2.816406 C 13.15625 2.816406 13.117188 2.816406 13.078125 2.816406 C 12.984375 2.8125 12.890625 2.8125 12.796875 2.8125 C 12.792969 2.441406 12.789062 2.070312 12.785156 1.703125 C 12.785156 1.574219 12.785156 1.449219 12.78125 1.324219 C 12.78125 1.140625 12.78125 0.960938 12.777344 0.78125 C 12.777344 0.722656 12.777344 0.667969 12.777344 0.609375 C 12.777344 0.554688 12.777344 0.503906 12.777344 0.449219 C 12.773438 0.402344 12.773438 0.355469 12.773438 0.308594 C 12.828125 0.0078125 13.039062 -0.03125 13.304688 -0.0195312 Z M 13.304688 -0.0195312 "/>
<path style=" stroke:none;fill-rule:nonzero;fill:rgb(88.627452%,78.431374%,29.803923%);fill-opacity:1;" d="M 10.796875 -0.015625 C 10.851562 -0.0195312 10.851562 -0.0195312 10.910156 -0.0234375 C 11.058594 0.0078125 11.109375 0.0703125 11.203125 0.1875 C 11.226562 0.308594 11.226562 0.308594 11.222656 0.449219 C 11.222656 0.527344 11.222656 0.527344 11.222656 0.609375 C 11.222656 0.664062 11.222656 0.722656 11.222656 0.78125 C 11.222656 0.839844 11.222656 0.894531 11.21875 0.957031 C 11.21875 1.109375 11.21875 1.261719 11.214844 1.417969 C 11.214844 1.574219 11.214844 1.730469 11.210938 1.886719 C 11.210938 2.195312 11.207031 2.503906 11.203125 2.8125 C 11.070312 2.8125 10.941406 2.816406 10.808594 2.816406 C 10.769531 2.816406 10.730469 2.816406 10.695312 2.816406 C 10.597656 2.816406 10.503906 2.816406 10.40625 2.8125 C 10.328125 2.734375 10.351562 2.644531 10.351562 2.539062 C 10.351562 2.492188 10.351562 2.445312 10.351562 2.394531 C 10.351562 2.34375 10.351562 2.289062 10.351562 2.234375 C 10.347656 2.183594 10.347656 2.128906 10.347656 2.074219 C 10.347656 1.960938 10.347656 1.847656 10.347656 1.734375 C 10.347656 1.558594 10.347656 1.386719 10.34375 1.210938 C 10.34375 1.101562 10.34375 0.992188 10.34375 0.882812 C 10.34375 0.832031 10.34375 0.777344 10.34375 0.726562 C 10.34375 0.675781 10.34375 0.628906 10.34375 0.578125 C 10.34375 0.535156 10.34375 0.492188 10.34375 0.449219 C 10.378906 0.179688 10.523438 -0.0117188 10.796875 -0.015625 Z M 10.796875 -0.015625 "/>
</g>
</svg>
