<?xml version="1.0" encoding="UTF-8"?>
<svg xmlns="http://www.w3.org/2000/svg" xmlns:xlink="http://www.w3.org/1999/xlink" width="24px" height="px" viewBox="0 0 24 24" version="1.1">
<g id="surface1">
<path style=" stroke:none;fill-rule:nonzero;fill:rgb(99.607843%,47.058824%,8.627451%);fill-opacity:1;" d="M 1.40625 0 C 8.414062 0 15.421875 0 22.640625 0 C 22.585938 1.085938 22.585938 1.085938 22.550781 1.574219 C 22.546875 1.613281 22.546875 1.648438 22.542969 1.6875 C 22.539062 1.722656 22.539062 1.761719 22.535156 1.800781 C 22.527344 1.882812 22.523438 1.964844 22.519531 2.046875 C 22.5 2.273438 22.484375 2.496094 22.46875 2.71875 C 22.453125 2.960938 22.4375 3.203125 22.417969 3.445312 C 22.386719 3.917969 22.351562 4.390625 22.316406 4.863281 C 22.289062 5.246094 22.265625 5.632812 22.238281 6.015625 C 22.234375 6.070312 22.230469 6.125 22.226562 6.183594 C 22.21875 6.292969 22.207031 6.40625 22.199219 6.515625 C 22.128906 7.558594 22.054688 8.601562 21.980469 9.640625 C 21.910156 10.59375 21.84375 11.550781 21.777344 12.503906 C 21.707031 13.484375 21.636719 14.460938 21.566406 15.441406 C 21.53125 15.992188 21.492188 16.542969 21.453125 17.09375 C 21.417969 17.558594 21.386719 18.027344 21.351562 18.496094 C 21.335938 18.734375 21.316406 18.972656 21.300781 19.210938 C 21.285156 19.429688 21.269531 19.648438 21.253906 19.863281 C 21.25 19.945312 21.242188 20.023438 21.238281 20.101562 C 21.230469 20.210938 21.222656 20.316406 21.214844 20.425781 C 21.207031 20.511719 21.207031 20.511719 21.203125 20.605469 C 21.1875 20.753906 21.167969 20.898438 21.140625 21.046875 C 20.835938 21.148438 20.535156 21.25 20.230469 21.351562 C 20.128906 21.386719 20.027344 21.417969 19.921875 21.453125 C 19.214844 21.691406 18.507812 21.921875 17.800781 22.152344 C 16.742188 22.496094 15.6875 22.84375 14.636719 23.191406 C 14.441406 23.253906 14.25 23.320312 14.054688 23.382812 C 13.65625 23.515625 13.257812 23.644531 12.859375 23.777344 C 12.824219 23.789062 12.789062 23.800781 12.753906 23.8125 C 12.703125 23.828125 12.703125 23.828125 12.652344 23.847656 C 12.621094 23.855469 12.589844 23.867188 12.554688 23.878906 C 12.476562 23.902344 12.402344 23.933594 12.324219 23.960938 C 12.039062 24.042969 11.808594 23.996094 11.535156 23.90625 C 11.503906 23.894531 11.472656 23.886719 11.441406 23.875 C 11.335938 23.839844 11.234375 23.804688 11.132812 23.769531 C 11.058594 23.746094 10.984375 23.722656 10.910156 23.699219 C 10.753906 23.644531 10.597656 23.59375 10.441406 23.539062 C 10.191406 23.457031 9.941406 23.375 9.691406 23.292969 C 9.390625 23.191406 9.089844 23.09375 8.789062 22.992188 C 8.066406 22.75 7.339844 22.511719 6.613281 22.273438 C 6.417969 22.210938 6.226562 22.144531 6.03125 22.082031 C 4.976562 21.734375 3.917969 21.390625 2.859375 21.046875 C 2.652344 18.183594 2.445312 15.316406 2.242188 12.453125 C 2.21875 12.144531 2.199219 11.839844 2.175781 11.53125 C 2.066406 9.984375 1.953125 8.4375 1.84375 6.890625 C 1.835938 6.761719 1.828125 6.636719 1.816406 6.507812 C 1.8125 6.460938 1.8125 6.460938 1.8125 6.414062 C 1.773438 5.910156 1.738281 5.402344 1.703125 4.898438 C 1.667969 4.386719 1.628906 3.878906 1.59375 3.367188 C 1.574219 3.089844 1.554688 2.808594 1.535156 2.53125 C 1.515625 2.273438 1.496094 2.015625 1.480469 1.761719 C 1.472656 1.667969 1.464844 1.574219 1.460938 1.480469 C 1.449219 1.355469 1.441406 1.226562 1.433594 1.101562 C 1.429688 1.066406 1.425781 1.03125 1.425781 0.992188 C 1.402344 0.660156 1.40625 0.335938 1.40625 0 Z M 1.40625 0 "/>
<path style=" stroke:none;fill-rule:nonzero;fill:rgb(99.607843%,29.411766%,0%);fill-opacity:1;" d="M 12 0 C 15.511719 0 19.023438 0 22.640625 0 C 22.585938 1.085938 22.585938 1.085938 22.550781 1.574219 C 22.546875 1.613281 22.546875 1.648438 22.542969 1.6875 C 22.539062 1.722656 22.539062 1.761719 22.535156 1.800781 C 22.527344 1.882812 22.523438 1.964844 22.519531 2.046875 C 22.5 2.273438 22.484375 2.496094 22.46875 2.71875 C 22.453125 2.960938 22.4375 3.203125 22.417969 3.445312 C 22.386719 3.917969 22.351562 4.390625 22.316406 4.863281 C 22.289062 5.246094 22.265625 5.632812 22.238281 6.015625 C 22.234375 6.070312 22.230469 6.125 22.226562 6.183594 C 22.21875 6.292969 22.207031 6.40625 22.199219 6.515625 C 22.128906 7.558594 22.054688 8.601562 21.980469 9.640625 C 21.910156 10.59375 21.84375 11.550781 21.777344 12.503906 C 21.707031 13.484375 21.636719 14.460938 21.566406 15.441406 C 21.53125 15.992188 21.492188 16.542969 21.453125 17.09375 C 21.417969 17.558594 21.386719 18.027344 21.351562 18.496094 C 21.335938 18.734375 21.316406 18.972656 21.300781 19.210938 C 21.285156 19.429688 21.269531 19.648438 21.253906 19.863281 C 21.25 19.945312 21.242188 20.023438 21.238281 20.101562 C 21.230469 20.210938 21.222656 20.316406 21.214844 20.425781 C 21.207031 20.511719 21.207031 20.511719 21.203125 20.605469 C 21.1875 20.753906 21.167969 20.898438 21.140625 21.046875 C 20.835938 21.148438 20.535156 21.25 20.230469 21.351562 C 20.128906 21.386719 20.027344 21.417969 19.921875 21.453125 C 19.214844 21.691406 18.507812 21.921875 17.800781 22.152344 C 16.742188 22.496094 15.6875 22.84375 14.636719 23.191406 C 14.441406 23.253906 14.25 23.320312 14.054688 23.382812 C 13.65625 23.515625 13.257812 23.644531 12.859375 23.777344 C 12.824219 23.789062 12.789062 23.800781 12.753906 23.8125 C 12.71875 23.824219 12.683594 23.835938 12.652344 23.847656 C 12.621094 23.855469 12.589844 23.867188 12.554688 23.878906 C 12.476562 23.902344 12.394531 23.933594 12.316406 23.960938 C 12.1875 24 12.1875 24 12 24 C 12 22.792969 12 21.585938 12 20.34375 C 12.863281 20.019531 12.863281 20.019531 13.285156 19.878906 C 13.332031 19.863281 13.382812 19.847656 13.429688 19.832031 C 13.585938 19.78125 13.742188 19.730469 13.898438 19.679688 C 14.003906 19.640625 14.113281 19.605469 14.222656 19.570312 C 14.507812 19.472656 14.792969 19.378906 15.078125 19.285156 C 15.535156 19.132812 15.992188 18.980469 16.449219 18.828125 C 16.609375 18.777344 16.769531 18.722656 16.929688 18.671875 C 17.027344 18.636719 17.125 18.605469 17.222656 18.574219 C 17.265625 18.558594 17.308594 18.542969 17.355469 18.527344 C 17.398438 18.515625 17.4375 18.5 17.480469 18.488281 C 17.53125 18.46875 17.53125 18.46875 17.585938 18.453125 C 17.675781 18.421875 17.675781 18.421875 17.765625 18.375 C 17.789062 18.238281 17.789062 18.238281 17.796875 18.066406 C 17.800781 18.035156 17.800781 18.003906 17.804688 17.96875 C 17.8125 17.859375 17.820312 17.75 17.828125 17.640625 C 17.832031 17.5625 17.839844 17.484375 17.84375 17.40625 C 17.859375 17.195312 17.871094 16.980469 17.886719 16.765625 C 17.902344 16.542969 17.917969 16.320312 17.933594 16.097656 C 17.960938 15.675781 17.992188 15.25 18.019531 14.828125 C 18.0625 14.207031 18.105469 13.589844 18.148438 12.96875 C 18.152344 12.878906 18.160156 12.785156 18.167969 12.695312 C 18.171875 12.648438 18.171875 12.605469 18.175781 12.558594 C 18.195312 12.292969 18.210938 12.027344 18.230469 11.761719 C 18.242188 11.597656 18.253906 11.429688 18.265625 11.265625 C 18.269531 11.1875 18.273438 11.113281 18.28125 11.035156 C 18.289062 10.929688 18.292969 10.824219 18.300781 10.71875 C 18.304688 10.660156 18.308594 10.601562 18.3125 10.542969 C 18.332031 10.324219 18.351562 10.109375 18.375 9.890625 C 15.09375 9.890625 11.816406 9.890625 8.4375 9.890625 C 8.40625 9.378906 8.375 8.871094 8.34375 8.34375 C 8.3125 8.03125 8.28125 7.71875 8.25 7.40625 C 8.234375 7.066406 8.21875 6.726562 8.203125 6.375 C 11.652344 6.375 15.101562 6.375 18.65625 6.375 C 18.65625 6.175781 18.65625 5.972656 18.65625 5.765625 C 18.664062 5.601562 18.671875 5.4375 18.683594 5.273438 C 18.6875 5.226562 18.691406 5.183594 18.695312 5.140625 C 18.699219 5.050781 18.707031 4.960938 18.714844 4.867188 C 18.722656 4.730469 18.734375 4.589844 18.742188 4.453125 C 18.75 4.363281 18.753906 4.277344 18.761719 4.1875 C 18.765625 4.148438 18.765625 4.105469 18.769531 4.0625 C 18.773438 4.023438 18.777344 3.984375 18.777344 3.945312 C 18.78125 3.914062 18.785156 3.878906 18.785156 3.84375 C 18.796875 3.75 18.796875 3.75 18.84375 3.5625 C 16.585938 3.5625 14.328125 3.5625 12 3.5625 C 12 2.386719 12 1.210938 12 0 Z M 12 0 "/>
<path style=" stroke:none;fill-rule:nonzero;fill:rgb(90.588236%,90.196079%,92.156863%);fill-opacity:1;" d="M 5.203125 3.5625 C 9.703125 3.5625 14.207031 3.5625 18.84375 3.5625 C 18.703125 5.765625 18.703125 5.765625 18.65625 6.375 C 15.207031 6.375 11.757812 6.375 8.203125 6.375 C 8.292969 7.480469 8.292969 7.480469 8.398438 8.582031 C 8.4375 9.015625 8.4375 9.453125 8.4375 9.890625 C 11.71875 9.890625 14.996094 9.890625 18.375 9.890625 C 18.375 10.417969 18.375 10.417969 18.359375 10.628906 C 18.355469 10.675781 18.351562 10.722656 18.351562 10.773438 C 18.34375 10.847656 18.34375 10.847656 18.339844 10.925781 C 18.335938 10.980469 18.332031 11.035156 18.328125 11.09375 C 18.3125 11.273438 18.300781 11.453125 18.289062 11.636719 C 18.277344 11.761719 18.269531 11.890625 18.261719 12.019531 C 18.238281 12.320312 18.21875 12.625 18.195312 12.929688 C 18.167969 13.296875 18.140625 13.667969 18.117188 14.039062 C 18.113281 14.085938 18.113281 14.085938 18.109375 14.136719 C 18.097656 14.269531 18.089844 14.402344 18.082031 14.53125 C 18.070312 14.695312 18.058594 14.855469 18.046875 15.019531 C 17.964844 16.136719 17.886719 17.257812 17.8125 18.375 C 17.503906 18.519531 17.191406 18.636719 16.867188 18.742188 C 16.820312 18.757812 16.769531 18.777344 16.714844 18.792969 C 16.550781 18.847656 16.386719 18.902344 16.21875 18.957031 C 16.105469 18.996094 15.988281 19.035156 15.871094 19.074219 C 15.632812 19.15625 15.390625 19.234375 15.148438 19.316406 C 14.871094 19.40625 14.589844 19.5 14.3125 19.59375 C 14.042969 19.683594 13.773438 19.773438 13.503906 19.863281 C 13.390625 19.898438 13.277344 19.9375 13.164062 19.976562 C 13.003906 20.03125 12.84375 20.082031 12.683594 20.136719 C 12.636719 20.152344 12.589844 20.167969 12.542969 20.183594 C 12.5 20.199219 12.457031 20.210938 12.410156 20.226562 C 12.355469 20.246094 12.355469 20.246094 12.296875 20.265625 C 12.074219 20.332031 11.9375 20.355469 11.710938 20.277344 C 11.664062 20.261719 11.617188 20.246094 11.566406 20.230469 C 11.515625 20.214844 11.464844 20.195312 11.410156 20.175781 C 11.355469 20.160156 11.300781 20.140625 11.246094 20.121094 C 11.097656 20.074219 10.945312 20.023438 10.796875 19.972656 C 10.640625 19.917969 10.484375 19.867188 10.328125 19.8125 C 10.0625 19.726562 9.800781 19.636719 9.539062 19.546875 C 9.167969 19.421875 8.796875 19.300781 8.421875 19.175781 C 7.898438 19 7.375 18.824219 6.851562 18.648438 C 6.800781 18.628906 6.746094 18.613281 6.695312 18.59375 C 6.648438 18.578125 6.601562 18.5625 6.550781 18.546875 C 6.488281 18.523438 6.488281 18.523438 6.425781 18.503906 C 6.328125 18.46875 6.328125 18.46875 6.234375 18.421875 C 6.214844 18.339844 6.214844 18.339844 6.207031 18.234375 C 6.203125 18.195312 6.199219 18.15625 6.195312 18.117188 C 6.191406 18.074219 6.1875 18.03125 6.183594 17.984375 C 6.179688 17.941406 6.175781 17.898438 6.171875 17.851562 C 6.144531 17.507812 6.125 17.164062 6.109375 16.820312 C 6.101562 16.644531 6.089844 16.46875 6.070312 16.292969 C 6.042969 16.050781 6.046875 15.804688 6.046875 15.5625 C 6.976562 15.5625 7.902344 15.5625 8.859375 15.5625 C 8.914062 15.730469 8.910156 15.863281 8.910156 16.039062 C 8.910156 16.101562 8.910156 16.160156 8.90625 16.222656 C 8.90625 16.265625 8.90625 16.3125 8.90625 16.359375 C 8.964844 16.371094 9.019531 16.382812 9.082031 16.394531 C 9.363281 16.457031 9.636719 16.554688 9.910156 16.648438 C 10.023438 16.6875 10.132812 16.726562 10.246094 16.761719 C 10.421875 16.824219 10.597656 16.882812 10.773438 16.945312 C 10.941406 17.003906 11.113281 17.0625 11.285156 17.121094 C 11.335938 17.136719 11.386719 17.15625 11.441406 17.175781 C 11.980469 17.355469 12.328125 17.230469 12.847656 17.050781 C 12.9375 17.019531 13.027344 16.992188 13.117188 16.960938 C 13.273438 16.90625 13.425781 16.855469 13.582031 16.800781 C 13.769531 16.738281 13.953125 16.675781 14.140625 16.613281 C 14.257812 16.574219 14.371094 16.535156 14.488281 16.492188 C 14.539062 16.476562 14.589844 16.457031 14.644531 16.441406 C 14.691406 16.425781 14.738281 16.410156 14.785156 16.394531 C 14.90625 16.359375 14.90625 16.359375 15.09375 16.359375 C 15.09375 16.328125 15.09375 16.300781 15.09375 16.269531 C 15.089844 15.917969 15.109375 15.574219 15.132812 15.226562 C 15.136719 15.167969 15.140625 15.109375 15.144531 15.050781 C 15.152344 14.929688 15.164062 14.808594 15.171875 14.6875 C 15.183594 14.503906 15.199219 14.320312 15.210938 14.136719 C 15.21875 14.019531 15.226562 13.902344 15.234375 13.785156 C 15.242188 13.703125 15.242188 13.703125 15.246094 13.617188 C 15.25 13.566406 15.253906 13.515625 15.257812 13.460938 C 15.261719 13.417969 15.265625 13.371094 15.269531 13.328125 C 15.285156 13.117188 15.308594 12.910156 15.328125 12.703125 C 12.1875 12.703125 9.046875 12.703125 5.8125 12.703125 C 5.734375 11.589844 5.65625 10.476562 5.578125 9.328125 C 5.523438 8.667969 5.523438 8.667969 5.46875 8.003906 C 5.417969 7.386719 5.382812 6.769531 5.347656 6.152344 C 5.3125 5.574219 5.273438 5 5.230469 4.425781 C 5.226562 4.378906 5.222656 4.332031 5.21875 4.285156 C 5.214844 4.246094 5.210938 4.207031 5.210938 4.167969 C 5.199219 3.96875 5.203125 3.765625 5.203125 3.5625 Z M 5.203125 3.5625 "/>
<path style=" stroke:none;fill-rule:nonzero;fill:rgb(88.627452%,88.235295%,90.196079%);fill-opacity:1;" d="M 12 3.5625 C 14.257812 3.5625 16.515625 3.5625 18.84375 3.5625 C 18.703125 5.765625 18.703125 5.765625 18.65625 6.375 C 16.460938 6.375 14.261719 6.375 12 6.375 C 12 5.445312 12 4.519531 12 3.5625 Z M 12 3.5625 "/>
<path style=" stroke:none;fill-rule:nonzero;fill:rgb(92.54902%,92.156863%,93.725491%);fill-opacity:1;" d="M 6.046875 15.5625 C 6.976562 15.5625 7.902344 15.5625 8.859375 15.5625 C 8.914062 15.730469 8.910156 15.863281 8.910156 16.039062 C 8.910156 16.101562 8.910156 16.160156 8.90625 16.222656 C 8.90625 16.265625 8.90625 16.3125 8.90625 16.359375 C 8.964844 16.371094 9.019531 16.382812 9.082031 16.394531 C 9.367188 16.457031 9.640625 16.550781 9.917969 16.644531 C 9.972656 16.660156 10.027344 16.679688 10.085938 16.699219 C 10.203125 16.738281 10.316406 16.777344 10.433594 16.816406 C 10.550781 16.855469 10.671875 16.894531 10.789062 16.933594 C 10.960938 16.992188 11.132812 17.050781 11.308594 17.105469 C 11.359375 17.125 11.414062 17.140625 11.46875 17.160156 C 11.519531 17.175781 11.566406 17.191406 11.617188 17.210938 C 11.660156 17.226562 11.703125 17.238281 11.75 17.253906 C 11.859375 17.296875 11.859375 17.296875 12 17.390625 C 12.015625 17.511719 12.015625 17.511719 12.015625 17.667969 C 12.015625 17.726562 12.015625 17.785156 12.015625 17.84375 C 12.015625 17.90625 12.015625 17.972656 12.015625 18.035156 C 12.011719 18.101562 12.011719 18.164062 12.011719 18.230469 C 12.011719 18.402344 12.011719 18.574219 12.007812 18.746094 C 12.007812 18.917969 12.007812 19.09375 12.007812 19.269531 C 12.003906 19.609375 12.003906 19.953125 12 20.296875 C 11.699219 20.265625 11.429688 20.179688 11.144531 20.082031 C 11.09375 20.066406 11.042969 20.046875 10.988281 20.03125 C 10.816406 19.972656 10.644531 19.914062 10.472656 19.859375 C 10.355469 19.816406 10.234375 19.777344 10.117188 19.738281 C 9.867188 19.65625 9.617188 19.570312 9.371094 19.488281 C 9.050781 19.378906 8.730469 19.273438 8.410156 19.167969 C 8.105469 19.066406 7.800781 18.964844 7.496094 18.859375 C 7.4375 18.84375 7.378906 18.824219 7.316406 18.800781 C 7.152344 18.746094 6.988281 18.691406 6.824219 18.636719 C 6.75 18.613281 6.75 18.613281 6.675781 18.585938 C 6.628906 18.570312 6.585938 18.558594 6.539062 18.542969 C 6.5 18.527344 6.460938 18.515625 6.421875 18.503906 C 6.328125 18.46875 6.328125 18.46875 6.234375 18.421875 C 6.214844 18.339844 6.214844 18.339844 6.207031 18.234375 C 6.199219 18.175781 6.199219 18.175781 6.195312 18.117188 C 6.191406 18.050781 6.191406 18.050781 6.183594 17.984375 C 6.179688 17.941406 6.175781 17.898438 6.171875 17.851562 C 6.144531 17.507812 6.125 17.164062 6.109375 16.820312 C 6.101562 16.644531 6.089844 16.46875 6.070312 16.292969 C 6.042969 16.050781 6.046875 15.804688 6.046875 15.5625 Z M 6.046875 15.5625 "/>
<path style=" stroke:none;fill-rule:nonzero;fill:rgb(99.607843%,29.411766%,0%);fill-opacity:1;" d="M 12 12.703125 C 13.097656 12.703125 14.195312 12.703125 15.328125 12.703125 C 15.328125 13.230469 15.328125 13.230469 15.3125 13.460938 C 15.304688 13.539062 15.304688 13.539062 15.300781 13.617188 C 15.296875 13.671875 15.292969 13.726562 15.289062 13.785156 C 15.285156 13.839844 15.28125 13.898438 15.277344 13.957031 C 15.269531 14.078125 15.257812 14.199219 15.25 14.320312 C 15.238281 14.503906 15.222656 14.6875 15.210938 14.871094 C 15.203125 14.988281 15.195312 15.109375 15.1875 15.226562 C 15.179688 15.308594 15.179688 15.308594 15.175781 15.390625 C 15.152344 15.714844 15.125 16.035156 15.09375 16.359375 C 15.039062 16.378906 14.980469 16.394531 14.925781 16.414062 C 14.710938 16.484375 14.5 16.550781 14.285156 16.621094 C 14.195312 16.652344 14.105469 16.679688 14.011719 16.710938 C 13.878906 16.753906 13.746094 16.796875 13.613281 16.839844 C 13.570312 16.855469 13.527344 16.867188 13.480469 16.882812 C 13.253906 16.957031 13.023438 17.035156 12.796875 17.109375 C 12.726562 17.132812 12.726562 17.132812 12.65625 17.15625 C 12.570312 17.1875 12.484375 17.214844 12.398438 17.246094 C 12.339844 17.265625 12.339844 17.265625 12.28125 17.285156 C 12.246094 17.296875 12.210938 17.308594 12.179688 17.320312 C 12.09375 17.34375 12.09375 17.34375 12 17.34375 C 12 15.8125 12 14.28125 12 12.703125 Z M 12 12.703125 "/>
<path style=" stroke:none;fill-rule:nonzero;fill:rgb(99.607843%,47.058824%,8.627451%);fill-opacity:1;" d="M 8.203125 6.375 C 9.457031 6.375 10.710938 6.375 12 6.375 C 12 7.535156 12 8.695312 12 9.890625 C 10.824219 9.890625 9.648438 9.890625 8.4375 9.890625 C 8.40625 9.378906 8.375 8.871094 8.34375 8.34375 C 8.3125 8.03125 8.28125 7.71875 8.25 7.40625 C 8.234375 7.066406 8.21875 6.726562 8.203125 6.375 Z M 8.203125 6.375 "/>
</g>
</svg>
