<?xml version="1.0" encoding="UTF-8"?>
<svg xmlns="http://www.w3.org/2000/svg" xmlns:xlink="http://www.w3.org/1999/xlink" width="24px" height="px" viewBox="0 0 24 24" version="1.1">
<g id="surface1">
<path style=" stroke:none;fill-rule:nonzero;fill:rgb(0.392157%,0.392157%,0.392157%);fill-opacity:1;" d="M 1.695312 -0.0117188 C 1.746094 -0.0117188 1.746094 -0.0117188 1.792969 -0.0117188 C 1.902344 -0.015625 2.007812 -0.015625 2.117188 -0.0117188 C 2.191406 -0.015625 2.269531 -0.015625 2.347656 -0.015625 C 2.558594 -0.015625 2.765625 -0.015625 2.976562 -0.015625 C 3.105469 -0.015625 3.238281 -0.015625 3.367188 -0.015625 C 3.824219 -0.015625 4.28125 -0.015625 4.742188 -0.015625 C 5.164062 -0.015625 5.589844 -0.0195312 6.015625 -0.0195312 C 6.382812 -0.0195312 6.75 -0.0234375 7.113281 -0.0195312 C 7.332031 -0.0195312 7.550781 -0.0234375 7.769531 -0.0234375 C 7.976562 -0.0234375 8.179688 -0.0234375 8.386719 -0.0234375 C 8.460938 -0.0234375 8.535156 -0.0234375 8.609375 -0.0234375 C 9.230469 -0.0273438 9.703125 0.0507812 10.160156 0.496094 C 10.5625 0.933594 10.652344 1.339844 10.6875 1.921875 C 10.738281 1.894531 10.789062 1.871094 10.84375 1.84375 C 11.773438 1.378906 12.78125 1.015625 13.824219 0.921875 C 14.109375 0.90625 14.109375 0.90625 14.328125 0.753906 C 14.386719 0.644531 14.386719 0.644531 14.433594 0.53125 C 14.554688 0.273438 14.796875 0.132812 15.050781 0.0273438 C 15.203125 -0.0195312 15.355469 -0.0234375 15.511719 -0.0195312 C 15.546875 -0.0195312 15.578125 -0.0195312 15.613281 -0.0195312 C 15.875 -0.0117188 16.058594 0.03125 16.265625 0.1875 C 16.339844 0.238281 16.339844 0.238281 16.414062 0.289062 C 16.605469 0.480469 16.78125 0.710938 16.78125 0.984375 C 16.84375 0.988281 16.902344 0.996094 16.964844 1 C 18.308594 1.152344 19.664062 1.808594 20.71875 2.625 C 20.757812 2.648438 20.792969 2.675781 20.832031 2.699219 C 20.921875 2.765625 20.921875 2.765625 21.046875 2.90625 C 21.054688 3.027344 21.042969 3.140625 21.035156 3.257812 C 21.050781 3.414062 21.109375 3.457031 21.226562 3.558594 C 21.273438 3.59375 21.273438 3.59375 21.324219 3.628906 C 21.421875 3.703125 21.421875 3.703125 21.492188 3.804688 C 21.515625 3.832031 21.539062 3.863281 21.5625 3.890625 C 21.730469 3.898438 21.730469 3.898438 21.835938 3.882812 C 22.007812 3.894531 22.121094 3.972656 22.234375 4.101562 C 22.304688 4.1875 22.367188 4.277344 22.433594 4.371094 C 22.457031 4.40625 22.480469 4.441406 22.503906 4.476562 C 23.179688 5.46875 23.613281 6.5625 23.859375 7.734375 C 23.867188 7.769531 23.875 7.804688 23.882812 7.839844 C 24.152344 9.113281 24.09375 10.59375 23.8125 11.859375 C 23.800781 11.90625 23.792969 11.953125 23.78125 12 C 23.328125 13.972656 22.410156 15.703125 21.199219 17.3125 C 21.136719 17.390625 21.136719 17.390625 21.09375 17.484375 C 21.136719 17.484375 21.183594 17.480469 21.226562 17.480469 C 21.394531 17.476562 21.558594 17.476562 21.726562 17.472656 C 21.796875 17.472656 21.871094 17.472656 21.941406 17.46875 C 22.480469 17.457031 22.988281 17.472656 23.40625 17.867188 C 23.75 18.203125 23.976562 18.535156 24.011719 19.023438 C 24.011719 19.089844 24.015625 19.15625 24.011719 19.222656 C 24.015625 19.257812 24.015625 19.292969 24.015625 19.332031 C 24.015625 19.449219 24.015625 19.570312 24.015625 19.6875 C 24.015625 19.773438 24.015625 19.855469 24.015625 19.9375 C 24.015625 20.113281 24.015625 20.289062 24.015625 20.460938 C 24.015625 20.683594 24.019531 20.90625 24.019531 21.128906 C 24.019531 21.300781 24.023438 21.476562 24.019531 21.648438 C 24.023438 21.730469 24.023438 21.8125 24.023438 21.894531 C 24.027344 22.542969 23.976562 23.035156 23.503906 23.519531 C 23.140625 23.851562 22.804688 24.011719 22.304688 24.011719 C 22.273438 24.011719 22.238281 24.011719 22.207031 24.011719 C 22.097656 24.015625 21.992188 24.015625 21.882812 24.011719 C 21.808594 24.015625 21.730469 24.015625 21.652344 24.015625 C 21.441406 24.015625 21.234375 24.015625 21.023438 24.015625 C 20.894531 24.015625 20.761719 24.015625 20.632812 24.015625 C 20.175781 24.015625 19.71875 24.015625 19.257812 24.015625 C 18.835938 24.015625 18.410156 24.019531 17.984375 24.019531 C 17.617188 24.019531 17.25 24.023438 16.886719 24.019531 C 16.667969 24.019531 16.449219 24.023438 16.230469 24.023438 C 16.023438 24.023438 15.820312 24.023438 15.613281 24.023438 C 15.539062 24.023438 15.464844 24.023438 15.390625 24.023438 C 14.851562 24.027344 14.351562 23.996094 13.945312 23.601562 C 13.890625 23.546875 13.890625 23.546875 13.832031 23.496094 C 13.734375 23.390625 13.734375 23.390625 13.683594 23.292969 C 13.566406 23.175781 13.46875 23.179688 13.308594 23.179688 C 13.269531 23.179688 13.230469 23.179688 13.191406 23.179688 C 13.152344 23.179688 13.113281 23.179688 13.070312 23.179688 C 12.898438 23.179688 12.730469 23.179688 12.558594 23.179688 C 11.855469 23.179688 11.21875 23.164062 10.6875 22.640625 C 10.238281 22.15625 10.191406 21.628906 10.1875 20.996094 C 10.183594 20.890625 10.183594 20.785156 10.183594 20.675781 C 10.179688 20.582031 10.179688 20.484375 10.179688 20.390625 C 10.1875 20.253906 10.1875 20.253906 10.125 20.203125 C 10.054688 20.199219 9.980469 20.195312 9.910156 20.195312 C 8.871094 20.171875 7.941406 19.980469 7.171875 19.21875 C 6.457031 18.402344 6.28125 17.5625 6.265625 16.511719 C 6.265625 16.417969 6.265625 16.417969 6.261719 16.324219 C 6.261719 16.164062 6.257812 16.003906 6.257812 15.84375 C 6.253906 15.679688 6.25 15.515625 6.25 15.351562 C 6.242188 15.03125 6.238281 14.710938 6.234375 14.390625 C 6.191406 14.386719 6.152344 14.386719 6.109375 14.382812 C 6.054688 14.378906 6 14.375 5.945312 14.371094 C 5.863281 14.367188 5.863281 14.367188 5.78125 14.363281 C 5.429688 14.320312 5.121094 14.179688 4.875 13.921875 C 4.695312 13.648438 4.585938 13.410156 4.574219 13.082031 C 4.574219 13.03125 4.570312 12.984375 4.570312 12.933594 C 4.632812 12.457031 4.910156 12.015625 5.132812 11.597656 C 5.191406 11.484375 5.25 11.375 5.308594 11.261719 C 5.320312 11.234375 5.335938 11.207031 5.351562 11.179688 C 5.511719 10.875 5.664062 10.566406 5.816406 10.261719 C 5.84375 10.210938 5.867188 10.160156 5.894531 10.109375 C 5.960938 9.972656 6.027344 9.839844 6.09375 9.703125 C 6.113281 9.667969 6.132812 9.628906 6.152344 9.59375 C 6.285156 9.316406 6.320312 9.0625 6.335938 8.761719 C 6.34375 8.671875 6.351562 8.582031 6.355469 8.492188 C 6.359375 8.453125 6.363281 8.414062 6.363281 8.375 C 6.375 8.25 6.375 8.25 6.417969 8.089844 C 6.421875 7.910156 6.417969 7.890625 6.308594 7.765625 C 6.253906 7.710938 6.199219 7.65625 6.144531 7.605469 C 6.113281 7.574219 6.085938 7.546875 6.054688 7.519531 C 5.960938 7.425781 5.867188 7.335938 5.773438 7.25 C 5.710938 7.1875 5.648438 7.125 5.585938 7.0625 C 5.199219 6.660156 5.199219 6.660156 4.675781 6.554688 C 4.644531 6.554688 4.609375 6.554688 4.570312 6.554688 C 4.496094 6.554688 4.421875 6.554688 4.34375 6.554688 C 4.222656 6.554688 4.101562 6.554688 3.984375 6.550781 C 3.640625 6.550781 3.296875 6.546875 2.957031 6.546875 C 2.746094 6.546875 2.535156 6.546875 2.328125 6.542969 C 2.246094 6.542969 2.167969 6.542969 2.089844 6.542969 C 1.449219 6.542969 0.960938 6.484375 0.480469 6.019531 C 0.136719 5.644531 -0.015625 5.292969 -0.0117188 4.777344 C -0.015625 4.742188 -0.015625 4.707031 -0.015625 4.667969 C -0.015625 4.550781 -0.015625 4.429688 -0.015625 4.3125 C -0.015625 4.226562 -0.015625 4.144531 -0.015625 4.0625 C -0.015625 3.886719 -0.015625 3.710938 -0.015625 3.539062 C -0.015625 3.316406 -0.0195312 3.09375 -0.0195312 2.871094 C -0.0195312 2.699219 -0.0234375 2.523438 -0.0195312 2.351562 C -0.0234375 2.269531 -0.0234375 2.1875 -0.0234375 2.105469 C -0.0273438 1.457031 0.0234375 0.964844 0.496094 0.480469 C 0.859375 0.148438 1.195312 -0.0117188 1.695312 -0.0117188 Z M 1.695312 -0.0117188 "/>
<path style=" stroke:none;fill-rule:nonzero;fill:rgb(63.137257%,60.784316%,86.274511%);fill-opacity:1;" d="M 16.6875 1.734375 C 16.972656 1.71875 17.210938 1.777344 17.480469 1.859375 C 17.523438 1.871094 17.570312 1.882812 17.613281 1.894531 C 18.601562 2.195312 19.539062 2.609375 20.347656 3.265625 C 20.496094 3.386719 20.558594 3.421875 20.753906 3.414062 C 20.804688 3.402344 20.855469 3.386719 20.90625 3.375 C 21.136719 3.375 21.261719 3.550781 21.421875 3.703125 C 21.542969 3.832031 21.542969 3.832031 21.609375 3.9375 C 21.59375 3.984375 21.578125 4.03125 21.5625 4.078125 C 21.539062 4.339844 21.542969 4.46875 21.71875 4.679688 C 21.75 4.71875 21.75 4.71875 21.785156 4.761719 C 22.296875 5.410156 22.675781 6.195312 22.921875 6.984375 C 22.9375 7.035156 22.9375 7.035156 22.953125 7.085938 C 23.34375 8.367188 23.457031 9.832031 23.203125 11.15625 C 23.195312 11.191406 23.191406 11.226562 23.183594 11.265625 C 23.097656 11.703125 23 12.132812 22.875 12.5625 C 22.863281 12.597656 22.855469 12.632812 22.84375 12.667969 C 22.4375 14.078125 21.726562 15.390625 20.847656 16.5625 C 20.824219 16.59375 20.800781 16.625 20.777344 16.65625 C 20.734375 16.714844 20.691406 16.769531 20.648438 16.824219 C 20.488281 17.03125 20.414062 17.238281 20.34375 17.484375 C 19.851562 17.589844 19.234375 17.695312 18.785156 17.417969 C 18.335938 17.082031 17.960938 16.648438 17.601562 16.222656 C 17.578125 16.195312 17.550781 16.164062 17.527344 16.132812 C 17.503906 16.105469 17.484375 16.078125 17.460938 16.050781 C 17.300781 15.894531 17.144531 15.875 16.929688 15.875 C 16.683594 15.878906 16.542969 15.90625 16.359375 16.078125 C 16.128906 16.339844 16.140625 16.601562 16.136719 16.9375 C 16.136719 16.992188 16.132812 17.042969 16.132812 17.097656 C 16.128906 17.226562 16.125 17.355469 16.125 17.484375 C 16.085938 17.484375 16.046875 17.484375 16.007812 17.484375 C 15.863281 17.484375 15.71875 17.488281 15.574219 17.492188 C 15.484375 17.492188 15.390625 17.492188 15.296875 17.492188 C 14.753906 17.507812 14.3125 17.632812 13.910156 18.007812 C 13.476562 18.46875 13.382812 18.882812 13.382812 19.5 C 13.382812 19.550781 13.382812 19.605469 13.382812 19.65625 C 13.378906 19.984375 13.378906 19.984375 13.546875 20.25 C 13.59375 20.265625 13.640625 20.28125 13.6875 20.296875 C 13.695312 20.449219 13.699219 20.601562 13.703125 20.757812 C 13.707031 20.820312 13.707031 20.820312 13.707031 20.890625 C 13.710938 21.007812 13.710938 21.117188 13.6875 21.234375 C 13.574219 21.328125 13.574219 21.328125 13.453125 21.375 C 13.398438 21.488281 13.398438 21.566406 13.390625 21.691406 C 13.386719 21.757812 13.386719 21.757812 13.386719 21.828125 C 13.382812 21.875 13.382812 21.917969 13.378906 21.96875 C 13.378906 22.011719 13.375 22.058594 13.375 22.109375 C 13.367188 22.222656 13.363281 22.339844 13.359375 22.453125 C 13.148438 22.457031 12.933594 22.460938 12.722656 22.464844 C 12.648438 22.464844 12.578125 22.464844 12.503906 22.46875 C 11.738281 22.484375 11.738281 22.484375 11.390625 22.265625 C 11.347656 22.242188 11.304688 22.214844 11.261719 22.1875 C 10.878906 21.785156 10.890625 21.328125 10.898438 20.804688 C 10.929688 20.222656 10.929688 20.222656 10.707031 19.707031 C 10.441406 19.449219 10.136719 19.480469 9.789062 19.476562 C 9 19.46875 8.324219 19.277344 7.746094 18.71875 C 7.273438 18.226562 7.023438 17.65625 7.027344 16.964844 C 7.027344 16.917969 7.027344 16.871094 7.027344 16.824219 C 7.027344 16.765625 7.027344 16.707031 7.027344 16.648438 C 7.027344 16.457031 7.03125 16.269531 7.03125 16.078125 C 7.449219 16.078125 7.867188 16.078125 8.296875 16.078125 C 8.375 16.234375 8.453125 16.386719 8.53125 16.546875 C 8.832031 16.851562 9.082031 16.976562 9.507812 16.992188 C 9.863281 16.984375 10.125 16.898438 10.398438 16.660156 C 10.636719 16.40625 10.789062 16.101562 10.800781 15.753906 C 10.792969 15.582031 10.761719 15.429688 10.710938 15.265625 C 10.695312 15.226562 10.683594 15.183594 10.671875 15.140625 C 10.660156 15.109375 10.652344 15.078125 10.640625 15.046875 C 10.671875 15.015625 10.699219 14.988281 10.730469 14.957031 C 10.839844 14.847656 10.949219 14.742188 11.058594 14.632812 C 11.105469 14.585938 11.152344 14.539062 11.199219 14.488281 C 11.269531 14.421875 11.335938 14.355469 11.40625 14.285156 C 11.445312 14.246094 11.488281 14.207031 11.53125 14.164062 C 11.625 14.070312 11.625 14.070312 11.671875 13.96875 C 11.777344 14.019531 11.871094 14.070312 11.96875 14.132812 C 12.191406 14.253906 12.410156 14.246094 12.65625 14.203125 C 12.859375 14.113281 13.039062 14 13.21875 13.875 C 13.359375 13.78125 13.359375 13.78125 13.46875 13.792969 C 13.511719 13.804688 13.550781 13.816406 13.59375 13.828125 C 13.65625 13.839844 13.65625 13.839844 13.722656 13.855469 C 13.882812 13.90625 13.984375 13.949219 14.109375 14.0625 C 14.179688 14.230469 14.207031 14.40625 14.230469 14.589844 C 14.269531 14.867188 14.355469 15.054688 14.578125 15.234375 C 14.863281 15.378906 15.171875 15.34375 15.484375 15.34375 C 15.542969 15.347656 15.605469 15.347656 15.667969 15.347656 C 16.011719 15.351562 16.257812 15.335938 16.546875 15.140625 C 16.753906 14.917969 16.796875 14.695312 16.839844 14.402344 C 16.894531 14.085938 16.894531 14.085938 17.019531 13.980469 C 17.125 13.933594 17.230469 13.902344 17.34375 13.875 C 17.390625 13.847656 17.390625 13.847656 17.4375 13.820312 C 17.566406 13.765625 17.628906 13.78125 17.765625 13.828125 C 17.855469 13.890625 17.941406 13.953125 18.027344 14.019531 C 18.28125 14.191406 18.453125 14.242188 18.761719 14.230469 C 19.121094 14.15625 19.332031 13.925781 19.578125 13.671875 C 19.632812 13.621094 19.632812 13.621094 19.6875 13.566406 C 19.917969 13.335938 20.121094 13.113281 20.144531 12.773438 C 20.140625 12.496094 19.996094 12.308594 19.835938 12.09375 C 19.667969 11.859375 19.664062 11.722656 19.707031 11.445312 C 19.757812 11.285156 19.804688 11.1875 19.921875 11.0625 C 20.101562 10.980469 20.289062 10.941406 20.484375 10.90625 C 20.753906 10.855469 20.902344 10.796875 21.09375 10.59375 C 21.234375 10.320312 21.203125 10.015625 21.203125 9.714844 C 21.203125 9.613281 21.207031 9.507812 21.207031 9.40625 C 21.207031 9.339844 21.210938 9.273438 21.210938 9.207031 C 21.210938 9.148438 21.210938 9.085938 21.210938 9.023438 C 21.179688 8.796875 21.078125 8.660156 20.921875 8.496094 C 20.78125 8.421875 20.648438 8.398438 20.492188 8.371094 C 19.976562 8.269531 19.976562 8.269531 19.8125 8.070312 C 19.722656 7.855469 19.65625 7.640625 19.6875 7.40625 C 19.769531 7.265625 19.769531 7.265625 19.871094 7.117188 C 20.019531 6.910156 20.117188 6.761719 20.125 6.503906 C 20.125 6.46875 20.128906 6.4375 20.128906 6.402344 C 20.066406 6.035156 19.777344 5.789062 19.523438 5.539062 C 19.488281 5.503906 19.453125 5.46875 19.414062 5.433594 C 19.117188 5.132812 18.929688 5.027344 18.5 5.03125 C 18.257812 5.074219 18.089844 5.191406 17.894531 5.339844 C 17.699219 5.484375 17.699219 5.484375 17.550781 5.480469 C 17.511719 5.464844 17.476562 5.453125 17.4375 5.4375 C 17.398438 5.425781 17.355469 5.414062 17.316406 5.398438 C 17.277344 5.386719 17.234375 5.371094 17.195312 5.355469 C 17.152344 5.339844 17.113281 5.328125 17.070312 5.3125 C 16.9375 5.230469 16.917969 5.167969 16.875 5.015625 C 16.851562 4.914062 16.832031 4.816406 16.8125 4.714844 C 16.726562 4.339844 16.726562 4.339844 16.464844 4.070312 C 16.246094 3.949219 16.105469 3.929688 15.84375 3.890625 C 15.84375 3.441406 15.84375 2.992188 15.84375 2.53125 C 16.015625 2.4375 16.183594 2.34375 16.359375 2.25 C 16.511719 2.074219 16.613281 1.953125 16.6875 1.734375 Z M 16.6875 1.734375 "/>
<path style=" stroke:none;fill-rule:nonzero;fill:rgb(50.588238%,86.274511%,98.823529%);fill-opacity:1;" d="M 14.953125 4.59375 C 15.066406 4.578125 15.066406 4.578125 15.207031 4.578125 C 15.257812 4.582031 15.308594 4.582031 15.359375 4.582031 C 15.441406 4.582031 15.441406 4.582031 15.523438 4.585938 C 15.574219 4.585938 15.628906 4.585938 15.683594 4.585938 C 15.816406 4.589844 15.945312 4.589844 16.078125 4.59375 C 16.226562 5.023438 16.226562 5.023438 16.261719 5.234375 C 16.308594 5.433594 16.355469 5.566406 16.5 5.71875 C 16.679688 5.828125 16.871094 5.914062 17.0625 6 C 17.09375 6.015625 17.125 6.03125 17.160156 6.050781 C 17.359375 6.148438 17.546875 6.1875 17.765625 6.140625 C 17.996094 6.046875 18.230469 5.941406 18.425781 5.78125 C 18.542969 5.699219 18.609375 5.703125 18.75 5.71875 C 18.890625 5.8125 19 5.9375 19.117188 6.054688 C 19.152344 6.085938 19.183594 6.117188 19.21875 6.152344 C 19.25 6.183594 19.28125 6.214844 19.3125 6.246094 C 19.355469 6.289062 19.355469 6.289062 19.398438 6.332031 C 19.453125 6.421875 19.453125 6.421875 19.445312 6.542969 C 19.394531 6.691406 19.3125 6.792969 19.214844 6.917969 C 19.050781 7.160156 18.976562 7.328125 18.996094 7.625 C 19.082031 8.011719 19.214844 8.488281 19.519531 8.757812 C 19.761719 8.90625 20.054688 8.933594 20.328125 8.972656 C 20.484375 9 20.484375 9 20.53125 9.046875 C 20.535156 9.132812 20.539062 9.21875 20.539062 9.304688 C 20.539062 9.359375 20.539062 9.410156 20.539062 9.464844 C 20.539062 9.519531 20.539062 9.574219 20.539062 9.632812 C 20.539062 9.6875 20.539062 9.742188 20.539062 9.800781 C 20.539062 9.878906 20.539062 9.878906 20.539062 9.960938 C 20.539062 10.007812 20.539062 10.054688 20.539062 10.105469 C 20.53125 10.21875 20.53125 10.21875 20.484375 10.265625 C 20.332031 10.292969 20.175781 10.320312 20.023438 10.34375 C 19.742188 10.390625 19.542969 10.484375 19.355469 10.710938 C 19.121094 11.109375 18.933594 11.53125 19.03125 12 C 19.121094 12.199219 19.234375 12.382812 19.359375 12.5625 C 19.453125 12.703125 19.453125 12.703125 19.445312 12.796875 C 19.371094 12.976562 19.226562 13.097656 19.089844 13.230469 C 19.0625 13.261719 19.03125 13.292969 19 13.324219 C 18.789062 13.539062 18.789062 13.539062 18.625 13.578125 C 18.484375 13.539062 18.398438 13.476562 18.28125 13.390625 C 17.988281 13.167969 17.757812 13.078125 17.390625 13.125 C 17.238281 13.167969 17.097656 13.230469 16.953125 13.296875 C 16.917969 13.3125 16.878906 13.328125 16.84375 13.347656 C 16.5625 13.472656 16.378906 13.628906 16.265625 13.921875 C 16.238281 14.042969 16.214844 14.160156 16.191406 14.28125 C 16.132812 14.617188 16.132812 14.617188 16.078125 14.671875 C 15.996094 14.675781 15.910156 14.675781 15.828125 14.675781 C 15.777344 14.675781 15.726562 14.675781 15.675781 14.675781 C 15.621094 14.675781 15.566406 14.675781 15.511719 14.675781 C 15.460938 14.675781 15.40625 14.675781 15.351562 14.675781 C 15.21875 14.671875 15.085938 14.671875 14.953125 14.671875 C 14.929688 14.605469 14.90625 14.539062 14.886719 14.472656 C 14.871094 14.4375 14.859375 14.402344 14.847656 14.363281 C 14.804688 14.222656 14.777344 14.082031 14.757812 13.9375 C 14.667969 13.6875 14.53125 13.511719 14.292969 13.386719 C 14.222656 13.351562 14.148438 13.320312 14.078125 13.292969 C 14.039062 13.277344 14 13.261719 13.960938 13.242188 C 13.574219 13.082031 13.574219 13.082031 13.171875 13.125 C 13.003906 13.21875 12.839844 13.324219 12.679688 13.433594 C 12.648438 13.457031 12.621094 13.476562 12.585938 13.5 C 12.558594 13.519531 12.53125 13.539062 12.503906 13.5625 C 12.421875 13.59375 12.421875 13.59375 12.328125 13.5625 C 12.164062 13.453125 12.03125 13.316406 11.890625 13.179688 C 11.859375 13.152344 11.828125 13.121094 11.796875 13.09375 C 11.578125 12.878906 11.578125 12.878906 11.570312 12.722656 C 11.636719 12.589844 11.707031 12.46875 11.789062 12.34375 C 11.984375 12.054688 12.046875 11.835938 12 11.484375 C 11.964844 11.359375 11.917969 11.238281 11.871094 11.117188 C 11.859375 11.089844 11.847656 11.058594 11.835938 11.027344 C 11.742188 10.804688 11.640625 10.613281 11.429688 10.484375 C 11.171875 10.390625 10.925781 10.328125 10.652344 10.289062 C 10.546875 10.265625 10.546875 10.265625 10.453125 10.171875 C 10.441406 10.0625 10.441406 10.0625 10.441406 9.929688 C 10.441406 9.882812 10.441406 9.835938 10.441406 9.785156 C 10.441406 9.710938 10.441406 9.710938 10.441406 9.632812 C 10.441406 9.582031 10.441406 9.53125 10.441406 9.480469 C 10.441406 9.433594 10.441406 9.386719 10.441406 9.335938 C 10.441406 9.292969 10.441406 9.246094 10.441406 9.203125 C 10.453125 9.09375 10.453125 9.09375 10.546875 9 C 10.648438 8.976562 10.753906 8.953125 10.859375 8.9375 C 11.25 8.871094 11.25 8.871094 11.578125 8.671875 C 11.828125 8.265625 12.113281 7.753906 12 7.265625 C 11.921875 7.113281 11.824219 6.976562 11.722656 6.839844 C 11.578125 6.636719 11.578125 6.636719 11.585938 6.492188 C 11.628906 6.359375 11.679688 6.296875 11.785156 6.199219 C 11.816406 6.167969 11.847656 6.136719 11.878906 6.105469 C 11.914062 6.074219 11.945312 6.042969 11.980469 6.007812 C 12.011719 5.976562 12.046875 5.945312 12.082031 5.910156 C 12.164062 5.832031 12.246094 5.75 12.328125 5.671875 C 12.582031 5.761719 12.785156 5.910156 13.003906 6.0625 C 13.28125 6.191406 13.515625 6.175781 13.800781 6.078125 C 13.867188 6.050781 13.9375 6.019531 14.003906 5.992188 C 14.054688 5.96875 14.054688 5.96875 14.105469 5.949219 C 14.371094 5.839844 14.546875 5.699219 14.703125 5.457031 C 14.777344 5.261719 14.808594 5.070312 14.835938 4.859375 C 14.859375 4.734375 14.859375 4.734375 14.953125 4.59375 Z M 14.953125 4.59375 "/>
<path style=" stroke:none;fill-rule:nonzero;fill:rgb(99.215686%,60.000002%,35.686275%);fill-opacity:1;" d="M 16.875 16.5 C 17.011719 16.5625 17.105469 16.625 17.207031 16.730469 C 17.234375 16.757812 17.261719 16.785156 17.289062 16.816406 C 17.320312 16.84375 17.347656 16.875 17.378906 16.90625 C 17.441406 16.96875 17.503906 17.03125 17.566406 17.09375 C 17.664062 17.195312 17.761719 17.292969 17.855469 17.394531 C 17.949219 17.488281 18.046875 17.585938 18.140625 17.683594 C 18.167969 17.710938 18.199219 17.742188 18.226562 17.773438 C 18.253906 17.800781 18.28125 17.828125 18.3125 17.855469 C 18.347656 17.894531 18.347656 17.894531 18.382812 17.929688 C 18.613281 18.117188 18.828125 18.160156 19.121094 18.15625 C 19.15625 18.15625 19.191406 18.160156 19.230469 18.160156 C 19.308594 18.160156 19.386719 18.160156 19.460938 18.160156 C 19.585938 18.15625 19.710938 18.160156 19.832031 18.160156 C 20.183594 18.160156 20.535156 18.160156 20.886719 18.160156 C 21.101562 18.160156 21.316406 18.160156 21.53125 18.164062 C 21.652344 18.164062 21.773438 18.164062 21.894531 18.164062 C 21.96875 18.164062 22.042969 18.164062 22.117188 18.164062 C 22.152344 18.164062 22.183594 18.164062 22.21875 18.164062 C 22.519531 18.167969 22.757812 18.269531 22.980469 18.46875 C 23.003906 18.496094 23.03125 18.527344 23.054688 18.558594 C 23.082031 18.589844 23.109375 18.621094 23.136719 18.652344 C 23.285156 18.871094 23.308594 19.058594 23.308594 19.324219 C 23.3125 19.355469 23.3125 19.390625 23.3125 19.421875 C 23.3125 19.53125 23.3125 19.640625 23.3125 19.75 C 23.3125 19.828125 23.3125 19.902344 23.3125 19.980469 C 23.3125 20.140625 23.3125 20.300781 23.3125 20.460938 C 23.3125 20.664062 23.316406 20.871094 23.316406 21.074219 C 23.316406 21.230469 23.320312 21.390625 23.316406 21.546875 C 23.320312 21.621094 23.320312 21.699219 23.320312 21.773438 C 23.324219 22.226562 23.320312 22.621094 23.015625 22.984375 C 22.972656 23.023438 22.972656 23.023438 22.925781 23.058594 C 22.894531 23.085938 22.863281 23.109375 22.832031 23.136719 C 22.621094 23.28125 22.4375 23.308594 22.183594 23.308594 C 22.152344 23.308594 22.121094 23.308594 22.089844 23.308594 C 21.984375 23.3125 21.882812 23.3125 21.777344 23.308594 C 21.703125 23.3125 21.628906 23.3125 21.554688 23.3125 C 21.351562 23.3125 21.148438 23.3125 20.945312 23.3125 C 20.820312 23.3125 20.691406 23.3125 20.566406 23.3125 C 20.125 23.3125 19.679688 23.3125 19.238281 23.3125 C 18.828125 23.3125 18.414062 23.316406 18.003906 23.316406 C 17.648438 23.316406 17.292969 23.320312 16.941406 23.316406 C 16.730469 23.316406 16.519531 23.320312 16.308594 23.320312 C 16.109375 23.320312 15.910156 23.320312 15.710938 23.320312 C 15.636719 23.320312 15.566406 23.320312 15.492188 23.320312 C 15.054688 23.324219 14.722656 23.316406 14.378906 23.019531 C 14.355469 22.988281 14.328125 22.957031 14.304688 22.929688 C 14.277344 22.898438 14.25 22.867188 14.222656 22.835938 C 14.019531 22.527344 14.046875 22.179688 14.042969 21.820312 C 14.042969 21.566406 14.042969 21.566406 13.929688 21.347656 C 13.828125 21.273438 13.828125 21.273438 13.6875 21.234375 C 13.6875 20.925781 13.6875 20.617188 13.6875 20.296875 C 13.804688 20.25 13.804688 20.25 13.921875 20.203125 C 14.023438 20.050781 14.027344 20.003906 14.027344 19.824219 C 14.03125 19.78125 14.03125 19.734375 14.03125 19.683594 C 14.03125 19.589844 14.035156 19.492188 14.035156 19.394531 C 14.042969 19.035156 14.101562 18.777344 14.34375 18.503906 C 14.371094 18.480469 14.402344 18.453125 14.433594 18.429688 C 14.480469 18.390625 14.480469 18.390625 14.527344 18.347656 C 14.738281 18.203125 14.921875 18.175781 15.179688 18.171875 C 15.242188 18.171875 15.304688 18.171875 15.367188 18.167969 C 15.464844 18.167969 15.558594 18.167969 15.65625 18.167969 C 15.75 18.164062 15.84375 18.164062 15.9375 18.160156 C 15.996094 18.160156 16.050781 18.160156 16.109375 18.160156 C 16.28125 18.140625 16.394531 18.082031 16.546875 18 C 16.578125 18 16.609375 18 16.640625 18 C 16.726562 17.785156 16.785156 17.609375 16.792969 17.378906 C 16.796875 17.328125 16.796875 17.28125 16.800781 17.230469 C 16.804688 17.128906 16.804688 17.027344 16.808594 16.925781 C 16.8125 16.878906 16.8125 16.832031 16.816406 16.78125 C 16.816406 16.738281 16.816406 16.695312 16.820312 16.648438 C 16.828125 16.546875 16.828125 16.546875 16.875 16.5 Z M 16.875 16.5 "/>
<path style=" stroke:none;fill-rule:nonzero;fill:rgb(44.705883%,84.705883%,54.509807%);fill-opacity:1;" d="M 1.816406 0.691406 C 1.863281 0.691406 1.863281 0.691406 1.910156 0.691406 C 2.015625 0.6875 2.117188 0.6875 2.222656 0.691406 C 2.296875 0.6875 2.371094 0.6875 2.445312 0.6875 C 2.648438 0.6875 2.851562 0.6875 3.054688 0.6875 C 3.179688 0.6875 3.308594 0.6875 3.433594 0.6875 C 3.875 0.6875 4.320312 0.6875 4.761719 0.6875 C 5.171875 0.6875 5.585938 0.683594 5.996094 0.683594 C 6.351562 0.683594 6.707031 0.679688 7.058594 0.683594 C 7.269531 0.683594 7.480469 0.679688 7.691406 0.679688 C 7.890625 0.679688 8.089844 0.679688 8.289062 0.679688 C 8.363281 0.679688 8.433594 0.679688 8.507812 0.679688 C 8.941406 0.675781 9.277344 0.683594 9.621094 0.984375 C 9.644531 1.011719 9.671875 1.042969 9.695312 1.074219 C 9.722656 1.105469 9.75 1.136719 9.777344 1.167969 C 9.925781 1.386719 9.949219 1.574219 9.949219 1.839844 C 9.953125 1.871094 9.953125 1.90625 9.953125 1.9375 C 9.953125 2.046875 9.953125 2.15625 9.953125 2.265625 C 9.953125 2.34375 9.953125 2.417969 9.953125 2.496094 C 9.953125 2.65625 9.953125 2.816406 9.953125 2.976562 C 9.953125 3.179688 9.957031 3.386719 9.957031 3.589844 C 9.957031 3.746094 9.960938 3.90625 9.957031 4.0625 C 9.960938 4.136719 9.960938 4.214844 9.960938 4.289062 C 9.964844 4.742188 9.960938 5.136719 9.65625 5.5 C 9.613281 5.539062 9.613281 5.539062 9.566406 5.574219 C 9.535156 5.601562 9.503906 5.625 9.472656 5.652344 C 9.253906 5.800781 9.070312 5.824219 8.808594 5.828125 C 8.742188 5.828125 8.679688 5.828125 8.613281 5.832031 C 8.515625 5.832031 8.414062 5.832031 8.3125 5.832031 C 8.214844 5.835938 8.117188 5.835938 8.019531 5.839844 C 7.933594 5.839844 7.933594 5.839844 7.84375 5.839844 C 7.675781 5.859375 7.589844 5.90625 7.453125 6 C 7.421875 6 7.390625 6 7.359375 6 C 7.34375 6.035156 7.332031 6.074219 7.316406 6.113281 C 7.265625 6.234375 7.265625 6.234375 7.21875 6.328125 C 7.210938 6.414062 7.207031 6.5 7.203125 6.582031 C 7.203125 6.632812 7.199219 6.683594 7.199219 6.734375 C 7.195312 6.789062 7.195312 6.84375 7.191406 6.898438 C 7.1875 6.976562 7.1875 6.976562 7.1875 7.058594 C 7.179688 7.191406 7.175781 7.320312 7.171875 7.453125 C 6.984375 7.453125 6.984375 7.453125 6.910156 7.398438 C 6.882812 7.375 6.859375 7.347656 6.835938 7.320312 C 6.804688 7.292969 6.777344 7.265625 6.75 7.234375 C 6.71875 7.203125 6.6875 7.171875 6.65625 7.140625 C 6.625 7.109375 6.59375 7.078125 6.5625 7.042969 C 6.460938 6.941406 6.363281 6.839844 6.261719 6.734375 C 6.164062 6.632812 6.066406 6.53125 5.964844 6.429688 C 5.902344 6.367188 5.839844 6.300781 5.78125 6.238281 C 5.75 6.207031 5.722656 6.179688 5.695312 6.148438 C 5.667969 6.125 5.644531 6.097656 5.617188 6.070312 C 5.386719 5.882812 5.171875 5.839844 4.878906 5.84375 C 4.824219 5.84375 4.824219 5.84375 4.769531 5.839844 C 4.691406 5.839844 4.613281 5.839844 4.539062 5.839844 C 4.414062 5.84375 4.289062 5.839844 4.167969 5.839844 C 3.816406 5.839844 3.464844 5.839844 3.113281 5.839844 C 2.898438 5.839844 2.683594 5.839844 2.46875 5.835938 C 2.347656 5.835938 2.226562 5.835938 2.105469 5.835938 C 2.03125 5.835938 1.957031 5.835938 1.882812 5.835938 C 1.847656 5.835938 1.816406 5.835938 1.78125 5.835938 C 1.480469 5.832031 1.246094 5.726562 1.019531 5.535156 C 0.996094 5.503906 0.96875 5.472656 0.941406 5.445312 C 0.90625 5.398438 0.90625 5.398438 0.863281 5.351562 C 0.710938 5.121094 0.691406 4.894531 0.691406 4.625 C 0.6875 4.589844 0.6875 4.558594 0.6875 4.523438 C 0.6875 4.414062 0.6875 4.304688 0.6875 4.195312 C 0.6875 4.121094 0.6875 4.042969 0.6875 3.964844 C 0.6875 3.804688 0.6875 3.644531 0.6875 3.484375 C 0.6875 3.28125 0.683594 3.078125 0.683594 2.871094 C 0.683594 2.714844 0.679688 2.558594 0.683594 2.398438 C 0.679688 2.324219 0.679688 2.25 0.679688 2.171875 C 0.671875 1.371094 0.671875 1.371094 0.984375 1.019531 C 1.011719 0.996094 1.042969 0.96875 1.074219 0.945312 C 1.105469 0.917969 1.136719 0.890625 1.167969 0.863281 C 1.378906 0.71875 1.5625 0.691406 1.816406 0.691406 Z M 1.816406 0.691406 "/>
<path style=" stroke:none;fill-rule:nonzero;fill:rgb(63.137257%,60.784316%,86.274511%);fill-opacity:1;" d="M 14.296875 1.640625 C 14.308594 1.671875 14.324219 1.703125 14.339844 1.734375 C 14.539062 2.164062 14.71875 2.289062 15.140625 2.53125 C 15.140625 2.980469 15.140625 3.429688 15.140625 3.890625 C 14.984375 3.921875 14.832031 3.953125 14.671875 3.984375 C 14.414062 4.128906 14.339844 4.242188 14.257812 4.523438 C 14.234375 4.617188 14.214844 4.710938 14.195312 4.800781 C 14.109375 5.171875 14.109375 5.171875 13.9375 5.289062 C 13.890625 5.3125 13.839844 5.335938 13.789062 5.359375 C 13.71875 5.398438 13.71875 5.398438 13.644531 5.4375 C 13.484375 5.488281 13.421875 5.492188 13.265625 5.4375 C 13.132812 5.363281 13.132812 5.363281 13 5.273438 C 12.773438 5.125 12.65625 5.054688 12.386719 5.046875 C 12.316406 5.046875 12.316406 5.046875 12.242188 5.042969 C 11.882812 5.089844 11.644531 5.40625 11.402344 5.648438 C 11.347656 5.703125 11.347656 5.703125 11.292969 5.757812 C 11.242188 5.808594 11.242188 5.808594 11.1875 5.859375 C 11.140625 5.90625 11.140625 5.90625 11.09375 5.957031 C 10.925781 6.152344 10.898438 6.320312 10.902344 6.574219 C 10.945312 6.859375 11.097656 7.097656 11.265625 7.324219 C 11.34375 7.453125 11.34375 7.453125 11.34375 7.582031 C 11.328125 7.632812 11.3125 7.683594 11.296875 7.734375 C 11.289062 7.773438 11.28125 7.8125 11.269531 7.851562 C 11.230469 7.988281 11.195312 8.085938 11.109375 8.203125 C 10.929688 8.285156 10.742188 8.3125 10.546875 8.34375 C 10.191406 8.429688 10.035156 8.535156 9.839844 8.847656 C 9.742188 9.085938 9.777344 9.367188 9.777344 9.621094 C 9.773438 9.710938 9.773438 9.710938 9.773438 9.804688 C 9.769531 10.15625 9.78125 10.425781 10.03125 10.6875 C 10.234375 10.859375 10.410156 10.90625 10.671875 10.949219 C 10.992188 11 10.992188 11 11.101562 11.074219 C 11.167969 11.175781 11.214844 11.269531 11.261719 11.382812 C 11.277344 11.421875 11.296875 11.460938 11.3125 11.5 C 11.367188 11.710938 11.324219 11.855469 11.222656 12.042969 C 11.179688 12.109375 11.179688 12.109375 11.132812 12.175781 C 11.101562 12.21875 11.074219 12.265625 11.042969 12.308594 C 11.007812 12.367188 11.007812 12.367188 10.96875 12.421875 C 10.882812 12.59375 10.90625 12.796875 10.921875 12.984375 C 10.988281 13.160156 11.0625 13.285156 11.203125 13.40625 C 11.109375 13.617188 10.964844 13.765625 10.8125 13.929688 C 10.726562 14.023438 10.644531 14.113281 10.5625 14.210938 C 10.246094 14.570312 10.246094 14.570312 10.050781 14.589844 C 9.929688 14.5625 9.820312 14.523438 9.703125 14.484375 C 9.34375 14.433594 9.007812 14.523438 8.714844 14.746094 C 8.503906 14.941406 8.4375 15.09375 8.296875 15.375 C 7.878906 15.375 7.460938 15.375 7.03125 15.375 C 7.015625 14.828125 7.015625 14.828125 7.011719 14.660156 C 7.003906 14.394531 6.988281 14.199219 6.84375 13.96875 C 6.820312 13.898438 6.820312 13.898438 6.796875 13.828125 C 6.691406 13.773438 6.691406 13.773438 6.5625 13.734375 C 6.519531 13.71875 6.476562 13.703125 6.433594 13.6875 C 6.265625 13.636719 6.125 13.628906 5.949219 13.625 C 5.644531 13.609375 5.644531 13.609375 5.472656 13.484375 C 5.433594 13.421875 5.433594 13.421875 5.390625 13.359375 C 5.359375 13.3125 5.359375 13.3125 5.328125 13.269531 C 5.253906 13.046875 5.292969 12.878906 5.390625 12.671875 C 5.4375 12.585938 5.480469 12.503906 5.523438 12.417969 C 5.546875 12.371094 5.574219 12.324219 5.597656 12.277344 C 5.671875 12.128906 5.75 11.984375 5.828125 11.835938 C 5.878906 11.738281 5.925781 11.644531 5.976562 11.546875 C 6.050781 11.402344 6.125 11.261719 6.199219 11.117188 C 6.375 10.78125 6.542969 10.449219 6.714844 10.113281 C 6.734375 10.070312 6.757812 10.027344 6.78125 9.980469 C 6.800781 9.941406 6.820312 9.902344 6.839844 9.859375 C 6.859375 9.824219 6.875 9.789062 6.894531 9.753906 C 6.980469 9.558594 6.992188 9.378906 7.003906 9.167969 C 7.011719 9.082031 7.011719 9.082031 7.019531 8.992188 C 7.027344 8.875 7.035156 8.757812 7.039062 8.640625 C 7.050781 8.484375 7.066406 8.351562 7.125 8.203125 C 7.238281 8.113281 7.34375 8.066406 7.480469 8.015625 C 7.628906 7.953125 7.699219 7.871094 7.78125 7.734375 C 7.828125 7.59375 7.835938 7.492188 7.84375 7.34375 C 7.847656 7.273438 7.847656 7.273438 7.847656 7.199219 C 7.851562 7.148438 7.851562 7.097656 7.855469 7.046875 C 7.859375 6.96875 7.859375 6.96875 7.859375 6.890625 C 7.867188 6.765625 7.871094 6.640625 7.875 6.515625 C 7.910156 6.515625 7.941406 6.515625 7.976562 6.515625 C 9.042969 6.53125 9.042969 6.53125 9.984375 6.09375 C 10.011719 6.074219 10.039062 6.050781 10.066406 6.027344 C 10.363281 5.769531 10.472656 5.429688 10.59375 5.0625 C 10.597656 4.988281 10.597656 4.917969 10.597656 4.84375 C 10.59375 4.777344 10.59375 4.777344 10.59375 4.710938 C 10.59375 4.640625 10.59375 4.640625 10.59375 4.566406 C 10.59375 4.464844 10.589844 4.363281 10.589844 4.265625 C 10.589844 4.105469 10.589844 3.945312 10.585938 3.789062 C 10.585938 3.632812 10.585938 3.480469 10.585938 3.328125 C 10.585938 3.28125 10.582031 3.234375 10.582031 3.183594 C 10.582031 3.046875 10.589844 2.941406 10.640625 2.8125 C 10.78125 2.6875 10.9375 2.609375 11.109375 2.53125 C 11.160156 2.503906 11.207031 2.472656 11.257812 2.445312 C 12.171875 1.964844 13.257812 1.621094 14.296875 1.640625 Z M 14.296875 1.640625 "/>
<path style=" stroke:none;fill-rule:nonzero;fill:rgb(69.01961%,67.450982%,88.627452%);fill-opacity:1;" d="M 16.6875 1.734375 C 16.972656 1.71875 17.210938 1.777344 17.480469 1.859375 C 17.523438 1.871094 17.570312 1.882812 17.613281 1.894531 C 18.601562 2.195312 19.539062 2.609375 20.347656 3.265625 C 20.496094 3.386719 20.558594 3.421875 20.753906 3.414062 C 20.804688 3.402344 20.855469 3.386719 20.90625 3.375 C 21.136719 3.375 21.261719 3.550781 21.421875 3.703125 C 21.542969 3.832031 21.542969 3.832031 21.609375 3.9375 C 21.59375 3.984375 21.578125 4.03125 21.5625 4.078125 C 21.539062 4.339844 21.542969 4.46875 21.71875 4.679688 C 21.738281 4.707031 21.761719 4.734375 21.785156 4.761719 C 22.296875 5.410156 22.675781 6.195312 22.921875 6.984375 C 22.933594 7.019531 22.941406 7.050781 22.953125 7.085938 C 23.34375 8.367188 23.457031 9.832031 23.203125 11.15625 C 23.195312 11.191406 23.191406 11.226562 23.183594 11.265625 C 23.097656 11.703125 23 12.132812 22.875 12.5625 C 22.867188 12.597656 22.855469 12.632812 22.84375 12.667969 C 22.753906 12.992188 22.632812 13.300781 22.507812 13.613281 C 22.488281 13.664062 22.46875 13.714844 22.449219 13.765625 C 22.316406 14.097656 22.164062 14.410156 21.984375 14.71875 C 21.660156 14.695312 21.390625 14.566406 21.097656 14.433594 C 21.019531 14.398438 21.019531 14.398438 20.941406 14.363281 C 20.53125 14.179688 20.132812 13.988281 19.734375 13.78125 C 19.703125 13.765625 19.671875 13.75 19.640625 13.734375 C 19.667969 13.566406 19.734375 13.484375 19.847656 13.359375 C 20.054688 13.136719 20.144531 12.960938 20.140625 12.65625 C 20.09375 12.4375 19.96875 12.273438 19.835938 12.09375 C 19.667969 11.859375 19.664062 11.722656 19.707031 11.445312 C 19.757812 11.285156 19.804688 11.1875 19.921875 11.0625 C 20.101562 10.980469 20.289062 10.941406 20.484375 10.90625 C 20.753906 10.855469 20.902344 10.796875 21.09375 10.59375 C 21.234375 10.320312 21.203125 10.015625 21.203125 9.714844 C 21.203125 9.613281 21.207031 9.507812 21.207031 9.40625 C 21.207031 9.339844 21.210938 9.273438 21.210938 9.207031 C 21.210938 9.148438 21.210938 9.085938 21.210938 9.023438 C 21.179688 8.796875 21.078125 8.660156 20.921875 8.496094 C 20.78125 8.421875 20.648438 8.398438 20.492188 8.371094 C 19.976562 8.269531 19.976562 8.269531 19.8125 8.070312 C 19.722656 7.855469 19.65625 7.640625 19.6875 7.40625 C 19.769531 7.265625 19.769531 7.265625 19.871094 7.117188 C 20.019531 6.910156 20.117188 6.761719 20.125 6.503906 C 20.125 6.453125 20.125 6.453125 20.128906 6.402344 C 20.066406 6.035156 19.777344 5.789062 19.523438 5.539062 C 19.488281 5.503906 19.453125 5.46875 19.414062 5.433594 C 19.117188 5.132812 18.929688 5.027344 18.5 5.03125 C 18.257812 5.074219 18.089844 5.191406 17.894531 5.339844 C 17.699219 5.484375 17.699219 5.484375 17.550781 5.480469 C 17.511719 5.464844 17.476562 5.453125 17.4375 5.4375 C 17.398438 5.425781 17.355469 5.414062 17.316406 5.398438 C 17.253906 5.378906 17.253906 5.378906 17.195312 5.355469 C 17.152344 5.339844 17.113281 5.328125 17.070312 5.3125 C 16.9375 5.230469 16.917969 5.167969 16.875 5.015625 C 16.851562 4.914062 16.832031 4.816406 16.8125 4.714844 C 16.726562 4.339844 16.726562 4.339844 16.464844 4.070312 C 16.246094 3.949219 16.105469 3.929688 15.84375 3.890625 C 15.84375 3.441406 15.84375 2.992188 15.84375 2.53125 C 16.015625 2.4375 16.183594 2.34375 16.359375 2.25 C 16.511719 2.074219 16.613281 1.953125 16.6875 1.734375 Z M 16.6875 1.734375 "/>
<path style=" stroke:none;fill-rule:nonzero;fill:rgb(69.411767%,67.843139%,88.627452%);fill-opacity:1;" d="M 16.78125 7.125 C 16.824219 7.144531 16.867188 7.167969 16.914062 7.1875 C 17.53125 7.519531 17.976562 8.097656 18.207031 8.753906 C 18.449219 9.574219 18.324219 10.335938 17.933594 11.082031 C 17.734375 11.40625 17.734375 11.40625 17.578125 11.484375 C 17.515625 11.480469 17.453125 11.472656 17.390625 11.46875 C 17.136719 11.460938 16.992188 11.578125 16.796875 11.730469 C 16.6875 11.8125 16.6875 11.8125 16.558594 11.859375 C 16.523438 11.875 16.488281 11.890625 16.453125 11.90625 C 16.417969 12.015625 16.386719 12.125 16.359375 12.234375 C 16.074219 12.511719 15.636719 12.441406 15.269531 12.4375 C 14.703125 12.414062 14.234375 12.191406 13.78125 11.859375 C 13.734375 11.824219 13.683594 11.792969 13.632812 11.757812 C 13.132812 11.3125 12.742188 10.613281 12.695312 9.941406 C 12.652344 9.082031 12.882812 8.371094 13.441406 7.703125 C 14.324219 6.785156 15.652344 6.566406 16.78125 7.125 Z M 16.78125 7.125 "/>
<path style=" stroke:none;fill-rule:nonzero;fill:rgb(54.509807%,87.450981%,61.960787%);fill-opacity:1;" d="M 5.4375 0.703125 C 5.914062 0.699219 6.390625 0.695312 6.867188 0.695312 C 7.085938 0.691406 7.308594 0.691406 7.53125 0.6875 C 7.742188 0.6875 7.957031 0.6875 8.171875 0.683594 C 8.253906 0.683594 8.332031 0.683594 8.414062 0.683594 C 8.53125 0.683594 8.644531 0.683594 8.757812 0.683594 C 8.808594 0.679688 8.808594 0.679688 8.859375 0.679688 C 9.160156 0.683594 9.398438 0.785156 9.621094 0.984375 C 9.644531 1.011719 9.671875 1.042969 9.695312 1.074219 C 9.722656 1.105469 9.75 1.136719 9.777344 1.167969 C 9.925781 1.386719 9.949219 1.574219 9.949219 1.839844 C 9.953125 1.871094 9.953125 1.90625 9.953125 1.9375 C 9.953125 2.046875 9.953125 2.15625 9.953125 2.265625 C 9.953125 2.34375 9.953125 2.417969 9.953125 2.496094 C 9.953125 2.65625 9.953125 2.816406 9.953125 2.976562 C 9.953125 3.179688 9.957031 3.386719 9.957031 3.589844 C 9.957031 3.746094 9.960938 3.90625 9.957031 4.0625 C 9.960938 4.136719 9.960938 4.214844 9.960938 4.289062 C 9.964844 4.742188 9.960938 5.136719 9.65625 5.5 C 9.613281 5.539062 9.613281 5.539062 9.566406 5.574219 C 9.535156 5.601562 9.503906 5.625 9.472656 5.652344 C 9.152344 5.867188 8.761719 5.882812 8.390625 5.8125 C 7.335938 5.460938 6.476562 4.449219 5.964844 3.507812 C 5.601562 2.761719 5.429688 1.976562 5.433594 1.152344 C 5.4375 1.109375 5.4375 1.066406 5.4375 1.019531 C 5.4375 0.914062 5.4375 0.808594 5.4375 0.703125 Z M 5.4375 0.703125 "/>
<path style=" stroke:none;fill-rule:nonzero;fill:rgb(63.529414%,89.803922%,99.215686%);fill-opacity:1;" d="M 14.953125 4.59375 C 15.066406 4.578125 15.066406 4.578125 15.207031 4.578125 C 15.257812 4.582031 15.308594 4.582031 15.359375 4.582031 C 15.441406 4.582031 15.441406 4.582031 15.523438 4.585938 C 15.574219 4.585938 15.628906 4.585938 15.683594 4.585938 C 15.816406 4.589844 15.945312 4.589844 16.078125 4.59375 C 16.226562 5.023438 16.226562 5.023438 16.261719 5.234375 C 16.308594 5.433594 16.355469 5.566406 16.5 5.71875 C 16.679688 5.828125 16.871094 5.914062 17.0625 6 C 17.09375 6.015625 17.125 6.03125 17.160156 6.050781 C 17.359375 6.148438 17.546875 6.1875 17.765625 6.140625 C 17.996094 6.046875 18.230469 5.941406 18.425781 5.78125 C 18.542969 5.699219 18.609375 5.703125 18.75 5.71875 C 18.890625 5.8125 19 5.9375 19.117188 6.054688 C 19.152344 6.085938 19.183594 6.117188 19.21875 6.152344 C 19.265625 6.199219 19.265625 6.199219 19.3125 6.246094 C 19.339844 6.273438 19.367188 6.300781 19.398438 6.332031 C 19.453125 6.421875 19.453125 6.421875 19.445312 6.542969 C 19.394531 6.691406 19.3125 6.792969 19.214844 6.917969 C 19.050781 7.160156 18.976562 7.328125 18.996094 7.625 C 19.082031 8.011719 19.214844 8.488281 19.519531 8.757812 C 19.761719 8.90625 20.054688 8.933594 20.328125 8.972656 C 20.484375 9 20.484375 9 20.53125 9.046875 C 20.535156 9.132812 20.539062 9.21875 20.539062 9.304688 C 20.539062 9.359375 20.539062 9.410156 20.539062 9.464844 C 20.539062 9.519531 20.539062 9.574219 20.539062 9.632812 C 20.539062 9.6875 20.539062 9.742188 20.539062 9.800781 C 20.539062 9.878906 20.539062 9.878906 20.539062 9.960938 C 20.539062 10.007812 20.539062 10.054688 20.539062 10.105469 C 20.53125 10.21875 20.53125 10.21875 20.484375 10.265625 C 20.332031 10.292969 20.175781 10.320312 20.023438 10.34375 C 19.742188 10.390625 19.542969 10.484375 19.355469 10.710938 C 19.121094 11.109375 18.933594 11.53125 19.03125 12 C 19.121094 12.199219 19.234375 12.382812 19.359375 12.5625 C 19.453125 12.703125 19.453125 12.703125 19.449219 12.792969 C 19.390625 12.929688 19.300781 13.011719 19.191406 13.113281 C 19.132812 13.167969 19.132812 13.167969 19.074219 13.226562 C 19.046875 13.253906 19.015625 13.285156 18.984375 13.3125 C 18.765625 13.238281 18.589844 13.117188 18.402344 12.988281 C 18.367188 12.964844 18.335938 12.941406 18.300781 12.917969 C 17.78125 12.550781 17.292969 12.15625 16.828125 11.71875 C 16.933594 11.609375 17.027344 11.523438 17.15625 11.4375 C 17.253906 11.4375 17.253906 11.4375 17.359375 11.445312 C 17.519531 11.449219 17.566406 11.445312 17.703125 11.355469 C 18.125 10.761719 18.367188 10.011719 18.28125 9.28125 C 18.128906 8.464844 17.75 7.832031 17.082031 7.335938 C 16.882812 7.210938 16.671875 7.117188 16.453125 7.03125 C 16.421875 7.019531 16.390625 7.007812 16.359375 6.996094 C 16.082031 6.890625 15.824219 6.867188 15.527344 6.871094 C 15.460938 6.871094 15.460938 6.871094 15.390625 6.871094 C 14.890625 6.882812 14.492188 7.003906 14.0625 7.265625 C 14.015625 7.265625 13.96875 7.265625 13.921875 7.265625 C 13.875 7.128906 13.828125 6.996094 13.78125 6.859375 C 13.769531 6.820312 13.753906 6.78125 13.742188 6.742188 C 13.609375 6.355469 13.609375 6.355469 13.640625 6.1875 C 13.707031 6.121094 13.707031 6.121094 13.800781 6.066406 C 13.835938 6.046875 13.871094 6.027344 13.90625 6.007812 C 14.011719 5.953125 14.125 5.90625 14.234375 5.859375 C 14.457031 5.765625 14.617188 5.648438 14.722656 5.425781 C 14.785156 5.242188 14.804688 5.054688 14.832031 4.863281 C 14.859375 4.734375 14.859375 4.734375 14.953125 4.59375 Z M 14.953125 4.59375 "/>
<path style=" stroke:none;fill-rule:nonzero;fill:rgb(99.607843%,66.274512%,45.490196%);fill-opacity:1;" d="M 19.078125 18.1875 C 19.519531 18.183594 19.957031 18.179688 20.398438 18.179688 C 20.601562 18.175781 20.804688 18.175781 21.007812 18.171875 C 21.207031 18.171875 21.402344 18.171875 21.601562 18.167969 C 21.675781 18.167969 21.75 18.167969 21.828125 18.167969 C 22.625 18.15625 22.625 18.15625 22.980469 18.46875 C 23.003906 18.496094 23.03125 18.527344 23.054688 18.558594 C 23.082031 18.589844 23.109375 18.621094 23.136719 18.652344 C 23.285156 18.871094 23.308594 19.058594 23.308594 19.324219 C 23.3125 19.355469 23.3125 19.390625 23.3125 19.421875 C 23.3125 19.53125 23.3125 19.640625 23.3125 19.75 C 23.3125 19.828125 23.3125 19.902344 23.3125 19.980469 C 23.3125 20.140625 23.3125 20.300781 23.3125 20.460938 C 23.3125 20.664062 23.316406 20.871094 23.316406 21.074219 C 23.316406 21.230469 23.320312 21.390625 23.316406 21.546875 C 23.320312 21.621094 23.320312 21.699219 23.320312 21.773438 C 23.324219 22.226562 23.320312 22.621094 23.015625 22.984375 C 22.753906 23.199219 22.570312 23.324219 22.21875 23.296875 C 22.101562 23.25 22 23.199219 21.890625 23.140625 C 21.859375 23.121094 21.832031 23.105469 21.800781 23.089844 C 21.574219 22.960938 21.363281 22.824219 21.152344 22.675781 C 21.125 22.65625 21.097656 22.636719 21.070312 22.617188 C 20.925781 22.511719 20.816406 22.414062 20.71875 22.265625 C 20.753906 22.261719 20.792969 22.257812 20.828125 22.25 C 21.234375 22.195312 21.550781 22.132812 21.8125 21.804688 C 22.054688 21.472656 22.050781 21.125 22.050781 20.730469 C 22.054688 20.675781 22.054688 20.625 22.054688 20.570312 C 22.058594 20.210938 22.007812 19.9375 21.796875 19.640625 C 21.53125 19.382812 21.265625 19.265625 20.894531 19.246094 C 20.566406 19.253906 20.296875 19.355469 20.066406 19.589844 C 19.816406 19.914062 19.765625 20.191406 19.75 20.59375 C 19.75 20.660156 19.75 20.660156 19.746094 20.726562 C 19.742188 20.832031 19.738281 20.941406 19.734375 21.046875 C 19.339844 20.5625 19.226562 19.914062 19.125 19.3125 C 19.117188 19.257812 19.105469 19.203125 19.097656 19.144531 C 19.074219 18.945312 19.074219 18.75 19.078125 18.550781 C 19.078125 18.515625 19.078125 18.480469 19.078125 18.445312 C 19.078125 18.359375 19.078125 18.273438 19.078125 18.1875 Z M 19.078125 18.1875 "/>
<path style=" stroke:none;fill-rule:nonzero;fill:rgb(1.176471%,1.568628%,1.568628%);fill-opacity:1;" d="M 16.78125 7.125 C 16.824219 7.144531 16.867188 7.167969 16.914062 7.1875 C 17.53125 7.519531 17.976562 8.097656 18.207031 8.753906 C 18.449219 9.574219 18.324219 10.335938 17.933594 11.082031 C 17.734375 11.40625 17.734375 11.40625 17.578125 11.484375 C 17.410156 11.503906 17.328125 11.503906 17.1875 11.410156 C 17.074219 11.246094 17.078125 11.164062 17.109375 10.96875 C 17.171875 10.847656 17.238281 10.738281 17.316406 10.628906 C 17.507812 10.300781 17.554688 10.015625 17.550781 9.640625 C 17.550781 9.59375 17.550781 9.550781 17.550781 9.507812 C 17.542969 9.195312 17.507812 8.941406 17.34375 8.671875 C 17.324219 8.636719 17.304688 8.597656 17.28125 8.5625 C 16.996094 8.089844 16.550781 7.757812 16.015625 7.609375 C 15.371094 7.523438 14.828125 7.582031 14.28125 7.960938 C 13.867188 8.300781 13.554688 8.746094 13.453125 9.28125 C 13.410156 9.960938 13.558594 10.542969 14.015625 11.0625 C 14.308594 11.371094 14.648438 11.539062 15.046875 11.671875 C 15.128906 11.671875 15.214844 11.671875 15.296875 11.667969 C 15.347656 11.667969 15.398438 11.667969 15.449219 11.667969 C 15.550781 11.664062 15.65625 11.660156 15.757812 11.65625 C 16.136719 11.652344 16.136719 11.652344 16.324219 11.757812 C 16.40625 11.859375 16.40625 11.859375 16.4375 11.996094 C 16.398438 12.1875 16.320312 12.253906 16.171875 12.375 C 15.589844 12.570312 14.835938 12.445312 14.296875 12.1875 C 14.117188 12.089844 13.949219 11.980469 13.78125 11.859375 C 13.734375 11.824219 13.683594 11.792969 13.632812 11.757812 C 13.132812 11.3125 12.742188 10.613281 12.695312 9.941406 C 12.652344 9.082031 12.882812 8.371094 13.441406 7.703125 C 14.324219 6.785156 15.652344 6.566406 16.78125 7.125 Z M 16.78125 7.125 "/>
<path style=" stroke:none;fill-rule:nonzero;fill:rgb(1.176471%,0.784314%,0.392157%);fill-opacity:1;" d="M 21.46875 19.351562 C 21.789062 19.542969 21.953125 19.761719 22.078125 20.109375 C 22.109375 20.316406 22.109375 20.515625 22.105469 20.722656 C 22.105469 20.773438 22.105469 20.828125 22.105469 20.878906 C 22.101562 21.277344 22.023438 21.585938 21.785156 21.90625 C 21.53125 22.152344 21.230469 22.269531 20.875 22.28125 C 20.5625 22.277344 20.308594 22.160156 20.070312 21.957031 C 19.734375 21.59375 19.710938 21.195312 19.710938 20.726562 C 19.710938 20.671875 19.707031 20.621094 19.707031 20.566406 C 19.707031 20.171875 19.78125 19.847656 20.050781 19.550781 C 20.457031 19.171875 20.976562 19.097656 21.46875 19.351562 Z M 21.46875 19.351562 "/>
<path style=" stroke:none;fill-rule:nonzero;fill:rgb(1.176471%,0.784314%,0.392157%);fill-opacity:1;" d="M 17.015625 19.351562 C 17.335938 19.542969 17.5 19.761719 17.625 20.109375 C 17.65625 20.316406 17.65625 20.515625 17.652344 20.722656 C 17.652344 20.773438 17.652344 20.828125 17.652344 20.878906 C 17.648438 21.277344 17.570312 21.585938 17.332031 21.90625 C 17.078125 22.152344 16.777344 22.269531 16.421875 22.28125 C 16.109375 22.277344 15.855469 22.160156 15.617188 21.957031 C 15.28125 21.59375 15.257812 21.195312 15.257812 20.726562 C 15.257812 20.671875 15.253906 20.621094 15.253906 20.566406 C 15.253906 20.171875 15.328125 19.847656 15.597656 19.550781 C 16.003906 19.171875 16.523438 19.097656 17.015625 19.351562 Z M 17.015625 19.351562 "/>
<path style=" stroke:none;fill-rule:nonzero;fill:rgb(62.7451%,60.784316%,86.274511%);fill-opacity:1;" d="M 14.25 7.921875 C 14.28125 7.9375 14.3125 7.953125 14.34375 7.96875 C 14.328125 8.015625 14.3125 8.0625 14.296875 8.109375 C 14.324219 8.207031 14.324219 8.207031 14.375 8.308594 C 14.394531 8.351562 14.414062 8.390625 14.433594 8.429688 C 14.464844 8.496094 14.464844 8.496094 14.496094 8.5625 C 14.515625 8.605469 14.539062 8.648438 14.5625 8.695312 C 14.992188 9.570312 15.578125 10.375 16.246094 11.082031 C 16.34375 11.183594 16.433594 11.289062 16.523438 11.398438 C 16.632812 11.535156 16.632812 11.535156 16.78125 11.625 C 16.730469 11.773438 16.695312 11.808594 16.554688 11.882812 C 16.507812 11.890625 16.457031 11.898438 16.40625 11.90625 C 16.375 11.875 16.34375 11.84375 16.3125 11.8125 C 16.09375 11.667969 15.886719 11.707031 15.628906 11.722656 C 15.191406 11.734375 14.863281 11.726562 14.484375 11.484375 C 14.433594 11.453125 14.433594 11.453125 14.382812 11.421875 C 14.007812 11.167969 13.71875 10.820312 13.546875 10.40625 C 13.527344 10.367188 13.511719 10.324219 13.492188 10.28125 C 13.3125 9.765625 13.371094 9.210938 13.59375 8.71875 C 13.761719 8.40625 13.992188 8.164062 14.25 7.921875 Z M 14.25 7.921875 "/>
<path style=" stroke:none;fill-rule:nonzero;fill:rgb(0.784314%,1.568628%,0.784314%);fill-opacity:1;" d="M 1.964844 1.707031 C 2.28125 1.765625 2.46875 2.132812 2.644531 2.378906 C 2.671875 2.414062 2.695312 2.449219 2.722656 2.488281 C 2.898438 2.734375 3.066406 2.980469 3.234375 3.234375 C 3.234375 3.195312 3.234375 3.15625 3.234375 3.117188 C 3.238281 2.941406 3.242188 2.765625 3.246094 2.589844 C 3.246094 2.527344 3.246094 2.46875 3.25 2.40625 C 3.25 2.347656 3.25 2.289062 3.253906 2.226562 C 3.253906 2.171875 3.253906 2.121094 3.253906 2.0625 C 3.285156 1.894531 3.332031 1.835938 3.46875 1.734375 C 3.648438 1.699219 3.722656 1.714844 3.875 1.816406 C 4.042969 2.046875 4.019531 2.269531 4.015625 2.546875 C 4.015625 2.605469 4.015625 2.660156 4.015625 2.71875 C 4.015625 2.835938 4.015625 2.957031 4.015625 3.074219 C 4.015625 3.257812 4.015625 3.4375 4.015625 3.621094 C 4.015625 3.738281 4.015625 3.851562 4.015625 3.96875 C 4.015625 4.023438 4.015625 4.078125 4.015625 4.132812 C 4.011719 4.511719 4.011719 4.511719 3.875 4.699219 C 3.75 4.78125 3.75 4.78125 3.617188 4.820312 C 3.253906 4.726562 3.019531 4.242188 2.824219 3.949219 C 2.773438 3.871094 2.71875 3.792969 2.667969 3.714844 C 2.632812 3.664062 2.632812 3.664062 2.597656 3.613281 C 2.53125 3.515625 2.460938 3.421875 2.390625 3.328125 C 2.390625 3.382812 2.390625 3.382812 2.390625 3.4375 C 2.386719 3.597656 2.386719 3.761719 2.382812 3.921875 C 2.382812 3.980469 2.382812 4.035156 2.382812 4.09375 C 2.371094 4.558594 2.371094 4.558594 2.234375 4.703125 C 2.082031 4.800781 2.007812 4.816406 1.828125 4.78125 C 1.703125 4.683594 1.648438 4.628906 1.617188 4.472656 C 1.617188 4.425781 1.617188 4.378906 1.617188 4.332031 C 1.617188 4.277344 1.613281 4.222656 1.613281 4.171875 C 1.613281 4.113281 1.617188 4.054688 1.617188 3.996094 C 1.617188 3.9375 1.617188 3.878906 1.613281 3.820312 C 1.613281 3.695312 1.617188 3.570312 1.617188 3.449219 C 1.617188 3.289062 1.617188 3.132812 1.617188 2.972656 C 1.613281 2.820312 1.617188 2.667969 1.617188 2.519531 C 1.617188 2.460938 1.613281 2.402344 1.613281 2.34375 C 1.613281 2.292969 1.617188 2.238281 1.617188 2.183594 C 1.617188 2.140625 1.617188 2.09375 1.617188 2.042969 C 1.65625 1.839844 1.761719 1.746094 1.964844 1.707031 Z M 1.964844 1.707031 "/>
<path style=" stroke:none;fill-rule:nonzero;fill:rgb(69.01961%,67.450982%,88.627452%);fill-opacity:1;" d="M 14.296875 1.640625 C 14.316406 1.6875 14.316406 1.6875 14.339844 1.734375 C 14.539062 2.164062 14.71875 2.289062 15.140625 2.53125 C 15.140625 2.980469 15.140625 3.429688 15.140625 3.890625 C 14.984375 3.921875 14.832031 3.953125 14.671875 3.984375 C 14.414062 4.128906 14.339844 4.242188 14.257812 4.523438 C 14.234375 4.617188 14.214844 4.710938 14.195312 4.800781 C 14.109375 5.171875 14.109375 5.171875 13.957031 5.277344 C 13.914062 5.296875 13.875 5.316406 13.832031 5.335938 C 13.789062 5.355469 13.75 5.375 13.707031 5.394531 C 13.59375 5.4375 13.59375 5.4375 13.453125 5.4375 C 13.214844 4.21875 13.207031 3.019531 13.21875 1.78125 C 13.582031 1.65625 13.917969 1.632812 14.296875 1.640625 Z M 14.296875 1.640625 "/>
<path style=" stroke:none;fill-rule:nonzero;fill:rgb(0.784314%,1.176471%,0.784314%);fill-opacity:1;" d="M 7.371094 1.703125 C 7.441406 1.703125 7.441406 1.703125 7.511719 1.703125 C 7.582031 1.707031 7.582031 1.707031 7.65625 1.707031 C 7.703125 1.707031 7.75 1.707031 7.796875 1.707031 C 8.171875 1.710938 8.421875 1.789062 8.707031 2.03125 C 8.960938 2.335938 9.039062 2.539062 9.023438 2.9375 C 8.976562 3.253906 8.820312 3.476562 8.578125 3.679688 C 8.242188 3.847656 7.964844 3.855469 7.59375 3.84375 C 7.597656 3.894531 7.597656 3.949219 7.601562 4 C 7.605469 4.070312 7.605469 4.136719 7.609375 4.207031 C 7.613281 4.257812 7.613281 4.257812 7.613281 4.3125 C 7.617188 4.492188 7.609375 4.574219 7.484375 4.710938 C 7.359375 4.78125 7.359375 4.78125 7.1875 4.78125 C 7.011719 4.730469 6.980469 4.703125 6.890625 4.546875 C 6.871094 4.429688 6.871094 4.429688 6.871094 4.292969 C 6.871094 4.242188 6.871094 4.191406 6.867188 4.136719 C 6.867188 4.082031 6.867188 4.027344 6.867188 3.972656 C 6.867188 3.917969 6.867188 3.859375 6.867188 3.800781 C 6.867188 3.683594 6.867188 3.5625 6.867188 3.445312 C 6.867188 3.261719 6.867188 3.078125 6.863281 2.898438 C 6.863281 2.78125 6.863281 2.664062 6.863281 2.550781 C 6.863281 2.496094 6.859375 2.441406 6.859375 2.382812 C 6.863281 2.007812 6.863281 2.007812 6.996094 1.816406 C 7.136719 1.726562 7.207031 1.703125 7.371094 1.703125 Z M 7.371094 1.703125 "/>
<path style=" stroke:none;fill-rule:nonzero;fill:rgb(0%,0%,0%);fill-opacity:1;" d="M 3.046875 13.21875 C 3.191406 13.34375 3.230469 13.414062 3.246094 13.601562 C 3.210938 13.769531 3.121094 13.871094 3.015625 14 C 2.554688 14.542969 2.363281 15.234375 2.390625 15.941406 C 2.457031 16.570312 2.699219 17.121094 3.101562 17.605469 C 3.207031 17.742188 3.230469 17.828125 3.234375 18 C 3.132812 18.214844 3.132812 18.214844 3 18.28125 C 2.84375 18.304688 2.726562 18.316406 2.589844 18.226562 C 2.09375 17.757812 1.738281 17.03125 1.640625 16.359375 C 1.636719 16.324219 1.628906 16.289062 1.625 16.253906 C 1.613281 16.148438 1.601562 16.042969 1.59375 15.9375 C 1.589844 15.90625 1.589844 15.875 1.585938 15.84375 C 1.550781 15.027344 1.835938 14.179688 2.34375 13.546875 C 2.382812 13.496094 2.382812 13.496094 2.421875 13.445312 C 2.613281 13.214844 2.734375 13.128906 3.046875 13.21875 Z M 3.046875 13.21875 "/>
<path style=" stroke:none;fill-rule:nonzero;fill:rgb(0.392157%,1.176471%,0.784314%);fill-opacity:1;" d="M 5.011719 1.707031 C 5.210938 1.746094 5.269531 1.808594 5.390625 1.96875 C 5.421875 2.128906 5.417969 2.289062 5.414062 2.453125 C 5.414062 2.523438 5.414062 2.523438 5.414062 2.59375 C 5.410156 2.742188 5.410156 2.890625 5.40625 3.039062 C 5.402344 3.136719 5.402344 3.238281 5.402344 3.339844 C 5.398438 3.585938 5.394531 3.832031 5.390625 4.078125 C 5.429688 4.078125 5.46875 4.078125 5.507812 4.074219 C 5.558594 4.074219 5.609375 4.074219 5.664062 4.074219 C 5.710938 4.074219 5.761719 4.070312 5.816406 4.070312 C 5.953125 4.078125 5.953125 4.078125 6.105469 4.152344 C 6.1875 4.265625 6.1875 4.265625 6.21875 4.429688 C 6.1875 4.59375 6.1875 4.59375 6.101562 4.695312 C 5.875 4.824219 5.667969 4.808594 5.410156 4.804688 C 5.339844 4.804688 5.339844 4.804688 5.261719 4.808594 C 5.214844 4.808594 5.167969 4.804688 5.121094 4.804688 C 5.078125 4.804688 5.035156 4.804688 4.992188 4.804688 C 4.835938 4.773438 4.785156 4.714844 4.6875 4.59375 C 4.664062 4.472656 4.664062 4.472656 4.664062 4.332031 C 4.664062 4.277344 4.660156 4.222656 4.660156 4.171875 C 4.660156 4.113281 4.664062 4.054688 4.664062 3.996094 C 4.664062 3.9375 4.664062 3.878906 4.660156 3.820312 C 4.660156 3.695312 4.664062 3.570312 4.664062 3.449219 C 4.664062 3.289062 4.664062 3.132812 4.664062 2.972656 C 4.660156 2.820312 4.664062 2.667969 4.664062 2.519531 C 4.664062 2.460938 4.660156 2.402344 4.660156 2.34375 C 4.660156 2.292969 4.664062 2.238281 4.664062 2.183594 C 4.664062 2.140625 4.664062 2.09375 4.664062 2.042969 C 4.703125 1.839844 4.808594 1.746094 5.011719 1.707031 Z M 5.011719 1.707031 "/>
<path style=" stroke:none;fill-rule:nonzero;fill:rgb(0%,0%,0%);fill-opacity:1;" d="M 4.03125 14.15625 C 4.144531 14.226562 4.144531 14.226562 4.21875 14.34375 C 4.25 14.535156 4.265625 14.648438 4.160156 14.8125 C 4.109375 14.875 4.058594 14.9375 4.007812 14.996094 C 3.808594 15.269531 3.753906 15.605469 3.796875 15.9375 C 3.859375 16.207031 3.960938 16.417969 4.125 16.640625 C 4.238281 16.8125 4.257812 16.957031 4.21875 17.15625 C 4.121094 17.277344 4.121094 17.277344 3.984375 17.34375 C 3.808594 17.355469 3.707031 17.339844 3.570312 17.226562 C 3.132812 16.757812 2.972656 16.210938 2.984375 15.582031 C 3.03125 15.074219 3.234375 14.59375 3.582031 14.21875 C 3.746094 14.132812 3.851562 14.128906 4.03125 14.15625 Z M 4.03125 14.15625 "/>
<path style=" stroke:none;fill-rule:nonzero;fill:rgb(0.392157%,0%,0%);fill-opacity:1;" d="M 18.441406 19.195312 C 18.535156 19.191406 18.535156 19.191406 18.625 19.191406 C 18.796875 19.21875 18.796875 19.21875 18.921875 19.300781 C 19.089844 19.535156 19.066406 19.753906 19.0625 20.03125 C 19.0625 20.089844 19.0625 20.144531 19.0625 20.203125 C 19.0625 20.320312 19.0625 20.441406 19.0625 20.558594 C 19.0625 20.742188 19.0625 20.921875 19.0625 21.105469 C 19.0625 21.222656 19.0625 21.335938 19.0625 21.453125 C 19.0625 21.507812 19.0625 21.5625 19.0625 21.617188 C 19.058594 22.039062 19.058594 22.039062 18.921875 22.183594 C 18.796875 22.265625 18.796875 22.265625 18.625 22.269531 C 18.453125 22.214844 18.417969 22.183594 18.328125 22.03125 C 18.3125 21.929688 18.3125 21.929688 18.3125 21.816406 C 18.3125 21.753906 18.3125 21.753906 18.3125 21.6875 C 18.3125 21.644531 18.3125 21.597656 18.3125 21.550781 C 18.316406 21.503906 18.316406 21.457031 18.316406 21.410156 C 18.316406 21.261719 18.316406 21.113281 18.320312 20.964844 C 18.320312 20.863281 18.320312 20.761719 18.320312 20.664062 C 18.324219 20.414062 18.324219 20.167969 18.328125 19.921875 C 18.277344 19.914062 18.222656 19.910156 18.171875 19.902344 C 18 19.875 18 19.875 17.90625 19.796875 C 17.835938 19.636719 17.859375 19.527344 17.90625 19.359375 C 18.066406 19.191406 18.21875 19.195312 18.441406 19.195312 Z M 18.441406 19.195312 "/>
<path style=" stroke:none;fill-rule:nonzero;fill:rgb(98.039216%,65.490198%,44.705883%);fill-opacity:1;" d="M 20.808594 19.917969 C 20.84375 19.921875 20.878906 19.925781 20.917969 19.929688 C 20.972656 19.929688 20.972656 19.929688 21.027344 19.933594 C 21.203125 19.988281 21.269531 20.054688 21.375 20.203125 C 21.40625 20.367188 21.402344 20.527344 21.398438 20.691406 C 21.398438 20.757812 21.398438 20.757812 21.398438 20.824219 C 21.394531 21.070312 21.375 21.257812 21.234375 21.46875 C 21.066406 21.570312 20.910156 21.589844 20.71875 21.5625 C 20.574219 21.441406 20.496094 21.367188 20.4375 21.1875 C 20.421875 21.027344 20.421875 20.863281 20.421875 20.703125 C 20.417969 20.65625 20.417969 20.613281 20.414062 20.566406 C 20.410156 20.238281 20.410156 20.238281 20.554688 20.058594 C 20.59375 20.027344 20.632812 20 20.671875 19.96875 C 20.71875 19.921875 20.71875 19.921875 20.808594 19.917969 Z M 20.808594 19.917969 "/>
<path style=" stroke:none;fill-rule:nonzero;fill:rgb(98.039216%,59.215689%,35.294119%);fill-opacity:1;" d="M 16.355469 19.917969 C 16.390625 19.921875 16.425781 19.925781 16.464844 19.929688 C 16.519531 19.929688 16.519531 19.929688 16.574219 19.933594 C 16.75 19.988281 16.816406 20.054688 16.921875 20.203125 C 16.953125 20.367188 16.949219 20.527344 16.945312 20.691406 C 16.945312 20.757812 16.945312 20.757812 16.945312 20.824219 C 16.941406 21.070312 16.921875 21.257812 16.78125 21.46875 C 16.613281 21.570312 16.457031 21.589844 16.265625 21.5625 C 16.121094 21.441406 16.042969 21.367188 15.984375 21.1875 C 15.96875 21.027344 15.96875 20.863281 15.96875 20.703125 C 15.964844 20.65625 15.964844 20.613281 15.960938 20.566406 C 15.957031 20.238281 15.957031 20.238281 16.101562 20.058594 C 16.140625 20.027344 16.179688 20 16.21875 19.96875 C 16.265625 19.921875 16.265625 19.921875 16.355469 19.917969 Z M 16.355469 19.917969 "/>
<path style=" stroke:none;fill-rule:nonzero;fill:rgb(97.254902%,61.176473%,65.490198%);fill-opacity:1;" d="M 9.828125 15.21875 C 9.992188 15.320312 10.0625 15.425781 10.125 15.609375 C 10.152344 15.792969 10.132812 15.875 10.046875 16.039062 C 9.878906 16.242188 9.777344 16.304688 9.519531 16.332031 C 9.320312 16.324219 9.199219 16.253906 9.046875 16.125 C 8.925781 15.929688 8.914062 15.738281 8.953125 15.515625 C 9.03125 15.367188 9.140625 15.265625 9.277344 15.171875 C 9.484375 15.109375 9.640625 15.121094 9.828125 15.21875 Z M 9.828125 15.21875 "/>
<path style=" stroke:none;fill-rule:nonzero;fill:rgb(97.647059%,57.647061%,73.725492%);fill-opacity:1;" d="M 15.808594 0.757812 C 15.957031 0.855469 16.011719 0.910156 16.078125 1.078125 C 16.105469 1.277344 16.097656 1.445312 16.023438 1.632812 C 15.871094 1.808594 15.722656 1.867188 15.492188 1.894531 C 15.296875 1.871094 15.199219 1.8125 15.046875 1.6875 C 14.917969 1.480469 14.921875 1.265625 14.953125 1.03125 C 15.152344 0.691406 15.441406 0.625 15.808594 0.757812 Z M 15.808594 0.757812 "/>
<path style=" stroke:none;fill-rule:nonzero;fill:rgb(53.333336%,85.09804%,60.392159%);fill-opacity:1;" d="M 7.59375 2.4375 C 8.015625 2.414062 8.015625 2.414062 8.210938 2.511719 C 8.296875 2.625 8.296875 2.625 8.328125 2.789062 C 8.296875 2.953125 8.296875 2.953125 8.210938 3.066406 C 7.996094 3.171875 7.828125 3.152344 7.59375 3.140625 C 7.59375 2.910156 7.59375 2.675781 7.59375 2.4375 Z M 7.59375 2.4375 "/>
</g>
</svg>
