<?xml version="1.0" encoding="UTF-8"?>
<svg xmlns="http://www.w3.org/2000/svg" xmlns:xlink="http://www.w3.org/1999/xlink" width="24px" height="24px" viewBox="0 0 24 24" version="1.1">
<g id="surface1">
<path style=" stroke:none;fill-rule:nonzero;fill:rgb(98.431373%,98.431373%,97.647059%);fill-opacity:1;" d="M 14.253906 0.710938 C 15.039062 1.316406 15.640625 2.285156 15.78125 3.28125 C 15.839844 3.789062 15.847656 4.296875 15.855469 4.808594 C 15.894531 6.914062 16.558594 8.585938 18.035156 10.125 C 19.375 11.53125 20.160156 13.78125 20.125 15.714844 C 20.113281 15.976562 20.054688 16.222656 20 16.472656 C 19.90625 16.875 19.90625 16.875 20.046875 17.25 C 20.070312 17.28125 20.097656 17.3125 20.125 17.34375 C 20.289062 17.542969 20.304688 17.773438 20.328125 18.023438 C 20.394531 18.511719 20.613281 18.925781 20.996094 19.246094 C 21.144531 19.351562 21.289062 19.4375 21.453125 19.519531 C 21.726562 19.664062 21.980469 19.90625 22.078125 20.203125 C 22.113281 20.5 22.058594 20.648438 21.890625 20.894531 C 21.597656 21.226562 21.253906 21.40625 20.863281 21.601562 C 20.777344 21.644531 20.691406 21.6875 20.605469 21.730469 C 20.523438 21.773438 20.4375 21.816406 20.355469 21.859375 C 19.558594 22.269531 18.90625 22.78125 18.265625 23.402344 C 17.761719 23.878906 17.253906 24.023438 16.578125 24.011719 C 16.125 23.996094 15.714844 23.824219 15.375 23.53125 C 15.277344 23.417969 15.1875 23.3125 15.1875 23.15625 C 15.140625 23.148438 15.140625 23.148438 15.09375 23.140625 C 14.867188 23.101562 14.640625 23.058594 14.417969 23.007812 C 13.394531 22.777344 12.402344 22.675781 11.355469 22.671875 C 11.316406 22.671875 11.277344 22.671875 11.234375 22.671875 C 10.792969 22.671875 10.367188 22.6875 9.929688 22.761719 C 9.804688 22.78125 9.6875 22.785156 9.5625 22.78125 C 9.558594 22.816406 9.550781 22.851562 9.546875 22.886719 C 9.460938 23.253906 9.160156 23.554688 8.859375 23.765625 C 8.394531 24.019531 7.945312 24.066406 7.4375 23.929688 C 7.160156 23.847656 6.898438 23.742188 6.632812 23.628906 C 5.980469 23.363281 5.308594 23.203125 4.625 23.042969 C 4.070312 22.910156 3.523438 22.769531 2.980469 22.609375 C 2.933594 22.59375 2.933594 22.59375 2.886719 22.582031 C 2.203125 22.382812 2.203125 22.382812 1.976562 22.117188 C 1.855469 21.816406 1.90625 21.574219 2.03125 21.277344 C 2.070312 21.183594 2.113281 21.09375 2.15625 21 C 2.371094 20.484375 2.367188 19.996094 2.320312 19.449219 C 2.316406 19.398438 2.308594 19.347656 2.304688 19.292969 C 2.296875 19.191406 2.285156 19.089844 2.273438 18.984375 C 2.238281 18.605469 2.234375 18.21875 2.484375 17.90625 C 2.695312 17.757812 2.871094 17.714844 3.125 17.710938 C 3.167969 17.710938 3.210938 17.707031 3.253906 17.707031 C 3.34375 17.707031 3.429688 17.703125 3.515625 17.703125 C 3.847656 17.691406 4.113281 17.632812 4.355469 17.394531 C 4.421875 17.300781 4.484375 17.207031 4.546875 17.109375 C 4.566406 17.082031 4.589844 17.054688 4.609375 17.027344 C 4.6875 16.914062 4.738281 16.820312 4.726562 16.679688 C 4.707031 16.605469 4.6875 16.527344 4.667969 16.449219 C 4.636719 16.289062 4.625 16.132812 4.621094 15.964844 C 4.617188 15.886719 4.617188 15.886719 4.613281 15.800781 C 4.65625 15.238281 5.066406 14.65625 5.324219 14.160156 C 5.660156 13.503906 5.921875 12.847656 6.113281 12.132812 C 6.3125 11.429688 6.609375 10.871094 7.078125 10.3125 C 7.101562 10.285156 7.125 10.257812 7.148438 10.230469 C 7.378906 9.953125 7.613281 9.683594 7.859375 9.417969 C 8.015625 9.242188 8.167969 9.0625 8.3125 8.875 C 8.351562 8.824219 8.390625 8.777344 8.429688 8.726562 C 8.828125 8.140625 8.714844 7.457031 8.664062 6.785156 C 8.597656 5.925781 8.5625 5.066406 8.5625 4.203125 C 8.558594 4.132812 8.558594 4.132812 8.558594 4.058594 C 8.550781 2.84375 8.710938 1.742188 9.578125 0.816406 C 10.863281 -0.363281 12.878906 -0.246094 14.253906 0.710938 Z M 14.253906 0.710938 "/>
<path style=" stroke:none;fill-rule:nonzero;fill:rgb(0.392157%,0.392157%,0%);fill-opacity:1;" d="M 14.253906 0.710938 C 15.039062 1.316406 15.640625 2.285156 15.78125 3.28125 C 15.839844 3.789062 15.847656 4.296875 15.855469 4.808594 C 15.894531 6.914062 16.558594 8.585938 18.035156 10.125 C 19.363281 11.515625 20.121094 13.707031 20.128906 15.621094 C 20.117188 16.03125 20.058594 16.484375 19.921875 16.875 C 19.890625 16.890625 19.859375 16.90625 19.828125 16.921875 C 19.796875 16.90625 19.765625 16.890625 19.734375 16.875 C 19.726562 16.925781 19.714844 16.980469 19.703125 17.03125 C 19.582031 17.515625 19.253906 17.925781 18.835938 18.1875 C 18.394531 18.429688 18.015625 18.597656 17.511719 18.492188 C 17.21875 18.40625 17.011719 18.28125 16.84375 18.019531 C 16.765625 17.820312 16.761719 17.652344 16.765625 17.441406 C 16.761719 17.386719 16.761719 17.386719 16.761719 17.332031 C 16.761719 17.082031 16.808594 16.910156 16.921875 16.6875 C 16.9375 16.65625 16.953125 16.625 16.96875 16.59375 C 16.859375 16.59375 16.753906 16.59375 16.640625 16.59375 C 16.640625 16.566406 16.640625 16.535156 16.640625 16.507812 C 16.644531 16.199219 16.644531 15.894531 16.644531 15.589844 C 16.644531 15.476562 16.648438 15.363281 16.648438 15.25 C 16.65625 13.769531 16.449219 12.488281 15.515625 11.296875 C 15.472656 11.257812 15.433594 11.222656 15.390625 11.183594 C 15.253906 11.03125 15.242188 10.929688 15.214844 10.726562 C 15.113281 10.082031 14.890625 9.5 14.589844 8.921875 C 14.460938 8.679688 14.347656 8.429688 14.234375 8.183594 C 14.214844 8.140625 14.195312 8.097656 14.175781 8.054688 C 13.839844 7.3125 13.839844 7.3125 13.941406 6.992188 C 14 6.765625 14.015625 6.488281 13.925781 6.269531 C 13.863281 6.167969 13.796875 6.136719 13.6875 6.09375 C 13.730469 5.980469 13.773438 5.871094 13.832031 5.765625 C 14.050781 5.332031 14.035156 4.769531 13.9375 4.300781 C 13.820312 3.980469 13.621094 3.714844 13.328125 3.542969 C 13.089844 3.4375 12.859375 3.421875 12.609375 3.46875 C 12.289062 3.613281 12.003906 3.871094 11.851562 4.1875 C 11.742188 4.527344 11.785156 4.851562 11.929688 5.167969 C 11.96875 5.242188 12.007812 5.316406 12.046875 5.390625 C 11.964844 5.367188 11.964844 5.367188 11.882812 5.34375 C 11.675781 5.292969 11.484375 5.28125 11.269531 5.285156 C 11.238281 5.285156 11.203125 5.285156 11.167969 5.285156 C 10.945312 5.285156 10.757812 5.320312 10.546875 5.390625 C 10.578125 5.347656 10.609375 5.300781 10.640625 5.257812 C 10.789062 4.988281 10.773438 4.742188 10.695312 4.449219 C 10.5625 4.09375 10.378906 3.828125 10.03125 3.65625 C 9.835938 3.636719 9.660156 3.636719 9.476562 3.707031 C 9.261719 3.894531 9.164062 4.121094 9.140625 4.40625 C 9.109375 4.921875 9.121094 5.527344 9.421875 5.960938 C 9.46875 6.046875 9.46875 6.046875 9.46875 6.234375 C 9.417969 6.316406 9.417969 6.316406 9.355469 6.398438 C 9.195312 6.597656 9.183594 6.773438 9.160156 7.027344 C 9.179688 7.144531 9.179688 7.144531 9.328125 7.222656 C 9.433594 7.300781 9.464844 7.339844 9.492188 7.472656 C 9.492188 7.609375 9.484375 7.746094 9.476562 7.882812 C 9.472656 7.929688 9.472656 7.976562 9.46875 8.023438 C 9.4375 8.511719 9.273438 8.878906 8.988281 9.269531 C 8.40625 10.070312 8.40625 10.070312 8.199219 11.015625 C 8.191406 11.484375 8.0625 11.730469 7.792969 12.105469 C 6.992188 13.273438 6.503906 15.003906 6.628906 16.410156 C 6.695312 16.734375 6.925781 16.914062 7.183594 17.097656 C 7.304688 17.183594 7.414062 17.277344 7.523438 17.371094 C 7.585938 17.421875 7.585938 17.421875 7.648438 17.472656 C 7.796875 17.589844 7.9375 17.710938 8.078125 17.828125 C 8.261719 17.988281 8.453125 18.144531 8.648438 18.292969 C 9.511719 18.953125 9.511719 18.953125 9.578125 19.410156 C 9.59375 19.683594 9.542969 19.847656 9.375 20.0625 C 9.191406 20.167969 9.03125 20.207031 8.824219 20.230469 C 8.789062 20.234375 8.75 20.238281 8.710938 20.242188 C 8.667969 20.246094 8.667969 20.246094 8.625 20.25 C 8.664062 20.296875 8.703125 20.347656 8.742188 20.394531 C 8.84375 20.523438 8.945312 20.648438 9.046875 20.777344 C 9.082031 20.820312 9.082031 20.820312 9.121094 20.867188 C 9.175781 20.9375 9.226562 21.011719 9.277344 21.082031 C 9.40625 21.21875 9.542969 21.273438 9.714844 21.335938 C 9.761719 21.355469 9.761719 21.355469 9.808594 21.375 C 10.898438 21.777344 12.167969 21.710938 13.21875 21.234375 C 13.703125 21.003906 14.089844 20.699219 14.484375 20.34375 C 14.527344 20.308594 14.566406 20.269531 14.609375 20.234375 C 15.097656 19.839844 15.097656 19.839844 15.46875 19.359375 C 15.472656 19.289062 15.472656 19.21875 15.46875 19.144531 C 15.46875 19.101562 15.46875 19.058594 15.46875 19.011719 C 15.46875 18.964844 15.464844 18.914062 15.464844 18.867188 C 15.464844 18.765625 15.460938 18.664062 15.460938 18.5625 C 15.460938 18.402344 15.457031 18.242188 15.453125 18.082031 C 15.449219 17.929688 15.449219 17.773438 15.449219 17.621094 C 15.445312 17.574219 15.445312 17.527344 15.445312 17.476562 C 15.441406 17.105469 15.441406 17.105469 15.585938 16.960938 C 15.625 16.933594 15.664062 16.902344 15.703125 16.875 C 16.097656 18.058594 15.8125 19.867188 15.566406 21.066406 C 15.449219 21.652344 15.339844 22.324219 15.6875 22.855469 C 15.816406 22.988281 15.953125 23.066406 16.117188 23.144531 C 16.160156 23.164062 16.160156 23.164062 16.203125 23.1875 C 16.636719 23.398438 17.144531 23.410156 17.597656 23.253906 C 17.941406 23.105469 18.230469 22.898438 18.484375 22.628906 C 19.140625 21.9375 20 21.5 20.851562 21.101562 C 21.21875 20.929688 21.519531 20.730469 21.753906 20.390625 C 21.808594 20.210938 21.808594 20.0625 21.796875 19.875 C 22.023438 20.042969 22.023438 20.042969 22.078125 20.203125 C 22.113281 20.5 22.058594 20.648438 21.890625 20.894531 C 21.597656 21.226562 21.253906 21.40625 20.863281 21.601562 C 20.777344 21.644531 20.691406 21.6875 20.605469 21.730469 C 20.523438 21.773438 20.4375 21.816406 20.355469 21.859375 C 19.558594 22.269531 18.90625 22.78125 18.265625 23.402344 C 17.761719 23.878906 17.253906 24.023438 16.578125 24.011719 C 16.125 23.996094 15.714844 23.824219 15.375 23.53125 C 15.277344 23.417969 15.1875 23.3125 15.1875 23.15625 C 15.140625 23.148438 15.140625 23.148438 15.09375 23.140625 C 14.867188 23.101562 14.640625 23.058594 14.417969 23.007812 C 13.394531 22.777344 12.402344 22.675781 11.355469 22.671875 C 11.316406 22.671875 11.277344 22.671875 11.234375 22.671875 C 10.792969 22.671875 10.367188 22.6875 9.929688 22.761719 C 9.804688 22.78125 9.6875 22.785156 9.5625 22.78125 C 9.558594 22.816406 9.550781 22.851562 9.546875 22.886719 C 9.460938 23.253906 9.160156 23.554688 8.859375 23.765625 C 8.394531 24.019531 7.945312 24.066406 7.4375 23.929688 C 7.160156 23.847656 6.898438 23.742188 6.632812 23.628906 C 5.980469 23.363281 5.308594 23.203125 4.625 23.042969 C 4.070312 22.910156 3.523438 22.769531 2.980469 22.609375 C 2.933594 22.59375 2.933594 22.59375 2.886719 22.582031 C 2.203125 22.382812 2.203125 22.382812 1.976562 22.117188 C 1.855469 21.816406 1.90625 21.574219 2.03125 21.277344 C 2.070312 21.183594 2.113281 21.09375 2.15625 21 C 2.371094 20.484375 2.367188 19.996094 2.320312 19.449219 C 2.316406 19.398438 2.308594 19.347656 2.304688 19.292969 C 2.296875 19.191406 2.285156 19.089844 2.273438 18.984375 C 2.238281 18.605469 2.234375 18.21875 2.484375 17.90625 C 2.695312 17.757812 2.871094 17.714844 3.125 17.710938 C 3.167969 17.710938 3.210938 17.707031 3.253906 17.707031 C 3.34375 17.707031 3.429688 17.703125 3.515625 17.703125 C 3.847656 17.691406 4.113281 17.632812 4.355469 17.394531 C 4.421875 17.300781 4.484375 17.207031 4.546875 17.109375 C 4.566406 17.082031 4.589844 17.054688 4.609375 17.027344 C 4.6875 16.914062 4.738281 16.820312 4.726562 16.679688 C 4.707031 16.605469 4.6875 16.527344 4.667969 16.449219 C 4.636719 16.289062 4.625 16.132812 4.621094 15.964844 C 4.617188 15.886719 4.617188 15.886719 4.613281 15.800781 C 4.65625 15.238281 5.066406 14.65625 5.324219 14.160156 C 5.660156 13.503906 5.921875 12.847656 6.113281 12.132812 C 6.3125 11.429688 6.609375 10.871094 7.078125 10.3125 C 7.101562 10.285156 7.125 10.257812 7.148438 10.230469 C 7.378906 9.953125 7.613281 9.683594 7.859375 9.417969 C 8.015625 9.242188 8.167969 9.0625 8.3125 8.875 C 8.351562 8.824219 8.390625 8.777344 8.429688 8.726562 C 8.828125 8.140625 8.714844 7.457031 8.664062 6.785156 C 8.597656 5.925781 8.5625 5.066406 8.5625 4.203125 C 8.558594 4.132812 8.558594 4.132812 8.558594 4.058594 C 8.550781 2.84375 8.710938 1.742188 9.578125 0.816406 C 10.863281 -0.363281 12.878906 -0.246094 14.253906 0.710938 Z M 14.253906 0.710938 "/>
<path style=" stroke:none;fill-rule:nonzero;fill:rgb(99.607843%,73.725492%,0%);fill-opacity:1;" d="M 5.8125 16.3125 C 6.234375 16.507812 6.492188 16.941406 6.652344 17.363281 C 6.738281 17.566406 6.851562 17.75 6.96875 17.9375 C 7.019531 18.019531 7.070312 18.101562 7.121094 18.1875 C 7.15625 18.246094 7.15625 18.246094 7.195312 18.308594 C 7.257812 18.410156 7.316406 18.511719 7.378906 18.613281 C 7.570312 18.945312 7.78125 19.253906 8.011719 19.5625 C 8.191406 19.800781 8.332031 20.050781 8.472656 20.3125 C 8.601562 20.542969 8.746094 20.738281 8.917969 20.9375 C 9.207031 21.316406 9.386719 21.789062 9.328125 22.265625 C 9.21875 22.730469 9.042969 23.082031 8.652344 23.359375 C 8.28125 23.585938 7.878906 23.65625 7.453125 23.578125 C 7.214844 23.507812 6.984375 23.414062 6.753906 23.328125 C 6.09375 23.078125 5.410156 22.949219 4.71875 22.820312 C 4.191406 22.71875 3.671875 22.601562 3.15625 22.453125 C 3.101562 22.4375 3.046875 22.421875 2.992188 22.40625 C 2.710938 22.324219 2.503906 22.246094 2.296875 22.03125 C 2.207031 21.851562 2.222656 21.664062 2.25 21.46875 C 2.3125 21.308594 2.386719 21.15625 2.460938 21.003906 C 2.675781 20.554688 2.652344 20.070312 2.601562 19.582031 C 2.578125 19.355469 2.570312 19.128906 2.566406 18.898438 C 2.566406 18.847656 2.566406 18.847656 2.5625 18.796875 C 2.5625 18.574219 2.597656 18.421875 2.71875 18.234375 C 2.960938 18.046875 3.132812 17.992188 3.433594 18 C 3.480469 18 3.523438 18 3.574219 18.003906 C 3.671875 18.003906 3.769531 18.007812 3.867188 18.011719 C 4.128906 18.015625 4.320312 18.011719 4.546875 17.859375 C 4.820312 17.570312 4.859375 17.242188 4.921875 16.859375 C 4.984375 16.632812 5.082031 16.472656 5.257812 16.316406 C 5.453125 16.242188 5.613281 16.261719 5.8125 16.3125 Z M 5.8125 16.3125 "/>
<path style=" stroke:none;fill-rule:nonzero;fill:rgb(99.607843%,74.901962%,0%);fill-opacity:1;" d="M 16.59375 16.359375 C 16.609375 16.359375 16.625 16.359375 16.640625 16.359375 C 16.640625 16.4375 16.640625 16.515625 16.640625 16.59375 C 16.75 16.59375 16.855469 16.59375 16.96875 16.59375 C 16.945312 16.644531 16.921875 16.699219 16.898438 16.75 C 16.773438 17.128906 16.75 17.609375 16.871094 17.992188 C 17.011719 18.242188 17.226562 18.367188 17.5 18.457031 C 17.539062 18.460938 17.582031 18.464844 17.625 18.46875 C 17.65625 18.472656 17.691406 18.476562 17.722656 18.480469 C 18.222656 18.507812 18.699219 18.265625 19.078125 17.953125 C 19.417969 17.628906 19.648438 17.300781 19.6875 16.828125 C 19.875 16.925781 19.96875 17.011719 20.070312 17.195312 C 20.09375 17.234375 20.117188 17.273438 20.140625 17.3125 C 20.257812 17.550781 20.304688 17.761719 20.328125 18.023438 C 20.394531 18.511719 20.613281 18.925781 20.996094 19.246094 C 21.179688 19.375 21.367188 19.488281 21.566406 19.589844 C 21.703125 19.667969 21.78125 19.730469 21.828125 19.882812 C 21.863281 20.152344 21.847656 20.320312 21.683594 20.539062 C 21.378906 20.890625 21.011719 21.074219 20.597656 21.273438 C 19.769531 21.671875 19.101562 22.105469 18.441406 22.738281 C 18.023438 23.128906 17.574219 23.390625 16.988281 23.40625 C 16.503906 23.386719 16.003906 23.253906 15.65625 22.886719 C 15.292969 22.296875 15.40625 21.632812 15.539062 20.984375 C 15.757812 19.917969 15.75 18.847656 15.75 17.765625 C 15.75 17.6875 15.75 17.609375 15.75 17.535156 C 15.75 17.359375 15.75 17.1875 15.75 17.015625 C 15.71875 17 15.6875 16.984375 15.65625 16.96875 C 15.683594 16.628906 15.683594 16.628906 15.753906 16.5 C 16.011719 16.367188 16.328125 16.472656 16.59375 16.546875 C 16.59375 16.484375 16.59375 16.421875 16.59375 16.359375 Z M 16.59375 16.359375 "/>
<path style=" stroke:none;fill-rule:nonzero;fill:rgb(0.392157%,0.392157%,0.392157%);fill-opacity:1;" d="M 5.015625 16.5 C 5.039062 16.546875 5.039062 16.546875 5.0625 16.59375 C 5.03125 16.671875 5 16.75 4.96875 16.828125 C 4.933594 17.003906 4.902344 17.179688 4.875 17.359375 C 4.796875 17.648438 4.648438 17.832031 4.40625 18 C 4.265625 18.046875 4.175781 18.050781 4.027344 18.046875 C 3.960938 18.046875 3.960938 18.046875 3.886719 18.042969 C 3.792969 18.042969 3.695312 18.039062 3.597656 18.035156 C 3.300781 18.03125 3.082031 18.058594 2.8125 18.1875 C 2.613281 18.394531 2.617188 18.617188 2.617188 18.890625 C 2.621094 18.945312 2.621094 18.945312 2.621094 19 C 2.621094 19.195312 2.628906 19.386719 2.648438 19.582031 C 2.710938 20.179688 2.671875 20.671875 2.40625 21.214844 C 2.289062 21.457031 2.238281 21.671875 2.296875 21.9375 C 2.550781 22.300781 3.0625 22.378906 3.464844 22.492188 C 3.523438 22.507812 3.585938 22.523438 3.644531 22.539062 C 4.09375 22.664062 4.542969 22.753906 5 22.835938 C 5.65625 22.953125 6.28125 23.089844 6.902344 23.335938 C 7.417969 23.539062 7.898438 23.652344 8.441406 23.4375 C 8.808594 23.253906 9.03125 23 9.1875 22.617188 C 9.347656 22.140625 9.304688 21.738281 9.09375 21.28125 C 8.945312 21.023438 8.765625 20.785156 8.578125 20.558594 C 8.464844 20.414062 8.382812 20.261719 8.300781 20.101562 C 8.140625 19.808594 7.960938 19.539062 7.761719 19.273438 C 7.507812 18.929688 7.296875 18.578125 7.09375 18.203125 C 6.96875 17.96875 6.832031 17.746094 6.691406 17.519531 C 6.609375 17.386719 6.539062 17.265625 6.515625 17.109375 C 6.757812 17.324219 6.925781 17.585938 7.101562 17.855469 C 7.132812 17.90625 7.167969 17.957031 7.203125 18.007812 C 7.445312 18.378906 7.679688 18.761719 7.902344 19.148438 C 8.21875 19.710938 8.21875 19.710938 8.625 20.203125 C 8.667969 20.257812 8.707031 20.308594 8.75 20.363281 C 8.773438 20.398438 8.796875 20.429688 8.824219 20.464844 C 8.882812 20.546875 8.945312 20.632812 9 20.71875 C 9.382812 21.265625 9.816406 21.421875 10.453125 21.5625 C 11.660156 21.75 12.863281 21.558594 13.875 20.859375 C 14.089844 20.699219 14.285156 20.523438 14.484375 20.34375 C 14.527344 20.308594 14.566406 20.269531 14.609375 20.234375 C 15.097656 19.839844 15.097656 19.839844 15.46875 19.359375 C 15.472656 19.289062 15.472656 19.21875 15.46875 19.144531 C 15.46875 19.101562 15.46875 19.058594 15.46875 19.011719 C 15.464844 18.941406 15.464844 18.941406 15.464844 18.867188 C 15.464844 18.765625 15.460938 18.664062 15.460938 18.5625 C 15.460938 18.402344 15.457031 18.242188 15.453125 18.082031 C 15.449219 17.929688 15.449219 17.773438 15.449219 17.621094 C 15.445312 17.550781 15.445312 17.550781 15.445312 17.476562 C 15.441406 17.105469 15.441406 17.105469 15.585938 16.960938 C 15.625 16.933594 15.664062 16.902344 15.703125 16.875 C 16.097656 18.058594 15.8125 19.867188 15.566406 21.066406 C 15.449219 21.652344 15.339844 22.324219 15.6875 22.855469 C 15.816406 22.988281 15.953125 23.066406 16.117188 23.144531 C 16.148438 23.160156 16.175781 23.171875 16.203125 23.1875 C 16.636719 23.398438 17.144531 23.410156 17.597656 23.253906 C 17.941406 23.105469 18.230469 22.898438 18.484375 22.628906 C 19.140625 21.9375 20 21.5 20.851562 21.101562 C 21.21875 20.929688 21.519531 20.730469 21.753906 20.390625 C 21.808594 20.210938 21.808594 20.0625 21.796875 19.875 C 22.023438 20.046875 22.023438 20.046875 22.078125 20.203125 C 22.113281 20.5 22.058594 20.648438 21.890625 20.894531 C 21.597656 21.226562 21.253906 21.40625 20.863281 21.601562 C 20.777344 21.644531 20.691406 21.6875 20.605469 21.730469 C 20.523438 21.773438 20.4375 21.816406 20.355469 21.859375 C 19.558594 22.269531 18.90625 22.78125 18.265625 23.402344 C 17.761719 23.878906 17.253906 24.023438 16.578125 24.011719 C 16.125 23.996094 15.714844 23.824219 15.375 23.53125 C 15.277344 23.417969 15.1875 23.3125 15.1875 23.15625 C 15.140625 23.148438 15.140625 23.148438 15.09375 23.140625 C 14.867188 23.101562 14.640625 23.058594 14.417969 23.007812 C 13.394531 22.777344 12.402344 22.675781 11.355469 22.671875 C 11.316406 22.671875 11.277344 22.671875 11.234375 22.671875 C 10.792969 22.671875 10.367188 22.6875 9.929688 22.761719 C 9.804688 22.78125 9.6875 22.785156 9.5625 22.78125 C 9.558594 22.816406 9.550781 22.851562 9.546875 22.886719 C 9.460938 23.253906 9.160156 23.554688 8.859375 23.765625 C 8.394531 24.019531 7.945312 24.066406 7.4375 23.929688 C 7.160156 23.847656 6.898438 23.742188 6.632812 23.632812 C 5.980469 23.363281 5.308594 23.203125 4.625 23.042969 C 4.070312 22.910156 3.523438 22.769531 2.980469 22.609375 C 2.933594 22.59375 2.933594 22.59375 2.886719 22.582031 C 2.203125 22.382812 2.203125 22.382812 1.976562 22.117188 C 1.855469 21.816406 1.90625 21.574219 2.03125 21.277344 C 2.070312 21.183594 2.113281 21.09375 2.15625 21 C 2.371094 20.484375 2.367188 19.996094 2.320312 19.449219 C 2.316406 19.398438 2.308594 19.347656 2.304688 19.292969 C 2.296875 19.191406 2.285156 19.089844 2.273438 18.984375 C 2.238281 18.605469 2.234375 18.21875 2.484375 17.90625 C 2.695312 17.757812 2.871094 17.714844 3.125 17.710938 C 3.167969 17.710938 3.210938 17.707031 3.253906 17.707031 C 3.34375 17.707031 3.429688 17.703125 3.515625 17.703125 C 3.847656 17.691406 4.113281 17.632812 4.355469 17.398438 C 4.375 17.371094 4.390625 17.339844 4.414062 17.3125 C 4.433594 17.277344 4.457031 17.246094 4.480469 17.214844 C 4.5 17.179688 4.523438 17.144531 4.546875 17.109375 C 4.59375 17.035156 4.644531 16.960938 4.695312 16.886719 C 4.714844 16.851562 4.738281 16.816406 4.761719 16.78125 C 4.835938 16.675781 4.917969 16.585938 5.015625 16.5 Z M 5.015625 16.5 "/>
<path style=" stroke:none;fill-rule:nonzero;fill:rgb(96.470588%,75.686276%,1.568628%);fill-opacity:1;" d="M 13.324219 3.492188 C 13.632812 3.671875 13.863281 3.964844 13.984375 4.300781 C 14.089844 4.808594 14.097656 5.402344 13.828125 5.859375 C 13.789062 5.933594 13.789062 5.933594 13.746094 6.007812 C 13.726562 6.035156 13.707031 6.0625 13.6875 6.09375 C 13.722656 6.105469 13.761719 6.117188 13.796875 6.128906 C 13.941406 6.199219 13.960938 6.230469 14.015625 6.375 C 14.050781 6.703125 14.039062 7.097656 13.921875 7.40625 C 13.773438 7.550781 13.632812 7.621094 13.441406 7.691406 C 13.140625 7.808594 12.886719 7.972656 12.621094 8.15625 C 12.390625 8.308594 12.160156 8.429688 11.90625 8.53125 C 11.859375 8.550781 11.8125 8.570312 11.765625 8.589844 C 11.578125 8.636719 11.402344 8.640625 11.210938 8.640625 C 11.171875 8.640625 11.136719 8.640625 11.101562 8.640625 C 10.804688 8.640625 10.535156 8.597656 10.308594 8.398438 C 10.285156 8.367188 10.261719 8.335938 10.234375 8.304688 C 10.140625 8.183594 10.050781 8.082031 9.929688 7.984375 C 9.828125 7.898438 9.753906 7.828125 9.667969 7.722656 C 9.578125 7.59375 9.578125 7.59375 9.46875 7.546875 C 9.46875 7.746094 9.46875 7.949219 9.46875 8.15625 C 9.453125 8.15625 9.4375 8.15625 9.421875 8.15625 C 9.425781 8.101562 9.429688 8.046875 9.433594 7.988281 C 9.433594 7.917969 9.4375 7.84375 9.4375 7.773438 C 9.441406 7.738281 9.445312 7.699219 9.445312 7.664062 C 9.457031 7.457031 9.457031 7.457031 9.359375 7.289062 C 9.289062 7.230469 9.214844 7.179688 9.140625 7.125 C 9.09375 6.792969 9.183594 6.554688 9.382812 6.285156 C 9.425781 6.234375 9.425781 6.234375 9.46875 6.1875 C 9.410156 6.070312 9.351562 5.960938 9.28125 5.847656 C 9.054688 5.394531 9.027344 4.699219 9.128906 4.207031 C 9.203125 3.980469 9.292969 3.820312 9.476562 3.664062 C 9.664062 3.585938 9.832031 3.578125 10.03125 3.609375 C 10.390625 3.785156 10.613281 4.101562 10.75 4.472656 C 10.808594 4.699219 10.839844 4.933594 10.738281 5.15625 C 10.6875 5.234375 10.6875 5.234375 10.59375 5.34375 C 10.632812 5.328125 10.671875 5.3125 10.710938 5.296875 C 10.902344 5.242188 11.070312 5.234375 11.269531 5.238281 C 11.304688 5.238281 11.339844 5.238281 11.375 5.238281 C 11.597656 5.238281 11.785156 5.273438 12 5.34375 C 11.976562 5.304688 11.976562 5.304688 11.949219 5.261719 C 11.769531 4.941406 11.710938 4.675781 11.765625 4.3125 C 11.867188 3.960938 12.136719 3.699219 12.433594 3.496094 C 12.707031 3.351562 13.046875 3.371094 13.324219 3.492188 Z M 13.324219 3.492188 "/>
<path style=" stroke:none;fill-rule:nonzero;fill:rgb(53.725493%,34.117648%,0%);fill-opacity:1;" d="M 5.015625 16.5 C 5.039062 16.546875 5.039062 16.546875 5.0625 16.59375 C 5.03125 16.671875 5 16.75 4.96875 16.828125 C 4.933594 17.003906 4.902344 17.179688 4.875 17.359375 C 4.796875 17.648438 4.648438 17.832031 4.40625 18 C 4.265625 18.046875 4.175781 18.050781 4.027344 18.046875 C 3.960938 18.046875 3.960938 18.046875 3.886719 18.042969 C 3.792969 18.042969 3.695312 18.039062 3.597656 18.035156 C 3.300781 18.03125 3.082031 18.058594 2.8125 18.1875 C 2.613281 18.394531 2.617188 18.617188 2.617188 18.890625 C 2.621094 18.945312 2.621094 18.945312 2.621094 19 C 2.621094 19.195312 2.628906 19.386719 2.648438 19.582031 C 2.710938 20.179688 2.671875 20.671875 2.40625 21.214844 C 2.289062 21.457031 2.238281 21.671875 2.296875 21.9375 C 2.550781 22.300781 3.0625 22.378906 3.464844 22.492188 C 3.523438 22.507812 3.585938 22.523438 3.644531 22.539062 C 4.09375 22.664062 4.542969 22.753906 5 22.835938 C 5.65625 22.953125 6.28125 23.089844 6.902344 23.335938 C 7.417969 23.539062 7.898438 23.652344 8.441406 23.4375 C 8.808594 23.253906 9.03125 23 9.1875 22.617188 C 9.347656 22.140625 9.304688 21.738281 9.09375 21.28125 C 8.945312 21.023438 8.765625 20.785156 8.578125 20.558594 C 8.464844 20.414062 8.382812 20.261719 8.300781 20.101562 C 8.140625 19.808594 7.960938 19.539062 7.761719 19.273438 C 7.507812 18.929688 7.296875 18.578125 7.09375 18.203125 C 6.96875 17.96875 6.832031 17.746094 6.691406 17.519531 C 6.609375 17.386719 6.539062 17.265625 6.515625 17.109375 C 6.757812 17.324219 6.925781 17.585938 7.101562 17.855469 C 7.132812 17.90625 7.167969 17.957031 7.203125 18.007812 C 7.445312 18.378906 7.679688 18.761719 7.902344 19.148438 C 8.21875 19.710938 8.21875 19.710938 8.625 20.203125 C 8.691406 20.289062 8.757812 20.375 8.820312 20.464844 C 8.882812 20.546875 8.945312 20.625 9.007812 20.699219 C 9.410156 21.191406 9.660156 21.765625 9.625 22.410156 C 9.621094 22.453125 9.613281 22.5 9.609375 22.546875 C 9.605469 22.589844 9.601562 22.628906 9.597656 22.671875 C 9.535156 23.105469 9.292969 23.421875 8.960938 23.695312 C 8.585938 23.957031 8.183594 24.042969 7.734375 24 C 7.347656 23.921875 6.992188 23.78125 6.632812 23.632812 C 5.980469 23.363281 5.308594 23.203125 4.625 23.042969 C 4.070312 22.910156 3.523438 22.769531 2.980469 22.609375 C 2.933594 22.59375 2.933594 22.59375 2.886719 22.582031 C 2.203125 22.382812 2.203125 22.382812 1.976562 22.117188 C 1.855469 21.816406 1.90625 21.574219 2.03125 21.277344 C 2.070312 21.183594 2.113281 21.09375 2.15625 21 C 2.371094 20.484375 2.367188 19.996094 2.320312 19.449219 C 2.316406 19.398438 2.308594 19.347656 2.304688 19.292969 C 2.296875 19.191406 2.285156 19.089844 2.273438 18.984375 C 2.238281 18.605469 2.234375 18.21875 2.484375 17.90625 C 2.695312 17.757812 2.871094 17.714844 3.125 17.710938 C 3.167969 17.710938 3.210938 17.707031 3.253906 17.707031 C 3.34375 17.707031 3.429688 17.703125 3.515625 17.703125 C 3.847656 17.691406 4.113281 17.632812 4.355469 17.398438 C 4.375 17.371094 4.390625 17.339844 4.414062 17.3125 C 4.433594 17.277344 4.457031 17.246094 4.480469 17.214844 C 4.5 17.179688 4.523438 17.144531 4.546875 17.109375 C 4.59375 17.035156 4.644531 16.960938 4.695312 16.886719 C 4.714844 16.851562 4.738281 16.816406 4.761719 16.78125 C 4.835938 16.675781 4.917969 16.585938 5.015625 16.5 Z M 5.015625 16.5 "/>
<path style=" stroke:none;fill-rule:nonzero;fill:rgb(41.568628%,25.098041%,0%);fill-opacity:1;" d="M 15.65625 16.875 C 16.207031 17.699219 15.785156 19.929688 15.605469 20.867188 C 15.59375 20.933594 15.578125 21 15.566406 21.066406 C 15.449219 21.652344 15.339844 22.324219 15.6875 22.855469 C 15.816406 22.988281 15.953125 23.066406 16.117188 23.144531 C 16.148438 23.160156 16.175781 23.171875 16.203125 23.1875 C 16.636719 23.398438 17.144531 23.410156 17.597656 23.253906 C 17.941406 23.105469 18.230469 22.898438 18.484375 22.628906 C 19.140625 21.9375 20 21.5 20.851562 21.101562 C 21.21875 20.929688 21.519531 20.730469 21.753906 20.390625 C 21.808594 20.210938 21.808594 20.0625 21.796875 19.875 C 22.023438 20.046875 22.023438 20.046875 22.078125 20.203125 C 22.113281 20.5 22.058594 20.648438 21.890625 20.894531 C 21.597656 21.226562 21.253906 21.40625 20.863281 21.601562 C 20.777344 21.644531 20.691406 21.6875 20.605469 21.730469 C 20.523438 21.773438 20.4375 21.816406 20.355469 21.859375 C 19.558594 22.269531 18.90625 22.78125 18.265625 23.402344 C 17.761719 23.878906 17.253906 24.023438 16.578125 24.011719 C 16.125 23.996094 15.71875 23.824219 15.375 23.53125 C 15.035156 23.148438 15.070312 22.605469 15.09375 22.125 C 15.132812 21.519531 15.234375 20.921875 15.339844 20.324219 C 15.347656 20.265625 15.359375 20.210938 15.371094 20.148438 C 15.378906 20.097656 15.386719 20.046875 15.398438 19.996094 C 15.457031 19.605469 15.472656 19.226562 15.464844 18.828125 C 15.464844 18.730469 15.464844 18.628906 15.464844 18.53125 C 15.460938 18.375 15.460938 18.21875 15.457031 18.0625 C 15.453125 17.910156 15.453125 17.757812 15.453125 17.609375 C 15.449219 17.5625 15.449219 17.515625 15.449219 17.46875 C 15.449219 17.144531 15.449219 17.144531 15.5625 16.960938 C 15.609375 16.917969 15.609375 16.917969 15.65625 16.875 Z M 15.65625 16.875 "/>
<path style=" stroke:none;fill-rule:nonzero;fill:rgb(91.764706%,60.000002%,0%);fill-opacity:1;" d="M 8.578125 20.578125 C 9.003906 20.964844 9.320312 21.46875 9.351562 22.054688 C 9.328125 22.476562 9.160156 22.902344 8.859375 23.203125 C 8.492188 23.5 8.132812 23.613281 7.660156 23.609375 C 7.34375 23.578125 7.050781 23.441406 6.753906 23.328125 C 6.09375 23.078125 5.410156 22.949219 4.71875 22.820312 C 4.191406 22.71875 3.671875 22.601562 3.15625 22.453125 C 3.101562 22.4375 3.046875 22.421875 2.992188 22.40625 C 2.710938 22.324219 2.503906 22.246094 2.296875 22.03125 C 2.207031 21.851562 2.222656 21.664062 2.25 21.46875 C 2.328125 21.257812 2.425781 21.058594 2.53125 20.859375 C 2.585938 21.035156 2.585938 21.035156 2.53125 21.140625 C 2.523438 21.3125 2.523438 21.445312 2.578125 21.609375 C 2.765625 21.703125 2.972656 21.753906 3.175781 21.808594 C 3.210938 21.820312 3.25 21.828125 3.285156 21.839844 C 3.941406 22.015625 4.601562 22.175781 5.269531 22.304688 C 5.742188 22.398438 6.179688 22.519531 6.625 22.707031 C 7.074219 22.898438 7.527344 22.972656 7.996094 22.792969 C 8.367188 22.617188 8.511719 22.40625 8.671875 22.03125 C 8.816406 21.601562 8.785156 21.195312 8.621094 20.78125 C 8.578125 20.671875 8.578125 20.671875 8.578125 20.578125 Z M 8.578125 20.578125 "/>
<path style=" stroke:none;fill-rule:nonzero;fill:rgb(87.450981%,53.333336%,0%);fill-opacity:1;" d="M 15.75 19.265625 C 15.765625 19.265625 15.78125 19.265625 15.796875 19.265625 C 15.84375 19.625 15.847656 19.980469 15.839844 20.34375 C 15.839844 20.390625 15.839844 20.4375 15.839844 20.484375 C 15.839844 20.683594 15.835938 20.878906 15.832031 21.074219 C 15.828125 21.21875 15.828125 21.359375 15.828125 21.503906 C 15.824219 21.550781 15.824219 21.59375 15.824219 21.636719 C 15.824219 21.902344 15.851562 22.058594 16.03125 22.265625 C 16.347656 22.5 16.734375 22.480469 17.109375 22.453125 C 17.6875 22.347656 18.171875 22.125 18.652344 21.800781 C 19.167969 21.453125 19.59375 21.257812 20.203125 21.128906 C 20.769531 21.007812 21.214844 20.839844 21.609375 20.390625 C 21.6875 20.265625 21.742188 20.152344 21.796875 20.015625 C 21.8125 20.015625 21.828125 20.015625 21.84375 20.015625 C 21.816406 20.355469 21.695312 20.550781 21.457031 20.78125 C 21.199219 21 20.894531 21.128906 20.597656 21.273438 C 19.769531 21.671875 19.101562 22.105469 18.441406 22.738281 C 18.023438 23.128906 17.574219 23.390625 16.988281 23.40625 C 16.503906 23.386719 16.003906 23.253906 15.65625 22.886719 C 15.261719 22.242188 15.425781 21.492188 15.558594 20.792969 C 15.65625 20.28125 15.726562 19.785156 15.75 19.265625 Z M 15.75 19.265625 "/>
<path style=" stroke:none;fill-rule:nonzero;fill:rgb(90.196079%,59.607846%,0%);fill-opacity:1;" d="M 13.96875 6.375 C 13.984375 6.375 14 6.375 14.015625 6.375 C 14.039062 7.097656 14.039062 7.097656 13.921875 7.40625 C 13.773438 7.550781 13.632812 7.621094 13.441406 7.691406 C 13.140625 7.808594 12.886719 7.972656 12.621094 8.15625 C 12.390625 8.308594 12.160156 8.429688 11.90625 8.53125 C 11.859375 8.550781 11.8125 8.570312 11.765625 8.589844 C 11.578125 8.636719 11.402344 8.640625 11.210938 8.640625 C 11.171875 8.640625 11.136719 8.640625 11.101562 8.640625 C 10.804688 8.640625 10.535156 8.597656 10.308594 8.398438 C 10.285156 8.367188 10.261719 8.335938 10.234375 8.304688 C 10.140625 8.183594 10.050781 8.082031 9.929688 7.984375 C 9.828125 7.898438 9.753906 7.828125 9.667969 7.722656 C 9.578125 7.59375 9.578125 7.59375 9.46875 7.546875 C 9.46875 7.746094 9.46875 7.949219 9.46875 8.15625 C 9.453125 8.15625 9.4375 8.15625 9.421875 8.15625 C 9.425781 8.101562 9.425781 8.046875 9.429688 7.988281 C 9.433594 7.917969 9.433594 7.84375 9.4375 7.773438 C 9.4375 7.738281 9.441406 7.699219 9.441406 7.664062 C 9.445312 7.453125 9.441406 7.382812 9.304688 7.214844 C 9.246094 7.171875 9.246094 7.171875 9.1875 7.125 C 9.425781 7.128906 9.554688 7.1875 9.746094 7.328125 C 10.199219 7.660156 10.609375 7.699219 11.167969 7.625 C 11.988281 7.496094 12.585938 7.132812 13.21875 6.609375 C 13.390625 6.46875 13.390625 6.46875 13.546875 6.46875 C 13.546875 6.53125 13.546875 6.59375 13.546875 6.65625 C 13.671875 6.625 13.792969 6.59375 13.921875 6.5625 C 13.9375 6.5 13.953125 6.4375 13.96875 6.375 Z M 13.96875 6.375 "/>
<path style=" stroke:none;fill-rule:nonzero;fill:rgb(72.941178%,72.941178%,72.156864%);fill-opacity:1;" d="M 13.875 7.40625 C 14.027344 7.53125 14.074219 7.679688 14.140625 7.859375 C 14.160156 7.914062 14.183594 7.972656 14.203125 8.027344 C 14.21875 8.070312 14.234375 8.113281 14.25 8.15625 C 14.109375 8.226562 13.980469 8.195312 13.820312 8.1875 C 13.542969 8.183594 13.367188 8.214844 13.15625 8.40625 C 13.128906 8.429688 13.105469 8.457031 13.078125 8.484375 C 12.816406 8.738281 12.519531 8.902344 12.203125 9.074219 C 11.972656 9.199219 11.75 9.335938 11.53125 9.472656 C 11.261719 9.636719 11.054688 9.742188 10.734375 9.703125 C 10.160156 9.484375 9.71875 8.984375 9.472656 8.4375 C 9.382812 8.148438 9.433594 7.839844 9.46875 7.546875 C 9.621094 7.613281 9.703125 7.683594 9.808594 7.8125 C 9.953125 7.984375 10.105469 8.128906 10.273438 8.269531 C 10.359375 8.34375 10.359375 8.34375 10.421875 8.417969 C 10.703125 8.664062 11.171875 8.609375 11.519531 8.589844 C 12.003906 8.539062 12.40625 8.246094 12.800781 7.988281 C 13.039062 7.835938 13.292969 7.714844 13.546875 7.59375 C 13.722656 7.515625 13.722656 7.515625 13.875 7.40625 Z M 13.875 7.40625 "/>
<path style=" stroke:none;fill-rule:nonzero;fill:rgb(97.647059%,97.647059%,96.470588%);fill-opacity:1;" d="M 13.324219 3.492188 C 13.632812 3.671875 13.863281 3.964844 13.984375 4.300781 C 14.085938 4.796875 14.105469 5.417969 13.828125 5.859375 C 13.742188 5.984375 13.742188 5.984375 13.640625 6.046875 C 13.398438 6.042969 13.164062 5.941406 12.9375 5.859375 C 13.039062 5.808594 13.140625 5.757812 13.242188 5.710938 C 13.425781 5.574219 13.527344 5.417969 13.566406 5.195312 C 13.578125 4.929688 13.515625 4.714844 13.359375 4.5 C 13.207031 4.363281 13.089844 4.300781 12.886719 4.289062 C 12.679688 4.316406 12.609375 4.34375 12.46875 4.5 C 12.316406 4.761719 12.296875 4.996094 12.328125 5.296875 C 12.367188 5.460938 12.367188 5.460938 12.421875 5.578125 C 12.1875 5.519531 12.085938 5.453125 11.953125 5.25 C 11.9375 5.222656 11.917969 5.199219 11.898438 5.171875 C 11.738281 4.894531 11.726562 4.625 11.765625 4.3125 C 11.867188 3.960938 12.136719 3.699219 12.433594 3.496094 C 12.707031 3.351562 13.046875 3.371094 13.324219 3.492188 Z M 13.324219 3.492188 "/>
<path style=" stroke:none;fill-rule:nonzero;fill:rgb(88.627452%,61.176473%,0%);fill-opacity:1;" d="M 16.734375 17.25 C 16.75 17.25 16.765625 17.25 16.78125 17.25 C 16.78125 17.289062 16.78125 17.328125 16.785156 17.371094 C 16.796875 17.710938 16.820312 17.980469 17.0625 18.234375 C 17.230469 18.367188 17.410156 18.449219 17.625 18.46875 C 17.65625 18.472656 17.691406 18.476562 17.722656 18.480469 C 18.335938 18.515625 18.863281 18.144531 19.3125 17.765625 C 19.265625 18.296875 18.976562 18.789062 18.578125 19.140625 C 18.46875 19.21875 18.46875 19.21875 18.375 19.21875 C 18.375 19.25 18.375 19.28125 18.375 19.3125 C 18.015625 19.511719 17.707031 19.613281 17.296875 19.546875 C 17.046875 19.472656 16.839844 19.375 16.707031 19.140625 C 16.613281 18.910156 16.601562 18.671875 16.59375 18.421875 C 16.59375 18.367188 16.589844 18.316406 16.589844 18.261719 C 16.582031 18.003906 16.585938 17.816406 16.6875 17.578125 C 16.707031 17.46875 16.722656 17.359375 16.734375 17.25 Z M 16.734375 17.25 "/>
<path style=" stroke:none;fill-rule:nonzero;fill:rgb(83.137256%,83.137256%,82.745099%);fill-opacity:1;" d="M 14.953125 9.703125 C 15.042969 9.839844 15.066406 9.921875 15.09375 10.078125 C 15.0625 10.078125 15.03125 10.078125 15 10.078125 C 15.070312 10.820312 15.269531 11.300781 15.703125 11.90625 C 15.882812 12.164062 15.925781 12.394531 15.9375 12.703125 C 15.753906 12.628906 15.628906 12.5 15.484375 12.367188 C 14.621094 11.566406 13.660156 11.335938 12.515625 11.15625 C 12.410156 11.136719 12.300781 11.121094 12.195312 11.101562 C 12.148438 11.09375 12.101562 11.085938 12.054688 11.078125 C 12.019531 11.074219 11.988281 11.066406 11.953125 11.0625 C 11.953125 11.046875 11.953125 11.03125 11.953125 11.015625 C 11.988281 11.015625 12.023438 11.015625 12.0625 11.011719 C 13.359375 11.0625 13.359375 11.0625 14.53125 10.640625 C 14.761719 10.367188 14.871094 10.046875 14.953125 9.703125 Z M 14.953125 9.703125 "/>
<path style=" stroke:none;fill-rule:nonzero;fill:rgb(94.901961%,94.901961%,94.117647%);fill-opacity:1;" d="M 10.03125 3.609375 C 10.390625 3.785156 10.617188 4.101562 10.75 4.472656 C 10.816406 4.71875 10.84375 4.941406 10.722656 5.175781 C 10.652344 5.269531 10.585938 5.355469 10.5 5.4375 C 10.46875 5.4375 10.4375 5.4375 10.40625 5.4375 C 10.40625 5.40625 10.402344 5.371094 10.402344 5.335938 C 10.382812 4.988281 10.324219 4.714844 10.085938 4.453125 C 9.933594 4.382812 9.820312 4.386719 9.65625 4.40625 C 9.496094 4.5625 9.460938 4.734375 9.453125 4.953125 C 9.457031 5.199219 9.511719 5.378906 9.65625 5.578125 C 9.777344 5.695312 9.777344 5.695312 9.890625 5.765625 C 9.824219 5.921875 9.734375 6.023438 9.609375 6.140625 C 9.410156 6.054688 9.339844 5.953125 9.238281 5.761719 C 9.046875 5.242188 9.011719 4.558594 9.1875 4.03125 C 9.386719 3.667969 9.625 3.546875 10.03125 3.609375 Z M 10.03125 3.609375 "/>
<path style=" stroke:none;fill-rule:nonzero;fill:rgb(2.745098%,2.745098%,2.352941%);fill-opacity:1;" d="M 13.078125 4.265625 C 13.316406 4.371094 13.460938 4.535156 13.5625 4.773438 C 13.628906 4.992188 13.640625 5.1875 13.550781 5.402344 C 13.441406 5.589844 13.332031 5.734375 13.125 5.8125 C 12.867188 5.851562 12.710938 5.792969 12.503906 5.648438 C 12.347656 5.515625 12.292969 5.386719 12.265625 5.1875 C 12.25 4.835938 12.339844 4.59375 12.574219 4.335938 C 12.746094 4.242188 12.890625 4.226562 13.078125 4.265625 Z M 13.078125 4.265625 "/>
<path style=" stroke:none;fill-rule:nonzero;fill:rgb(46.666667%,46.666667%,47.058824%);fill-opacity:1;" d="M 16.453125 11.4375 C 17.125 11.632812 17.621094 12.140625 17.964844 12.726562 C 18.335938 13.457031 18.335938 14.335938 18.105469 15.113281 C 18.070312 15.222656 18.035156 15.328125 17.996094 15.4375 C 17.886719 15.753906 17.886719 15.753906 17.8125 16.078125 C 17.871094 16.085938 17.933594 16.089844 17.996094 16.097656 C 18.230469 16.121094 18.457031 16.164062 18.6875 16.210938 C 18.726562 16.21875 18.765625 16.226562 18.804688 16.234375 C 19.101562 16.296875 19.410156 16.378906 19.59375 16.640625 C 19.601562 16.808594 19.589844 16.914062 19.484375 17.050781 C 19.28125 17.246094 19.074219 17.308594 18.796875 17.34375 C 18.8125 17.324219 18.832031 17.300781 18.847656 17.28125 C 18.945312 17.152344 19.023438 17.050781 19.0625 16.890625 C 19.011719 16.71875 18.898438 16.636719 18.75 16.546875 C 18.613281 16.488281 18.472656 16.445312 18.328125 16.40625 C 18.292969 16.398438 18.261719 16.386719 18.226562 16.378906 C 18.027344 16.351562 17.832031 16.355469 17.632812 16.355469 C 17.59375 16.355469 17.550781 16.355469 17.507812 16.355469 C 17.40625 16.359375 17.304688 16.359375 17.203125 16.359375 C 17.34375 16.210938 17.421875 16.148438 17.625 16.125 C 17.636719 16.066406 17.648438 16.003906 17.664062 15.945312 C 17.699219 15.785156 17.738281 15.632812 17.789062 15.476562 C 17.941406 15 18.027344 14.554688 18.027344 14.054688 C 18.027344 14.007812 18.027344 13.957031 18.027344 13.910156 C 18.011719 13.21875 17.765625 12.574219 17.285156 12.070312 C 17.070312 11.878906 16.835938 11.726562 16.59375 11.574219 C 16.546875 11.546875 16.5 11.515625 16.453125 11.484375 C 16.453125 11.46875 16.453125 11.453125 16.453125 11.4375 Z M 16.453125 11.4375 "/>
<path style=" stroke:none;fill-rule:nonzero;fill:rgb(65.490198%,41.176471%,3.529412%);fill-opacity:1;" d="M 12.796875 6.9375 C 12.84375 6.960938 12.84375 6.960938 12.890625 6.984375 C 12.207031 7.636719 11.308594 7.753906 10.40625 7.828125 C 10.453125 7.855469 10.496094 7.878906 10.542969 7.90625 C 10.6875 8.015625 10.6875 8.015625 10.726562 8.144531 C 10.730469 8.179688 10.730469 8.214844 10.734375 8.25 C 11.246094 8.371094 11.894531 8.476562 12.375 8.203125 C 12.527344 8.101562 12.671875 7.992188 12.816406 7.882812 C 13.046875 7.707031 13.28125 7.566406 13.546875 7.453125 C 13.582031 7.4375 13.613281 7.421875 13.648438 7.410156 C 13.722656 7.375 13.800781 7.34375 13.875 7.3125 C 13.875 7.359375 13.875 7.40625 13.875 7.453125 C 13.746094 7.574219 13.609375 7.628906 13.445312 7.6875 C 13.144531 7.808594 12.886719 7.972656 12.621094 8.15625 C 12.390625 8.308594 12.164062 8.429688 11.90625 8.53125 C 11.859375 8.550781 11.8125 8.570312 11.765625 8.589844 C 11.578125 8.636719 11.402344 8.640625 11.210938 8.640625 C 11.171875 8.640625 11.136719 8.640625 11.101562 8.640625 C 10.804688 8.640625 10.535156 8.597656 10.308594 8.398438 C 10.285156 8.367188 10.261719 8.335938 10.234375 8.304688 C 10.140625 8.183594 10.050781 8.082031 9.929688 7.984375 C 9.828125 7.898438 9.753906 7.828125 9.667969 7.722656 C 9.578125 7.59375 9.578125 7.59375 9.46875 7.546875 C 9.46875 7.746094 9.46875 7.949219 9.46875 8.15625 C 9.453125 8.15625 9.4375 8.15625 9.421875 8.15625 C 9.425781 8.101562 9.425781 8.046875 9.429688 7.988281 C 9.433594 7.917969 9.433594 7.84375 9.4375 7.773438 C 9.4375 7.738281 9.441406 7.699219 9.441406 7.664062 C 9.445312 7.453125 9.441406 7.382812 9.304688 7.214844 C 9.246094 7.171875 9.246094 7.171875 9.1875 7.125 C 9.425781 7.128906 9.554688 7.1875 9.746094 7.328125 C 10.199219 7.660156 10.609375 7.699219 11.167969 7.625 C 11.769531 7.53125 12.324219 7.335938 12.796875 6.9375 Z M 12.796875 6.9375 "/>
<path style=" stroke:none;fill-rule:nonzero;fill:rgb(78.431374%,77.64706%,76.078433%);fill-opacity:1;" d="M 15.46875 17.71875 C 15.484375 17.71875 15.5 17.71875 15.515625 17.71875 C 15.523438 17.945312 15.53125 18.171875 15.535156 18.398438 C 15.535156 18.476562 15.539062 18.554688 15.539062 18.628906 C 15.566406 19.351562 15.566406 19.351562 15.363281 19.585938 C 15.304688 19.636719 15.246094 19.6875 15.1875 19.734375 C 15.152344 19.769531 15.121094 19.804688 15.085938 19.84375 C 15.058594 19.867188 15.03125 19.894531 15.007812 19.921875 C 14.980469 19.949219 14.953125 19.976562 14.925781 20.003906 C 14.859375 20.0625 14.859375 20.0625 14.8125 20.0625 C 14.8125 20.035156 14.808594 20.007812 14.808594 19.976562 C 14.804688 19.851562 14.796875 19.722656 14.792969 19.59375 C 14.789062 19.550781 14.789062 19.507812 14.785156 19.460938 C 14.773438 19.207031 14.753906 18.957031 14.71875 18.703125 C 14.679688 18.285156 14.679688 18.285156 14.828125 18.089844 C 14.992188 17.972656 15.066406 17.949219 15.265625 17.949219 C 15.320312 17.949219 15.320312 17.949219 15.378906 17.953125 C 15.421875 17.953125 15.421875 17.953125 15.46875 17.953125 C 15.46875 17.875 15.46875 17.796875 15.46875 17.71875 Z M 15.46875 17.71875 "/>
<path style=" stroke:none;fill-rule:nonzero;fill:rgb(2.352941%,2.352941%,1.960784%);fill-opacity:1;" d="M 9.808594 4.339844 C 10.019531 4.363281 10.132812 4.433594 10.265625 4.59375 C 10.414062 4.847656 10.457031 5.101562 10.40625 5.390625 C 10.269531 5.578125 10.085938 5.691406 9.890625 5.8125 C 9.65625 5.636719 9.503906 5.492188 9.421875 5.203125 C 9.390625 4.917969 9.402344 4.699219 9.5625 4.453125 C 9.65625 4.359375 9.65625 4.359375 9.808594 4.339844 Z M 9.808594 4.339844 "/>
<path style=" stroke:none;fill-rule:nonzero;fill:rgb(63.529414%,63.529414%,63.529414%);fill-opacity:1;" d="M 13.324219 3.492188 C 13.617188 3.664062 13.847656 3.949219 13.96875 4.265625 C 13.96875 4.328125 13.96875 4.390625 13.96875 4.453125 C 13.78125 4.363281 13.605469 4.25 13.425781 4.140625 C 13.203125 4.019531 12.984375 4.023438 12.734375 4.023438 C 12.699219 4.023438 12.664062 4.019531 12.625 4.019531 C 12.417969 4.019531 12.242188 4.035156 12.046875 4.125 C 11.867188 4.367188 11.824219 4.578125 11.8125 4.875 C 11.796875 4.875 11.78125 4.875 11.765625 4.875 C 11.742188 4.460938 11.757812 4.171875 12.027344 3.847656 C 12.386719 3.464844 12.804688 3.265625 13.324219 3.492188 Z M 13.324219 3.492188 "/>
<path style=" stroke:none;fill-rule:nonzero;fill:rgb(88.235295%,88.235295%,87.843138%);fill-opacity:1;" d="M 10.265625 12.890625 C 10.28125 12.890625 10.296875 12.890625 10.3125 12.890625 C 10.3125 13.128906 10.316406 13.367188 10.316406 13.605469 C 10.316406 13.6875 10.316406 13.769531 10.316406 13.847656 C 10.316406 13.964844 10.316406 14.082031 10.316406 14.199219 C 10.316406 14.234375 10.316406 14.269531 10.316406 14.308594 C 10.316406 14.488281 10.308594 14.667969 10.289062 14.847656 C 10.257812 15.132812 10.257812 15.417969 10.261719 15.703125 C 10.261719 15.761719 10.261719 15.816406 10.261719 15.875 C 10.261719 16.054688 10.261719 16.234375 10.261719 16.414062 C 10.261719 16.535156 10.261719 16.65625 10.261719 16.777344 C 10.265625 17.078125 10.265625 17.375 10.265625 17.671875 C 10.132812 17.605469 10.121094 17.53125 10.070312 17.390625 C 9.925781 16.882812 9.964844 16.367188 9.984375 15.84375 C 9.984375 15.804688 9.988281 15.769531 9.988281 15.730469 C 9.996094 15.476562 10.007812 15.222656 10.015625 14.96875 C 10.019531 14.882812 10.023438 14.796875 10.027344 14.714844 C 10.078125 13.453125 10.078125 13.453125 10.265625 12.890625 Z M 10.265625 12.890625 "/>
<path style=" stroke:none;fill-rule:nonzero;fill:rgb(41.568628%,41.568628%,41.568628%);fill-opacity:1;" d="M 7.171875 11.859375 C 7.171875 12.023438 7.140625 12.0625 7.054688 12.195312 C 6.363281 13.320312 5.894531 14.457031 6.191406 15.785156 C 6.246094 15.980469 6.320312 16.136719 6.421875 16.3125 C 6.4375 16.359375 6.453125 16.40625 6.46875 16.453125 C 6.5 16.453125 6.53125 16.453125 6.5625 16.453125 C 6.5625 16.238281 6.5625 16.019531 6.5625 15.796875 C 6.578125 15.796875 6.59375 15.796875 6.609375 15.796875 C 6.609375 15.847656 6.613281 15.898438 6.613281 15.953125 C 6.617188 16.019531 6.617188 16.089844 6.621094 16.15625 C 6.621094 16.191406 6.621094 16.226562 6.625 16.257812 C 6.632812 16.492188 6.675781 16.609375 6.84375 16.78125 C 6.59375 16.765625 6.445312 16.632812 6.28125 16.453125 C 6.148438 16.261719 6.027344 16.066406 5.953125 15.84375 C 5.839844 15.789062 5.839844 15.789062 5.71875 15.75 C 5.6875 15.734375 5.65625 15.71875 5.625 15.703125 C 5.625 15.671875 5.625 15.640625 5.625 15.609375 C 5.652344 15.597656 5.683594 15.585938 5.710938 15.574219 C 5.832031 15.503906 5.855469 15.457031 5.90625 15.328125 C 5.914062 15.226562 5.914062 15.226562 5.910156 15.117188 C 5.890625 14.007812 6.324219 12.742188 7.101562 11.925781 C 7.125 11.90625 7.148438 11.882812 7.171875 11.859375 Z M 7.171875 11.859375 "/>
<path style=" stroke:none;fill-rule:nonzero;fill:rgb(25.882354%,25.882354%,25.882354%);fill-opacity:1;" d="M 17.765625 15.984375 C 17.78125 16.015625 17.796875 16.046875 17.8125 16.078125 C 17.914062 16.089844 18.011719 16.101562 18.113281 16.113281 C 18.308594 16.132812 18.496094 16.171875 18.6875 16.210938 C 18.726562 16.21875 18.765625 16.226562 18.804688 16.234375 C 19.101562 16.296875 19.410156 16.378906 19.59375 16.640625 C 19.601562 16.808594 19.589844 16.914062 19.484375 17.050781 C 19.28125 17.246094 19.074219 17.308594 18.796875 17.34375 C 18.8125 17.324219 18.832031 17.300781 18.847656 17.28125 C 18.945312 17.152344 19.023438 17.050781 19.0625 16.890625 C 19.011719 16.71875 18.898438 16.636719 18.75 16.546875 C 18.425781 16.410156 18.101562 16.355469 17.75 16.332031 C 17.691406 16.328125 17.632812 16.324219 17.574219 16.320312 C 17.503906 16.316406 17.503906 16.316406 17.4375 16.3125 C 17.4375 16.296875 17.4375 16.28125 17.4375 16.265625 C 17.578125 16.265625 17.714844 16.265625 17.859375 16.265625 C 17.859375 16.21875 17.859375 16.171875 17.859375 16.125 C 17.828125 16.125 17.796875 16.125 17.765625 16.125 C 17.765625 16.078125 17.765625 16.03125 17.765625 15.984375 Z M 17.765625 15.984375 "/>
<path style=" stroke:none;fill-rule:nonzero;fill:rgb(99.607843%,85.09804%,20%);fill-opacity:1;" d="M 12.140625 6.046875 C 12.222656 6.3125 12.121094 6.464844 11.996094 6.699219 C 11.859375 6.917969 11.703125 7.121094 11.484375 7.265625 C 11.332031 7.28125 11.332031 7.28125 11.203125 7.265625 C 11.15625 7.21875 11.15625 7.21875 11.152344 7.125 C 11.175781 6.738281 11.3125 6.496094 11.589844 6.226562 C 11.890625 5.972656 11.890625 5.972656 12.140625 6.046875 Z M 12.140625 6.046875 "/>
<path style=" stroke:none;fill-rule:nonzero;fill:rgb(47.058824%,47.058824%,47.058824%);fill-opacity:1;" d="M 13.375 1.039062 C 13.738281 1.148438 14.074219 1.574219 14.296875 1.875 C 14.3125 1.921875 14.328125 1.96875 14.34375 2.015625 C 14.25 1.96875 14.15625 1.921875 14.066406 1.867188 C 13.933594 1.816406 13.867188 1.835938 13.734375 1.875 C 13.613281 1.949219 13.613281 1.949219 13.496094 2.039062 C 13.359375 2.144531 13.25 2.222656 13.078125 2.25 C 13.089844 2.21875 13.097656 2.191406 13.109375 2.160156 C 13.195312 1.902344 13.234375 1.722656 13.171875 1.453125 C 13.113281 1.195312 13.113281 1.195312 13.179688 1.082031 C 13.265625 1.03125 13.265625 1.03125 13.375 1.039062 Z M 13.375 1.039062 "/>
<path style=" stroke:none;fill-rule:nonzero;fill:rgb(49.411765%,49.411765%,49.803922%);fill-opacity:1;" d="M 14.8125 7.171875 C 15.023438 7.152344 15.132812 7.207031 15.308594 7.324219 C 15.351562 7.351562 15.394531 7.378906 15.441406 7.410156 C 15.558594 7.496094 15.65625 7.578125 15.75 7.6875 C 15.765625 7.847656 15.761719 7.972656 15.71875 8.125 C 15.65625 8.203125 15.65625 8.203125 15.527344 8.253906 C 15.363281 8.25 15.289062 8.222656 15.167969 8.109375 C 14.988281 7.882812 14.75 7.570312 14.78125 7.269531 C 14.789062 7.238281 14.800781 7.207031 14.8125 7.171875 Z M 14.8125 7.171875 "/>
<path style=" stroke:none;fill-rule:nonzero;fill:rgb(82.352942%,82.352942%,81.960785%);fill-opacity:1;" d="M 8.203125 10.640625 C 8.230469 10.679688 8.230469 10.679688 8.261719 10.71875 C 8.289062 10.753906 8.316406 10.792969 8.34375 10.828125 C 8.375 10.871094 8.40625 10.910156 8.4375 10.953125 C 8.566406 11.101562 8.648438 11.105469 8.839844 11.125 C 8.902344 11.128906 8.96875 11.132812 9.03125 11.136719 C 9.066406 11.136719 9.097656 11.140625 9.132812 11.140625 C 9.214844 11.148438 9.292969 11.152344 9.375 11.15625 C 9.375 11.1875 9.375 11.21875 9.375 11.25 C 9.339844 11.261719 9.300781 11.273438 9.261719 11.289062 C 8.777344 11.460938 8.027344 11.746094 7.78125 12.234375 C 7.75 12.21875 7.71875 12.203125 7.6875 12.1875 C 7.71875 12.148438 7.746094 12.109375 7.777344 12.070312 C 8.066406 11.679688 8.160156 11.378906 8.15625 10.894531 C 8.15625 10.734375 8.15625 10.734375 8.203125 10.640625 Z M 8.203125 10.640625 "/>
<path style=" stroke:none;fill-rule:nonzero;fill:rgb(69.803923%,69.803923%,69.803923%);fill-opacity:1;" d="M 10.03125 3.609375 C 10.261719 3.722656 10.386719 3.882812 10.546875 4.078125 C 10.492188 4.074219 10.433594 4.070312 10.378906 4.066406 C 9.828125 4.039062 9.828125 4.039062 9.351562 4.289062 C 9.214844 4.425781 9.175781 4.476562 9.15625 4.671875 C 9.15625 4.707031 9.152344 4.746094 9.148438 4.785156 C 9.144531 4.828125 9.144531 4.828125 9.140625 4.875 C 9.125 4.875 9.109375 4.875 9.09375 4.875 C 9.078125 4.449219 9.09375 4.09375 9.375 3.75 C 9.570312 3.582031 9.78125 3.570312 10.03125 3.609375 Z M 10.03125 3.609375 "/>
<path style=" stroke:none;fill-rule:nonzero;fill:rgb(62.352943%,40.000001%,0%);fill-opacity:1;" d="M 6.515625 17.109375 C 6.757812 17.328125 6.925781 17.589844 7.105469 17.863281 C 7.136719 17.910156 7.171875 17.960938 7.203125 18.011719 C 7.417969 18.335938 7.625 18.664062 7.828125 19 C 7.851562 19.039062 7.875 19.078125 7.902344 19.117188 C 7.921875 19.152344 7.945312 19.191406 7.964844 19.226562 C 7.984375 19.257812 8.003906 19.289062 8.023438 19.320312 C 8.0625 19.40625 8.0625 19.40625 8.0625 19.546875 C 7.863281 19.476562 7.773438 19.328125 7.664062 19.15625 C 7.644531 19.125 7.625 19.097656 7.605469 19.066406 C 7.355469 18.679688 7.132812 18.277344 6.90625 17.878906 C 6.796875 17.683594 6.683594 17.492188 6.566406 17.300781 C 6.515625 17.203125 6.515625 17.203125 6.515625 17.109375 Z M 6.515625 17.109375 "/>
<path style=" stroke:none;fill-rule:nonzero;fill:rgb(41.960785%,41.960785%,41.960785%);fill-opacity:1;" d="M 6.09375 15.234375 C 6.105469 15.304688 6.105469 15.304688 6.117188 15.375 C 6.179688 15.714844 6.246094 16.011719 6.421875 16.3125 C 6.4375 16.359375 6.453125 16.40625 6.46875 16.453125 C 6.5 16.453125 6.53125 16.453125 6.5625 16.453125 C 6.5625 16.238281 6.5625 16.019531 6.5625 15.796875 C 6.578125 15.796875 6.59375 15.796875 6.609375 15.796875 C 6.609375 15.847656 6.613281 15.898438 6.613281 15.953125 C 6.617188 16.019531 6.617188 16.089844 6.621094 16.15625 C 6.621094 16.191406 6.621094 16.226562 6.625 16.257812 C 6.632812 16.492188 6.675781 16.609375 6.84375 16.78125 C 6.59375 16.765625 6.445312 16.632812 6.28125 16.453125 C 6.148438 16.261719 6.027344 16.066406 5.953125 15.84375 C 5.839844 15.789062 5.839844 15.789062 5.71875 15.75 C 5.6875 15.734375 5.65625 15.71875 5.625 15.703125 C 5.625 15.671875 5.625 15.640625 5.625 15.609375 C 5.652344 15.597656 5.683594 15.585938 5.710938 15.574219 C 5.832031 15.503906 5.847656 15.449219 5.90625 15.328125 C 6.046875 15.234375 6.046875 15.234375 6.09375 15.234375 Z M 6.09375 15.234375 "/>
<path style=" stroke:none;fill-rule:nonzero;fill:rgb(35.294119%,35.294119%,35.294119%);fill-opacity:1;" d="M 16.875 12.328125 C 17.121094 12.394531 17.285156 12.554688 17.4375 12.75 C 17.484375 12.90625 17.484375 12.90625 17.484375 13.03125 C 17.386719 13.128906 17.191406 13.097656 17.058594 13.105469 C 17.007812 13.109375 17.007812 13.109375 16.953125 13.109375 C 16.863281 13.117188 16.777344 13.121094 16.6875 13.125 C 16.726562 12.902344 16.726562 12.902344 16.808594 12.804688 C 16.910156 12.648438 16.882812 12.515625 16.875 12.328125 Z M 16.875 12.328125 "/>
<path style=" stroke:none;fill-rule:nonzero;fill:rgb(47.843137%,31.37255%,0%);fill-opacity:1;" d="M 12.796875 6.9375 C 12.84375 6.960938 12.84375 6.960938 12.890625 6.984375 C 12.269531 7.578125 11.390625 7.800781 10.546875 7.792969 C 10.273438 7.773438 10.039062 7.710938 9.839844 7.515625 C 9.8125 7.480469 9.78125 7.441406 9.75 7.40625 C 9.78125 7.417969 9.8125 7.429688 9.84375 7.445312 C 9.914062 7.472656 9.914062 7.472656 9.984375 7.5 C 10.035156 7.523438 10.089844 7.550781 10.140625 7.578125 C 10.734375 7.792969 11.535156 7.621094 12.097656 7.375 C 12.351562 7.253906 12.582031 7.121094 12.796875 6.9375 Z M 12.796875 6.9375 "/>
<path style=" stroke:none;fill-rule:nonzero;fill:rgb(75.686276%,47.843137%,0%);fill-opacity:1;" d="M 10.6875 8.015625 C 10.714844 8.03125 10.742188 8.042969 10.769531 8.058594 C 11.117188 8.222656 11.511719 8.214844 11.890625 8.210938 C 11.9375 8.207031 11.984375 8.207031 12.03125 8.207031 C 12.144531 8.207031 12.261719 8.207031 12.375 8.203125 C 12.046875 8.460938 11.648438 8.414062 11.25 8.390625 C 11.074219 8.355469 10.90625 8.308594 10.734375 8.25 C 10.71875 8.171875 10.703125 8.09375 10.6875 8.015625 Z M 10.6875 8.015625 "/>
<path style=" stroke:none;fill-rule:nonzero;fill:rgb(91.37255%,91.37255%,90.588236%);fill-opacity:1;" d="M 13.921875 4.453125 C 13.953125 4.453125 13.984375 4.453125 14.015625 4.453125 C 14.054688 5.53125 14.054688 5.53125 13.742188 5.984375 C 13.640625 6.046875 13.640625 6.046875 13.488281 6.035156 C 13.445312 6.023438 13.402344 6.011719 13.359375 6 C 13.394531 5.96875 13.429688 5.933594 13.464844 5.898438 C 13.78125 5.570312 13.886719 5.257812 13.90625 4.8125 C 13.90625 4.777344 13.90625 4.742188 13.910156 4.707031 C 13.914062 4.621094 13.917969 4.539062 13.921875 4.453125 Z M 13.921875 4.453125 "/>
<path style=" stroke:none;fill-rule:nonzero;fill:rgb(90.588236%,60.000002%,0%);fill-opacity:1;" d="M 2.578125 18.515625 C 2.59375 18.515625 2.609375 18.515625 2.625 18.515625 C 2.625 18.554688 2.628906 18.589844 2.628906 18.628906 C 2.644531 18.894531 2.671875 19.140625 2.746094 19.398438 C 2.867188 19.855469 2.894531 20.367188 2.664062 20.792969 C 2.652344 20.816406 2.640625 20.835938 2.625 20.859375 C 2.570312 20.699219 2.589844 20.597656 2.625 20.4375 C 2.636719 20.152344 2.632812 19.867188 2.601562 19.582031 C 2.5625 19.226562 2.574219 18.871094 2.578125 18.515625 Z M 2.578125 18.515625 "/>
<path style=" stroke:none;fill-rule:nonzero;fill:rgb(74.901962%,49.019608%,0%);fill-opacity:1;" d="M 18.75 18.1875 C 18.765625 18.21875 18.78125 18.25 18.796875 18.28125 C 18.515625 18.554688 18.132812 18.765625 17.730469 18.765625 C 17.679688 18.761719 17.628906 18.753906 17.578125 18.75 C 17.5625 18.65625 17.546875 18.5625 17.53125 18.46875 C 17.566406 18.472656 17.597656 18.472656 17.632812 18.476562 C 18.066406 18.496094 18.371094 18.378906 18.75 18.1875 Z M 18.75 18.1875 "/>
<path style=" stroke:none;fill-rule:nonzero;fill:rgb(54.509807%,51.764709%,46.666667%);fill-opacity:1;" d="M 13.828125 7.3125 C 13.859375 7.34375 13.890625 7.375 13.921875 7.40625 C 13.765625 7.539062 13.632812 7.621094 13.441406 7.691406 C 13.140625 7.808594 12.886719 7.972656 12.621094 8.15625 C 12.03125 8.554688 12.03125 8.554688 11.800781 8.511719 C 11.773438 8.503906 11.746094 8.492188 11.71875 8.484375 C 11.753906 8.472656 11.789062 8.457031 11.824219 8.445312 C 12.121094 8.328125 12.371094 8.199219 12.625 8.015625 C 13.003906 7.738281 13.390625 7.484375 13.828125 7.3125 Z M 13.828125 7.3125 "/>
<path style=" stroke:none;fill-rule:nonzero;fill:rgb(37.64706%,37.64706%,37.64706%);fill-opacity:1;" d="M 6.28125 13.359375 C 6.332031 13.4375 6.332031 13.4375 6.375 13.546875 C 6.347656 13.652344 6.347656 13.652344 6.292969 13.765625 C 6.082031 14.261719 6.070312 14.75 6.046875 15.28125 C 6 15.304688 6 15.304688 5.953125 15.328125 C 5.910156 14.597656 5.976562 14.027344 6.28125 13.359375 Z M 6.28125 13.359375 "/>
<path style=" stroke:none;fill-rule:nonzero;fill:rgb(82.745099%,53.725493%,0.392157%);fill-opacity:1;" d="M 12.703125 8.015625 C 12.449219 8.230469 12.21875 8.238281 11.894531 8.242188 C 11.847656 8.246094 11.800781 8.25 11.753906 8.25 C 11.011719 8.277344 11.011719 8.277344 10.792969 8.082031 C 10.773438 8.058594 10.753906 8.039062 10.734375 8.015625 C 10.816406 8.011719 10.898438 8.011719 10.984375 8.007812 C 11.03125 8.007812 11.074219 8.007812 11.125 8.007812 C 11.25 8.015625 11.25 8.015625 11.390625 8.109375 C 11.511719 8.121094 11.628906 8.125 11.75 8.125 C 11.785156 8.125 11.820312 8.125 11.851562 8.125 C 12.140625 8.117188 12.441406 7.929688 12.703125 8.015625 Z M 12.703125 8.015625 "/>
<path style=" stroke:none;fill-rule:nonzero;fill:rgb(88.627452%,67.843139%,0%);fill-opacity:1;" d="M 11.34375 7.734375 C 11.296875 7.875 11.296875 7.875 11.179688 7.953125 C 10.976562 8.03125 10.804688 8.058594 10.59375 8.015625 C 10.449219 7.898438 10.449219 7.898438 10.359375 7.78125 C 10.6875 7.753906 11.011719 7.726562 11.34375 7.734375 Z M 11.34375 7.734375 "/>
<path style=" stroke:none;fill-rule:nonzero;fill:rgb(21.960784%,21.960784%,21.960784%);fill-opacity:1;" d="M 11.433594 4.671875 C 11.605469 4.699219 11.6875 4.753906 11.8125 4.875 C 11.902344 5.042969 11.976562 5.214844 12.046875 5.390625 C 11.921875 5.359375 11.800781 5.328125 11.671875 5.296875 C 11.703125 5.28125 11.734375 5.265625 11.765625 5.25 C 11.765625 5.1875 11.765625 5.125 11.765625 5.0625 C 11.71875 5.046875 11.671875 5.03125 11.625 5.015625 C 11.609375 4.984375 11.59375 4.953125 11.578125 4.921875 C 11.445312 4.890625 11.445312 4.890625 11.292969 4.867188 C 11.214844 4.855469 11.214844 4.855469 11.136719 4.84375 C 11.097656 4.839844 11.058594 4.832031 11.015625 4.828125 C 11.144531 4.679688 11.238281 4.660156 11.433594 4.671875 Z M 11.433594 4.671875 "/>
<path style=" stroke:none;fill-rule:nonzero;fill:rgb(27.843139%,27.843139%,27.843139%);fill-opacity:1;" d="M 13.21875 3 C 13.519531 3.007812 13.710938 3.179688 13.921875 3.375 C 14.019531 3.511719 14.019531 3.511719 14.0625 3.609375 C 14.015625 3.640625 13.96875 3.671875 13.921875 3.703125 C 13.902344 3.683594 13.882812 3.660156 13.863281 3.640625 C 13.65625 3.417969 13.445312 3.273438 13.171875 3.140625 C 13.1875 3.09375 13.203125 3.046875 13.21875 3 Z M 13.21875 3 "/>
<path style=" stroke:none;fill-rule:nonzero;fill:rgb(74.901962%,43.529412%,0%);fill-opacity:1;" d="M 20.0625 17.296875 C 20.25 17.449219 20.289062 17.644531 20.316406 17.878906 C 20.320312 17.960938 20.320312 17.960938 20.328125 18.039062 C 20.328125 18.09375 20.332031 18.148438 20.335938 18.203125 C 20.339844 18.246094 20.339844 18.285156 20.34375 18.328125 C 20.0625 18.054688 20.0625 18.054688 20.058594 17.835938 C 20.058594 17.773438 20.058594 17.707031 20.058594 17.640625 C 20.058594 17.609375 20.058594 17.578125 20.058594 17.542969 C 20.0625 17.460938 20.0625 17.378906 20.0625 17.296875 Z M 20.0625 17.296875 "/>
<path style=" stroke:none;fill-rule:nonzero;fill:rgb(89.803922%,89.803922%,89.411765%);fill-opacity:1;" d="M 12.140625 4.03125 C 12.171875 4.046875 12.203125 4.0625 12.234375 4.078125 C 12.203125 4.105469 12.175781 4.132812 12.144531 4.160156 C 12.046875 4.265625 12.023438 4.3125 12 4.453125 C 11.984375 4.5 11.96875 4.546875 11.953125 4.59375 C 11.957031 4.707031 11.964844 4.820312 11.972656 4.929688 C 11.976562 4.992188 11.984375 5.050781 11.988281 5.113281 C 11.992188 5.15625 11.996094 5.203125 12 5.25 C 11.796875 4.984375 11.769531 4.785156 11.8125 4.453125 C 11.886719 4.28125 11.96875 4.117188 12.140625 4.03125 Z M 12.140625 4.03125 "/>
<path style=" stroke:none;fill-rule:nonzero;fill:rgb(40.784314%,40.784314%,40.784314%);fill-opacity:1;" d="M 12.84375 4.453125 C 13.023438 4.464844 13.113281 4.492188 13.257812 4.601562 C 13.367188 4.746094 13.394531 4.835938 13.40625 5.015625 C 13.246094 4.945312 13.140625 4.855469 13.019531 4.734375 C 12.988281 4.703125 12.953125 4.667969 12.917969 4.632812 C 12.84375 4.546875 12.84375 4.546875 12.84375 4.453125 Z M 12.84375 4.453125 "/>
<path style=" stroke:none;fill-rule:nonzero;fill:rgb(38.82353%,38.82353%,38.82353%);fill-opacity:1;" d="M 19.078125 16.828125 C 19.140625 16.859375 19.203125 16.890625 19.265625 16.921875 C 19.265625 17.015625 19.265625 17.109375 19.265625 17.203125 C 18.953125 17.351562 18.953125 17.351562 18.796875 17.296875 C 18.835938 17.253906 18.871094 17.210938 18.910156 17.167969 C 19.003906 17.058594 19.0625 16.976562 19.078125 16.828125 Z M 19.078125 16.828125 "/>
<path style=" stroke:none;fill-rule:nonzero;fill:rgb(49.019608%,47.058824%,43.529412%);fill-opacity:1;" d="M 9.46875 7.40625 C 9.652344 7.476562 9.738281 7.585938 9.855469 7.742188 C 9.886719 7.78125 9.921875 7.824219 9.957031 7.871094 C 9.992188 7.917969 9.992188 7.917969 10.03125 7.96875 C 10.015625 8 10 8.03125 9.984375 8.0625 C 9.953125 8.027344 9.925781 7.996094 9.894531 7.960938 C 9.855469 7.917969 9.820312 7.875 9.78125 7.832031 C 9.742188 7.789062 9.703125 7.746094 9.664062 7.699219 C 9.574219 7.59375 9.574219 7.59375 9.46875 7.546875 C 9.46875 7.746094 9.46875 7.949219 9.46875 8.15625 C 9.453125 8.15625 9.4375 8.15625 9.421875 8.15625 C 9.421875 8.050781 9.417969 7.941406 9.417969 7.835938 C 9.417969 7.773438 9.417969 7.714844 9.417969 7.652344 C 9.421875 7.5 9.421875 7.5 9.46875 7.40625 Z M 9.46875 7.40625 "/>
<path style=" stroke:none;fill-rule:nonzero;fill:rgb(94.901961%,94.901961%,94.117647%);fill-opacity:1;" d="M 12.328125 3.984375 C 12.359375 4 12.390625 4.015625 12.421875 4.03125 C 12.402344 4.054688 12.382812 4.074219 12.363281 4.097656 C 12.335938 4.128906 12.3125 4.15625 12.285156 4.1875 C 12.257812 4.214844 12.234375 4.246094 12.207031 4.273438 C 12.132812 4.363281 12.132812 4.363281 12.09375 4.5 C 12.0625 4.5 12.03125 4.5 12 4.5 C 12 4.6875 12 4.871094 12 5.0625 C 11.984375 5.0625 11.96875 5.0625 11.953125 5.0625 C 11.941406 4.980469 11.933594 4.898438 11.921875 4.816406 C 11.917969 4.769531 11.914062 4.726562 11.90625 4.679688 C 11.90625 4.539062 11.929688 4.476562 12 4.359375 C 12.011719 4.328125 12.023438 4.296875 12.039062 4.265625 C 12.113281 4.140625 12.210938 4.070312 12.328125 3.984375 Z M 12.328125 3.984375 "/>
<path style=" stroke:none;fill-rule:nonzero;fill:rgb(95.294118%,67.843139%,0%);fill-opacity:1;" d="M 16.6875 17.34375 C 16.703125 17.34375 16.71875 17.34375 16.734375 17.34375 C 16.714844 17.507812 16.691406 17.65625 16.640625 17.8125 C 16.640625 17.96875 16.644531 18.125 16.648438 18.285156 C 16.640625 18.421875 16.640625 18.421875 16.546875 18.515625 C 16.542969 18.363281 16.539062 18.214844 16.539062 18.0625 C 16.535156 18.019531 16.535156 17.976562 16.535156 17.933594 C 16.53125 17.699219 16.53125 17.53125 16.6875 17.34375 Z M 16.6875 17.34375 "/>
<path style=" stroke:none;fill-rule:nonzero;fill:rgb(50.980395%,50.980395%,50.588238%);fill-opacity:1;" d="M 9.234375 3.9375 C 9.265625 3.953125 9.296875 3.96875 9.328125 3.984375 C 9.335938 4.140625 9.335938 4.140625 9.328125 4.3125 C 9.304688 4.335938 9.28125 4.355469 9.257812 4.378906 C 9.164062 4.476562 9.164062 4.539062 9.15625 4.671875 C 9.152344 4.710938 9.148438 4.75 9.144531 4.789062 C 9.144531 4.816406 9.140625 4.84375 9.140625 4.875 C 9.125 4.875 9.109375 4.875 9.09375 4.875 C 9.082031 4.546875 9.085938 4.238281 9.234375 3.9375 Z M 9.234375 3.9375 "/>
<path style=" stroke:none;fill-rule:nonzero;fill:rgb(42.745098%,42.745098%,42.745098%);fill-opacity:1;" d="M 17.625 15.984375 C 17.640625 16.015625 17.65625 16.046875 17.671875 16.078125 C 17.765625 16.109375 17.765625 16.109375 17.859375 16.125 C 17.859375 16.171875 17.859375 16.21875 17.859375 16.265625 C 17.644531 16.296875 17.425781 16.328125 17.203125 16.359375 C 17.414062 16.148438 17.414062 16.148438 17.625 16.125 C 17.625 16.078125 17.625 16.03125 17.625 15.984375 Z M 17.625 15.984375 "/>
<path style=" stroke:none;fill-rule:nonzero;fill:rgb(78.039217%,50.588238%,0.392157%);fill-opacity:1;" d="M 13.96875 6.609375 C 13.984375 6.609375 14 6.609375 14.015625 6.609375 C 14 7.121094 14 7.121094 13.882812 7.320312 C 13.78125 7.40625 13.78125 7.40625 13.640625 7.453125 C 13.664062 7.382812 13.664062 7.382812 13.6875 7.3125 C 13.71875 7.3125 13.75 7.3125 13.78125 7.3125 C 13.777344 7.269531 13.777344 7.230469 13.773438 7.1875 C 13.78125 7.011719 13.828125 6.941406 13.921875 6.796875 C 13.953125 6.695312 13.953125 6.695312 13.96875 6.609375 Z M 13.96875 6.609375 "/>
<path style=" stroke:none;fill-rule:nonzero;fill:rgb(42.352942%,42.352942%,42.745098%);fill-opacity:1;" d="M 16.453125 11.4375 C 16.671875 11.5 16.839844 11.589844 17.027344 11.714844 C 17.074219 11.75 17.125 11.78125 17.175781 11.8125 C 17.296875 11.90625 17.296875 11.90625 17.390625 12.046875 C 17.21875 12.046875 17.183594 12.007812 17.054688 11.898438 C 16.882812 11.757812 16.710938 11.640625 16.519531 11.527344 C 16.5 11.515625 16.476562 11.5 16.453125 11.484375 C 16.453125 11.46875 16.453125 11.453125 16.453125 11.4375 Z M 16.453125 11.4375 "/>
<path style=" stroke:none;fill-rule:nonzero;fill:rgb(90.196079%,59.607846%,0%);fill-opacity:1;" d="M 4.734375 17.625 C 4.75 17.671875 4.765625 17.71875 4.78125 17.765625 C 4.464844 18.089844 4.464844 18.089844 4.238281 18.101562 C 4.175781 18.101562 4.109375 18.101562 4.046875 18.101562 C 3.996094 18.097656 3.996094 18.097656 3.945312 18.097656 C 3.863281 18.097656 3.785156 18.09375 3.703125 18.09375 C 3.703125 18.078125 3.703125 18.0625 3.703125 18.046875 C 3.742188 18.046875 3.777344 18.042969 3.816406 18.042969 C 4.289062 18.011719 4.289062 18.011719 4.65625 17.734375 C 4.683594 17.699219 4.707031 17.660156 4.734375 17.625 Z M 4.734375 17.625 "/>
<path style=" stroke:none;fill-rule:nonzero;fill:rgb(42.352942%,42.352942%,41.960785%);fill-opacity:1;" d="M 9.84375 4.546875 C 10.066406 4.582031 10.066406 4.582031 10.171875 4.6875 C 10.171875 4.75 10.171875 4.8125 10.171875 4.875 C 10.019531 4.847656 9.9375 4.8125 9.84375 4.6875 C 9.84375 4.640625 9.84375 4.59375 9.84375 4.546875 Z M 9.84375 4.546875 "/>
<path style=" stroke:none;fill-rule:nonzero;fill:rgb(63.137257%,47.058824%,1.568628%);fill-opacity:1;" d="M 11.53125 5.484375 C 11.6875 5.5 11.6875 5.5 11.859375 5.53125 C 11.890625 5.578125 11.921875 5.625 11.953125 5.671875 C 11.792969 5.722656 11.738281 5.730469 11.585938 5.652344 C 11.554688 5.628906 11.519531 5.601562 11.484375 5.578125 C 11.5 5.546875 11.515625 5.515625 11.53125 5.484375 Z M 11.53125 5.484375 "/>
<path style=" stroke:none;fill-rule:nonzero;fill:rgb(7.843138%,7.843138%,7.843138%);fill-opacity:1;" d="M 10.96875 4.828125 C 11.042969 4.824219 11.117188 4.824219 11.191406 4.820312 C 11.234375 4.820312 11.273438 4.820312 11.316406 4.820312 C 11.480469 4.832031 11.582031 4.886719 11.710938 4.984375 C 11.765625 5.0625 11.765625 5.0625 11.75 5.164062 C 11.742188 5.191406 11.730469 5.222656 11.71875 5.25 C 11.691406 5.214844 11.667969 5.175781 11.640625 5.140625 C 11.449219 4.921875 11.246094 4.90625 10.96875 4.875 C 10.96875 4.859375 10.96875 4.84375 10.96875 4.828125 Z M 10.96875 4.828125 "/>
<path style=" stroke:none;fill-rule:nonzero;fill:rgb(94.509804%,68.235296%,0%);fill-opacity:1;" d="M 13.96875 6.46875 C 13.953125 6.515625 13.9375 6.5625 13.921875 6.609375 C 13.792969 6.636719 13.679688 6.65625 13.546875 6.65625 C 13.5625 6.566406 13.5625 6.566406 13.59375 6.46875 C 13.726562 6.402344 13.824219 6.441406 13.96875 6.46875 Z M 13.96875 6.46875 "/>
<path style=" stroke:none;fill-rule:nonzero;fill:rgb(86.274511%,85.490197%,82.352942%);fill-opacity:1;" d="M 13.921875 5.390625 C 13.964844 5.507812 13.972656 5.566406 13.933594 5.6875 C 13.769531 5.988281 13.769531 5.988281 13.578125 6.050781 C 13.515625 6.046875 13.515625 6.046875 13.453125 6.046875 C 13.5625 5.9375 13.671875 5.828125 13.78125 5.71875 C 13.828125 5.609375 13.878906 5.5 13.921875 5.390625 Z M 13.921875 5.390625 "/>
<path style=" stroke:none;fill-rule:nonzero;fill:rgb(85.09804%,52.941179%,0%);fill-opacity:1;" d="M 20.0625 17.4375 C 20.078125 17.4375 20.09375 17.4375 20.109375 17.4375 C 20.183594 17.699219 20.210938 17.917969 20.203125 18.1875 C 20.054688 18.027344 20.046875 17.917969 20.054688 17.707031 C 20.054688 17.632812 20.054688 17.632812 20.058594 17.554688 C 20.058594 17.515625 20.0625 17.476562 20.0625 17.4375 Z M 20.0625 17.4375 "/>
<path style=" stroke:none;fill-rule:nonzero;fill:rgb(20%,20%,19.607843%);fill-opacity:1;" d="M 10.171875 4.78125 C 10.1875 4.78125 10.203125 4.78125 10.21875 4.78125 C 10.21875 4.90625 10.21875 5.027344 10.21875 5.15625 C 10.15625 5.15625 10.09375 5.15625 10.03125 5.15625 C 10.03125 5.0625 10.03125 4.96875 10.03125 4.875 C 10.078125 4.875 10.125 4.875 10.171875 4.875 C 10.171875 4.84375 10.171875 4.8125 10.171875 4.78125 Z M 10.171875 4.78125 "/>
<path style=" stroke:none;fill-rule:nonzero;fill:rgb(73.333335%,73.333335%,73.333335%);fill-opacity:1;" d="M 11.953125 4.125 C 11.96875 4.15625 11.984375 4.1875 12 4.21875 C 11.980469 4.25 11.957031 4.28125 11.9375 4.316406 C 11.835938 4.5 11.824219 4.667969 11.8125 4.875 C 11.796875 4.875 11.78125 4.875 11.765625 4.875 C 11.765625 4.785156 11.761719 4.695312 11.761719 4.601562 C 11.761719 4.550781 11.761719 4.5 11.761719 4.449219 C 11.765625 4.3125 11.765625 4.3125 11.8125 4.171875 C 11.859375 4.15625 11.90625 4.140625 11.953125 4.125 Z M 11.953125 4.125 "/>
<path style=" stroke:none;fill-rule:nonzero;fill:rgb(27.058825%,27.058825%,27.058825%);fill-opacity:1;" d="M 10.125 3.1875 C 10.332031 3.210938 10.445312 3.332031 10.59375 3.46875 C 10.59375 3.5 10.59375 3.53125 10.59375 3.5625 C 10.410156 3.484375 10.273438 3.367188 10.125 3.234375 C 10.125 3.21875 10.125 3.203125 10.125 3.1875 Z M 10.125 3.1875 "/>
<path style=" stroke:none;fill-rule:nonzero;fill:rgb(50.196081%,33.333334%,0%);fill-opacity:1;" d="M 13.546875 6.46875 C 13.5 6.609375 13.5 6.609375 13.363281 6.691406 C 13.292969 6.71875 13.292969 6.71875 13.21875 6.75 C 13.1875 6.734375 13.15625 6.71875 13.125 6.703125 C 13.390625 6.46875 13.390625 6.46875 13.546875 6.46875 Z M 13.546875 6.46875 "/>
<path style=" stroke:none;fill-rule:nonzero;fill:rgb(5.882353%,5.882353%,5.490196%);fill-opacity:1;" d="M 13.078125 4.78125 C 13.109375 4.8125 13.140625 4.84375 13.171875 4.875 C 13.125 4.945312 13.125 4.945312 13.078125 5.015625 C 13 5 12.921875 4.984375 12.84375 4.96875 C 12.84375 4.9375 12.84375 4.90625 12.84375 4.875 C 12.921875 4.84375 13 4.8125 13.078125 4.78125 Z M 13.078125 4.78125 "/>
<path style=" stroke:none;fill-rule:nonzero;fill:rgb(12.54902%,12.54902%,12.54902%);fill-opacity:1;" d="M 13.21875 3 C 13.359375 3.023438 13.359375 3.023438 13.5 3.046875 C 13.453125 3.109375 13.40625 3.171875 13.359375 3.234375 C 13.296875 3.203125 13.234375 3.171875 13.171875 3.140625 C 13.1875 3.09375 13.203125 3.046875 13.21875 3 Z M 13.21875 3 "/>
<path style=" stroke:none;fill-rule:nonzero;fill:rgb(27.450982%,26.274511%,20%);fill-opacity:1;" d="M 11.765625 5.15625 C 11.828125 5.15625 11.890625 5.15625 11.953125 5.15625 C 11.984375 5.234375 12.015625 5.3125 12.046875 5.390625 C 11.921875 5.359375 11.800781 5.328125 11.671875 5.296875 C 11.703125 5.28125 11.734375 5.265625 11.765625 5.25 C 11.765625 5.21875 11.765625 5.1875 11.765625 5.15625 Z M 11.765625 5.15625 "/>
<path style=" stroke:none;fill-rule:nonzero;fill:rgb(87.450981%,87.450981%,87.058824%);fill-opacity:1;" d="M 12.140625 4.03125 C 12.171875 4.046875 12.203125 4.0625 12.234375 4.078125 C 12.140625 4.1875 12.046875 4.292969 11.953125 4.40625 C 11.9375 4.375 11.921875 4.34375 11.90625 4.3125 C 12.019531 4.09375 12.019531 4.09375 12.140625 4.03125 Z M 11.859375 4.40625 C 11.859375 4.546875 11.859375 4.546875 11.859375 4.546875 Z M 11.859375 4.40625 "/>
<path style=" stroke:none;fill-rule:nonzero;fill:rgb(15.686275%,15.686275%,15.686275%);fill-opacity:1;" d="M 13.875 3.375 C 13.9375 3.453125 14 3.53125 14.0625 3.609375 C 14.015625 3.640625 13.96875 3.671875 13.921875 3.703125 C 13.875 3.640625 13.828125 3.578125 13.78125 3.515625 C 13.8125 3.46875 13.84375 3.421875 13.875 3.375 Z M 13.875 3.375 "/>
<path style=" stroke:none;fill-rule:nonzero;fill:rgb(92.54902%,92.54902%,92.156863%);fill-opacity:1;" d="M 12.328125 3.984375 C 12.359375 4 12.390625 4.015625 12.421875 4.03125 C 12.234375 4.195312 12.234375 4.195312 12.046875 4.359375 C 12.046875 4.21875 12.046875 4.21875 12.109375 4.152344 C 12.179688 4.097656 12.253906 4.039062 12.328125 3.984375 Z M 12.328125 3.984375 "/>
<path style=" stroke:none;fill-rule:nonzero;fill:rgb(70.19608%,45.490196%,0%);fill-opacity:1;" d="M 6.515625 17.109375 C 6.742188 17.328125 6.742188 17.328125 6.796875 17.484375 C 6.75 17.484375 6.703125 17.484375 6.65625 17.484375 C 6.515625 17.214844 6.515625 17.214844 6.515625 17.109375 Z M 6.515625 17.109375 "/>
</g>
</svg>
