<?xml version="1.0" encoding="UTF-8"?>
<svg xmlns="http://www.w3.org/2000/svg" xmlns:xlink="http://www.w3.org/1999/xlink" width="24px" height="24px" viewBox="0 0 24 24" version="1.1">
<g id="surface1">
<path style=" stroke:none;fill-rule:nonzero;fill:rgb(9.019608%,8.235294%,14.901961%);fill-opacity:1;" d="M 3.675781 0.632812 C 4.085938 0.929688 4.398438 1.324219 4.5 1.828125 C 4.539062 2.253906 4.527344 2.683594 4.40625 3.09375 C 4.433594 3.117188 4.464844 3.136719 4.496094 3.160156 C 5.25 3.726562 6 4.300781 6.75 4.875 C 6.894531 4.988281 7.039062 5.097656 7.1875 5.210938 C 7.21875 5.234375 7.253906 5.261719 7.289062 5.285156 C 7.4375 5.398438 7.585938 5.511719 7.734375 5.625 C 7.835938 5.574219 7.9375 5.523438 8.035156 5.472656 C 8.074219 5.453125 8.117188 5.433594 8.15625 5.410156 C 8.195312 5.390625 8.234375 5.371094 8.277344 5.347656 C 8.679688 5.164062 9.289062 5.183594 9.707031 5.324219 C 10.132812 5.511719 10.429688 5.804688 10.6875 6.1875 C 10.78125 6.441406 10.78125 6.441406 10.875 6.703125 C 11.492188 6.71875 12.113281 6.734375 12.75 6.75 C 12.742188 6.289062 12.742188 6.289062 12.734375 5.828125 C 12.730469 5.417969 12.75 5.136719 13.03125 4.816406 C 13.058594 4.792969 13.089844 4.765625 13.121094 4.742188 C 13.152344 4.714844 13.183594 4.6875 13.214844 4.660156 C 13.519531 4.453125 13.84375 4.46875 14.203125 4.5 C 14.515625 4.578125 14.726562 4.804688 14.90625 5.0625 C 15.011719 5.261719 15.011719 5.445312 15.007812 5.664062 C 15.003906 5.695312 15.003906 5.726562 15.003906 5.761719 C 15.003906 5.839844 15 5.921875 15 6 C 15.316406 6.011719 15.550781 5.992188 15.796875 5.78125 C 15.875 5.703125 15.953125 5.625 16.03125 5.542969 C 16.070312 5.5 16.113281 5.457031 16.160156 5.414062 C 16.277344 5.296875 16.390625 5.179688 16.507812 5.058594 C 16.625 4.9375 16.75 4.8125 16.871094 4.691406 C 17.101562 4.457031 17.332031 4.222656 17.558594 3.988281 C 17.847656 3.695312 18.132812 3.40625 18.421875 3.113281 C 18.523438 3.011719 18.621094 2.910156 18.722656 2.808594 C 18.761719 2.773438 18.761719 2.773438 18.796875 2.734375 C 18.964844 2.566406 19.132812 2.394531 19.300781 2.222656 C 19.34375 2.175781 19.390625 2.132812 19.433594 2.085938 C 19.519531 2 19.601562 1.917969 19.683594 1.832031 C 19.71875 1.792969 19.757812 1.757812 19.792969 1.71875 C 19.824219 1.6875 19.855469 1.65625 19.890625 1.621094 C 20.023438 1.496094 20.109375 1.496094 20.285156 1.496094 C 20.332031 1.496094 20.375 1.496094 20.421875 1.496094 C 20.488281 1.496094 20.488281 1.496094 20.558594 1.496094 C 20.605469 1.496094 20.652344 1.496094 20.703125 1.496094 C 20.816406 1.5 20.933594 1.5 21.046875 1.5 C 21.058594 1.464844 21.070312 1.429688 21.085938 1.394531 C 21.195312 1.140625 21.378906 0.949219 21.613281 0.796875 C 21.929688 0.6875 22.355469 0.683594 22.660156 0.820312 C 22.933594 0.984375 23.15625 1.242188 23.25 1.546875 C 23.289062 1.914062 23.300781 2.277344 23.0625 2.578125 C 22.835938 2.816406 22.632812 2.980469 22.300781 3.015625 C 21.898438 3.019531 21.625 3.003906 21.328125 2.722656 C 21.183594 2.570312 21.09375 2.457031 21.046875 2.25 C 20.714844 2.238281 20.457031 2.246094 20.199219 2.46875 C 20.117188 2.546875 20.042969 2.625 19.964844 2.707031 C 19.921875 2.75 19.878906 2.792969 19.835938 2.835938 C 19.71875 2.953125 19.605469 3.070312 19.488281 3.191406 C 19.367188 3.3125 19.246094 3.4375 19.125 3.558594 C 18.894531 3.792969 18.664062 4.027344 18.4375 4.261719 C 18.152344 4.554688 17.863281 4.84375 17.574219 5.136719 C 17.476562 5.238281 17.375 5.339844 17.273438 5.441406 C 17.25 5.464844 17.226562 5.488281 17.199219 5.515625 C 17.03125 5.683594 16.867188 5.855469 16.699219 6.027344 C 16.652344 6.074219 16.609375 6.117188 16.5625 6.164062 C 16.480469 6.25 16.398438 6.332031 16.316406 6.417969 C 16.28125 6.457031 16.242188 6.492188 16.207031 6.53125 C 16.175781 6.5625 16.140625 6.59375 16.109375 6.628906 C 15.980469 6.75 15.894531 6.753906 15.722656 6.753906 C 15.683594 6.753906 15.648438 6.753906 15.609375 6.753906 C 15.535156 6.753906 15.535156 6.753906 15.464844 6.753906 C 15.234375 6.75 15.234375 6.75 15 6.75 C 15 7.121094 15 7.492188 15 7.875 C 15.671875 7.960938 16.421875 8.054688 17 7.632812 C 17.421875 7.289062 17.785156 6.882812 18.144531 6.480469 C 18.304688 6.304688 18.46875 6.128906 18.636719 5.957031 C 18.898438 5.679688 19.160156 5.398438 19.417969 5.113281 C 19.582031 4.925781 19.582031 4.925781 19.6875 4.875 C 19.789062 4.871094 19.890625 4.871094 19.992188 4.871094 C 20.085938 4.871094 20.085938 4.871094 20.179688 4.871094 C 20.242188 4.871094 20.308594 4.871094 20.371094 4.871094 C 20.4375 4.871094 20.503906 4.871094 20.566406 4.871094 C 20.726562 4.875 20.886719 4.875 21.046875 4.875 C 21.0625 4.839844 21.074219 4.800781 21.089844 4.761719 C 21.203125 4.492188 21.410156 4.277344 21.679688 4.15625 C 21.992188 4.074219 22.363281 4.066406 22.660156 4.195312 C 22.933594 4.359375 23.15625 4.617188 23.25 4.921875 C 23.289062 5.289062 23.300781 5.652344 23.0625 5.953125 C 22.835938 6.191406 22.632812 6.355469 22.300781 6.390625 C 21.898438 6.394531 21.625 6.378906 21.328125 6.097656 C 21.183594 5.945312 21.09375 5.832031 21.046875 5.625 C 20.59375 5.589844 20.140625 5.5625 19.773438 5.863281 C 19.617188 6.003906 19.476562 6.15625 19.332031 6.3125 C 19.269531 6.375 19.207031 6.441406 19.144531 6.503906 C 18.976562 6.675781 18.816406 6.847656 18.652344 7.019531 C 18.488281 7.195312 18.316406 7.371094 18.148438 7.542969 C 17.960938 7.738281 17.773438 7.933594 17.585938 8.132812 C 17.554688 8.160156 17.527344 8.191406 17.5 8.222656 C 17.445312 8.277344 17.394531 8.332031 17.339844 8.386719 C 17.121094 8.621094 17.121094 8.621094 16.972656 8.628906 C 16.9375 8.628906 16.898438 8.628906 16.863281 8.628906 C 16.800781 8.628906 16.800781 8.628906 16.738281 8.628906 C 16.691406 8.628906 16.648438 8.628906 16.601562 8.628906 C 16.554688 8.628906 16.511719 8.628906 16.464844 8.628906 C 16.316406 8.628906 16.171875 8.628906 16.023438 8.628906 C 15.925781 8.628906 15.828125 8.628906 15.730469 8.628906 C 15.484375 8.625 15.242188 8.625 15 8.625 C 15 8.996094 15 9.367188 15 9.75 C 15.5 9.785156 16.003906 9.804688 16.503906 9.816406 C 16.542969 9.816406 16.578125 9.816406 16.617188 9.816406 C 17.800781 9.839844 17.800781 9.839844 18.8125 9.296875 C 19.074219 9.035156 19.304688 8.742188 19.503906 8.429688 C 19.59375 8.296875 19.59375 8.296875 19.6875 8.25 C 19.789062 8.246094 19.890625 8.246094 19.992188 8.246094 C 20.054688 8.246094 20.117188 8.246094 20.179688 8.246094 C 20.242188 8.246094 20.308594 8.246094 20.371094 8.246094 C 20.4375 8.246094 20.503906 8.246094 20.566406 8.246094 C 20.726562 8.25 20.886719 8.25 21.046875 8.25 C 21.0625 8.214844 21.074219 8.175781 21.089844 8.140625 C 21.195312 7.886719 21.382812 7.695312 21.613281 7.546875 C 21.929688 7.4375 22.355469 7.433594 22.660156 7.570312 C 22.933594 7.734375 23.15625 7.992188 23.25 8.296875 C 23.289062 8.664062 23.300781 9.027344 23.0625 9.328125 C 22.835938 9.566406 22.632812 9.730469 22.300781 9.765625 C 21.898438 9.769531 21.625 9.753906 21.328125 9.472656 C 21.183594 9.320312 21.09375 9.207031 21.046875 9 C 20.640625 8.964844 20.195312 8.925781 19.851562 9.183594 C 19.652344 9.355469 19.476562 9.550781 19.304688 9.75 C 19.242188 9.816406 19.179688 9.882812 19.117188 9.953125 C 19.003906 10.074219 18.890625 10.195312 18.78125 10.320312 C 18.613281 10.496094 18.613281 10.496094 18.414062 10.503906 C 18.351562 10.503906 18.289062 10.503906 18.226562 10.503906 C 18.171875 10.503906 18.171875 10.503906 18.121094 10.503906 C 18.003906 10.503906 17.890625 10.503906 17.773438 10.503906 C 17.695312 10.503906 17.613281 10.503906 17.535156 10.503906 C 17.324219 10.503906 17.113281 10.503906 16.90625 10.503906 C 16.691406 10.503906 16.476562 10.503906 16.261719 10.503906 C 15.839844 10.5 15.421875 10.5 15 10.5 C 15 10.871094 15 11.242188 15 11.625 C 16.996094 11.625 18.992188 11.625 21.046875 11.625 C 21.078125 11.546875 21.109375 11.46875 21.140625 11.390625 C 21.308594 11.152344 21.5 10.929688 21.796875 10.875 C 22.167969 10.839844 22.527344 10.820312 22.828125 11.0625 C 23.066406 11.289062 23.230469 11.492188 23.265625 11.824219 C 23.269531 12.222656 23.253906 12.5 22.976562 12.796875 C 22.652344 13.09375 22.398438 13.148438 21.957031 13.140625 C 21.585938 13.105469 21.394531 12.933594 21.15625 12.65625 C 21.09375 12.5625 21.09375 12.5625 21.046875 12.375 C 19.050781 12.375 17.054688 12.375 15 12.375 C 15 12.746094 15 13.117188 15 13.5 C 15.105469 13.5 15.210938 13.496094 15.320312 13.496094 C 15.671875 13.488281 16.023438 13.484375 16.375 13.484375 C 16.585938 13.480469 16.800781 13.480469 17.011719 13.476562 C 17.21875 13.472656 17.421875 13.46875 17.628906 13.46875 C 17.707031 13.46875 17.785156 13.46875 17.863281 13.464844 C 18.550781 13.449219 18.550781 13.449219 18.785156 13.648438 C 18.839844 13.707031 18.890625 13.765625 18.9375 13.828125 C 18.980469 13.875 19.023438 13.921875 19.066406 13.96875 C 19.105469 14.011719 19.144531 14.058594 19.1875 14.105469 C 19.730469 14.757812 19.730469 14.757812 20.492188 15.046875 C 20.683594 15.046875 20.859375 15.03125 21.046875 15 C 21.058594 14.964844 21.074219 14.929688 21.085938 14.894531 C 21.203125 14.621094 21.40625 14.402344 21.679688 14.28125 C 21.992188 14.199219 22.363281 14.191406 22.660156 14.320312 C 22.933594 14.484375 23.15625 14.742188 23.25 15.046875 C 23.289062 15.414062 23.300781 15.777344 23.0625 16.078125 C 22.835938 16.316406 22.632812 16.480469 22.300781 16.515625 C 21.898438 16.519531 21.625 16.503906 21.328125 16.222656 C 21.183594 16.070312 21.09375 15.957031 21.046875 15.75 C 21.007812 15.75 20.96875 15.753906 20.929688 15.753906 C 20.78125 15.761719 20.632812 15.765625 20.488281 15.769531 C 20.390625 15.769531 20.296875 15.773438 20.203125 15.777344 C 20.144531 15.78125 20.082031 15.78125 20.019531 15.78125 C 19.964844 15.785156 19.910156 15.785156 19.855469 15.789062 C 19.503906 15.710938 19.304688 15.417969 19.089844 15.148438 C 18.699219 14.671875 18.332031 14.257812 17.695312 14.191406 C 17.339844 14.164062 16.988281 14.179688 16.632812 14.199219 C 16.449219 14.207031 16.261719 14.207031 16.078125 14.210938 C 15.71875 14.21875 15.359375 14.230469 15 14.25 C 15 14.621094 15 14.992188 15 15.375 C 15.144531 15.371094 15.289062 15.367188 15.4375 15.363281 C 15.578125 15.359375 15.71875 15.359375 15.859375 15.355469 C 15.957031 15.355469 16.054688 15.351562 16.152344 15.351562 C 16.292969 15.347656 16.433594 15.34375 16.574219 15.34375 C 16.617188 15.339844 16.660156 15.339844 16.707031 15.335938 C 16.988281 15.335938 17.136719 15.394531 17.335938 15.59375 C 17.371094 15.628906 17.402344 15.664062 17.4375 15.703125 C 17.5 15.769531 17.5 15.769531 17.5625 15.832031 C 17.660156 15.933594 17.757812 16.035156 17.855469 16.140625 C 18.050781 16.347656 18.246094 16.550781 18.445312 16.753906 C 18.59375 16.910156 18.742188 17.0625 18.886719 17.222656 C 19.574219 18.03125 19.574219 18.03125 20.507812 18.433594 C 20.695312 18.433594 20.863281 18.414062 21.046875 18.375 C 21.0625 18.339844 21.074219 18.300781 21.089844 18.265625 C 21.195312 18.011719 21.382812 17.820312 21.613281 17.671875 C 21.929688 17.5625 22.355469 17.558594 22.660156 17.695312 C 22.933594 17.859375 23.15625 18.117188 23.25 18.421875 C 23.289062 18.789062 23.300781 19.152344 23.0625 19.453125 C 22.835938 19.691406 22.632812 19.855469 22.300781 19.890625 C 21.898438 19.894531 21.625 19.878906 21.328125 19.597656 C 21.183594 19.445312 21.09375 19.332031 21.046875 19.125 C 21.007812 19.125 20.96875 19.128906 20.929688 19.128906 C 20.78125 19.136719 20.632812 19.140625 20.488281 19.144531 C 20.390625 19.144531 20.296875 19.148438 20.203125 19.152344 C 20.144531 19.15625 20.082031 19.15625 20.019531 19.15625 C 19.964844 19.160156 19.910156 19.160156 19.855469 19.164062 C 19.449219 19.070312 19.179688 18.660156 18.914062 18.359375 C 18.726562 18.152344 18.535156 17.949219 18.34375 17.746094 C 18.199219 17.59375 18.054688 17.4375 17.914062 17.277344 C 17.164062 16.414062 17.164062 16.414062 16.105469 16.070312 C 15.734375 16.054688 15.371094 16.085938 15 16.125 C 15 16.496094 15 16.867188 15 17.25 C 15.292969 17.238281 15.292969 17.238281 15.582031 17.21875 C 15.808594 17.214844 15.945312 17.234375 16.113281 17.390625 C 16.148438 17.421875 16.179688 17.449219 16.210938 17.480469 C 16.386719 17.648438 16.554688 17.820312 16.722656 17.992188 C 16.804688 18.078125 16.886719 18.160156 16.96875 18.242188 C 17.03125 18.308594 17.03125 18.308594 17.097656 18.375 C 17.230469 18.511719 17.367188 18.648438 17.5 18.785156 C 17.523438 18.808594 17.546875 18.832031 17.570312 18.855469 C 17.664062 18.953125 17.757812 19.046875 17.851562 19.144531 C 18.121094 19.414062 18.386719 19.683594 18.648438 19.957031 C 18.859375 20.171875 19.074219 20.386719 19.285156 20.601562 C 19.398438 20.714844 19.511719 20.828125 19.621094 20.945312 C 19.746094 21.074219 19.871094 21.199219 19.996094 21.324219 C 20.03125 21.363281 20.066406 21.398438 20.105469 21.4375 C 20.363281 21.695312 20.566406 21.746094 20.929688 21.753906 C 20.96875 21.753906 21.007812 21.75 21.046875 21.75 C 21.066406 21.695312 21.066406 21.695312 21.089844 21.636719 C 21.203125 21.367188 21.410156 21.152344 21.679688 21.03125 C 21.992188 20.949219 22.363281 20.941406 22.660156 21.070312 C 22.933594 21.234375 23.15625 21.492188 23.25 21.796875 C 23.289062 22.164062 23.300781 22.527344 23.0625 22.828125 C 22.835938 23.066406 22.632812 23.230469 22.300781 23.265625 C 21.898438 23.269531 21.625 23.253906 21.328125 22.972656 C 21.183594 22.820312 21.09375 22.707031 21.046875 22.5 C 21.019531 22.5 20.992188 22.503906 20.960938 22.503906 C 20.835938 22.511719 20.707031 22.515625 20.578125 22.519531 C 20.511719 22.523438 20.511719 22.523438 20.445312 22.527344 C 20.402344 22.53125 20.359375 22.53125 20.3125 22.53125 C 20.273438 22.535156 20.234375 22.535156 20.195312 22.539062 C 19.832031 22.4375 19.53125 22.019531 19.273438 21.757812 C 19.195312 21.671875 19.113281 21.589844 19.03125 21.507812 C 18.964844 21.441406 18.964844 21.441406 18.902344 21.375 C 18.765625 21.238281 18.632812 21.101562 18.496094 20.964844 C 18.472656 20.941406 18.449219 20.917969 18.425781 20.894531 C 18.332031 20.796875 18.238281 20.703125 18.144531 20.605469 C 17.878906 20.335938 17.613281 20.066406 17.347656 19.792969 C 17.136719 19.578125 16.921875 19.363281 16.710938 19.148438 C 16.597656 19.035156 16.484375 18.921875 16.375 18.804688 C 16.25 18.679688 16.125 18.550781 16 18.425781 C 15.964844 18.386719 15.925781 18.351562 15.890625 18.3125 C 15.640625 18.066406 15.457031 18.003906 15.109375 17.996094 C 15.070312 17.996094 15.035156 18 15 18 C 15.003906 18.046875 15.007812 18.09375 15.011719 18.140625 C 15.007812 18.40625 14.902344 18.605469 14.726562 18.796875 C 14.398438 19.09375 14.148438 19.148438 13.707031 19.140625 C 13.339844 19.105469 13.144531 18.933594 12.910156 18.660156 C 12.777344 18.46875 12.738281 18.300781 12.742188 18.070312 C 12.742188 18.027344 12.742188 17.984375 12.742188 17.9375 C 12.742188 17.882812 12.742188 17.832031 12.746094 17.773438 C 12.746094 17.601562 12.746094 17.429688 12.75 17.25 C 12.132812 17.265625 11.511719 17.28125 10.875 17.296875 C 10.8125 17.46875 10.75 17.636719 10.6875 17.8125 C 10.375 18.277344 9.984375 18.636719 9.421875 18.75 C 8.882812 18.808594 8.402344 18.78125 7.953125 18.453125 C 7.914062 18.425781 7.871094 18.402344 7.828125 18.375 C 7.640625 18.425781 7.515625 18.523438 7.367188 18.648438 C 7.15625 18.828125 6.945312 18.992188 6.722656 19.15625 C 6.445312 19.363281 6.167969 19.574219 5.894531 19.789062 C 5.40625 20.171875 4.910156 20.542969 4.40625 20.90625 C 4.421875 20.957031 4.4375 21.011719 4.453125 21.0625 C 4.582031 21.652344 4.566406 22.28125 4.242188 22.800781 C 3.945312 23.214844 3.550781 23.523438 3.046875 23.625 C 2.464844 23.6875 1.949219 23.636719 1.464844 23.289062 C 1.085938 22.96875 0.792969 22.578125 0.738281 22.074219 C 0.699219 21.46875 0.769531 20.964844 1.171875 20.488281 C 1.554688 20.085938 1.960938 19.875 2.515625 19.851562 C 2.957031 19.847656 3.308594 19.90625 3.671875 20.171875 C 3.710938 20.199219 3.753906 20.222656 3.796875 20.25 C 3.984375 20.199219 4.109375 20.101562 4.257812 19.976562 C 4.46875 19.796875 4.679688 19.632812 4.902344 19.46875 C 5.179688 19.261719 5.457031 19.050781 5.730469 18.835938 C 6.21875 18.453125 6.714844 18.082031 7.21875 17.71875 C 7.1875 17.578125 7.15625 17.441406 7.125 17.296875 C 6.257812 17.296875 5.390625 17.296875 4.5 17.296875 C 4.4375 17.46875 4.375 17.636719 4.3125 17.8125 C 4 18.277344 3.609375 18.636719 3.046875 18.75 C 2.464844 18.8125 1.949219 18.761719 1.464844 18.414062 C 1.085938 18.09375 0.792969 17.703125 0.738281 17.199219 C 0.699219 16.59375 0.769531 16.089844 1.171875 15.613281 C 1.554688 15.210938 1.960938 15 2.515625 14.976562 C 2.957031 14.972656 3.308594 15.03125 3.671875 15.296875 C 3.710938 15.324219 3.753906 15.347656 3.796875 15.375 C 3.992188 15.320312 4.121094 15.21875 4.273438 15.085938 C 4.496094 14.898438 4.726562 14.726562 4.96875 14.5625 C 5 14.535156 5.03125 14.511719 5.0625 14.484375 C 5.0625 14.453125 5.0625 14.421875 5.0625 14.390625 C 4.976562 14.3125 4.976562 14.3125 4.867188 14.234375 C 4.824219 14.203125 4.78125 14.171875 4.742188 14.140625 C 4.695312 14.109375 4.652344 14.078125 4.609375 14.046875 C 4.523438 13.980469 4.4375 13.917969 4.351562 13.855469 C 4.296875 13.816406 4.296875 13.816406 4.238281 13.773438 C 4.121094 13.683594 4.003906 13.59375 3.890625 13.5 C 3.789062 13.550781 3.6875 13.601562 3.589844 13.652344 C 3.550781 13.671875 3.507812 13.691406 3.46875 13.714844 C 3.429688 13.734375 3.390625 13.753906 3.347656 13.777344 C 2.945312 13.960938 2.335938 13.941406 1.917969 13.800781 C 1.425781 13.585938 1.039062 13.199219 0.824219 12.707031 C 0.667969 12.230469 0.675781 11.632812 0.875 11.175781 C 1.136719 10.699219 1.527344 10.324219 2.050781 10.15625 C 2.539062 10.058594 3.078125 10.054688 3.515625 10.3125 C 3.566406 10.347656 3.621094 10.386719 3.671875 10.425781 C 3.710938 10.449219 3.753906 10.472656 3.796875 10.5 C 3.992188 10.445312 4.121094 10.34375 4.273438 10.214844 C 4.496094 10.023438 4.726562 9.851562 4.96875 9.6875 C 5 9.660156 5.03125 9.636719 5.0625 9.609375 C 5.0625 9.578125 5.0625 9.546875 5.0625 9.515625 C 4.976562 9.4375 4.976562 9.4375 4.867188 9.359375 C 4.824219 9.328125 4.78125 9.296875 4.742188 9.265625 C 4.695312 9.234375 4.652344 9.203125 4.609375 9.171875 C 4.523438 9.105469 4.4375 9.042969 4.351562 8.980469 C 4.316406 8.953125 4.277344 8.925781 4.238281 8.898438 C 4.121094 8.808594 4.003906 8.71875 3.890625 8.625 C 3.789062 8.675781 3.6875 8.726562 3.589844 8.777344 C 3.550781 8.796875 3.507812 8.816406 3.46875 8.839844 C 3.410156 8.871094 3.410156 8.871094 3.347656 8.902344 C 2.945312 9.085938 2.335938 9.066406 1.917969 8.925781 C 1.425781 8.710938 1.039062 8.324219 0.824219 7.832031 C 0.667969 7.355469 0.675781 6.757812 0.875 6.300781 C 1.136719 5.824219 1.527344 5.449219 2.050781 5.28125 C 2.609375 5.167969 3.183594 5.199219 3.675781 5.507812 C 4.125 5.832031 4.308594 6.175781 4.5 6.703125 C 5.367188 6.703125 6.234375 6.703125 7.125 6.703125 C 7.15625 6.5625 7.1875 6.425781 7.21875 6.28125 C 7.191406 6.257812 7.160156 6.238281 7.128906 6.214844 C 6.375 5.648438 5.625 5.074219 4.875 4.5 C 4.730469 4.386719 4.585938 4.277344 4.4375 4.164062 C 4.40625 4.140625 4.371094 4.113281 4.335938 4.089844 C 4.1875 3.976562 4.039062 3.863281 3.890625 3.75 C 3.789062 3.800781 3.6875 3.851562 3.589844 3.902344 C 3.53125 3.933594 3.53125 3.933594 3.46875 3.964844 C 3.410156 3.996094 3.410156 3.996094 3.347656 4.027344 C 2.945312 4.210938 2.335938 4.191406 1.917969 4.050781 C 1.425781 3.835938 1.039062 3.449219 0.824219 2.957031 C 0.667969 2.480469 0.675781 1.882812 0.875 1.425781 C 1.136719 0.949219 1.527344 0.574219 2.050781 0.40625 C 2.609375 0.292969 3.183594 0.324219 3.675781 0.632812 Z M 4.5 7.5 C 4.398438 7.707031 4.398438 7.707031 4.359375 7.929688 C 4.429688 8.058594 4.523438 8.117188 4.640625 8.199219 C 4.714844 8.253906 4.714844 8.253906 4.792969 8.308594 C 4.820312 8.328125 4.847656 8.351562 4.875 8.371094 C 5.054688 8.5 5.226562 8.632812 5.402344 8.769531 C 5.472656 8.820312 5.542969 8.875 5.609375 8.929688 C 5.664062 8.96875 5.714844 9.007812 5.765625 9.046875 C 5.894531 8.988281 6.003906 8.921875 6.117188 8.835938 C 6.144531 8.8125 6.175781 8.789062 6.207031 8.765625 C 6.238281 8.742188 6.273438 8.71875 6.304688 8.691406 C 6.371094 8.640625 6.4375 8.589844 6.503906 8.539062 C 6.554688 8.503906 6.554688 8.503906 6.605469 8.464844 C 6.746094 8.355469 6.890625 8.25 7.03125 8.144531 C 7.078125 8.109375 7.121094 8.078125 7.167969 8.042969 C 7.21875 8.003906 7.21875 8.003906 7.265625 7.96875 C 7.25 7.898438 7.238281 7.828125 7.222656 7.761719 C 7.214844 7.722656 7.207031 7.683594 7.195312 7.644531 C 7.179688 7.546875 7.179688 7.546875 7.125 7.5 C 7.042969 7.496094 6.960938 7.496094 6.878906 7.496094 C 6.800781 7.496094 6.800781 7.496094 6.71875 7.496094 C 6.664062 7.496094 6.605469 7.496094 6.546875 7.496094 C 6.457031 7.496094 6.457031 7.496094 6.371094 7.496094 C 6.214844 7.496094 6.058594 7.496094 5.90625 7.496094 C 5.746094 7.496094 5.589844 7.496094 5.429688 7.496094 C 5.121094 7.5 4.808594 7.5 4.5 7.5 Z M 10.875 7.5 C 10.796875 7.6875 10.71875 7.871094 10.640625 8.0625 C 10.378906 8.460938 10.023438 8.796875 9.554688 8.933594 C 9.03125 9.015625 8.476562 9.023438 8.027344 8.707031 C 8.003906 8.691406 7.980469 8.671875 7.953125 8.65625 C 7.914062 8.628906 7.871094 8.605469 7.828125 8.578125 C 7.636719 8.632812 7.507812 8.734375 7.355469 8.863281 C 7.082031 9.089844 6.800781 9.304688 6.515625 9.515625 C 6.570312 9.683594 6.625 9.714844 6.765625 9.816406 C 6.804688 9.847656 6.847656 9.878906 6.886719 9.910156 C 6.933594 9.941406 6.976562 9.972656 7.019531 10.003906 C 7.105469 10.066406 7.1875 10.128906 7.273438 10.191406 C 7.3125 10.222656 7.351562 10.25 7.394531 10.28125 C 7.507812 10.367188 7.621094 10.457031 7.734375 10.546875 C 7.835938 10.496094 7.9375 10.445312 8.035156 10.394531 C 8.074219 10.375 8.117188 10.355469 8.15625 10.332031 C 8.195312 10.3125 8.234375 10.292969 8.277344 10.269531 C 8.679688 10.085938 9.289062 10.105469 9.707031 10.246094 C 10.34375 10.527344 10.621094 10.996094 10.875 11.625 C 11.492188 11.625 12.113281 11.625 12.75 11.625 C 12.75 10.265625 12.75 8.902344 12.75 7.5 C 12.132812 7.5 11.511719 7.5 10.875 7.5 Z M 5.589844 10.207031 C 5.558594 10.234375 5.523438 10.261719 5.484375 10.289062 C 5.449219 10.320312 5.410156 10.347656 5.375 10.378906 C 5.296875 10.441406 5.21875 10.5 5.144531 10.558594 C 5.105469 10.589844 5.070312 10.621094 5.03125 10.648438 C 4.808594 10.824219 4.585938 10.988281 4.359375 11.15625 C 4.375 11.226562 4.386719 11.296875 4.402344 11.363281 C 4.410156 11.402344 4.417969 11.441406 4.429688 11.480469 C 4.445312 11.578125 4.445312 11.578125 4.5 11.625 C 4.582031 11.628906 4.664062 11.628906 4.746094 11.628906 C 4.824219 11.628906 4.824219 11.628906 4.90625 11.628906 C 4.960938 11.628906 5.019531 11.628906 5.078125 11.628906 C 5.136719 11.628906 5.195312 11.628906 5.253906 11.628906 C 5.410156 11.628906 5.566406 11.628906 5.71875 11.628906 C 5.878906 11.628906 6.035156 11.628906 6.195312 11.628906 C 6.503906 11.625 6.816406 11.625 7.125 11.625 C 7.226562 11.417969 7.226562 11.417969 7.265625 11.195312 C 7.195312 11.066406 7.101562 11.007812 6.984375 10.925781 C 6.910156 10.871094 6.910156 10.871094 6.832031 10.816406 C 6.804688 10.796875 6.777344 10.773438 6.746094 10.753906 C 6.644531 10.679688 6.546875 10.601562 6.445312 10.523438 C 6.410156 10.496094 6.375 10.46875 6.335938 10.441406 C 6.265625 10.386719 6.195312 10.328125 6.121094 10.273438 C 6.089844 10.25 6.058594 10.222656 6.023438 10.195312 C 5.992188 10.171875 5.964844 10.152344 5.933594 10.128906 C 5.785156 10.027344 5.71875 10.105469 5.589844 10.207031 Z M 4.5 12.375 C 4.398438 12.582031 4.398438 12.582031 4.359375 12.804688 C 4.429688 12.933594 4.523438 12.992188 4.640625 13.074219 C 4.714844 13.128906 4.714844 13.128906 4.792969 13.183594 C 4.820312 13.203125 4.847656 13.226562 4.875 13.246094 C 5.054688 13.375 5.226562 13.507812 5.402344 13.644531 C 5.472656 13.695312 5.542969 13.75 5.609375 13.804688 C 5.664062 13.84375 5.714844 13.882812 5.765625 13.921875 C 5.894531 13.863281 6.003906 13.796875 6.117188 13.710938 C 6.144531 13.6875 6.175781 13.664062 6.207031 13.640625 C 6.238281 13.617188 6.273438 13.59375 6.304688 13.566406 C 6.371094 13.515625 6.4375 13.464844 6.503906 13.414062 C 6.554688 13.378906 6.554688 13.378906 6.605469 13.339844 C 6.746094 13.230469 6.890625 13.125 7.03125 13.019531 C 7.078125 12.984375 7.121094 12.953125 7.167969 12.917969 C 7.21875 12.878906 7.21875 12.878906 7.265625 12.84375 C 7.25 12.773438 7.238281 12.703125 7.222656 12.636719 C 7.214844 12.597656 7.207031 12.558594 7.195312 12.519531 C 7.179688 12.421875 7.179688 12.421875 7.125 12.375 C 7.042969 12.371094 6.960938 12.371094 6.878906 12.371094 C 6.800781 12.371094 6.800781 12.371094 6.71875 12.371094 C 6.664062 12.371094 6.605469 12.371094 6.546875 12.371094 C 6.457031 12.371094 6.457031 12.371094 6.371094 12.371094 C 6.214844 12.371094 6.058594 12.371094 5.90625 12.371094 C 5.746094 12.371094 5.589844 12.371094 5.429688 12.371094 C 5.121094 12.375 4.808594 12.375 4.5 12.375 Z M 10.875 12.375 C 10.796875 12.5625 10.71875 12.746094 10.640625 12.9375 C 10.378906 13.335938 10.023438 13.671875 9.554688 13.808594 C 9.03125 13.890625 8.476562 13.898438 8.027344 13.582031 C 8.003906 13.566406 7.980469 13.546875 7.953125 13.53125 C 7.914062 13.503906 7.871094 13.480469 7.828125 13.453125 C 7.636719 13.507812 7.507812 13.609375 7.355469 13.738281 C 7.082031 13.964844 6.800781 14.179688 6.515625 14.390625 C 6.570312 14.558594 6.625 14.589844 6.765625 14.691406 C 6.804688 14.722656 6.847656 14.753906 6.886719 14.785156 C 6.933594 14.816406 6.976562 14.847656 7.019531 14.878906 C 7.105469 14.941406 7.1875 15.003906 7.273438 15.066406 C 7.3125 15.097656 7.351562 15.125 7.394531 15.15625 C 7.507812 15.242188 7.621094 15.332031 7.734375 15.421875 C 7.835938 15.371094 7.9375 15.320312 8.035156 15.269531 C 8.074219 15.25 8.117188 15.230469 8.15625 15.207031 C 8.195312 15.1875 8.234375 15.167969 8.277344 15.144531 C 8.679688 14.960938 9.289062 14.980469 9.707031 15.121094 C 10.34375 15.402344 10.621094 15.871094 10.875 16.5 C 11.492188 16.5 12.113281 16.5 12.75 16.5 C 12.75 15.140625 12.75 13.777344 12.75 12.375 C 12.132812 12.375 11.511719 12.375 10.875 12.375 Z M 5.589844 15.082031 C 5.558594 15.109375 5.523438 15.136719 5.484375 15.164062 C 5.449219 15.195312 5.410156 15.222656 5.375 15.253906 C 5.296875 15.316406 5.21875 15.375 5.144531 15.433594 C 5.105469 15.464844 5.070312 15.496094 5.03125 15.523438 C 4.808594 15.699219 4.585938 15.863281 4.359375 16.03125 C 4.375 16.101562 4.386719 16.171875 4.402344 16.238281 C 4.410156 16.277344 4.417969 16.316406 4.429688 16.355469 C 4.445312 16.453125 4.445312 16.453125 4.5 16.5 C 4.582031 16.503906 4.664062 16.503906 4.746094 16.503906 C 4.824219 16.503906 4.824219 16.503906 4.90625 16.503906 C 4.960938 16.503906 5.019531 16.503906 5.078125 16.503906 C 5.136719 16.503906 5.195312 16.503906 5.253906 16.503906 C 5.410156 16.503906 5.566406 16.503906 5.71875 16.503906 C 5.878906 16.503906 6.035156 16.503906 6.195312 16.503906 C 6.503906 16.5 6.816406 16.5 7.125 16.5 C 7.226562 16.292969 7.226562 16.292969 7.265625 16.070312 C 7.195312 15.941406 7.101562 15.882812 6.984375 15.800781 C 6.910156 15.746094 6.910156 15.746094 6.832031 15.691406 C 6.804688 15.671875 6.777344 15.648438 6.746094 15.628906 C 6.644531 15.554688 6.546875 15.476562 6.445312 15.398438 C 6.410156 15.371094 6.375 15.34375 6.335938 15.316406 C 6.265625 15.261719 6.195312 15.203125 6.121094 15.148438 C 6.089844 15.125 6.058594 15.097656 6.023438 15.070312 C 5.992188 15.046875 5.964844 15.027344 5.933594 15.003906 C 5.785156 14.902344 5.71875 14.980469 5.589844 15.082031 Z M 5.589844 15.082031 "/>
<path style=" stroke:none;fill-rule:nonzero;fill:rgb(96.862745%,18.039216%,26.666668%);fill-opacity:1;" d="M 13.875 5.21875 C 14.070312 5.261719 14.128906 5.324219 14.25 5.484375 C 14.285156 5.652344 14.28125 5.820312 14.277344 5.988281 C 14.28125 6.066406 14.28125 6.066406 14.28125 6.144531 C 14.28125 6.320312 14.28125 6.492188 14.277344 6.664062 C 14.277344 6.789062 14.277344 6.914062 14.28125 7.035156 C 14.28125 7.339844 14.28125 7.640625 14.277344 7.941406 C 14.277344 8.292969 14.277344 8.644531 14.277344 8.996094 C 14.277344 9.621094 14.277344 10.25 14.277344 10.875 C 14.273438 11.484375 14.273438 12.09375 14.273438 12.703125 C 14.273438 13.363281 14.273438 14.027344 14.273438 14.6875 C 14.273438 14.742188 14.273438 14.742188 14.273438 14.796875 C 14.273438 14.867188 14.273438 14.9375 14.273438 15.007812 C 14.273438 15.25 14.273438 15.496094 14.273438 15.742188 C 14.273438 16.039062 14.273438 16.339844 14.269531 16.636719 C 14.269531 16.789062 14.269531 16.941406 14.269531 17.09375 C 14.269531 17.257812 14.269531 17.421875 14.269531 17.589844 C 14.269531 17.660156 14.269531 17.660156 14.269531 17.734375 C 14.265625 18.144531 14.265625 18.144531 14.109375 18.328125 C 13.976562 18.394531 13.878906 18.386719 13.734375 18.375 C 13.585938 18.292969 13.554688 18.257812 13.5 18.09375 C 13.496094 18.023438 13.492188 17.953125 13.492188 17.878906 C 13.492188 17.8125 13.492188 17.8125 13.492188 17.746094 C 13.492188 17.699219 13.492188 17.648438 13.492188 17.601562 C 13.492188 17.546875 13.492188 17.496094 13.492188 17.445312 C 13.492188 17.269531 13.492188 17.097656 13.492188 16.925781 C 13.492188 16.800781 13.488281 16.675781 13.488281 16.550781 C 13.488281 16.179688 13.488281 15.808594 13.488281 15.433594 C 13.488281 15.332031 13.488281 15.226562 13.488281 15.121094 C 13.484375 14.46875 13.484375 13.816406 13.484375 13.164062 C 13.484375 13.011719 13.484375 12.859375 13.484375 12.707031 C 13.484375 12.671875 13.484375 12.632812 13.484375 12.59375 C 13.484375 11.984375 13.480469 11.378906 13.480469 10.769531 C 13.476562 10.144531 13.476562 9.519531 13.476562 8.894531 C 13.476562 8.542969 13.476562 8.191406 13.472656 7.839844 C 13.472656 7.542969 13.472656 7.242188 13.472656 6.945312 C 13.472656 6.792969 13.472656 6.636719 13.472656 6.484375 C 13.46875 6.320312 13.472656 6.15625 13.472656 5.992188 C 13.472656 5.941406 13.46875 5.894531 13.46875 5.84375 C 13.472656 5.621094 13.472656 5.519531 13.609375 5.335938 C 13.734375 5.25 13.734375 5.25 13.875 5.21875 Z M 13.875 5.21875 "/>
<path style=" stroke:none;fill-rule:nonzero;fill:rgb(29.019609%,73.725492%,88.627452%);fill-opacity:1;" d="M 3.136719 20.714844 C 3.402344 20.851562 3.597656 21.09375 3.71875 21.363281 C 3.8125 21.683594 3.78125 22.011719 3.632812 22.304688 C 3.464844 22.550781 3.25 22.734375 2.980469 22.851562 C 2.605469 22.902344 2.285156 22.925781 1.96875 22.6875 C 1.65625 22.398438 1.503906 22.160156 1.484375 21.734375 C 1.492188 21.417969 1.566406 21.21875 1.785156 20.992188 C 2.191406 20.613281 2.605469 20.511719 3.136719 20.714844 Z M 3.136719 20.714844 "/>
<path style=" stroke:none;fill-rule:nonzero;fill:rgb(98.039216%,62.7451%,17.647059%);fill-opacity:1;" d="M 9.554688 15.867188 C 9.816406 16.046875 10.03125 16.292969 10.125 16.59375 C 10.167969 16.933594 10.132812 17.242188 9.9375 17.53125 C 9.683594 17.8125 9.460938 17.972656 9.078125 18.011719 C 8.789062 18.027344 8.574219 17.984375 8.34375 17.8125 C 8.03125 17.523438 7.878906 17.285156 7.859375 16.859375 C 7.867188 16.542969 7.941406 16.34375 8.160156 16.117188 C 8.570312 15.734375 9.035156 15.605469 9.554688 15.867188 Z M 9.554688 15.867188 "/>
<path style=" stroke:none;fill-rule:nonzero;fill:rgb(98.039216%,62.7451%,17.647059%);fill-opacity:1;" d="M 9.554688 10.992188 C 9.816406 11.171875 10.03125 11.417969 10.125 11.71875 C 10.167969 12.058594 10.132812 12.367188 9.9375 12.65625 C 9.683594 12.9375 9.460938 13.097656 9.078125 13.136719 C 8.789062 13.152344 8.574219 13.109375 8.34375 12.9375 C 8.03125 12.648438 7.878906 12.410156 7.859375 11.984375 C 7.867188 11.667969 7.941406 11.46875 8.160156 11.242188 C 8.570312 10.859375 9.035156 10.730469 9.554688 10.992188 Z M 9.554688 10.992188 "/>
<path style=" stroke:none;fill-rule:nonzero;fill:rgb(98.039216%,62.7451%,17.647059%);fill-opacity:1;" d="M 9.554688 6.117188 C 9.816406 6.296875 10.03125 6.542969 10.125 6.84375 C 10.167969 7.183594 10.132812 7.492188 9.9375 7.78125 C 9.683594 8.0625 9.460938 8.222656 9.078125 8.261719 C 8.789062 8.277344 8.574219 8.234375 8.34375 8.0625 C 8.03125 7.773438 7.878906 7.535156 7.859375 7.109375 C 7.867188 6.792969 7.941406 6.59375 8.160156 6.367188 C 8.570312 5.984375 9.035156 5.855469 9.554688 6.117188 Z M 9.554688 6.117188 "/>
<path style=" stroke:none;fill-rule:nonzero;fill:rgb(29.019609%,73.725492%,88.627452%);fill-opacity:1;" d="M 3.136719 1.214844 C 3.402344 1.351562 3.597656 1.59375 3.71875 1.863281 C 3.8125 2.183594 3.78125 2.511719 3.632812 2.804688 C 3.464844 3.050781 3.25 3.234375 2.980469 3.351562 C 2.605469 3.402344 2.285156 3.425781 1.96875 3.1875 C 1.65625 2.898438 1.503906 2.660156 1.484375 2.234375 C 1.492188 1.917969 1.566406 1.71875 1.785156 1.492188 C 2.191406 1.113281 2.605469 1.011719 3.136719 1.214844 Z M 3.136719 1.214844 "/>
<path style=" stroke:none;fill-rule:nonzero;fill:rgb(29.019609%,73.725492%,88.627452%);fill-opacity:1;" d="M 3.097656 15.839844 C 3.402344 16.011719 3.652344 16.25 3.75 16.59375 C 3.796875 16.9375 3.757812 17.242188 3.5625 17.53125 C 3.308594 17.8125 3.085938 17.972656 2.703125 18.011719 C 2.414062 18.027344 2.199219 17.984375 1.96875 17.8125 C 1.65625 17.523438 1.503906 17.285156 1.484375 16.859375 C 1.492188 16.542969 1.566406 16.34375 1.785156 16.117188 C 2.171875 15.757812 2.589844 15.621094 3.097656 15.839844 Z M 3.097656 15.839844 "/>
<path style=" stroke:none;fill-rule:nonzero;fill:rgb(29.019609%,73.725492%,88.627452%);fill-opacity:1;" d="M 3.097656 10.964844 C 3.402344 11.136719 3.652344 11.375 3.75 11.71875 C 3.796875 12.0625 3.757812 12.367188 3.5625 12.65625 C 3.308594 12.9375 3.085938 13.097656 2.703125 13.136719 C 2.414062 13.152344 2.199219 13.109375 1.96875 12.9375 C 1.65625 12.648438 1.503906 12.410156 1.484375 11.984375 C 1.492188 11.667969 1.566406 11.46875 1.785156 11.242188 C 2.171875 10.882812 2.589844 10.746094 3.097656 10.964844 Z M 3.097656 10.964844 "/>
<path style=" stroke:none;fill-rule:nonzero;fill:rgb(29.019609%,73.725492%,88.627452%);fill-opacity:1;" d="M 3.097656 6.089844 C 3.402344 6.261719 3.652344 6.5 3.75 6.84375 C 3.796875 7.1875 3.757812 7.492188 3.5625 7.78125 C 3.308594 8.0625 3.085938 8.222656 2.703125 8.261719 C 2.414062 8.277344 2.199219 8.234375 1.96875 8.0625 C 1.65625 7.773438 1.503906 7.535156 1.484375 7.109375 C 1.492188 6.792969 1.566406 6.59375 1.785156 6.367188 C 2.171875 6.007812 2.589844 5.871094 3.097656 6.089844 Z M 3.097656 6.089844 "/>
<path style=" stroke:none;fill-rule:nonzero;fill:rgb(9.019608%,8.235294%,14.901961%);fill-opacity:1;" d="M 11.25 14.625 C 11.496094 14.625 11.746094 14.625 12 14.625 C 12 14.871094 12 15.121094 12 15.375 C 11.753906 15.375 11.503906 15.375 11.25 15.375 C 11.25 15.128906 11.25 14.878906 11.25 14.625 Z M 11.25 14.625 "/>
<path style=" stroke:none;fill-rule:nonzero;fill:rgb(9.019608%,8.235294%,14.901961%);fill-opacity:1;" d="M 11.25 13.125 C 11.496094 13.125 11.746094 13.125 12 13.125 C 12 13.371094 12 13.621094 12 13.875 C 11.753906 13.875 11.503906 13.875 11.25 13.875 C 11.25 13.628906 11.25 13.378906 11.25 13.125 Z M 11.25 13.125 "/>
<path style=" stroke:none;fill-rule:nonzero;fill:rgb(9.019608%,8.235294%,14.901961%);fill-opacity:1;" d="M 11.25 10.125 C 11.496094 10.125 11.746094 10.125 12 10.125 C 12 10.371094 12 10.621094 12 10.875 C 11.753906 10.875 11.503906 10.875 11.25 10.875 C 11.25 10.628906 11.25 10.378906 11.25 10.125 Z M 11.25 10.125 "/>
<path style=" stroke:none;fill-rule:nonzero;fill:rgb(9.019608%,8.235294%,14.901961%);fill-opacity:1;" d="M 11.25 8.625 C 11.496094 8.625 11.746094 8.625 12 8.625 C 12 8.871094 12 9.121094 12 9.375 C 11.753906 9.375 11.503906 9.375 11.25 9.375 C 11.25 9.128906 11.25 8.878906 11.25 8.625 Z M 11.25 8.625 "/>
<path style=" stroke:none;fill-rule:nonzero;fill:rgb(94.901961%,60.784316%,17.647059%);fill-opacity:1;" d="M 22.125 21.71875 C 22.316406 21.761719 22.386719 21.828125 22.5 21.984375 C 22.53125 22.125 22.53125 22.125 22.5 22.265625 C 22.386719 22.421875 22.316406 22.488281 22.125 22.53125 C 21.933594 22.488281 21.863281 22.421875 21.75 22.265625 C 21.71875 22.125 21.71875 22.125 21.75 21.984375 C 21.863281 21.828125 21.933594 21.761719 22.125 21.71875 Z M 22.125 21.71875 "/>
<path style=" stroke:none;fill-rule:nonzero;fill:rgb(94.901961%,60.784316%,17.647059%);fill-opacity:1;" d="M 22.125 18.34375 C 22.316406 18.386719 22.386719 18.453125 22.5 18.609375 C 22.53125 18.75 22.53125 18.75 22.5 18.890625 C 22.386719 19.046875 22.316406 19.113281 22.125 19.15625 C 21.933594 19.113281 21.863281 19.046875 21.75 18.890625 C 21.71875 18.75 21.71875 18.75 21.75 18.609375 C 21.863281 18.453125 21.933594 18.386719 22.125 18.34375 Z M 22.125 18.34375 "/>
<path style=" stroke:none;fill-rule:nonzero;fill:rgb(94.901961%,60.784316%,17.647059%);fill-opacity:1;" d="M 22.125 14.96875 C 22.316406 15.011719 22.386719 15.078125 22.5 15.234375 C 22.53125 15.375 22.53125 15.375 22.5 15.515625 C 22.386719 15.671875 22.316406 15.738281 22.125 15.78125 C 21.933594 15.738281 21.863281 15.671875 21.75 15.515625 C 21.71875 15.375 21.71875 15.375 21.75 15.234375 C 21.863281 15.078125 21.933594 15.011719 22.125 14.96875 Z M 22.125 14.96875 "/>
<path style=" stroke:none;fill-rule:nonzero;fill:rgb(94.901961%,60.784316%,17.647059%);fill-opacity:1;" d="M 22.125 11.59375 C 22.316406 11.636719 22.386719 11.703125 22.5 11.859375 C 22.53125 12 22.53125 12 22.5 12.140625 C 22.386719 12.296875 22.316406 12.363281 22.125 12.40625 C 21.933594 12.363281 21.863281 12.296875 21.75 12.140625 C 21.71875 12 21.71875 12 21.75 11.859375 C 21.863281 11.703125 21.933594 11.636719 22.125 11.59375 Z M 22.125 11.59375 "/>
<path style=" stroke:none;fill-rule:nonzero;fill:rgb(94.901961%,60.784316%,17.647059%);fill-opacity:1;" d="M 22.125 8.21875 C 22.316406 8.261719 22.386719 8.328125 22.5 8.484375 C 22.53125 8.625 22.53125 8.625 22.5 8.765625 C 22.386719 8.921875 22.316406 8.988281 22.125 9.03125 C 21.933594 8.988281 21.863281 8.921875 21.75 8.765625 C 21.71875 8.625 21.71875 8.625 21.75 8.484375 C 21.863281 8.328125 21.933594 8.261719 22.125 8.21875 Z M 22.125 8.21875 "/>
<path style=" stroke:none;fill-rule:nonzero;fill:rgb(94.901961%,60.784316%,17.647059%);fill-opacity:1;" d="M 22.125 4.84375 C 22.316406 4.886719 22.386719 4.953125 22.5 5.109375 C 22.53125 5.25 22.53125 5.25 22.5 5.390625 C 22.386719 5.546875 22.316406 5.613281 22.125 5.65625 C 21.933594 5.613281 21.863281 5.546875 21.75 5.390625 C 21.71875 5.25 21.71875 5.25 21.75 5.109375 C 21.863281 4.953125 21.933594 4.886719 22.125 4.84375 Z M 22.125 4.84375 "/>
<path style=" stroke:none;fill-rule:nonzero;fill:rgb(94.901961%,60.784316%,17.647059%);fill-opacity:1;" d="M 22.125 1.46875 C 22.316406 1.511719 22.386719 1.578125 22.5 1.734375 C 22.53125 1.875 22.53125 1.875 22.5 2.015625 C 22.386719 2.171875 22.316406 2.238281 22.125 2.28125 C 21.933594 2.238281 21.863281 2.171875 21.75 2.015625 C 21.71875 1.875 21.71875 1.875 21.75 1.734375 C 21.863281 1.578125 21.933594 1.511719 22.125 1.46875 Z M 22.125 1.46875 "/>
</g>
</svg>
