<?xml version="1.0" encoding="UTF-8"?>
<svg xmlns="http://www.w3.org/2000/svg" xmlns:xlink="http://www.w3.org/1999/xlink" width="24px" height="24px" viewBox="0 0 24 24" version="1.1">
<g id="surface1">
<path style=" stroke:none;fill-rule:nonzero;fill:rgb(33.333334%,37.64706%,50.196081%);fill-opacity:1;" d="M 10.035156 -0.0078125 C 10.101562 -0.0117188 10.167969 -0.0117188 10.230469 -0.0117188 C 10.441406 -0.0117188 10.652344 -0.0117188 10.859375 -0.0117188 C 10.894531 -0.0117188 10.933594 -0.0117188 10.96875 -0.0117188 C 12.050781 -0.0117188 13.125 0 14.203125 0.140625 C 14.234375 0.144531 14.265625 0.148438 14.300781 0.152344 C 16.40625 0.421875 19.082031 0.835938 20.671875 2.390625 C 20.671875 2.421875 20.671875 2.453125 20.671875 2.484375 C 20.703125 2.484375 20.734375 2.484375 20.765625 2.484375 C 20.839844 2.570312 20.839844 2.570312 20.925781 2.691406 C 20.953125 2.730469 20.984375 2.769531 21.011719 2.808594 C 21.207031 3.148438 21.253906 3.464844 21.25 3.851562 C 21.25 3.898438 21.25 3.941406 21.25 3.992188 C 21.246094 4.144531 21.246094 4.296875 21.246094 4.449219 C 21.242188 4.5625 21.242188 4.671875 21.242188 4.78125 C 21.242188 5.019531 21.238281 5.257812 21.238281 5.496094 C 21.234375 5.871094 21.234375 6.246094 21.234375 6.621094 C 21.234375 6.6875 21.234375 6.75 21.234375 6.8125 C 21.234375 6.910156 21.230469 7.007812 21.230469 7.105469 C 21.230469 7.472656 21.230469 7.835938 21.230469 8.203125 C 21.230469 8.234375 21.230469 8.269531 21.230469 8.304688 C 21.226562 8.84375 21.222656 9.386719 21.21875 9.925781 C 21.214844 10.484375 21.210938 11.039062 21.210938 11.597656 C 21.210938 11.910156 21.210938 12.222656 21.207031 12.53125 C 21.203125 12.828125 21.203125 13.121094 21.203125 13.414062 C 21.203125 13.519531 21.203125 13.628906 21.203125 13.738281 C 21.171875 14.335938 21.171875 14.335938 21.421875 14.855469 C 21.558594 14.976562 21.703125 15.078125 21.855469 15.175781 C 22.324219 15.511719 22.625 16.089844 22.875 16.59375 C 22.902344 16.648438 22.929688 16.703125 22.957031 16.757812 C 23.222656 17.332031 23.367188 17.976562 23.390625 18.609375 C 23.390625 18.648438 23.394531 18.6875 23.394531 18.726562 C 23.421875 19.714844 23.167969 20.613281 22.6875 21.46875 C 22.660156 21.515625 22.636719 21.5625 22.609375 21.609375 C 22.398438 21.964844 22.128906 22.253906 21.84375 22.546875 C 21.8125 22.578125 21.785156 22.609375 21.753906 22.644531 C 21.179688 23.25 20.386719 23.625 19.59375 23.859375 C 19.542969 23.875 19.488281 23.890625 19.433594 23.90625 C 18.140625 24.230469 16.753906 23.984375 15.597656 23.351562 C 15.277344 23.160156 14.910156 22.929688 14.6875 22.628906 C 14.511719 22.496094 14.347656 22.546875 14.140625 22.574219 C 14.046875 22.585938 13.953125 22.597656 13.855469 22.605469 C 13.78125 22.617188 13.78125 22.617188 13.703125 22.625 C 11.9375 22.8125 10.109375 22.816406 8.34375 22.640625 C 8.285156 22.636719 8.222656 22.628906 8.164062 22.625 C 5.835938 22.394531 2.765625 21.996094 1.078125 20.203125 C 0.6875 19.726562 0.582031 19.261719 0.585938 18.65625 C 0.585938 18.589844 0.585938 18.523438 0.585938 18.460938 C 0.582031 18.28125 0.585938 18.101562 0.585938 17.921875 C 0.585938 17.730469 0.585938 17.535156 0.585938 17.339844 C 0.582031 16.960938 0.582031 16.582031 0.585938 16.203125 C 0.585938 15.898438 0.585938 15.589844 0.585938 15.28125 C 0.585938 15.238281 0.585938 15.191406 0.585938 15.148438 C 0.585938 15.058594 0.585938 14.96875 0.585938 14.878906 C 0.582031 14.042969 0.585938 13.210938 0.585938 12.375 C 0.585938 11.65625 0.585938 10.941406 0.585938 10.222656 C 0.582031 9.390625 0.582031 8.558594 0.585938 7.726562 C 0.585938 7.636719 0.585938 7.546875 0.585938 7.460938 C 0.585938 7.417969 0.585938 7.371094 0.585938 7.328125 C 0.585938 7.019531 0.585938 6.710938 0.582031 6.40625 C 0.582031 6.03125 0.582031 5.65625 0.585938 5.28125 C 0.585938 5.089844 0.585938 4.898438 0.585938 4.707031 C 0.582031 4.53125 0.585938 4.355469 0.585938 4.179688 C 0.585938 4.089844 0.585938 3.996094 0.585938 3.902344 C 0.589844 3.242188 0.808594 2.808594 1.253906 2.339844 C 1.460938 2.140625 1.679688 1.980469 1.921875 1.828125 C 1.988281 1.785156 1.988281 1.785156 2.054688 1.742188 C 2.859375 1.25 3.78125 0.941406 4.6875 0.703125 C 4.730469 0.691406 4.773438 0.679688 4.816406 0.667969 C 6.507812 0.222656 8.285156 -0.00390625 10.035156 -0.0078125 Z M 10.035156 -0.0078125 "/>
<path style=" stroke:none;fill-rule:nonzero;fill:rgb(56.470591%,72.549021%,87.843138%);fill-opacity:1;" d="M 10.035156 -0.0078125 C 10.101562 -0.0117188 10.167969 -0.0117188 10.230469 -0.0117188 C 10.441406 -0.0117188 10.652344 -0.0117188 10.859375 -0.0117188 C 10.894531 -0.0117188 10.933594 -0.0117188 10.96875 -0.0117188 C 12.050781 -0.0117188 13.125 0 14.203125 0.140625 C 14.234375 0.144531 14.265625 0.148438 14.300781 0.152344 C 16.40625 0.421875 19.082031 0.835938 20.671875 2.390625 C 20.671875 2.421875 20.671875 2.453125 20.671875 2.484375 C 20.703125 2.484375 20.734375 2.484375 20.765625 2.484375 C 20.839844 2.570312 20.839844 2.570312 20.925781 2.691406 C 20.953125 2.730469 20.984375 2.769531 21.011719 2.808594 C 21.21875 3.175781 21.253906 3.515625 21.253906 3.929688 C 21.253906 3.984375 21.253906 4.039062 21.253906 4.09375 C 21.257812 4.273438 21.257812 4.449219 21.257812 4.625 C 21.257812 4.71875 21.257812 4.8125 21.257812 4.90625 C 21.257812 5.195312 21.257812 5.488281 21.257812 5.777344 C 21.257812 6.078125 21.257812 6.378906 21.261719 6.675781 C 21.261719 6.933594 21.261719 7.191406 21.261719 7.449219 C 21.261719 7.605469 21.261719 7.757812 21.261719 7.910156 C 21.265625 8.082031 21.265625 8.253906 21.261719 8.425781 C 21.265625 8.476562 21.265625 8.527344 21.265625 8.578125 C 21.257812 9.1875 20.992188 9.648438 20.578125 10.078125 C 19.976562 10.652344 19.1875 11.003906 18.421875 11.296875 C 18.386719 11.3125 18.351562 11.324219 18.3125 11.339844 C 16.050781 12.21875 13.464844 12.445312 11.054688 12.433594 C 10.964844 12.433594 10.964844 12.433594 10.875 12.433594 C 10.011719 12.429688 9.15625 12.417969 8.296875 12.328125 C 8.234375 12.320312 8.167969 12.316406 8.105469 12.308594 C 7.238281 12.222656 6.382812 12.101562 5.53125 11.90625 C 5.476562 11.894531 5.425781 11.882812 5.371094 11.871094 C 4.40625 11.648438 3.464844 11.371094 2.578125 10.921875 C 2.527344 10.894531 2.476562 10.871094 2.425781 10.84375 C 2.078125 10.664062 1.761719 10.457031 1.453125 10.21875 C 1.394531 10.171875 1.394531 10.171875 1.332031 10.125 C 1.046875 9.886719 0.847656 9.574219 0.703125 9.234375 C 0.679688 9.179688 0.679688 9.179688 0.65625 9.125 C 0.609375 8.996094 0.597656 8.902344 0.597656 8.761719 C 0.597656 8.71875 0.597656 8.671875 0.59375 8.621094 C 0.59375 8.570312 0.597656 8.523438 0.597656 8.46875 C 0.59375 8.414062 0.59375 8.363281 0.59375 8.308594 C 0.59375 8.128906 0.59375 7.953125 0.59375 7.773438 C 0.59375 7.652344 0.59375 7.527344 0.59375 7.40625 C 0.59375 7.144531 0.59375 6.886719 0.59375 6.628906 C 0.59375 6.328125 0.589844 6.03125 0.589844 5.730469 C 0.589844 5.445312 0.585938 5.15625 0.589844 4.867188 C 0.585938 4.746094 0.585938 4.625 0.585938 4.503906 C 0.585938 4.332031 0.585938 4.160156 0.585938 3.988281 C 0.585938 3.9375 0.585938 3.890625 0.585938 3.835938 C 0.589844 3.210938 0.832031 2.785156 1.253906 2.339844 C 1.460938 2.140625 1.679688 1.980469 1.921875 1.828125 C 1.988281 1.785156 1.988281 1.785156 2.054688 1.742188 C 2.859375 1.25 3.78125 0.941406 4.6875 0.703125 C 4.730469 0.691406 4.773438 0.679688 4.816406 0.667969 C 6.507812 0.222656 8.285156 -0.00390625 10.035156 -0.0078125 Z M 10.035156 -0.0078125 "/>
<path style=" stroke:none;fill-rule:nonzero;fill:rgb(52.156866%,58.823532%,79.215688%);fill-opacity:1;" d="M 21.1875 3.375 C 21.203125 3.375 21.21875 3.375 21.234375 3.375 C 21.238281 4.097656 21.242188 4.824219 21.246094 5.546875 C 21.246094 5.882812 21.25 6.21875 21.253906 6.554688 C 21.253906 6.847656 21.257812 7.140625 21.257812 7.433594 C 21.257812 7.589844 21.257812 7.742188 21.257812 7.898438 C 21.261719 8.074219 21.261719 8.246094 21.261719 8.417969 C 21.261719 8.46875 21.261719 8.519531 21.261719 8.574219 C 21.257812 9.183594 20.996094 9.644531 20.578125 10.078125 C 19.976562 10.652344 19.1875 11.003906 18.421875 11.296875 C 18.386719 11.3125 18.351562 11.324219 18.3125 11.339844 C 16.050781 12.21875 13.464844 12.445312 11.054688 12.433594 C 10.996094 12.433594 10.9375 12.433594 10.875 12.433594 C 10.011719 12.429688 9.15625 12.417969 8.296875 12.328125 C 8.234375 12.320312 8.167969 12.316406 8.105469 12.308594 C 7.238281 12.222656 6.382812 12.101562 5.53125 11.90625 C 5.476562 11.894531 5.425781 11.882812 5.371094 11.871094 C 4.40625 11.648438 3.464844 11.371094 2.578125 10.921875 C 2.527344 10.894531 2.476562 10.871094 2.425781 10.84375 C 2.078125 10.664062 1.761719 10.457031 1.453125 10.21875 C 1.394531 10.171875 1.394531 10.171875 1.332031 10.125 C 1.046875 9.886719 0.847656 9.574219 0.703125 9.234375 C 0.679688 9.179688 0.679688 9.179688 0.65625 9.125 C 0.609375 8.996094 0.597656 8.898438 0.597656 8.761719 C 0.597656 8.710938 0.597656 8.664062 0.597656 8.617188 C 0.597656 8.566406 0.597656 8.515625 0.597656 8.460938 C 0.597656 8.40625 0.597656 8.351562 0.597656 8.296875 C 0.597656 8.117188 0.597656 7.9375 0.601562 7.757812 C 0.601562 7.632812 0.601562 7.507812 0.601562 7.382812 C 0.601562 7.089844 0.601562 6.792969 0.601562 6.5 C 0.605469 6.164062 0.605469 5.828125 0.605469 5.492188 C 0.605469 4.800781 0.605469 4.113281 0.609375 3.421875 C 0.625 3.421875 0.640625 3.421875 0.65625 3.421875 C 0.660156 3.460938 0.664062 3.5 0.667969 3.539062 C 0.761719 4.265625 1.085938 4.722656 1.652344 5.175781 C 3.542969 6.53125 6.078125 6.898438 8.34375 7.125 C 8.398438 7.128906 8.453125 7.136719 8.511719 7.140625 C 12.191406 7.496094 17.253906 7.386719 20.34375 5.0625 C 20.375 5.039062 20.410156 5.015625 20.441406 4.988281 C 20.816406 4.695312 21.101562 4.265625 21.160156 3.789062 C 21.171875 3.652344 21.179688 3.511719 21.1875 3.375 Z M 21.1875 3.375 "/>
<path style=" stroke:none;fill-rule:nonzero;fill:rgb(14.901961%,72.156864%,60.000002%);fill-opacity:1;" d="M 21.09375 14.578125 C 21.128906 14.597656 21.164062 14.621094 21.199219 14.640625 C 22.316406 15.34375 22.972656 16.503906 23.28125 17.757812 C 23.566406 19.046875 23.324219 20.332031 22.6875 21.46875 C 22.660156 21.515625 22.636719 21.5625 22.609375 21.609375 C 22.398438 21.964844 22.128906 22.253906 21.84375 22.546875 C 21.8125 22.578125 21.785156 22.609375 21.753906 22.644531 C 21.179688 23.25 20.386719 23.625 19.59375 23.859375 C 19.542969 23.875 19.488281 23.890625 19.433594 23.90625 C 18.140625 24.230469 16.753906 23.984375 15.597656 23.351562 C 15.472656 23.277344 15.351562 23.195312 15.234375 23.109375 C 15.175781 23.070312 15.175781 23.070312 15.117188 23.027344 C 14.167969 22.308594 13.515625 21.257812 13.21875 20.109375 C 13.203125 20.058594 13.191406 20.007812 13.175781 19.953125 C 12.859375 18.644531 13.136719 17.277344 13.824219 16.136719 C 13.96875 15.914062 14.125 15.714844 14.296875 15.515625 C 14.339844 15.464844 14.339844 15.464844 14.378906 15.410156 C 16.011719 13.449219 19.027344 13.21875 21.09375 14.578125 Z M 21.09375 14.578125 "/>
<path style=" stroke:none;fill-rule:nonzero;fill:rgb(21.960784%,27.058825%,30.980393%);fill-opacity:1;" d="M 0.609375 14.015625 C 0.675781 14.144531 0.722656 14.261719 0.757812 14.398438 C 0.84375 14.660156 0.992188 14.84375 1.171875 15.046875 C 1.195312 15.074219 1.21875 15.101562 1.242188 15.128906 C 1.960938 15.921875 3.132812 16.332031 4.125 16.640625 C 4.191406 16.660156 4.191406 16.660156 4.257812 16.683594 C 5.273438 16.996094 6.335938 17.230469 7.394531 17.324219 C 7.570312 17.339844 7.738281 17.363281 7.910156 17.390625 C 8.890625 17.53125 9.875 17.539062 10.863281 17.539062 C 10.941406 17.539062 10.941406 17.539062 11.019531 17.539062 C 11.769531 17.539062 12.515625 17.519531 13.265625 17.484375 C 13.253906 17.535156 13.242188 17.582031 13.234375 17.632812 C 12.933594 19.054688 13.183594 20.429688 13.929688 21.667969 C 14.070312 21.878906 14.226562 22.070312 14.390625 22.265625 C 14.453125 22.34375 14.515625 22.421875 14.578125 22.5 C 14.226562 22.570312 13.875 22.609375 13.519531 22.644531 C 13.480469 22.648438 13.441406 22.652344 13.402344 22.65625 C 12.585938 22.726562 11.773438 22.742188 10.953125 22.742188 C 10.902344 22.742188 10.851562 22.742188 10.796875 22.742188 C 9.976562 22.742188 9.164062 22.722656 8.34375 22.640625 C 8.285156 22.636719 8.222656 22.628906 8.164062 22.625 C 5.835938 22.394531 2.765625 21.996094 1.078125 20.203125 C 0.726562 19.769531 0.582031 19.328125 0.589844 18.773438 C 0.589844 18.722656 0.589844 18.667969 0.589844 18.617188 C 0.589844 18.445312 0.589844 18.277344 0.589844 18.109375 C 0.589844 17.988281 0.589844 17.871094 0.59375 17.753906 C 0.59375 17.476562 0.59375 17.199219 0.597656 16.917969 C 0.597656 16.601562 0.597656 16.285156 0.601562 15.96875 C 0.601562 15.316406 0.605469 14.667969 0.609375 14.015625 Z M 0.609375 14.015625 "/>
<path style=" stroke:none;fill-rule:nonzero;fill:rgb(98.823529%,99.607843%,99.215686%);fill-opacity:1;" d="M 20.859375 16.296875 C 21.019531 16.324219 21.085938 16.375 21.1875 16.5 C 21.214844 16.785156 21.183594 16.925781 21.015625 17.167969 C 21 17.195312 20.980469 17.222656 20.960938 17.25 C 20.898438 17.34375 20.832031 17.4375 20.765625 17.53125 C 20.714844 17.601562 20.667969 17.671875 20.617188 17.746094 C 20.507812 17.902344 20.398438 18.058594 20.289062 18.214844 C 20.105469 18.476562 19.921875 18.738281 19.742188 19 C 19.710938 19.042969 19.679688 19.085938 19.648438 19.132812 C 19.480469 19.371094 19.316406 19.609375 19.152344 19.84375 C 19.121094 19.894531 19.085938 19.941406 19.050781 19.992188 C 18.988281 20.085938 18.921875 20.179688 18.859375 20.273438 C 18.441406 20.871094 18.441406 20.871094 18.28125 20.953125 C 18.117188 20.980469 18 20.980469 17.855469 20.894531 C 17.746094 20.808594 17.636719 20.71875 17.53125 20.625 C 17.453125 20.5625 17.375 20.496094 17.296875 20.433594 C 17.136719 20.304688 16.980469 20.175781 16.820312 20.042969 C 16.769531 20 16.769531 20 16.71875 19.957031 C 16.648438 19.902344 16.578125 19.84375 16.511719 19.785156 C 16.363281 19.664062 16.21875 19.542969 16.066406 19.429688 C 16.023438 19.394531 15.984375 19.363281 15.941406 19.328125 C 15.90625 19.304688 15.871094 19.277344 15.832031 19.25 C 15.703125 19.128906 15.660156 19.023438 15.640625 18.847656 C 15.660156 18.667969 15.71875 18.597656 15.84375 18.46875 C 15.980469 18.402344 16.066406 18.40625 16.21875 18.421875 C 16.332031 18.492188 16.425781 18.5625 16.527344 18.648438 C 16.554688 18.671875 16.582031 18.695312 16.613281 18.71875 C 16.699219 18.789062 16.789062 18.863281 16.875 18.9375 C 16.929688 18.980469 16.980469 19.027344 17.035156 19.070312 C 17.136719 19.15625 17.238281 19.242188 17.335938 19.328125 C 17.554688 19.515625 17.777344 19.695312 18 19.875 C 18.382812 19.402344 18.730469 18.898438 19.074219 18.394531 C 19.367188 17.964844 19.667969 17.535156 19.96875 17.109375 C 20.003906 17.058594 20.003906 17.058594 20.039062 17.007812 C 20.105469 16.914062 20.171875 16.824219 20.234375 16.730469 C 20.253906 16.703125 20.273438 16.679688 20.292969 16.652344 C 20.554688 16.28125 20.554688 16.28125 20.859375 16.296875 Z M 20.859375 16.296875 "/>
<path style=" stroke:none;fill-rule:nonzero;fill:rgb(23.529412%,30.19608%,34.509805%);fill-opacity:1;" d="M 21.1875 14.15625 C 21.203125 14.15625 21.21875 14.15625 21.234375 14.15625 C 21.234375 14.328125 21.234375 14.496094 21.234375 14.671875 C 21.171875 14.640625 21.109375 14.609375 21.046875 14.578125 C 21.09375 14.4375 21.140625 14.300781 21.1875 14.15625 Z M 21.1875 14.15625 "/>
</g>
</svg>
